<?xml version='1.0' encoding='utf-8'?>
<svg xmlns:xlink="http://www.w3.org/1999/xlink" xmlns="http://www.w3.org/2000/svg" id="chart-3615c3c9-9d6f-440c-992c-9c9e9a17d7ea" class="pygal-chart" viewBox="0 0 800 600"><!--Generated with pygal 2.3.1 (lxml) ©Kozea 2012-2016 on 2017-03-14--><!--http://pygal.org--><!--http://github.com/Kozea/pygal--><defs><style type="text/css">#chart-3615c3c9-9d6f-440c-992c-9c9e9a17d7ea{-webkit-user-select:none;-webkit-font-smoothing:antialiased;font-family:Consolas,"Liberation Mono",Menlo,Courier,monospace}#chart-3615c3c9-9d6f-440c-992c-9c9e9a17d7ea .title{font-family:Consolas,"Liberation Mono",Menlo,Courier,monospace;font-size:16px}#chart-3615c3c9-9d6f-440c-992c-9c9e9a17d7ea .legends .legend text{font-family:Consolas,"Liberation Mono",Menlo,Courier,monospace;font-size:14px}#chart-3615c3c9-9d6f-440c-992c-9c9e9a17d7ea .axis text{font-family:Consolas,"Liberation Mono",Menlo,Courier,monospace;font-size:10px}#chart-3615c3c9-9d6f-440c-992c-9c9e9a17d7ea .axis text.major{font-family:Consolas,"Liberation Mono",Menlo,Courier,monospace;font-size:10px}#chart-3615c3c9-9d6f-440c-992c-9c9e9a17d7ea .text-overlay text.value{font-family:Consolas,"Liberation Mono",Menlo,Courier,monospace;font-size:16px}#chart-3615c3c9-9d6f-440c-992c-9c9e9a17d7ea .text-overlay text.label{font-family:Consolas,"Liberation Mono",Menlo,Courier,monospace;font-size:10px}#chart-3615c3c9-9d6f-440c-992c-9c9e9a17d7ea .tooltip{font-family:Consolas,"Liberation Mono",Menlo,Courier,monospace;font-size:14px}#chart-3615c3c9-9d6f-440c-992c-9c9e9a17d7ea text.no_data{font-family:Consolas,"Liberation Mono",Menlo,Courier,monospace;font-size:64px}
#chart-3615c3c9-9d6f-440c-992c-9c9e9a17d7ea{background-color:rgba(249,249,249,1)}#chart-3615c3c9-9d6f-440c-992c-9c9e9a17d7ea path,#chart-3615c3c9-9d6f-440c-992c-9c9e9a17d7ea line,#chart-3615c3c9-9d6f-440c-992c-9c9e9a17d7ea rect,#chart-3615c3c9-9d6f-440c-992c-9c9e9a17d7ea circle{-webkit-transition:150ms;-moz-transition:150ms;transition:150ms}#chart-3615c3c9-9d6f-440c-992c-9c9e9a17d7ea .graph &gt; .background{fill:rgba(249,249,249,1)}#chart-3615c3c9-9d6f-440c-992c-9c9e9a17d7ea .plot &gt; .background{fill:rgba(255,255,255,1)}#chart-3615c3c9-9d6f-440c-992c-9c9e9a17d7ea .graph{fill:rgba(0,0,0,.87)}#chart-3615c3c9-9d6f-440c-992c-9c9e9a17d7ea text.no_data{fill:rgba(0,0,0,1)}#chart-3615c3c9-9d6f-440c-992c-9c9e9a17d7ea .title{fill:rgba(0,0,0,1)}#chart-3615c3c9-9d6f-440c-992c-9c9e9a17d7ea .legends .legend text{fill:rgba(0,0,0,.87)}#chart-3615c3c9-9d6f-440c-992c-9c9e9a17d7ea .legends .legend:hover text{fill:rgba(0,0,0,1)}#chart-3615c3c9-9d6f-440c-992c-9c9e9a17d7ea .axis .line{stroke:rgba(0,0,0,1)}#chart-3615c3c9-9d6f-440c-992c-9c9e9a17d7ea .axis .guide.line{stroke:rgba(0,0,0,.54)}#chart-3615c3c9-9d6f-440c-992c-9c9e9a17d7ea .axis .major.line{stroke:rgba(0,0,0,.87)}#chart-3615c3c9-9d6f-440c-992c-9c9e9a17d7ea .axis text.major{fill:rgba(0,0,0,1)}#chart-3615c3c9-9d6f-440c-992c-9c9e9a17d7ea .axis.y .guides:hover .guide.line,#chart-3615c3c9-9d6f-440c-992c-9c9e9a17d7ea .line-graph .axis.x .guides:hover .guide.line,#chart-3615c3c9-9d6f-440c-992c-9c9e9a17d7ea .stackedline-graph .axis.x .guides:hover .guide.line,#chart-3615c3c9-9d6f-440c-992c-9c9e9a17d7ea .xy-graph .axis.x .guides:hover .guide.line{stroke:rgba(0,0,0,1)}#chart-3615c3c9-9d6f-440c-992c-9c9e9a17d7ea .axis .guides:hover text{fill:rgba(0,0,0,1)}#chart-3615c3c9-9d6f-440c-992c-9c9e9a17d7ea .reactive{fill-opacity:.7;stroke-opacity:.8}#chart-3615c3c9-9d6f-440c-992c-9c9e9a17d7ea .ci{stroke:rgba(0,0,0,.87)}#chart-3615c3c9-9d6f-440c-992c-9c9e9a17d7ea .reactive.active,#chart-3615c3c9-9d6f-440c-992c-9c9e9a17d7ea .active .reactive{fill-opacity:.8;stroke-opacity:.9;stroke-width:4}#chart-3615c3c9-9d6f-440c-992c-9c9e9a17d7ea .ci .reactive.active{stroke-width:1.5}#chart-3615c3c9-9d6f-440c-992c-9c9e9a17d7ea .series text{fill:rgba(0,0,0,1)}#chart-3615c3c9-9d6f-440c-992c-9c9e9a17d7ea .tooltip rect{fill:rgba(255,255,255,1);stroke:rgba(0,0,0,1);-webkit-transition:opacity 150ms;-moz-transition:opacity 150ms;transition:opacity 150ms}#chart-3615c3c9-9d6f-440c-992c-9c9e9a17d7ea .tooltip .label{fill:rgba(0,0,0,.87)}#chart-3615c3c9-9d6f-440c-992c-9c9e9a17d7ea .tooltip .label{fill:rgba(0,0,0,.87)}#chart-3615c3c9-9d6f-440c-992c-9c9e9a17d7ea .tooltip .legend{font-size:.8em;fill:rgba(0,0,0,.54)}#chart-3615c3c9-9d6f-440c-992c-9c9e9a17d7ea .tooltip .x_label{font-size:.6em;fill:rgba(0,0,0,1)}#chart-3615c3c9-9d6f-440c-992c-9c9e9a17d7ea .tooltip .xlink{font-size:.5em;text-decoration:underline}#chart-3615c3c9-9d6f-440c-992c-9c9e9a17d7ea .tooltip .value{font-size:1.5em}#chart-3615c3c9-9d6f-440c-992c-9c9e9a17d7ea .bound{font-size:.5em}#chart-3615c3c9-9d6f-440c-992c-9c9e9a17d7ea .max-value{font-size:.75em;fill:rgba(0,0,0,.54)}#chart-3615c3c9-9d6f-440c-992c-9c9e9a17d7ea .map-element{fill:rgba(255,255,255,1);stroke:rgba(0,0,0,.54) !important}#chart-3615c3c9-9d6f-440c-992c-9c9e9a17d7ea .map-element .reactive{fill-opacity:inherit;stroke-opacity:inherit}#chart-3615c3c9-9d6f-440c-992c-9c9e9a17d7ea .color-0,#chart-3615c3c9-9d6f-440c-992c-9c9e9a17d7ea .color-0 a:visited{stroke:#F44336;fill:#F44336}#chart-3615c3c9-9d6f-440c-992c-9c9e9a17d7ea .color-1,#chart-3615c3c9-9d6f-440c-992c-9c9e9a17d7ea .color-1 a:visited{stroke:#3F51B5;fill:#3F51B5}#chart-3615c3c9-9d6f-440c-992c-9c9e9a17d7ea .color-2,#chart-3615c3c9-9d6f-440c-992c-9c9e9a17d7ea .color-2 a:visited{stroke:#009688;fill:#009688}#chart-3615c3c9-9d6f-440c-992c-9c9e9a17d7ea .color-3,#chart-3615c3c9-9d6f-440c-992c-9c9e9a17d7ea .color-3 a:visited{stroke:#FFC107;fill:#FFC107}#chart-3615c3c9-9d6f-440c-992c-9c9e9a17d7ea .text-overlay .color-0 text{fill:black}#chart-3615c3c9-9d6f-440c-992c-9c9e9a17d7ea .text-overlay .color-1 text{fill:black}#chart-3615c3c9-9d6f-440c-992c-9c9e9a17d7ea .text-overlay .color-2 text{fill:black}#chart-3615c3c9-9d6f-440c-992c-9c9e9a17d7ea .text-overlay .color-3 text{fill:black}
#chart-3615c3c9-9d6f-440c-992c-9c9e9a17d7ea text.no_data{text-anchor:middle}#chart-3615c3c9-9d6f-440c-992c-9c9e9a17d7ea .guide.line{fill:none}#chart-3615c3c9-9d6f-440c-992c-9c9e9a17d7ea .centered{text-anchor:middle}#chart-3615c3c9-9d6f-440c-992c-9c9e9a17d7ea .title{text-anchor:middle}#chart-3615c3c9-9d6f-440c-992c-9c9e9a17d7ea .legends .legend text{fill-opacity:1}#chart-3615c3c9-9d6f-440c-992c-9c9e9a17d7ea .axis.x text{text-anchor:middle}#chart-3615c3c9-9d6f-440c-992c-9c9e9a17d7ea .axis.x:not(.web) text[transform]{text-anchor:start}#chart-3615c3c9-9d6f-440c-992c-9c9e9a17d7ea .axis.x:not(.web) text[transform].backwards{text-anchor:end}#chart-3615c3c9-9d6f-440c-992c-9c9e9a17d7ea .axis.y text{text-anchor:end}#chart-3615c3c9-9d6f-440c-992c-9c9e9a17d7ea .axis.y text[transform].backwards{text-anchor:start}#chart-3615c3c9-9d6f-440c-992c-9c9e9a17d7ea .axis.y2 text{text-anchor:start}#chart-3615c3c9-9d6f-440c-992c-9c9e9a17d7ea .axis.y2 text[transform].backwards{text-anchor:end}#chart-3615c3c9-9d6f-440c-992c-9c9e9a17d7ea .axis .guide.line{stroke-dasharray:4,4}#chart-3615c3c9-9d6f-440c-992c-9c9e9a17d7ea .axis .major.guide.line{stroke-dasharray:6,6}#chart-3615c3c9-9d6f-440c-992c-9c9e9a17d7ea .horizontal .axis.y .guide.line,#chart-3615c3c9-9d6f-440c-992c-9c9e9a17d7ea .horizontal .axis.y2 .guide.line,#chart-3615c3c9-9d6f-440c-992c-9c9e9a17d7ea .vertical .axis.x .guide.line{opacity:0}#chart-3615c3c9-9d6f-440c-992c-9c9e9a17d7ea .horizontal .axis.always_show .guide.line,#chart-3615c3c9-9d6f-440c-992c-9c9e9a17d7ea .vertical .axis.always_show .guide.line{opacity:1 !important}#chart-3615c3c9-9d6f-440c-992c-9c9e9a17d7ea .axis.y .guides:hover .guide.line,#chart-3615c3c9-9d6f-440c-992c-9c9e9a17d7ea .axis.y2 .guides:hover .guide.line,#chart-3615c3c9-9d6f-440c-992c-9c9e9a17d7ea .axis.x .guides:hover .guide.line{opacity:1}#chart-3615c3c9-9d6f-440c-992c-9c9e9a17d7ea .axis .guides:hover text{opacity:1}#chart-3615c3c9-9d6f-440c-992c-9c9e9a17d7ea .nofill{fill:none}#chart-3615c3c9-9d6f-440c-992c-9c9e9a17d7ea .subtle-fill{fill-opacity:.2}#chart-3615c3c9-9d6f-440c-992c-9c9e9a17d7ea .dot{stroke-width:1px;fill-opacity:1}#chart-3615c3c9-9d6f-440c-992c-9c9e9a17d7ea .dot.active{stroke-width:5px}#chart-3615c3c9-9d6f-440c-992c-9c9e9a17d7ea .dot.negative{fill:transparent}#chart-3615c3c9-9d6f-440c-992c-9c9e9a17d7ea text,#chart-3615c3c9-9d6f-440c-992c-9c9e9a17d7ea tspan{stroke:none !important}#chart-3615c3c9-9d6f-440c-992c-9c9e9a17d7ea .series text.active{opacity:1}#chart-3615c3c9-9d6f-440c-992c-9c9e9a17d7ea .tooltip rect{fill-opacity:.95;stroke-width:.5}#chart-3615c3c9-9d6f-440c-992c-9c9e9a17d7ea .tooltip text{fill-opacity:1}#chart-3615c3c9-9d6f-440c-992c-9c9e9a17d7ea .showable{visibility:hidden}#chart-3615c3c9-9d6f-440c-992c-9c9e9a17d7ea .showable.shown{visibility:visible}#chart-3615c3c9-9d6f-440c-992c-9c9e9a17d7ea .gauge-background{fill:rgba(229,229,229,1);stroke:none}#chart-3615c3c9-9d6f-440c-992c-9c9e9a17d7ea .bg-lines{stroke:rgba(249,249,249,1);stroke-width:2px}</style><script type="text/javascript">window.pygal = window.pygal || {};window.pygal.config = window.pygal.config || {};window.pygal.config['3615c3c9-9d6f-440c-992c-9c9e9a17d7ea'] = {"margin_top": null, "logarithmic": false, "show_minor_y_labels": true, "y_labels": null, "show_y_guides": true, "interpolate": null, "print_values_position": "center", "y_label_rotation": 0, "no_prefix": false, "x_labels_major_count": null, "title": "Cumulative Distribution function", "spacing": 10, "show_dots": false, "css": ["file://style.css", "file://graph.css"], "secondary_range": null, "print_values": false, "missing_value_fill_truncation": "x", "legend_at_bottom_columns": null, "margin_left": null, "include_x_axis": false, "interpolation_parameters": {}, "show_only_major_dots": false, "print_labels": false, "zero": 0, "stroke_style": null, "inverse_y_axis": false, "strict": false, "dynamic_print_values": false, "pretty_print": false, "x_labels_major_every": null, "x_labels_major": null, "margin": 20, "show_legend": true, "rounded_bars": null, "margin_bottom": null, "force_uri_protocol": "https", "max_scale": 16, "height": 600, "show_x_labels": true, "half_pie": false, "box_mode": "extremes", "legends": ["Old 40", "New 40", "Fit Old 40", "Fit New 40"], "show_x_guides": false, "style": {"label_font_size": 10, "value_label_font_size": 10, "colors": ["#F44336", "#3F51B5", "#009688", "#FFC107", "#FF5722", "#9C27B0", "#03A9F4", "#8BC34A", "#FF9800", "#E91E63", "#2196F3", "#4CAF50", "#FFEB3B", "#673AB7", "#00BCD4", "#CDDC39", "#9E9E9E", "#607D8B"], "opacity_hover": ".8", "stroke_opacity": ".8", "plot_background": "rgba(255, 255, 255, 1)", "foreground_subtle": "rgba(0, 0, 0, .54)", "font_family": "Consolas, \"Liberation Mono\", Menlo, Courier, monospace", "major_guide_stroke_dasharray": "6,6", "value_font_family": "Consolas, \"Liberation Mono\", Menlo, Courier, monospace", "guide_stroke_dasharray": "4,4", "tooltip_font_family": "Consolas, \"Liberation Mono\", Menlo, Courier, monospace", "foreground_strong": "rgba(0, 0, 0, 1)", "background": "rgba(249, 249, 249, 1)", "transition": "150ms", "opacity": ".7", "value_colors": [], "no_data_font_size": 64, "stroke_opacity_hover": ".9", "foreground": "rgba(0, 0, 0, .87)", "legend_font_size": 14, "value_label_font_family": "Consolas, \"Liberation Mono\", Menlo, Courier, monospace", "value_background": "rgba(229, 229, 229, 1)", "major_label_font_size": 10, "legend_font_family": "Consolas, \"Liberation Mono\", Menlo, Courier, monospace", "label_font_family": "Consolas, \"Liberation Mono\", Menlo, Courier, monospace", "title_font_family": "Consolas, \"Liberation Mono\", Menlo, Courier, monospace", "tooltip_font_size": 14, "no_data_font_family": "Consolas, \"Liberation Mono\", Menlo, Courier, monospace", "value_font_size": 16, "title_font_size": 16, "major_label_font_family": "Consolas, \"Liberation Mono\", Menlo, Courier, monospace", "ci_colors": []}, "truncate_label": null, "x_labels": null, "margin_right": null, "show_y_labels": true, "fill": false, "stroke": true, "show_minor_x_labels": true, "y_labels_major_every": null, "y_labels_major": null, "y_labels_major_count": null, "explicit_size": false, "inner_radius": 0, "tooltip_fancy_mode": true, "order_min": null, "no_data_text": "No data", "classes": ["pygal-chart"], "defs": [], "legend_box_size": 12, "print_zeroes": true, "x_label_rotation": 15, "js": ["//kozea.github.io/pygal.js/2.0.x/pygal-tooltips.min.js"], "allow_interruptions": false, "disable_xml_declaration": false, "formatter": null, "range": null, "legend_at_bottom": false, "xrange": null, "y_title": "Percentage of data", "stack_from_top": false, "tooltip_border_radius": 0, "dots_size": 2.5, "interpolation_precision": 250, "x_title": "Throughput", "min_scale": 4, "truncate_legend": null, "width": 800}</script><script type="text/javascript" xlink:href="https://kozea.github.io/pygal.js/2.0.x/pygal-tooltips.min.js"/></defs><title>Cumulative Distribution function</title><g class="graph xy-graph vertical"><rect class="background" height="600" width="800" x="0" y="0"/><g class="plot" transform="translate(180, 46)"><rect class="background" height="484.0237715644639" width="567.8400053803903" x="0" y="0"/><g class="axis y"><g class="guides"><path class="axis major line" d="M0.000000 474.715622 h567.840005"/><text class="major" x="-5" y="478.215622111">0</text><title>0</title></g><g class="guides"><path class="guide line" d="M0.000000 428.174875 h567.840005"/><text class="" x="-5" y="431.674874845">10</text><title>10</title></g><g class="guides"><path class="guide line" d="M0.000000 381.634128 h567.840005"/><text class="" x="-5" y="385.13412758">20</text><title>20</title></g><g class="guides"><path class="guide line" d="M0.000000 335.093380 h567.840005"/><text class="" x="-5" y="338.593380314">30</text><title>30</title></g><g class="guides"><path class="guide line" d="M0.000000 288.552633 h567.840005"/><text class="" x="-5" y="292.052633048">40</text><title>40</title></g><g class="guides"><path class="major guide line" d="M0.000000 242.011886 h567.840005"/><text class="major" x="-5" y="245.511885782">50</text><title>50</title></g><g class="guides"><path class="guide line" d="M0.000000 195.471139 h567.840005"/><text class="" x="-5" y="198.971138516">60</text><title>60</title></g><g class="guides"><path class="guide line" d="M0.000000 148.930391 h567.840005"/><text class="" x="-5" y="152.430391251">70</text><title>70</title></g><g class="guides"><path class="guide line" d="M0.000000 102.389644 h567.840005"/><text class="" x="-5" y="105.889643985">80</text><title>80</title></g><g class="guides"><path class="guide line" d="M0.000000 55.848897 h567.840005"/><text class="" x="-5" y="59.348896719">90</text><title>90</title></g><g class="guides"><path class="major guide line" d="M0.000000 9.308149 h567.840005"/><text class="major" x="-5" y="12.8081494532">100</text><title>100</title></g></g><g class="axis x"><path class="line" d="M0.000000 0.000000 v484.023772"/><g class="guides"><path class="guide line" d="M14.715679 0.000000 v484.023772"/><text class="" x="14.7156789695" y="499.0237715644639" transform="rotate(15 14.715679 499.023772)">10000000</text><title>10000000</title></g><g class="guides"><path class="guide line" d="M72.768377 0.000000 v484.023772"/><text class="" x="72.7683766813" y="499.0237715644639" transform="rotate(15 72.768377 499.023772)">20000000</text><title>20000000</title></g><g class="guides"><path class="guide line" d="M130.821074 0.000000 v484.023772"/><text class="" x="130.821074393" y="499.0237715644639" transform="rotate(15 130.821074 499.023772)">30000000</text><title>30000000</title></g><g class="guides"><path class="guide line" d="M188.873772 0.000000 v484.023772"/><text class="" x="188.873772105" y="499.0237715644639" transform="rotate(15 188.873772 499.023772)">40000000</text><title>40000000</title></g><g class="guides"><path class="guide line" d="M246.926470 0.000000 v484.023772"/><text class="" x="246.926469817" y="499.0237715644639" transform="rotate(15 246.926470 499.023772)">50000000</text><title>50000000</title></g><g class="guides"><path class="guide line" d="M304.979168 0.000000 v484.023772"/><text class="" x="304.979167528" y="499.0237715644639" transform="rotate(15 304.979168 499.023772)">60000000</text><title>60000000</title></g><g class="guides"><path class="guide line" d="M363.031865 0.000000 v484.023772"/><text class="" x="363.03186524" y="499.0237715644639" transform="rotate(15 363.031865 499.023772)">70000000</text><title>70000000</title></g><g class="guides"><path class="guide line" d="M421.084563 0.000000 v484.023772"/><text class="" x="421.084562952" y="499.0237715644639" transform="rotate(15 421.084563 499.023772)">80000000</text><title>80000000</title></g><g class="guides"><path class="guide line" d="M479.137261 0.000000 v484.023772"/><text class="" x="479.137260664" y="499.0237715644639" transform="rotate(15 479.137261 499.023772)">90000000</text><title>90000000</title></g><g class="guides"><path class="guide line" d="M537.189958 0.000000 v484.023772"/><text class="" x="537.189958375" y="499.0237715644639" transform="rotate(15 537.189958 499.023772)">100000000</text><title>100000000</title></g></g><g class="series serie-0 color-0"><path class="line reactive nofill" d="M26.724764 474.715622 L28.345778 462.782097 30.972270 450.848572 35.487103 438.915047 36.026395 426.981522 36.999146 415.047997 39.158173 403.114472 39.513403 391.180948 45.250707 379.247423 45.435084 367.313898 45.771983 355.380373 46.580040 343.446848 46.661937 331.513323 49.120241 319.579798 49.596113 307.646273 51.387361 295.712748 53.153640 283.779223 54.263038 271.845698 54.320666 259.912173 61.415774 247.978648 300.663398 236.045123 313.371284 224.111598 345.785362 212.178073 388.053606 200.244548 390.540149 188.311024 390.646902 176.377499 396.851161 164.443974 397.015408 152.510449 398.684736 140.576924 401.329400 128.643399 401.449685 116.709874 404.686228 104.776349 405.173807 92.842824 407.573801 80.909299 408.484246 68.975774 410.715265 57.042249 411.414922 45.108724 411.633257 33.175199 422.616812 21.241674 422.661778 9.308149"/></g><g class="series serie-1 color-1"><path class="line reactive nofill" d="M10.920000 474.715622 L14.757013 462.782097 24.247236 450.848572 25.205515 438.915047 25.465876 426.981522 26.185713 415.047997 28.333859 403.114472 30.586859 391.180948 31.302654 379.247423 31.738220 367.313898 32.630309 355.380373 39.473556 343.446848 41.178295 331.513323 42.071122 319.579798 44.394635 307.646273 45.457977 295.712748 48.026166 283.779223 49.820726 271.845698 50.537079 259.912173 50.540331 247.978648 51.811987 236.045123 52.013375 224.111598 52.276290 212.178073 53.386173 200.244548 53.927435 188.311024 60.561655 176.377499 269.076090 164.443974 273.623933 152.510449 300.074275 140.576924 305.329573 128.643399 462.906818 116.709874 467.291272 104.776349 470.028262 92.842824 478.955366 80.909299 486.773723 68.975774 492.080292 57.042249 503.726528 45.108724 532.437058 33.175199 539.971250 21.241674 556.920005 9.308149"/></g><g class="series serie-2 color-2"><path class="line reactive nofill" d="M10.920000 474.715622 L11.466547 474.715622 12.013093 474.715622 12.559640 474.715622 13.106186 474.715622 13.652733 474.715622 14.199279 474.715622 14.745826 474.715622 15.292373 474.715622 15.838919 474.715622 16.385466 474.715622 16.932012 474.715622 17.478559 474.715622 18.025105 474.715622 18.571652 474.715622 19.118198 474.715622 19.664745 474.715622 20.211291 474.715622 20.757838 474.715622 21.304385 474.715622 21.850931 474.715622 22.397478 474.715622 22.944024 474.715622 23.490571 474.715622 24.037117 474.715622 24.583664 474.715622 25.130210 474.715622 25.676757 474.715622 26.223304 474.715622 26.769850 474.335884 27.316397 469.879265 27.862943 465.838640 28.409490 462.419203 28.956036 459.462034 29.502583 456.778033 30.049129 454.358560 30.595676 452.194977 31.142223 450.297151 31.688769 448.876117 32.235316 447.841303 32.781862 446.996407 33.328409 446.145132 33.874955 445.091178 34.421502 443.638246 34.968048 441.590037 35.514595 438.699455 36.061141 426.422173 36.607688 418.881343 37.154235 413.921239 37.700781 411.291066 38.247328 409.404474 38.793874 406.494618 39.340421 396.660197 39.886967 389.436683 40.433514 387.630602 40.980060 386.528649 41.526607 385.927380 42.073154 385.623351 42.619700 385.413117 43.166247 385.093235 43.712793 384.460259 44.259340 383.310747 44.805886 381.441253 45.352433 373.427259 45.898979 353.175491 46.445526 347.137710 46.992073 328.011496 47.538619 325.158523 48.085166 324.126443 48.631712 322.783580 49.178259 318.735392 49.724805 306.213261 50.271352 301.793276 50.817898 298.877379 51.364445 295.864962 51.910991 292.371800 52.457538 288.922097 53.004085 285.002005 53.550631 281.464108 54.097178 275.752550 54.643724 258.392249 55.190271 256.132940 55.736817 254.237345 56.283364 252.672381 56.829910 251.404964 57.376457 250.402012 57.923004 249.630440 58.469550 249.057167 59.016097 248.649108 59.562643 248.373181 60.109190 248.196303 60.655736 248.085389 61.202283 248.007358 61.748829 247.932929 62.295376 247.858413 62.841923 247.784531 63.388469 247.711279 63.935016 247.638654 64.481562 247.566653 65.028109 247.495273 65.574655 247.424512 66.121202 247.354367 66.667748 247.284834 67.214295 247.215912 67.760841 247.147596 68.307388 247.079885 68.853935 247.012775 69.400481 246.946263 69.947028 246.880347 70.493574 246.815024 71.040121 246.750291 71.586667 246.686145 72.133214 246.622582 72.679760 246.559602 73.226307 246.497199 73.772854 246.435372 74.319400 246.374118 74.865947 246.313433 75.412493 246.253315 75.959040 246.193762 76.505586 246.134769 77.052133 246.076335 77.598679 246.018457 78.145226 245.961131 78.691773 245.904354 79.238319 245.848125 79.784866 245.792439 80.331412 245.737295 80.877959 245.682689 81.424505 245.628618 81.971052 245.575080 82.517598 245.522072 83.064145 245.469590 83.610691 245.417632 84.157238 245.366195 84.703785 245.315277 85.250331 245.264873 85.796878 245.214982 86.343424 245.165601 86.889971 245.116727 87.436517 245.068356 87.983064 245.020486 88.529610 244.973115 89.076157 244.926238 89.622704 244.879854 90.169250 244.833960 90.715797 244.788552 91.262343 244.743628 91.808890 244.699185 92.355436 244.655220 92.901983 244.611730 93.448529 244.568712 93.995076 244.526164 94.541623 244.484082 95.088169 244.442464 95.634716 244.401307 96.181262 244.360608 96.727809 244.320364 97.274355 244.280573 97.820902 244.241230 98.367448 244.202334 98.913995 244.163882 99.460541 244.125871 100.007088 244.088297 100.553635 244.051158 101.100181 244.014452 101.646728 243.978175 102.193274 243.942324 102.739821 243.906897 103.286367 243.871891 103.832914 243.837302 104.379460 243.803129 104.926007 243.769367 105.472554 243.736015 106.019100 243.703069 106.565647 243.670527 107.112193 243.638385 107.658740 243.606641 108.205286 243.575292 108.751833 243.544335 109.298379 243.513767 109.844926 243.483585 110.391473 243.453787 110.938019 243.424369 111.484566 243.395329 112.031112 243.366664 112.577659 243.338371 113.124205 243.310447 113.670752 243.282889 114.217298 243.255695 114.763845 243.228861 115.310391 243.202384 115.856938 243.176263 116.403485 243.150493 116.950031 243.125072 117.496578 243.099997 118.043124 243.075266 118.589671 243.050875 119.136217 243.026822 119.682764 243.003103 120.229310 242.979716 120.775857 242.956658 121.322404 242.933927 121.868950 242.911518 122.415497 242.889430 122.962043 242.867659 123.508590 242.846203 124.055136 242.825058 124.601683 242.804223 125.148229 242.783693 125.694776 242.763467 126.241323 242.743541 126.787869 242.723912 127.334416 242.704578 127.880962 242.685535 128.427509 242.666782 128.974055 242.648314 129.520602 242.630129 130.067148 242.612225 130.613695 242.594598 131.160241 242.577245 131.706788 242.560164 132.253335 242.543352 132.799881 242.526805 133.346428 242.510522 133.892974 242.494498 134.439521 242.478732 134.986067 242.463221 135.532614 242.447961 136.079160 242.432949 136.625707 242.418184 137.172254 242.403661 137.718800 242.389378 138.265347 242.375333 138.811893 242.361522 139.358440 242.347942 139.904986 242.334591 140.451533 242.321466 140.998079 242.308563 141.544626 242.295881 142.091173 242.283415 142.637719 242.271164 143.184266 242.259125 143.730812 242.247294 144.277359 242.235668 144.823905 242.224245 145.370452 242.213023 145.916998 242.201997 146.463545 242.191165 147.010091 242.180525 147.556638 242.170073 148.103185 242.159807 148.649731 242.149724 149.196278 242.139820 149.742824 242.130094 150.289371 242.120541 150.835917 242.111160 151.382464 242.101947 151.929010 242.092900 152.475557 242.084015 153.022104 242.075290 153.568650 242.066722 154.115197 242.058308 154.661743 242.050045 155.208290 242.041931 155.754836 242.033962 156.301383 242.026136 156.847929 242.018449 157.394476 242.010899 157.941023 242.003483 158.487569 241.996198 159.034116 241.989042 159.580662 241.982011 160.127209 241.975102 160.673755 241.968313 161.220302 241.961641 161.766848 241.955083 162.313395 241.948635 162.859941 241.942296 163.406488 241.936063 163.953035 241.929931 164.499581 241.923900 165.046128 241.917965 165.592674 241.912123 166.139221 241.906373 166.685767 241.900711 167.232314 241.895134 167.778860 241.889640 168.325407 241.884225 168.871954 241.878886 169.418500 241.873621 169.965047 241.868428 170.511593 241.863302 171.058140 241.858242 171.604686 241.853243 172.151233 241.848305 172.697779 241.843422 173.244326 241.838594 173.790873 241.833816 174.337419 241.829086 174.883966 241.824402 175.430512 241.819759 175.977059 241.815156 176.523605 241.810590 177.070152 241.806057 177.616698 241.801555 178.163245 241.797080 178.709791 241.792631 179.256338 241.788204 179.802885 241.783796 180.349431 241.779405 180.895978 241.775027 181.442524 241.770660 181.989071 241.766301 182.535617 241.761946 183.082164 241.757594 183.628710 241.753241 184.175257 241.748884 184.721804 241.744521 185.268350 241.740149 185.814897 241.735764 186.361443 241.731364 186.907990 241.726946 187.454536 241.722507 188.001083 241.718045 188.547629 241.713556 189.094176 241.709037 189.640723 241.704486 190.187269 241.699900 190.733816 241.695276 191.280362 241.690611 191.826909 241.685902 192.373455 241.681147 192.920002 241.676342 193.466548 241.671485 194.013095 241.666572 194.559641 241.661601 195.106188 241.656570 195.652735 241.651474 196.199281 241.646312 196.745828 241.641080 197.292374 241.635776 197.838921 241.630396 198.385467 241.624938 198.932014 241.619399 199.478560 241.613776 200.025107 241.608067 200.571654 241.602267 201.118200 241.596376 201.664747 241.590388 202.211293 241.584303 202.757840 241.578116 203.304386 241.571826 203.850933 241.565428 204.397479 241.558921 204.944026 241.552301 205.490573 241.545566 206.037119 241.538712 206.583666 241.531737 207.130212 241.524639 207.676759 241.517413 208.223305 241.510057 208.769852 241.502569 209.316398 241.494945 209.862945 241.487183 210.409491 241.479279 210.956038 241.471232 211.502585 241.463037 212.049131 241.454693 212.595678 241.446195 213.142224 241.437542 213.688771 241.428731 214.235317 241.419758 214.781864 241.410622 215.328410 241.401318 215.874957 241.391844 216.421504 241.382197 216.968050 241.372375 217.514597 241.362374 218.061143 241.352191 218.607690 241.341825 219.154236 241.331271 219.700783 241.320527 220.247329 241.309590 220.793876 241.298458 221.340423 241.287127 221.886969 241.275594 222.433516 241.263858 222.980062 241.251914 223.526609 241.239759 224.073155 241.227392 224.619702 241.214809 225.166248 241.202008 225.712795 241.188985 226.259341 241.175737 226.805888 241.162262 227.352435 241.148557 227.898981 241.134619 228.445528 241.120445 228.992074 241.106032 229.538621 241.091378 230.085167 241.076479 230.631714 241.061333 231.178260 241.045937 231.724807 241.030287 232.271354 241.014382 232.817900 240.998218 233.364447 240.981792 233.910993 240.965101 234.457540 240.948143 235.004086 240.930915 235.550633 240.913413 236.097179 240.895636 236.643726 240.877580 237.190273 240.859242 237.736819 240.840619 238.283366 240.821709 238.829912 240.802508 239.376459 240.783014 239.923005 240.763224 240.469552 240.743135 241.016098 240.722745 241.562645 240.702049 242.109191 240.681046 242.655738 240.659733 243.202285 240.638106 243.748831 240.616163 244.295378 240.593901 244.841924 240.571318 245.388471 240.548409 245.935017 240.525173 246.481564 240.501606 247.028110 240.477706 247.574657 240.453469 248.121204 240.428894 248.667750 240.403977 249.214297 240.378714 249.760843 240.353104 250.307390 240.327144 250.853936 240.300830 251.400483 240.274159 251.947029 240.247130 252.493576 240.219738 253.040123 240.191982 253.586669 240.163858 254.133216 240.135363 254.679762 240.106494 255.226309 240.077250 255.772855 240.047626 256.319402 240.017619 256.865948 239.987228 257.412495 239.956449 257.959041 239.925280 258.505588 239.893716 259.052135 239.861757 259.598681 239.829398 260.145228 239.796636 260.691774 239.763470 261.238321 239.729896 261.784867 239.695911 262.331414 239.661512 262.877960 239.626697 263.424507 239.591463 263.971054 239.555806 264.517600 239.519724 265.064147 239.483214 265.610693 239.446273 266.157240 239.408899 266.703786 239.371088 267.250333 239.332837 267.796879 239.294144 268.343426 239.255006 268.889973 239.215420 269.436519 239.175383 269.983066 239.134892 270.529612 239.093945 271.076159 239.052537 271.622705 239.010668 272.169252 238.968333 272.715798 238.925530 273.262345 238.882257 273.808891 238.838509 274.355438 238.794285 274.901985 238.749581 275.448531 238.704394 275.995078 238.658722 276.541624 238.612562 277.088171 238.565911 277.634717 238.518766 278.181264 238.471124 278.727810 238.422983 279.274357 238.374339 279.820904 238.325189 280.367450 238.275531 280.913997 238.225363 281.460543 238.174680 282.007090 238.123480 282.553636 238.071761 283.100183 238.019518 283.646729 237.966751 284.193276 237.913455 284.739823 237.859628 285.286369 237.805267 285.832916 237.750369 286.379462 237.694931 286.926009 237.638950 287.472555 237.582424 288.019102 237.525349 288.565648 237.467723 289.112195 237.409543 289.658741 237.350806 290.205288 237.291509 290.751835 237.231650 291.298381 237.171225 291.844928 237.110231 292.391474 237.048666 292.938021 236.986526 293.484567 236.923810 294.031114 236.860514 294.577660 236.796635 295.124207 236.732170 295.670754 236.667116 296.217300 236.601471 296.763847 236.535232 297.310393 236.468396 297.856940 236.400960 298.403486 236.332921 298.950033 236.264276 299.496579 236.195022 300.043126 236.125157 300.589673 236.054678 301.136219 235.949526 301.682766 235.757740 302.229312 235.485649 302.775859 235.140433 303.322405 234.729271 303.868952 234.259343 304.415498 233.737828 304.962045 233.171905 305.508591 232.568755 306.055138 231.935555 306.601685 231.279487 307.148231 230.607729 307.694778 229.927461 308.241324 229.245862 308.787871 228.570111 309.334417 227.907389 309.880964 227.264875 310.427510 226.649747 310.974057 226.069187 311.520604 225.530372 312.067150 225.040482 312.613697 224.606698 313.160243 224.236197 313.706790 223.923284 314.253336 223.621587 314.799883 223.326055 315.346429 223.036547 315.892976 222.752924 316.439523 222.475045 316.986069 222.202771 317.532616 221.935962 318.079162 221.674478 318.625709 221.418179 319.172255 221.166926 319.718802 220.920578 320.265348 220.678996 320.811895 220.442040 321.358441 220.209570 321.904988 219.981446 322.451535 219.757529 322.998081 219.537678 323.544628 219.321754 324.091174 219.109617 324.637721 218.901127 325.184267 218.696144 325.730814 218.494529 326.277360 218.296141 326.823907 218.100841 327.370454 217.908489 327.917000 217.718945 328.463547 217.532069 329.010093 217.347722 329.556640 217.165763 330.103186 216.986053 330.649733 216.808451 331.196279 216.632819 331.742826 216.459016 332.289373 216.286902 332.835919 216.116338 333.382466 215.947183 333.929012 215.779299 334.475559 215.612544 335.022105 215.446780 335.568652 215.281866 336.115198 215.117662 336.661745 214.954030 337.208291 214.790828 337.754838 214.627917 338.301385 214.465157 338.847931 214.302408 339.394478 214.139531 339.941024 213.976386 340.487571 213.812833 341.034117 213.648731 341.580664 213.483942 342.127210 213.318325 342.673757 213.151740 343.220304 212.984049 343.766850 212.815110 344.313397 212.644783 344.859943 212.472931 345.406490 212.299411 345.953036 212.124520 346.499583 211.954666 347.046129 211.791815 347.592676 211.635704 348.139223 211.486069 348.685769 211.342647 349.232316 211.205173 349.778862 211.073386 350.325409 210.947020 350.871955 210.825812 351.418502 210.709499 351.965048 210.597817 352.511595 210.490503 353.058141 210.387292 353.604688 210.287922 354.151235 210.192129 354.697781 210.099648 355.244328 210.010218 355.790874 209.923573 356.337421 209.839451 356.883967 209.757588 357.430514 209.677720 357.977060 209.599584 358.523607 209.522916 359.070154 209.447452 359.616700 209.372929 360.163247 209.299084 360.709793 209.225653 361.256340 209.152371 361.802886 209.078976 362.349433 209.005205 362.895979 208.930793 363.442526 208.855476 363.989073 208.778992 364.535619 208.701077 365.082166 208.621466 365.628712 208.539898 366.175259 208.456107 366.721805 208.369831 367.268352 208.280805 367.814898 208.188767 368.361445 208.093452 368.907991 207.994597 369.454538 207.891939 370.001085 207.785214 370.547631 207.674158 371.094178 207.558507 371.640724 207.437999 372.187271 207.312369 372.733817 207.181355 373.280364 207.044691 373.826910 206.902116 374.373457 206.753365 374.920004 206.598174 375.466550 206.436280 376.013097 206.267420 376.559643 206.091330 377.106190 205.907746 377.652736 205.716405 378.199283 205.517043 378.745829 205.309397 379.292376 205.093202 379.838923 204.868196 380.385469 204.634115 380.932016 204.390695 381.478562 204.137673 382.025109 203.874784 382.571655 203.601766 383.118202 203.318356 383.664748 203.024288 384.211295 202.719300 384.757841 202.403129 385.304388 202.075509 385.850935 201.736179 386.397481 201.384875 386.944028 201.021332 387.490574 200.645287 388.037121 200.256477 388.583667 199.748882 389.130214 198.601706 389.676760 196.193817 390.223307 191.904092 390.769854 175.727879 391.316400 173.410421 391.862947 171.891975 392.409493 170.994513 392.956040 170.540007 393.502586 170.350430 394.049133 170.247751 394.595679 170.053945 395.142226 169.590981 395.688773 168.680833 396.235319 167.145472 396.781866 164.806869 397.328412 148.208828 397.874959 144.089897 398.421505 141.837765 398.968052 139.248079 399.514598 137.725824 400.061145 136.569034 400.607691 134.579278 401.154238 130.558125 401.700785 114.514955 402.247331 111.534402 402.793878 110.216583 403.340424 109.585923 403.886971 108.666852 404.433517 106.483795 404.980064 97.315914 405.526610 90.001935 406.073157 87.296791 406.619704 85.532882 407.166250 83.440231 407.712797 79.533400 408.259343 71.506586 408.805890 66.756860 409.352436 64.194522 409.898983 62.077622 410.445529 59.159547 410.992076 53.905065 411.538623 37.385874 412.085169 31.894671 412.631716 30.622844 413.178262 29.622550 413.724809 28.860293 414.271355 28.302575 414.817902 27.915900 415.364448 27.666771 415.910995 27.521690 416.457541 27.447160 417.004088 27.409686 417.550635 27.375769 418.097181 27.311912 418.643728 27.184619 419.190274 26.960393 419.736821 26.605736 420.283367 26.087152 420.829914 25.371144 421.376460 24.424214 421.923007 23.212866 422.469554 21.703603 423.016100 9.308149 423.562647 9.308149 424.109193 9.308149 424.655740 9.308149 425.202286 9.308149 425.748833 9.308149 426.295379 9.308149 426.841926 9.308149 427.388473 9.308149 427.935019 9.308149 428.481566 9.308149 429.028112 9.308149 429.574659 9.308149 430.121205 9.308149 430.667752 9.308149 431.214298 9.308149 431.760845 9.308149 432.307391 9.308149 432.853938 9.308149 433.400485 9.308149 433.947031 9.308149 434.493578 9.308149 435.040124 9.308149 435.586671 9.308149 436.133217 9.308149 436.679764 9.308149 437.226310 9.308149 437.772857 9.308149 438.319404 9.308149 438.865950 9.308149 439.412497 9.308149 439.959043 9.308149 440.505590 9.308149 441.052136 9.308149 441.598683 9.308149 442.145229 9.308149 442.691776 9.308149 443.238323 9.308149 443.784869 9.308149 444.331416 9.308149 444.877962 9.308149 445.424509 9.308149 445.971055 9.308149 446.517602 9.308149 447.064148 9.308149 447.610695 9.308149 448.157241 9.308149 448.703788 9.308149 449.250335 9.308149 449.796881 9.308149 450.343428 9.308149 450.889974 9.308149 451.436521 9.308149 451.983067 9.308149 452.529614 9.308149 453.076160 9.308149 453.622707 9.308149 454.169254 9.308149 454.715800 9.308149 455.262347 9.308149 455.808893 9.308149 456.355440 9.308149 456.901986 9.308149 457.448533 9.308149 457.995079 9.308149 458.541626 9.308149 459.088173 9.308149 459.634719 9.308149 460.181266 9.308149 460.727812 9.308149 461.274359 9.308149 461.820905 9.308149 462.367452 9.308149 462.913998 9.308149 463.460545 9.308149 464.007091 9.308149 464.553638 9.308149 465.100185 9.308149 465.646731 9.308149 466.193278 9.308149 466.739824 9.308149 467.286371 9.308149 467.832917 9.308149 468.379464 9.308149 468.926010 9.308149 469.472557 9.308149 470.019104 9.308149 470.565650 9.308149 471.112197 9.308149 471.658743 9.308149 472.205290 9.308149 472.751836 9.308149 473.298383 9.308149 473.844929 9.308149 474.391476 9.308149 474.938023 9.308149 475.484569 9.308149 476.031116 9.308149 476.577662 9.308149 477.124209 9.308149 477.670755 9.308149 478.217302 9.308149 478.763848 9.308149 479.310395 9.308149 479.856941 9.308149 480.403488 9.308149 480.950035 9.308149 481.496581 9.308149 482.043128 9.308149 482.589674 9.308149 483.136221 9.308149 483.682767 9.308149 484.229314 9.308149 484.775860 9.308149 485.322407 9.308149 485.868954 9.308149 486.415500 9.308149 486.962047 9.308149 487.508593 9.308149 488.055140 9.308149 488.601686 9.308149 489.148233 9.308149 489.694779 9.308149 490.241326 9.308149 490.787873 9.308149 491.334419 9.308149 491.880966 9.308149 492.427512 9.308149 492.974059 9.308149 493.520605 9.308149 494.067152 9.308149 494.613698 9.308149 495.160245 9.308149 495.706791 9.308149 496.253338 9.308149 496.799885 9.308149 497.346431 9.308149 497.892978 9.308149 498.439524 9.308149 498.986071 9.308149 499.532617 9.308149 500.079164 9.308149 500.625710 9.308149 501.172257 9.308149 501.718804 9.308149 502.265350 9.308149 502.811897 9.308149 503.358443 9.308149 503.904990 9.308149 504.451536 9.308149 504.998083 9.308149 505.544629 9.308149 506.091176 9.308149 506.637723 9.308149 507.184269 9.308149 507.730816 9.308149 508.277362 9.308149 508.823909 9.308149 509.370455 9.308149 509.917002 9.308149 510.463548 9.308149 511.010095 9.308149 511.556641 9.308149 512.103188 9.308149 512.649735 9.308149 513.196281 9.308149 513.742828 9.308149 514.289374 9.308149 514.835921 9.308149 515.382467 9.308149 515.929014 9.308149 516.475560 9.308149 517.022107 9.308149 517.568654 9.308149 518.115200 9.308149 518.661747 9.308149 519.208293 9.308149 519.754840 9.308149 520.301386 9.308149 520.847933 9.308149 521.394479 9.308149 521.941026 9.308149 522.487573 9.308149 523.034119 9.308149 523.580666 9.308149 524.127212 9.308149 524.673759 9.308149 525.220305 9.308149 525.766852 9.308149 526.313398 9.308149 526.859945 9.308149 527.406491 9.308149 527.953038 9.308149 528.499585 9.308149 529.046131 9.308149 529.592678 9.308149 530.139224 9.308149 530.685771 9.308149 531.232317 9.308149 531.778864 9.308149 532.325410 9.308149 532.871957 9.308149 533.418504 9.308149 533.965050 9.308149 534.511597 9.308149 535.058143 9.308149 535.604690 9.308149 536.151236 9.308149 536.697783 9.308149 537.244329 9.308149 537.790876 9.308149 538.337423 9.308149 538.883969 9.308149 539.430516 9.308149 539.977062 9.308149 540.523609 9.308149 541.070155 9.308149 541.616702 9.308149 542.163248 9.308149 542.709795 9.308149 543.256341 9.308149 543.802888 9.308149 544.349435 9.308149 544.895981 9.308149 545.442528 9.308149 545.989074 9.308149 546.535621 9.308149 547.082167 9.308149 547.628714 9.308149 548.175260 9.308149 548.721807 9.308149 549.268354 9.308149 549.814900 9.308149 550.361447 9.308149 550.907993 9.308149 551.454540 9.308149 552.001086 9.308149 552.547633 9.308149 553.094179 9.308149 553.640726 9.308149 554.187273 9.308149 554.733819 9.308149 555.280366 9.308149 555.826912 9.308149 556.373459 9.308149 556.920005 9.308149"/></g><g class="series serie-3 color-3"><path class="line reactive nofill" d="M10.920000 474.715622 L11.466547 472.720967 12.013093 470.749477 12.559640 468.845837 13.106186 467.054732 13.652733 465.420846 14.199279 463.988865 14.745826 462.803472 15.292373 461.848057 15.838919 461.055147 16.385466 460.399407 16.932012 459.855526 17.478559 459.398191 18.025105 459.002091 18.571652 458.641914 19.118198 458.292349 19.664745 457.928082 20.211291 457.523803 20.757838 457.054199 21.304385 456.493960 21.850931 455.817772 22.397478 455.000324 22.944024 454.016304 23.490571 452.840400 24.037117 451.447301 24.583664 448.738043 25.130210 440.514390 25.676757 422.135523 26.223304 414.711479 26.769850 410.698857 27.316397 407.837701 27.862943 405.409382 28.409490 402.713555 28.956036 400.216713 29.502583 397.920026 30.049129 395.117430 30.595676 391.101896 31.142223 382.573104 31.688769 368.362412 32.235316 358.974856 32.781862 354.816462 33.328409 353.072328 33.874955 351.725429 34.421502 350.701914 34.968048 349.927928 35.514595 349.329619 36.061141 348.833136 36.607688 348.364625 37.154235 347.850234 37.700781 347.216110 38.247328 346.388400 38.793874 345.293253 39.340421 343.856814 39.886967 341.650043 40.433514 338.017703 40.980060 333.365552 41.526607 326.909667 42.073154 319.563671 42.619700 316.086037 43.166247 313.710097 43.712793 311.517661 44.259340 308.590536 44.805886 303.209343 45.352433 296.569357 45.898979 293.015587 46.445526 290.460488 46.992073 288.331566 47.538619 286.152606 48.085166 283.455283 48.631712 280.521363 49.178259 277.204519 49.724805 272.787896 50.271352 268.176758 50.817898 242.713455 51.364445 240.282950 51.910991 231.004797 52.457538 209.173438 53.004085 204.268784 53.550631 196.561741 54.097178 187.582971 54.643724 185.438936 55.190271 183.584323 55.736817 181.998257 56.283364 180.659861 56.829910 179.548259 57.376457 178.642574 57.923004 177.921930 58.469550 177.365451 59.016097 176.952259 59.562643 176.661479 60.109190 176.472234 60.655736 176.362739 61.202283 176.277507 61.748829 176.193139 62.295376 176.109631 62.841923 176.026979 63.388469 175.945177 63.935016 175.864222 64.481562 175.784108 65.028109 175.704831 65.574655 175.626387 66.121202 175.548770 66.667748 175.471977 67.214295 175.396002 67.760841 175.320841 68.307388 175.246490 68.853935 175.172943 69.400481 175.100197 69.947028 175.028246 70.493574 174.957087 71.040121 174.886714 71.586667 174.817123 72.133214 174.748309 72.679760 174.680268 73.226307 174.612995 73.772854 174.546485 74.319400 174.480735 74.865947 174.415738 75.412493 174.351492 75.959040 174.287991 76.505586 174.225230 77.052133 174.163205 77.598679 174.101911 78.145226 174.041345 78.691773 173.981500 79.238319 173.922373 79.784866 173.863959 80.331412 173.806254 80.877959 173.749252 81.424505 173.692949 81.971052 173.637341 82.517598 173.582424 83.064145 173.528191 83.610691 173.474640 84.157238 173.421764 84.703785 173.369561 85.250331 173.318024 85.796878 173.267150 86.343424 173.216934 86.889971 173.167371 87.436517 173.118457 87.983064 173.070187 88.529610 173.022556 89.076157 172.975560 89.622704 172.929195 90.169250 172.883456 90.715797 172.838337 91.262343 172.793835 91.808890 172.749945 92.355436 172.706663 92.901983 172.663983 93.448529 172.621901 93.995076 172.580413 94.541623 172.539514 95.088169 172.499200 95.634716 172.459465 96.181262 172.420305 96.727809 172.381716 97.274355 172.343694 97.820902 172.306232 98.367448 172.269327 98.913995 172.232975 99.460541 172.197170 100.007088 172.161909 100.553635 172.127186 101.100181 172.092996 101.646728 172.059336 102.193274 172.026201 102.739821 171.993586 103.286367 171.961486 103.832914 171.929898 104.379460 171.898815 104.926007 171.868235 105.472554 171.838151 106.019100 171.808560 106.565647 171.779457 107.112193 171.750838 107.658740 171.722697 108.205286 171.695030 108.751833 171.667833 109.298379 171.641101 109.844926 171.614830 110.391473 171.589014 110.938019 171.563649 111.484566 171.538731 112.031112 171.514255 112.577659 171.490217 113.124205 171.466611 113.670752 171.443434 114.217298 171.420680 114.763845 171.398345 115.310391 171.376425 115.856938 171.354915 116.403485 171.333810 116.950031 171.313106 117.496578 171.292798 118.043124 171.272881 118.589671 171.253351 119.136217 171.234204 119.682764 171.215434 120.229310 171.197038 120.775857 171.179010 121.322404 171.161346 121.868950 171.144041 122.415497 171.127091 122.962043 171.110492 123.508590 171.094238 124.055136 171.078325 124.601683 171.062748 125.148229 171.047503 125.694776 171.032586 126.241323 171.017991 126.787869 171.003714 127.334416 170.989750 127.880962 170.976095 128.427509 170.962745 128.974055 170.949694 129.520602 170.936939 130.067148 170.924474 130.613695 170.912294 131.160241 170.900396 131.706788 170.888775 132.253335 170.877426 132.799881 170.866344 133.346428 170.855526 133.892974 170.844965 134.439521 170.834658 134.986067 170.824601 135.532614 170.814788 136.079160 170.805215 136.625707 170.795877 137.172254 170.786771 137.718800 170.777890 138.265347 170.769231 138.811893 170.760789 139.358440 170.752559 139.904986 170.744538 140.451533 170.736719 140.998079 170.729099 141.544626 170.721673 142.091173 170.714437 142.637719 170.707385 143.184266 170.700514 143.730812 170.693818 144.277359 170.687293 144.823905 170.680935 145.370452 170.674739 145.916998 170.668700 146.463545 170.662814 147.010091 170.657076 147.556638 170.651481 148.103185 170.646025 148.649731 170.640704 149.196278 170.635512 149.742824 170.630446 150.289371 170.625500 150.835917 170.620670 151.382464 170.615951 151.929010 170.611340 152.475557 170.606830 153.022104 170.602418 153.568650 170.598099 154.115197 170.593868 154.661743 170.589722 155.208290 170.585654 155.754836 170.581661 156.301383 170.577738 156.847929 170.573881 157.394476 170.570084 157.941023 170.566344 158.487569 170.562655 159.034116 170.559014 159.580662 170.555415 160.127209 170.551853 160.673755 170.548325 161.220302 170.544826 161.766848 170.541351 162.313395 170.537896 162.859941 170.534455 163.406488 170.531025 163.953035 170.527600 164.499581 170.524177 165.046128 170.520750 165.592674 170.517315 166.139221 170.513867 166.685767 170.510403 167.232314 170.506916 167.778860 170.503403 168.325407 170.499859 168.871954 170.496280 169.418500 170.492660 169.965047 170.488996 170.511593 170.485282 171.058140 170.481514 171.604686 170.477687 172.151233 170.473798 172.697779 170.469841 173.244326 170.465811 173.790873 170.461705 174.337419 170.457517 174.883966 170.453242 175.430512 170.448878 175.977059 170.444417 176.523605 170.439857 177.070152 170.435193 177.616698 170.430419 178.163245 170.425532 178.709791 170.420527 179.256338 170.415398 179.802885 170.410143 180.349431 170.404755 180.895978 170.399230 181.442524 170.393565 181.989071 170.387753 182.535617 170.381791 183.082164 170.375674 183.628710 170.369398 184.175257 170.362957 184.721804 170.356348 185.268350 170.349565 185.814897 170.342604 186.361443 170.335461 186.907990 170.328131 187.454536 170.320608 188.001083 170.312890 188.547629 170.304971 189.094176 170.296846 189.640723 170.288511 190.187269 170.279961 190.733816 170.271192 191.280362 170.262199 191.826909 170.252977 192.373455 170.243523 192.920002 170.233831 193.466548 170.223896 194.013095 170.213715 194.559641 170.203283 195.106188 170.192594 195.652735 170.181644 196.199281 170.170430 196.745828 170.158946 197.292374 170.147187 197.838921 170.135149 198.385467 170.122828 198.932014 170.110218 199.478560 170.097316 200.025107 170.084116 200.571654 170.070615 201.118200 170.056806 201.664747 170.042687 202.211293 170.028252 202.757840 170.013497 203.304386 169.998416 203.850933 169.983006 204.397479 169.967263 204.944026 169.951180 205.490573 169.934754 206.037119 169.917980 206.583666 169.900854 207.130212 169.883370 207.676759 169.865525 208.223305 169.847314 208.769852 169.828732 209.316398 169.809775 209.862945 169.790437 210.409491 169.770715 210.956038 169.750603 211.502585 169.730098 212.049131 169.709194 212.595678 169.687888 213.142224 169.666174 213.688771 169.644047 214.235317 169.621504 214.781864 169.598539 215.328410 169.575149 215.874957 169.551328 216.421504 169.527072 216.968050 169.502376 217.514597 169.477235 218.061143 169.451646 218.607690 169.425604 219.154236 169.399103 219.700783 169.372139 220.247329 169.344709 220.793876 169.316806 221.340423 169.288427 221.886969 169.259566 222.433516 169.230221 222.980062 169.200384 223.526609 169.170054 224.073155 169.139223 224.619702 169.107889 225.166248 169.076046 225.712795 169.043689 226.259341 169.010815 226.805888 168.977419 227.352435 168.943495 227.898981 168.909040 228.445528 168.874049 228.992074 168.838517 229.538621 168.802439 230.085167 168.765812 230.631714 168.728630 231.178260 168.690889 231.724807 168.652584 232.271354 168.613711 232.817900 168.574265 233.364447 168.534242 233.910993 168.493636 234.457540 168.452444 235.004086 168.410660 235.550633 168.368281 236.097179 168.325301 236.643726 168.281716 237.190273 168.237521 237.736819 168.192712 238.283366 168.147284 238.829912 168.101233 239.376459 168.054554 239.923005 168.007242 240.469552 167.959293 241.016098 167.910702 241.562645 167.861464 242.109191 167.811576 242.655738 167.761032 243.202285 167.709828 243.748831 167.657959 244.295378 167.605421 244.841924 167.552209 245.388471 167.498318 245.935017 167.443744 246.481564 167.388483 247.028110 167.332529 247.574657 167.275878 248.121204 167.218525 248.667750 167.160467 249.214297 167.101698 249.760843 167.042213 250.307390 166.982009 250.853936 166.921080 251.400483 166.859422 251.947029 166.797031 252.493576 166.733901 253.040123 166.670028 253.586669 166.605408 254.133216 166.540036 254.679762 166.473908 255.226309 166.407018 255.772855 166.339362 256.319402 166.270936 256.865948 166.201735 257.412495 166.131754 257.959041 166.060989 258.505588 165.989435 259.052135 165.917088 259.598681 165.843943 260.145228 165.769996 260.691774 165.695241 261.238321 165.619675 261.784867 165.543292 262.331414 165.466089 262.877960 165.388059 263.424507 165.309200 263.971054 165.229506 264.517600 165.148973 265.064147 165.067596 265.610693 164.985370 266.157240 164.902292 266.703786 164.818355 267.250333 164.733557 267.796879 164.647891 268.343426 164.561354 268.889973 164.473942 269.436519 164.206001 269.983066 163.249408 270.529612 161.749615 271.076159 159.903790 271.622705 157.909098 272.169252 155.962706 272.715798 154.261779 273.262345 153.003485 273.808891 152.341385 274.355438 151.862164 274.901985 151.412378 275.448531 150.990759 275.995078 150.596038 276.541624 150.226947 277.088171 149.882217 277.634717 149.560581 278.181264 149.260770 278.727810 148.981515 279.274357 148.721549 279.820904 148.479603 280.367450 148.254408 280.913997 148.044697 281.460543 147.849201 282.007090 147.666651 282.553636 147.495780 283.100183 147.335319 283.646729 147.184000 284.193276 147.040553 284.739823 146.903713 285.286369 146.772208 285.832916 146.644773 286.379462 146.520137 286.926009 146.397033 287.472555 146.274193 288.019102 146.150347 288.565648 146.024229 289.112195 145.894569 289.658741 145.760099 290.205288 145.619551 290.751835 145.471656 291.298381 145.315147 291.844928 145.148754 292.391474 144.971210 292.938021 144.781246 293.484567 144.577594 294.031114 144.358986 294.577660 144.124153 295.124207 143.871826 295.670754 143.600739 296.217300 143.309621 296.763847 142.997206 297.310393 142.662224 297.856940 142.303407 298.403486 141.919488 298.950033 141.509197 299.496579 141.071266 300.043126 140.604427 300.589673 139.893687 301.136219 138.749394 301.682766 137.293068 302.229312 135.647076 302.775859 133.933786 303.322405 132.275564 303.868952 130.794776 304.415498 129.613791 304.962045 128.854975 305.508591 128.606434 306.055138 128.494575 306.601685 128.384206 307.148231 128.275316 307.694778 128.167896 308.241324 128.061933 308.787871 127.957419 309.334417 127.854343 309.880964 127.752693 310.427510 127.652461 310.974057 127.553634 311.520604 127.456203 312.067150 127.360158 312.613697 127.265487 313.160243 127.172181 313.706790 127.080228 314.253336 126.989619 314.799883 126.900342 315.346429 126.812388 315.892976 126.725746 316.439523 126.640405 316.986069 126.556356 317.532616 126.473586 318.079162 126.392087 318.625709 126.311848 319.172255 126.232857 319.718802 126.155105 320.265348 126.078582 320.811895 126.003276 321.358441 125.929177 321.904988 125.856275 322.451535 125.784559 322.998081 125.714019 323.544628 125.644645 324.091174 125.576425 324.637721 125.509349 325.184267 125.443408 325.730814 125.378590 326.277360 125.314885 326.823907 125.252282 327.370454 125.190771 327.917000 125.130342 328.463547 125.070984 329.010093 125.012687 329.556640 124.955440 330.103186 124.899232 330.649733 124.844053 331.196279 124.789894 331.742826 124.736742 332.289373 124.684589 332.835919 124.633422 333.382466 124.583233 333.929012 124.534009 334.475559 124.485742 335.022105 124.438420 335.568652 124.392033 336.115198 124.346570 336.661745 124.302022 337.208291 124.258377 337.754838 124.215625 338.301385 124.173755 338.847931 124.132758 339.394478 124.092622 339.941024 124.053338 340.487571 124.014894 341.034117 123.977280 341.580664 123.940486 342.127210 123.904502 342.673757 123.869316 343.220304 123.834918 343.766850 123.801298 344.313397 123.768446 344.859943 123.736351 345.406490 123.705002 345.953036 123.674389 346.499583 123.644501 347.046129 123.615329 347.592676 123.586861 348.139223 123.559087 348.685769 123.531997 349.232316 123.505580 349.778862 123.479825 350.325409 123.454723 350.871955 123.430262 351.418502 123.406433 351.965048 123.383224 352.511595 123.360626 353.058141 123.338628 353.604688 123.317219 354.151235 123.296388 354.697781 123.276127 355.244328 123.256423 355.790874 123.237266 356.337421 123.218647 356.883967 123.200554 357.430514 123.182977 357.977060 123.165906 358.523607 123.149330 359.070154 123.133238 359.616700 123.117621 360.163247 123.102467 360.709793 123.087767 361.256340 123.073509 361.802886 123.059684 362.349433 123.046280 362.895979 123.033288 363.442526 123.020696 363.989073 123.008495 364.535619 122.996674 365.082166 122.985222 365.628712 122.974129 366.175259 122.963385 366.721805 122.952979 367.268352 122.942900 367.814898 122.933139 368.361445 122.923683 368.907991 122.914525 369.454538 122.905651 370.001085 122.897053 370.547631 122.888720 371.094178 122.880641 371.640724 122.872806 372.187271 122.865203 372.733817 122.857824 373.280364 122.850657 373.826910 122.843692 374.373457 122.836919 374.920004 122.830326 375.466550 122.823904 376.013097 122.817642 376.559643 122.811529 377.106190 122.805556 377.652736 122.799711 378.199283 122.793984 378.745829 122.788365 379.292376 122.782843 379.838923 122.777407 380.385469 122.772048 380.932016 122.766754 381.478562 122.761516 382.025109 122.756323 382.571655 122.751164 383.118202 122.746029 383.664748 122.740907 384.211295 122.735788 384.757841 122.730661 385.304388 122.725517 385.850935 122.720344 386.397481 122.715132 386.944028 122.709871 387.490574 122.704549 388.037121 122.699158 388.583667 122.693685 389.130214 122.688121 389.676760 122.682455 390.223307 122.676677 390.769854 122.670776 391.316400 122.664742 391.862947 122.658565 392.409493 122.652233 392.956040 122.645736 393.502586 122.639065 394.049133 122.632207 394.595679 122.625154 395.142226 122.617894 395.688773 122.610417 396.235319 122.602713 396.781866 122.594771 397.328412 122.586580 397.874959 122.578131 398.421505 122.569412 398.968052 122.560413 399.514598 122.551124 400.061145 122.541534 400.607691 122.531633 401.154238 122.521410 401.700785 122.510855 402.247331 122.499957 402.793878 122.488706 403.340424 122.477092 403.886971 122.465103 404.433517 122.452730 404.980064 122.439962 405.526610 122.426789 406.073157 122.413199 406.619704 122.399183 407.166250 122.384730 407.712797 122.369830 408.259343 122.354471 408.805890 122.338645 409.352436 122.322339 409.898983 122.305545 410.445529 122.288250 410.992076 122.270446 411.538623 122.252120 412.085169 122.233264 412.631716 122.213866 413.178262 122.193916 413.724809 122.173403 414.271355 122.152317 414.817902 122.130647 415.364448 122.108384 415.910995 122.085516 416.457541 122.062033 417.004088 122.037925 417.550635 122.013181 418.097181 121.987790 418.643728 121.961743 419.190274 121.935028 419.736821 121.907636 420.283367 121.879555 420.829914 121.850776 421.376460 121.821287 421.923007 121.791079 422.469554 121.760140 423.016100 121.728461 423.562647 121.696031 424.109193 121.662840 424.655740 121.628876 425.202286 121.594130 425.748833 121.558590 426.295379 121.522248 426.841926 121.485091 427.388473 121.447110 427.935019 121.408295 428.481566 121.368633 429.028112 121.328117 429.574659 121.286733 430.121205 121.244473 430.667752 121.201326 431.214298 121.157281 431.760845 121.112328 432.307391 121.066457 432.853938 121.019656 433.400485 120.971915 433.947031 120.923225 434.493578 120.873574 435.040124 120.822952 435.586671 120.771349 436.133217 120.718753 436.679764 120.665156 437.226310 120.610545 437.772857 120.554911 438.319404 120.498243 438.865950 120.440531 439.412497 120.381764 439.959043 120.321932 440.505590 120.261024 441.052136 120.199030 441.598683 120.135939 442.145229 120.071741 442.691776 120.006425 443.238323 119.939982 443.784869 119.872400 444.331416 119.803668 444.877962 119.733778 445.424509 119.662717 445.971055 119.590476 446.517602 119.517044 447.064148 119.442411 447.610695 119.366565 448.157241 119.289498 448.703788 119.211197 449.250335 119.131654 449.796881 119.050856 450.343428 118.968795 450.889974 118.885458 451.436521 118.800837 451.983067 118.714920 452.529614 118.627696 453.076160 118.539157 453.622707 118.449290 454.169254 118.358085 454.715800 118.265533 455.262347 118.171622 455.808893 118.076342 456.355440 117.979683 456.901986 117.881634 457.448533 117.782184 457.995079 117.681324 458.541626 117.579042 459.088173 117.475329 459.634719 117.370173 460.181266 117.263565 460.727812 117.155493 461.274359 117.045948 461.820905 116.934919 462.367452 116.822395 462.913998 116.708315 463.460545 116.306666 464.007091 115.408617 464.553638 114.106975 465.100185 112.494546 465.646731 110.664136 466.193278 108.708551 466.739824 106.720598 467.286371 104.793081 467.832917 102.564293 468.379464 99.858196 468.926010 97.073535 469.472557 94.609095 470.019104 92.863664 470.565650 91.689871 471.112197 90.633377 471.658743 89.681604 472.205290 88.822113 472.751836 88.042464 473.298383 87.330218 473.844929 86.672935 474.391476 86.058176 474.938023 85.473501 475.484569 84.906471 476.031116 84.344646 476.577662 83.775587 477.124209 83.186855 477.670755 82.566011 478.217302 81.900614 478.763848 81.178225 479.310395 80.404264 479.856941 79.631957 480.403488 78.862863 480.950035 78.093526 481.496581 77.320492 482.043128 76.540304 482.589674 75.749509 483.136221 74.944651 483.682767 74.122275 484.229314 73.278926 484.775860 72.411148 485.322407 71.515488 485.868954 70.588489 486.415500 69.626696 486.962047 68.618751 487.508593 67.477964 488.055140 66.213597 488.601686 64.866699 489.148233 63.478319 489.694779 62.089505 490.241326 60.741305 490.787873 59.474768 491.334419 58.330942 491.880966 57.350877 492.427512 56.534757 492.974059 55.756999 493.520605 55.004650 494.067152 54.277302 494.613698 53.574550 495.160245 52.895988 495.706791 52.241210 496.253338 51.609810 496.799885 51.001380 497.346431 50.415517 497.892978 49.851812 498.439524 49.309861 498.986071 48.789256 499.532617 48.289592 500.079164 47.810464 500.625710 47.351463 501.172257 46.912185 501.718804 46.492224 502.265350 46.091173 502.811897 45.708626 503.358443 45.344177 503.904990 44.997326 504.451536 44.666332 504.998083 44.350173 505.544629 44.048207 506.091176 43.759790 506.637723 43.484279 507.184269 43.221034 507.730816 42.969411 508.277362 42.728767 508.823909 42.498461 509.370455 42.277849 509.917002 42.066290 510.463548 41.863141 511.010095 41.667759 511.556641 41.479502 512.103188 41.297727 512.649735 41.121793 513.196281 40.951056 513.742828 40.784874 514.289374 40.622605 514.835921 40.463606 515.382467 40.307234 515.929014 40.152848 516.475560 39.999805 517.022107 39.847462 517.568654 39.695177 518.115200 39.542307 518.661747 39.388210 519.208293 39.232243 519.754840 39.073765 520.301386 38.912132 520.847933 38.746702 521.394479 38.576833 521.941026 38.401882 522.487573 38.221206 523.034119 38.034164 523.580666 37.840113 524.127212 37.638410 524.673759 37.428412 525.220305 37.209478 525.766852 36.980965 526.313398 36.742231 526.859945 36.492632 527.406491 36.231527 527.953038 35.958273 528.499585 35.672227 529.046131 35.372748 529.592678 35.059192 530.139224 34.730918 530.685771 34.387282 531.232317 34.027642 531.778864 33.651357 532.325410 33.257782 532.871957 32.797838 533.418504 32.182831 533.965050 31.433546 534.511597 30.574132 535.058143 29.628739 535.604690 28.621515 536.151236 27.576610 536.697783 26.518173 537.244329 25.470352 537.790876 24.457298 538.337423 23.503159 538.883969 22.632084 539.430516 21.868222 539.977062 21.235715 540.523609 20.676067 541.070155 20.118591 541.616702 19.564270 542.163248 19.014085 542.709795 18.469016 543.256341 17.930046 543.802888 17.398155 544.349435 16.874325 544.895981 16.359537 545.442528 15.854774 545.989074 15.361015 546.535621 14.879242 547.082167 14.410437 547.628714 13.955581 548.175260 13.515656 548.721807 13.091642 549.268354 12.684521 549.814900 12.295274 550.361447 11.924884 550.907993 11.574330 551.454540 11.244595 552.001086 10.936659 552.547633 10.651505 553.094179 10.390113 553.640726 10.153464 554.187273 9.942541 554.733819 9.758325 555.280366 9.601796 555.826912 9.473936 556.373459 9.375727 556.920005 9.308149"/></g></g><g class="titles"><text class="title plot_title" x="400.0" y="26">Cumulative Distribution function</text><text class="title" x="463.92000269019513" y="580.0">Throughput</text><text class="title" x="106.0" y="314.01188578223196" transform="rotate(-90 106.000000 288.011886)">Percentage of data</text></g><g class="plot overlay" transform="translate(180, 46)"><g class="series serie-0 color-0"/><g class="series serie-1 color-1"/><g class="series serie-2 color-2"/><g class="series serie-3 color-3"/></g><g class="plot text-overlay" transform="translate(180, 46)"><g class="series serie-0 color-0"/><g class="series serie-1 color-1"/><g class="series serie-2 color-2"/><g class="series serie-3 color-3"/></g><g class="plot tooltip-overlay" transform="translate(180, 46)"><g class="tooltip" style="opacity: 0" transform="translate(0 0)"><rect class="tooltip-box" height="0" rx="0" ry="0" width="0"/><g class="text"/></g></g><g class="legends" transform="translate(10, 56)"><g class="legend reactive activate-serie" id="activate-serie-0"><rect class="color-0 reactive" height="12" width="12" x="0.0" y="1.0"/><text x="17.0" y="11.2">Old 40</text></g><g class="legend reactive activate-serie" id="activate-serie-1"><rect class="color-1 reactive" height="12" width="12" x="0.0" y="22.0"/><text x="17.0" y="32.2">New 40</text></g><g class="legend reactive activate-serie" id="activate-serie-2"><rect class="color-2 reactive" height="12" width="12" x="0.0" y="43.0"/><text x="17.0" y="53.2">Fit Old 40</text></g><g class="legend reactive activate-serie" id="activate-serie-3"><rect class="color-3 reactive" height="12" width="12" x="0.0" y="64.0"/><text x="17.0" y="74.2">Fit New 40</text></g></g><g class="legends" transform="translate(757, 56)"/></g></svg>