<?xml version='1.0' encoding='utf-8'?>
<svg xmlns:xlink="http://www.w3.org/1999/xlink" xmlns="http://www.w3.org/2000/svg" id="chart-e8d428cb-2d07-4216-8c03-7dda2172ea62" class="pygal-chart" viewBox="0 0 800 600"><!--Generated with pygal 2.3.1 (lxml) ©Kozea 2012-2016 on 2017-03-14--><!--http://pygal.org--><!--http://github.com/Kozea/pygal--><defs><style type="text/css">#chart-e8d428cb-2d07-4216-8c03-7dda2172ea62{-webkit-user-select:none;-webkit-font-smoothing:antialiased;font-family:Consolas,"Liberation Mono",Menlo,Courier,monospace}#chart-e8d428cb-2d07-4216-8c03-7dda2172ea62 .title{font-family:Consolas,"Liberation Mono",Menlo,Courier,monospace;font-size:16px}#chart-e8d428cb-2d07-4216-8c03-7dda2172ea62 .legends .legend text{font-family:Consolas,"Liberation Mono",Menlo,Courier,monospace;font-size:14px}#chart-e8d428cb-2d07-4216-8c03-7dda2172ea62 .axis text{font-family:Consolas,"Liberation Mono",Menlo,Courier,monospace;font-size:10px}#chart-e8d428cb-2d07-4216-8c03-7dda2172ea62 .axis text.major{font-family:Consolas,"Liberation Mono",Menlo,Courier,monospace;font-size:10px}#chart-e8d428cb-2d07-4216-8c03-7dda2172ea62 .text-overlay text.value{font-family:Consolas,"Liberation Mono",Menlo,Courier,monospace;font-size:16px}#chart-e8d428cb-2d07-4216-8c03-7dda2172ea62 .text-overlay text.label{font-family:Consolas,"Liberation Mono",Menlo,Courier,monospace;font-size:10px}#chart-e8d428cb-2d07-4216-8c03-7dda2172ea62 .tooltip{font-family:Consolas,"Liberation Mono",Menlo,Courier,monospace;font-size:14px}#chart-e8d428cb-2d07-4216-8c03-7dda2172ea62 text.no_data{font-family:Consolas,"Liberation Mono",Menlo,Courier,monospace;font-size:64px}
#chart-e8d428cb-2d07-4216-8c03-7dda2172ea62{background-color:rgba(249,249,249,1)}#chart-e8d428cb-2d07-4216-8c03-7dda2172ea62 path,#chart-e8d428cb-2d07-4216-8c03-7dda2172ea62 line,#chart-e8d428cb-2d07-4216-8c03-7dda2172ea62 rect,#chart-e8d428cb-2d07-4216-8c03-7dda2172ea62 circle{-webkit-transition:150ms;-moz-transition:150ms;transition:150ms}#chart-e8d428cb-2d07-4216-8c03-7dda2172ea62 .graph &gt; .background{fill:rgba(249,249,249,1)}#chart-e8d428cb-2d07-4216-8c03-7dda2172ea62 .plot &gt; .background{fill:rgba(255,255,255,1)}#chart-e8d428cb-2d07-4216-8c03-7dda2172ea62 .graph{fill:rgba(0,0,0,.87)}#chart-e8d428cb-2d07-4216-8c03-7dda2172ea62 text.no_data{fill:rgba(0,0,0,1)}#chart-e8d428cb-2d07-4216-8c03-7dda2172ea62 .title{fill:rgba(0,0,0,1)}#chart-e8d428cb-2d07-4216-8c03-7dda2172ea62 .legends .legend text{fill:rgba(0,0,0,.87)}#chart-e8d428cb-2d07-4216-8c03-7dda2172ea62 .legends .legend:hover text{fill:rgba(0,0,0,1)}#chart-e8d428cb-2d07-4216-8c03-7dda2172ea62 .axis .line{stroke:rgba(0,0,0,1)}#chart-e8d428cb-2d07-4216-8c03-7dda2172ea62 .axis .guide.line{stroke:rgba(0,0,0,.54)}#chart-e8d428cb-2d07-4216-8c03-7dda2172ea62 .axis .major.line{stroke:rgba(0,0,0,.87)}#chart-e8d428cb-2d07-4216-8c03-7dda2172ea62 .axis text.major{fill:rgba(0,0,0,1)}#chart-e8d428cb-2d07-4216-8c03-7dda2172ea62 .axis.y .guides:hover .guide.line,#chart-e8d428cb-2d07-4216-8c03-7dda2172ea62 .line-graph .axis.x .guides:hover .guide.line,#chart-e8d428cb-2d07-4216-8c03-7dda2172ea62 .stackedline-graph .axis.x .guides:hover .guide.line,#chart-e8d428cb-2d07-4216-8c03-7dda2172ea62 .xy-graph .axis.x .guides:hover .guide.line{stroke:rgba(0,0,0,1)}#chart-e8d428cb-2d07-4216-8c03-7dda2172ea62 .axis .guides:hover text{fill:rgba(0,0,0,1)}#chart-e8d428cb-2d07-4216-8c03-7dda2172ea62 .reactive{fill-opacity:.7;stroke-opacity:.8}#chart-e8d428cb-2d07-4216-8c03-7dda2172ea62 .ci{stroke:rgba(0,0,0,.87)}#chart-e8d428cb-2d07-4216-8c03-7dda2172ea62 .reactive.active,#chart-e8d428cb-2d07-4216-8c03-7dda2172ea62 .active .reactive{fill-opacity:.8;stroke-opacity:.9;stroke-width:4}#chart-e8d428cb-2d07-4216-8c03-7dda2172ea62 .ci .reactive.active{stroke-width:1.5}#chart-e8d428cb-2d07-4216-8c03-7dda2172ea62 .series text{fill:rgba(0,0,0,1)}#chart-e8d428cb-2d07-4216-8c03-7dda2172ea62 .tooltip rect{fill:rgba(255,255,255,1);stroke:rgba(0,0,0,1);-webkit-transition:opacity 150ms;-moz-transition:opacity 150ms;transition:opacity 150ms}#chart-e8d428cb-2d07-4216-8c03-7dda2172ea62 .tooltip .label{fill:rgba(0,0,0,.87)}#chart-e8d428cb-2d07-4216-8c03-7dda2172ea62 .tooltip .label{fill:rgba(0,0,0,.87)}#chart-e8d428cb-2d07-4216-8c03-7dda2172ea62 .tooltip .legend{font-size:.8em;fill:rgba(0,0,0,.54)}#chart-e8d428cb-2d07-4216-8c03-7dda2172ea62 .tooltip .x_label{font-size:.6em;fill:rgba(0,0,0,1)}#chart-e8d428cb-2d07-4216-8c03-7dda2172ea62 .tooltip .xlink{font-size:.5em;text-decoration:underline}#chart-e8d428cb-2d07-4216-8c03-7dda2172ea62 .tooltip .value{font-size:1.5em}#chart-e8d428cb-2d07-4216-8c03-7dda2172ea62 .bound{font-size:.5em}#chart-e8d428cb-2d07-4216-8c03-7dda2172ea62 .max-value{font-size:.75em;fill:rgba(0,0,0,.54)}#chart-e8d428cb-2d07-4216-8c03-7dda2172ea62 .map-element{fill:rgba(255,255,255,1);stroke:rgba(0,0,0,.54) !important}#chart-e8d428cb-2d07-4216-8c03-7dda2172ea62 .map-element .reactive{fill-opacity:inherit;stroke-opacity:inherit}#chart-e8d428cb-2d07-4216-8c03-7dda2172ea62 .color-0,#chart-e8d428cb-2d07-4216-8c03-7dda2172ea62 .color-0 a:visited{stroke:#F44336;fill:#F44336}#chart-e8d428cb-2d07-4216-8c03-7dda2172ea62 .color-1,#chart-e8d428cb-2d07-4216-8c03-7dda2172ea62 .color-1 a:visited{stroke:#3F51B5;fill:#3F51B5}#chart-e8d428cb-2d07-4216-8c03-7dda2172ea62 .color-2,#chart-e8d428cb-2d07-4216-8c03-7dda2172ea62 .color-2 a:visited{stroke:#009688;fill:#009688}#chart-e8d428cb-2d07-4216-8c03-7dda2172ea62 .color-3,#chart-e8d428cb-2d07-4216-8c03-7dda2172ea62 .color-3 a:visited{stroke:#FFC107;fill:#FFC107}#chart-e8d428cb-2d07-4216-8c03-7dda2172ea62 .text-overlay .color-0 text{fill:black}#chart-e8d428cb-2d07-4216-8c03-7dda2172ea62 .text-overlay .color-1 text{fill:black}#chart-e8d428cb-2d07-4216-8c03-7dda2172ea62 .text-overlay .color-2 text{fill:black}#chart-e8d428cb-2d07-4216-8c03-7dda2172ea62 .text-overlay .color-3 text{fill:black}
#chart-e8d428cb-2d07-4216-8c03-7dda2172ea62 text.no_data{text-anchor:middle}#chart-e8d428cb-2d07-4216-8c03-7dda2172ea62 .guide.line{fill:none}#chart-e8d428cb-2d07-4216-8c03-7dda2172ea62 .centered{text-anchor:middle}#chart-e8d428cb-2d07-4216-8c03-7dda2172ea62 .title{text-anchor:middle}#chart-e8d428cb-2d07-4216-8c03-7dda2172ea62 .legends .legend text{fill-opacity:1}#chart-e8d428cb-2d07-4216-8c03-7dda2172ea62 .axis.x text{text-anchor:middle}#chart-e8d428cb-2d07-4216-8c03-7dda2172ea62 .axis.x:not(.web) text[transform]{text-anchor:start}#chart-e8d428cb-2d07-4216-8c03-7dda2172ea62 .axis.x:not(.web) text[transform].backwards{text-anchor:end}#chart-e8d428cb-2d07-4216-8c03-7dda2172ea62 .axis.y text{text-anchor:end}#chart-e8d428cb-2d07-4216-8c03-7dda2172ea62 .axis.y text[transform].backwards{text-anchor:start}#chart-e8d428cb-2d07-4216-8c03-7dda2172ea62 .axis.y2 text{text-anchor:start}#chart-e8d428cb-2d07-4216-8c03-7dda2172ea62 .axis.y2 text[transform].backwards{text-anchor:end}#chart-e8d428cb-2d07-4216-8c03-7dda2172ea62 .axis .guide.line{stroke-dasharray:4,4}#chart-e8d428cb-2d07-4216-8c03-7dda2172ea62 .axis .major.guide.line{stroke-dasharray:6,6}#chart-e8d428cb-2d07-4216-8c03-7dda2172ea62 .horizontal .axis.y .guide.line,#chart-e8d428cb-2d07-4216-8c03-7dda2172ea62 .horizontal .axis.y2 .guide.line,#chart-e8d428cb-2d07-4216-8c03-7dda2172ea62 .vertical .axis.x .guide.line{opacity:0}#chart-e8d428cb-2d07-4216-8c03-7dda2172ea62 .horizontal .axis.always_show .guide.line,#chart-e8d428cb-2d07-4216-8c03-7dda2172ea62 .vertical .axis.always_show .guide.line{opacity:1 !important}#chart-e8d428cb-2d07-4216-8c03-7dda2172ea62 .axis.y .guides:hover .guide.line,#chart-e8d428cb-2d07-4216-8c03-7dda2172ea62 .axis.y2 .guides:hover .guide.line,#chart-e8d428cb-2d07-4216-8c03-7dda2172ea62 .axis.x .guides:hover .guide.line{opacity:1}#chart-e8d428cb-2d07-4216-8c03-7dda2172ea62 .axis .guides:hover text{opacity:1}#chart-e8d428cb-2d07-4216-8c03-7dda2172ea62 .nofill{fill:none}#chart-e8d428cb-2d07-4216-8c03-7dda2172ea62 .subtle-fill{fill-opacity:.2}#chart-e8d428cb-2d07-4216-8c03-7dda2172ea62 .dot{stroke-width:1px;fill-opacity:1}#chart-e8d428cb-2d07-4216-8c03-7dda2172ea62 .dot.active{stroke-width:5px}#chart-e8d428cb-2d07-4216-8c03-7dda2172ea62 .dot.negative{fill:transparent}#chart-e8d428cb-2d07-4216-8c03-7dda2172ea62 text,#chart-e8d428cb-2d07-4216-8c03-7dda2172ea62 tspan{stroke:none !important}#chart-e8d428cb-2d07-4216-8c03-7dda2172ea62 .series text.active{opacity:1}#chart-e8d428cb-2d07-4216-8c03-7dda2172ea62 .tooltip rect{fill-opacity:.95;stroke-width:.5}#chart-e8d428cb-2d07-4216-8c03-7dda2172ea62 .tooltip text{fill-opacity:1}#chart-e8d428cb-2d07-4216-8c03-7dda2172ea62 .showable{visibility:hidden}#chart-e8d428cb-2d07-4216-8c03-7dda2172ea62 .showable.shown{visibility:visible}#chart-e8d428cb-2d07-4216-8c03-7dda2172ea62 .gauge-background{fill:rgba(229,229,229,1);stroke:none}#chart-e8d428cb-2d07-4216-8c03-7dda2172ea62 .bg-lines{stroke:rgba(249,249,249,1);stroke-width:2px}</style><script type="text/javascript">window.pygal = window.pygal || {};window.pygal.config = window.pygal.config || {};window.pygal.config['e8d428cb-2d07-4216-8c03-7dda2172ea62'] = {"margin_top": null, "logarithmic": false, "show_minor_y_labels": true, "y_labels": null, "show_y_guides": true, "interpolate": null, "print_values_position": "center", "y_label_rotation": 0, "no_prefix": false, "x_labels_major_count": null, "title": "Cumulative Distribution function", "spacing": 10, "show_dots": false, "css": ["file://style.css", "file://graph.css"], "secondary_range": null, "print_values": false, "missing_value_fill_truncation": "x", "legend_at_bottom_columns": null, "margin_left": null, "include_x_axis": false, "interpolation_parameters": {}, "show_only_major_dots": false, "print_labels": false, "zero": 0, "stroke_style": null, "inverse_y_axis": false, "strict": false, "dynamic_print_values": false, "pretty_print": false, "x_labels_major_every": null, "x_labels_major": null, "margin": 20, "show_legend": true, "rounded_bars": null, "margin_bottom": null, "force_uri_protocol": "https", "max_scale": 16, "height": 600, "show_x_labels": true, "half_pie": false, "box_mode": "extremes", "legends": ["Old 40", "New 40", "Fit Old 40", "Fit New 40"], "show_x_guides": false, "style": {"label_font_size": 10, "value_label_font_size": 10, "colors": ["#F44336", "#3F51B5", "#009688", "#FFC107", "#FF5722", "#9C27B0", "#03A9F4", "#8BC34A", "#FF9800", "#E91E63", "#2196F3", "#4CAF50", "#FFEB3B", "#673AB7", "#00BCD4", "#CDDC39", "#9E9E9E", "#607D8B"], "opacity_hover": ".8", "stroke_opacity": ".8", "plot_background": "rgba(255, 255, 255, 1)", "foreground_subtle": "rgba(0, 0, 0, .54)", "font_family": "Consolas, \"Liberation Mono\", Menlo, Courier, monospace", "major_guide_stroke_dasharray": "6,6", "value_font_family": "Consolas, \"Liberation Mono\", Menlo, Courier, monospace", "guide_stroke_dasharray": "4,4", "tooltip_font_family": "Consolas, \"Liberation Mono\", Menlo, Courier, monospace", "foreground_strong": "rgba(0, 0, 0, 1)", "background": "rgba(249, 249, 249, 1)", "transition": "150ms", "opacity": ".7", "value_colors": [], "no_data_font_size": 64, "stroke_opacity_hover": ".9", "foreground": "rgba(0, 0, 0, .87)", "legend_font_size": 14, "value_label_font_family": "Consolas, \"Liberation Mono\", Menlo, Courier, monospace", "value_background": "rgba(229, 229, 229, 1)", "major_label_font_size": 10, "legend_font_family": "Consolas, \"Liberation Mono\", Menlo, Courier, monospace", "label_font_family": "Consolas, \"Liberation Mono\", Menlo, Courier, monospace", "title_font_family": "Consolas, \"Liberation Mono\", Menlo, Courier, monospace", "tooltip_font_size": 14, "no_data_font_family": "Consolas, \"Liberation Mono\", Menlo, Courier, monospace", "value_font_size": 16, "title_font_size": 16, "major_label_font_family": "Consolas, \"Liberation Mono\", Menlo, Courier, monospace", "ci_colors": []}, "truncate_label": null, "x_labels": null, "margin_right": null, "show_y_labels": true, "fill": false, "stroke": true, "show_minor_x_labels": true, "y_labels_major_every": null, "y_labels_major": null, "y_labels_major_count": null, "explicit_size": false, "inner_radius": 0, "tooltip_fancy_mode": true, "order_min": null, "no_data_text": "No data", "classes": ["pygal-chart"], "defs": [], "legend_box_size": 12, "print_zeroes": true, "x_label_rotation": 15, "js": ["//kozea.github.io/pygal.js/2.0.x/pygal-tooltips.min.js"], "allow_interruptions": false, "disable_xml_declaration": false, "formatter": null, "range": null, "legend_at_bottom": false, "xrange": null, "y_title": "Percentage of data", "stack_from_top": false, "tooltip_border_radius": 0, "dots_size": 2.5, "interpolation_precision": 250, "x_title": "Throughput", "min_scale": 4, "truncate_legend": null, "width": 800}</script><script type="text/javascript" xlink:href="https://kozea.github.io/pygal.js/2.0.x/pygal-tooltips.min.js"/></defs><title>Cumulative Distribution function</title><g class="graph xy-graph vertical"><rect class="background" height="600" width="800" x="0" y="0"/><g class="plot" transform="translate(180, 46)"><rect class="background" height="484.0237715644639" width="567.8400053803903" x="0" y="0"/><g class="axis y"><g class="guides"><path class="axis major line" d="M0.000000 474.715622 h567.840005"/><text class="major" x="-5" y="478.215622111">0</text><title>0</title></g><g class="guides"><path class="guide line" d="M0.000000 428.174875 h567.840005"/><text class="" x="-5" y="431.674874845">10</text><title>10</title></g><g class="guides"><path class="guide line" d="M0.000000 381.634128 h567.840005"/><text class="" x="-5" y="385.13412758">20</text><title>20</title></g><g class="guides"><path class="guide line" d="M0.000000 335.093380 h567.840005"/><text class="" x="-5" y="338.593380314">30</text><title>30</title></g><g class="guides"><path class="guide line" d="M0.000000 288.552633 h567.840005"/><text class="" x="-5" y="292.052633048">40</text><title>40</title></g><g class="guides"><path class="major guide line" d="M0.000000 242.011886 h567.840005"/><text class="major" x="-5" y="245.511885782">50</text><title>50</title></g><g class="guides"><path class="guide line" d="M0.000000 195.471139 h567.840005"/><text class="" x="-5" y="198.971138516">60</text><title>60</title></g><g class="guides"><path class="guide line" d="M0.000000 148.930391 h567.840005"/><text class="" x="-5" y="152.430391251">70</text><title>70</title></g><g class="guides"><path class="guide line" d="M0.000000 102.389644 h567.840005"/><text class="" x="-5" y="105.889643985">80</text><title>80</title></g><g class="guides"><path class="guide line" d="M0.000000 55.848897 h567.840005"/><text class="" x="-5" y="59.348896719">90</text><title>90</title></g><g class="guides"><path class="major guide line" d="M0.000000 9.308149 h567.840005"/><text class="major" x="-5" y="12.8081494532">100</text><title>100</title></g></g><g class="axis x"><path class="line" d="M0.000000 0.000000 v484.023772"/><g class="guides"><path class="guide line" d="M17.801380 0.000000 v484.023772"/><text class="" x="17.8013795934" y="499.0237715644639" transform="rotate(15 17.801380 499.023772)">40000000</text><title>40000000</title></g><g class="guides"><path class="guide line" d="M63.377800 0.000000 v484.023772"/><text class="" x="63.3778000045" y="499.0237715644639" transform="rotate(15 63.377800 499.023772)">60000000</text><title>60000000</title></g><g class="guides"><path class="guide line" d="M108.954220 0.000000 v484.023772"/><text class="" x="108.954220416" y="499.0237715644639" transform="rotate(15 108.954220 499.023772)">80000000</text><title>80000000</title></g><g class="guides"><path class="guide line" d="M154.530641 0.000000 v484.023772"/><text class="" x="154.530640827" y="499.0237715644639" transform="rotate(15 154.530641 499.023772)">100000000</text><title>100000000</title></g><g class="guides"><path class="guide line" d="M200.107061 0.000000 v484.023772"/><text class="" x="200.107061238" y="499.0237715644639" transform="rotate(15 200.107061 499.023772)">120000000</text><title>120000000</title></g><g class="guides"><path class="guide line" d="M245.683482 0.000000 v484.023772"/><text class="" x="245.683481649" y="499.0237715644639" transform="rotate(15 245.683482 499.023772)">140000000</text><title>140000000</title></g><g class="guides"><path class="guide line" d="M291.259902 0.000000 v484.023772"/><text class="" x="291.25990206" y="499.0237715644639" transform="rotate(15 291.259902 499.023772)">160000000</text><title>160000000</title></g><g class="guides"><path class="guide line" d="M336.836322 0.000000 v484.023772"/><text class="" x="336.836322471" y="499.0237715644639" transform="rotate(15 336.836322 499.023772)">180000000</text><title>180000000</title></g><g class="guides"><path class="guide line" d="M382.412743 0.000000 v484.023772"/><text class="" x="382.412742882" y="499.0237715644639" transform="rotate(15 382.412743 499.023772)">200000000</text><title>200000000</title></g><g class="guides"><path class="guide line" d="M427.989163 0.000000 v484.023772"/><text class="" x="427.989163293" y="499.0237715644639" transform="rotate(15 427.989163 499.023772)">220000000</text><title>220000000</title></g><g class="guides"><path class="guide line" d="M473.565584 0.000000 v484.023772"/><text class="" x="473.565583704" y="499.0237715644639" transform="rotate(15 473.565584 499.023772)">240000000</text><title>240000000</title></g><g class="guides"><path class="guide line" d="M519.142004 0.000000 v484.023772"/><text class="" x="519.142004115" y="499.0237715644639" transform="rotate(15 519.142004 499.023772)">260000000</text><title>260000000</title></g></g><g class="series serie-0 color-0"><path class="line reactive nofill" d="M105.937451 474.715622 L107.932687 462.782097 112.571109 450.848572 116.681074 438.915047 118.121672 426.981522 125.512265 415.047997 136.681653 403.114472 144.492193 391.180948 145.881750 379.247423 148.216467 367.313898 148.375732 355.380373 153.404476 343.446848 162.244128 331.513323 174.525537 319.579798 177.573139 307.646273 181.977463 295.712748 183.629425 283.779223 183.822030 271.845698 184.327336 259.912173 185.807460 247.978648 191.269673 236.045123 193.011113 224.111598 205.463594 212.178073 253.046351 200.244548 262.856026 188.311024 266.267230 176.377499 270.155568 164.443974 270.351717 152.510449 271.191988 140.576924 320.540962 128.643399 353.677239 116.709874 354.570895 104.776349 360.830110 92.842824 362.094975 80.909299 362.371865 68.975774 367.575390 57.042249 372.384041 45.108724 372.526226 33.175199 373.489084 21.241674 375.274607 9.308149"/></g><g class="series serie-1 color-1"><path class="line reactive nofill" d="M10.920000 474.715622 L17.214671 462.782097 24.074725 450.848572 45.904412 438.915047 46.881634 426.981522 48.681542 415.047997 133.248969 403.114472 137.763263 391.180948 138.334201 379.247423 148.748606 367.313898 149.934504 355.380373 158.070623 343.446848 172.248897 331.513323 192.400199 319.579798 196.331761 307.646273 204.346101 295.712748 208.341890 283.779223 210.337348 271.845698 210.413520 259.912173 214.284241 247.978648 217.109802 236.045123 219.088636 224.111598 222.115833 212.178073 222.844689 200.244548 232.862081 188.311024 446.927074 176.377499 447.468258 164.443974 447.497346 152.510449 451.124315 140.576924 453.143001 128.643399 455.843972 116.709874 460.105878 104.776349 469.326588 92.842824 469.505475 80.909299 470.120227 68.975774 542.345207 57.042249 542.636437 45.108724 549.015063 33.175199 551.613804 21.241674 556.920005 9.308149"/></g><g class="series serie-2 color-2"><path class="line reactive nofill" d="M10.920000 474.715622 L11.466547 474.715622 12.013093 474.715622 12.559640 474.715622 13.106186 474.715622 13.652733 474.715622 14.199279 474.715622 14.745826 474.715622 15.292373 474.715622 15.838919 474.715622 16.385466 474.715622 16.932012 474.715622 17.478559 474.715622 18.025105 474.715622 18.571652 474.715622 19.118198 474.715622 19.664745 474.715622 20.211291 474.715622 20.757838 474.715622 21.304385 474.715622 21.850931 474.715622 22.397478 474.715622 22.944024 474.715622 23.490571 474.715622 24.037117 474.715622 24.583664 474.715622 25.130210 474.715622 25.676757 474.715622 26.223304 474.715622 26.769850 474.715622 27.316397 474.715622 27.862943 474.715622 28.409490 474.715622 28.956036 474.715622 29.502583 474.715622 30.049129 474.715622 30.595676 474.715622 31.142223 474.715622 31.688769 474.715622 32.235316 474.715622 32.781862 474.715622 33.328409 474.715622 33.874955 474.715622 34.421502 474.715622 34.968048 474.715622 35.514595 474.715622 36.061141 474.715622 36.607688 474.715622 37.154235 474.715622 37.700781 474.715622 38.247328 474.715622 38.793874 474.715622 39.340421 474.715622 39.886967 474.715622 40.433514 474.715622 40.980060 474.715622 41.526607 474.715622 42.073154 474.715622 42.619700 474.715622 43.166247 474.715622 43.712793 474.715622 44.259340 474.715622 44.805886 474.715622 45.352433 474.715622 45.898979 474.715622 46.445526 474.715622 46.992073 474.715622 47.538619 474.715622 48.085166 474.715622 48.631712 474.715622 49.178259 474.715622 49.724805 474.715622 50.271352 474.715622 50.817898 474.715622 51.364445 474.715622 51.910991 474.715622 52.457538 474.715622 53.004085 474.715622 53.550631 474.715622 54.097178 474.715622 54.643724 474.715622 55.190271 474.715622 55.736817 474.715622 56.283364 474.715622 56.829910 474.715622 57.376457 474.715622 57.923004 474.715622 58.469550 474.715622 59.016097 474.715622 59.562643 474.715622 60.109190 474.715622 60.655736 474.715622 61.202283 474.715622 61.748829 474.715622 62.295376 474.715622 62.841923 474.715622 63.388469 474.715622 63.935016 474.715622 64.481562 474.715622 65.028109 474.715622 65.574655 474.715622 66.121202 474.715622 66.667748 474.715622 67.214295 474.715622 67.760841 474.715622 68.307388 474.715622 68.853935 474.715622 69.400481 474.715622 69.947028 474.715622 70.493574 474.715622 71.040121 474.715622 71.586667 474.715622 72.133214 474.715622 72.679760 474.715622 73.226307 474.715622 73.772854 474.715622 74.319400 474.715622 74.865947 474.715622 75.412493 474.715622 75.959040 474.715622 76.505586 474.715622 77.052133 474.715622 77.598679 474.715622 78.145226 474.715622 78.691773 474.715622 79.238319 474.715622 79.784866 474.715622 80.331412 474.715622 80.877959 474.715622 81.424505 474.715622 81.971052 474.715622 82.517598 474.715622 83.064145 474.715622 83.610691 474.715622 84.157238 474.715622 84.703785 474.715622 85.250331 474.715622 85.796878 474.715622 86.343424 474.715622 86.889971 474.715622 87.436517 474.715622 87.983064 474.715622 88.529610 474.715622 89.076157 474.715622 89.622704 474.715622 90.169250 474.715622 90.715797 474.715622 91.262343 474.715622 91.808890 474.715622 92.355436 474.715622 92.901983 474.715622 93.448529 474.715622 93.995076 474.715622 94.541623 474.715622 95.088169 474.715622 95.634716 474.715622 96.181262 474.715622 96.727809 474.715622 97.274355 474.715622 97.820902 474.715622 98.367448 474.715622 98.913995 474.715622 99.460541 474.715622 100.007088 474.715622 100.553635 474.715622 101.100181 474.715622 101.646728 474.715622 102.193274 474.715622 102.739821 474.715622 103.286367 474.715622 103.832914 474.715622 104.379460 474.715622 104.926007 474.715622 105.472554 474.715622 106.019100 474.143297 106.565647 470.360372 107.112193 466.865182 107.658740 463.942416 108.205286 461.787041 108.751833 460.012569 109.298379 458.479896 109.844926 457.125970 110.391473 455.887736 110.938019 454.702143 111.484566 453.506136 112.031112 452.236661 112.577659 450.830696 113.124205 449.426990 113.670752 448.135522 114.217298 446.864463 114.763845 445.521986 115.310391 444.016263 115.856938 442.255468 116.403485 440.147772 116.950031 437.123660 117.496578 431.694708 118.043124 427.288819 118.589671 425.572684 119.136217 424.120671 119.682764 422.855411 120.229310 421.754323 120.775857 420.794828 121.322404 419.954349 121.868950 419.210306 122.415497 418.540120 122.962043 417.921213 123.508590 417.331006 124.055136 416.746919 124.601683 416.146375 125.148229 415.506794 125.694776 414.811998 126.241323 414.128023 126.787869 413.475483 127.334416 412.850938 127.880962 412.250951 128.427509 411.672084 128.974055 411.110897 129.520602 410.563953 130.067148 410.027814 130.613695 409.499041 131.160241 408.974197 131.706788 408.449842 132.253335 407.922539 132.799881 407.388849 133.346428 406.845335 133.892974 406.288558 134.439521 405.715079 134.986067 405.121461 135.532614 404.504265 136.079160 403.860053 136.625707 403.185387 137.172254 402.521009 137.718800 401.917808 138.265347 401.355321 138.811893 400.812479 139.358440 400.268214 139.904986 399.701458 140.451533 399.091141 140.998079 398.416196 141.544626 397.655554 142.091173 396.788146 142.637719 395.792905 143.184266 394.648761 143.730812 393.334646 144.277359 391.829492 144.823905 389.264885 145.370452 383.874930 145.916998 379.022136 146.463545 376.641425 147.010091 375.219519 147.556638 373.112427 148.103185 368.676154 148.649731 353.707478 149.196278 350.986201 149.742824 348.970985 150.289371 347.525004 150.835917 346.511430 151.382464 345.793436 151.929010 345.234195 152.475557 344.696881 153.022104 344.044664 153.568650 343.158895 154.115197 342.226676 154.661743 341.333070 155.208290 340.475502 155.754836 339.651396 156.301383 338.858174 156.847929 338.093262 157.394476 337.354082 157.941023 336.638059 158.487569 335.942615 159.034116 335.265176 159.580662 334.603165 160.127209 333.954004 160.673755 333.315119 161.220302 332.683933 161.766848 332.057870 162.313395 331.434793 162.859941 330.844823 163.406488 330.303050 163.953035 329.803187 164.499581 329.338949 165.046128 328.904048 165.592674 328.492199 166.139221 328.097115 166.685767 327.712510 167.232314 327.332098 167.778860 326.949591 168.325407 326.558704 168.871954 326.153150 169.418500 325.726643 169.965047 325.272897 170.511593 324.785625 171.058140 324.258541 171.604686 323.685359 172.151233 323.059791 172.697779 322.375552 173.244326 321.626356 173.790873 320.805916 174.337419 319.907945 174.883966 318.749586 175.430512 316.867511 175.977059 314.504668 176.523605 311.958645 177.070152 309.527028 177.616698 307.506305 178.163245 305.917487 178.709791 304.566885 179.256338 303.350888 179.802885 302.165883 180.349431 300.908256 180.895978 299.474393 181.442524 297.760683 181.989071 295.663874 182.535617 293.552414 183.082164 290.328831 183.628710 283.790908 184.175257 262.303079 184.721804 255.344786 185.268350 250.784451 185.814897 247.949981 186.361443 246.091661 186.907990 244.654785 187.454536 243.536641 188.001083 242.634514 188.547629 241.845691 189.094176 241.067459 189.640723 240.197102 190.187269 239.131909 190.733816 237.769165 191.280362 236.005521 191.826909 232.476036 192.373455 227.733414 192.920002 224.359577 193.466548 223.194719 194.013095 222.167139 194.559641 221.215267 195.106188 220.335266 195.652735 219.523298 196.199281 218.775524 196.745828 218.088107 197.292374 217.457208 197.838921 216.878989 198.385467 216.349612 198.932014 215.865239 199.478560 215.422032 200.025107 215.016152 200.571654 214.643761 201.118200 214.301021 201.664747 213.984094 202.211293 213.689142 202.757840 213.412326 203.304386 213.149809 203.850933 212.897752 204.397479 212.652317 204.944026 212.409666 205.490573 212.165976 206.037119 211.925018 206.583666 211.691789 207.130212 211.466101 207.676759 211.247766 208.223305 211.036597 208.769852 210.832407 209.316398 210.635007 209.862945 210.444212 210.409491 210.259833 210.956038 210.081682 211.502585 209.909574 212.049131 209.743319 212.595678 209.582730 213.142224 209.427621 213.688771 209.277804 214.235317 209.133090 214.781864 208.993294 215.328410 208.858227 215.874957 208.727702 216.421504 208.601532 216.968050 208.479529 217.514597 208.361505 218.061143 208.247274 218.607690 208.136647 219.154236 208.029438 219.700783 207.925459 220.247329 207.824522 220.793876 207.726441 221.340423 207.631027 221.886969 207.538094 222.433516 207.447453 222.980062 207.358918 223.526609 207.272300 224.073155 207.187414 224.619702 207.104070 225.166248 207.022082 225.712795 206.941262 226.259341 206.861423 226.805888 206.782378 227.352435 206.703938 227.898981 206.625917 228.445528 206.548127 228.992074 206.470381 229.538621 206.392490 230.085167 206.314269 230.631714 206.235529 231.178260 206.156083 231.724807 206.075744 232.271354 205.994323 232.817900 205.911634 233.364447 205.827490 233.910993 205.741702 234.457540 205.654084 235.004086 205.564447 235.550633 205.472605 236.097179 205.378370 236.643726 205.281555 237.190273 205.181972 237.736819 205.079434 238.283366 204.973753 238.829912 204.864742 239.376459 204.752213 239.923005 204.635980 240.469552 204.515854 241.016098 204.391648 241.562645 204.263175 242.109191 204.130248 242.655738 203.992678 243.202285 203.850279 243.748831 203.702863 244.295378 203.550242 244.841924 203.392230 245.388471 203.228639 245.935017 203.059280 246.481564 202.883968 247.028110 202.702514 247.574657 202.514731 248.121204 202.320432 248.667750 202.119429 249.214297 201.911535 249.760843 201.696562 250.307390 201.474322 250.853936 201.244630 251.400483 201.007296 251.947029 200.762134 252.493576 200.508956 253.040123 200.247575 253.586669 199.960509 254.133216 199.629526 254.679762 199.254509 255.226309 198.835346 255.772855 198.371923 256.319402 197.864125 256.865948 197.311840 257.412495 196.714953 257.959041 196.073352 258.505588 195.386923 259.052135 194.655552 259.598681 193.879125 260.145228 193.057529 260.691774 192.190650 261.238321 191.278375 261.784867 190.320590 262.331414 189.317181 262.877960 188.267608 263.424507 186.912662 263.971054 185.133469 264.517600 183.078542 265.064147 180.896395 265.610693 178.735541 266.157240 176.744494 266.703786 175.182950 267.250333 174.169110 267.796879 173.378531 268.343426 172.476447 268.889973 171.128096 269.436519 168.998712 269.983066 165.753532 270.529612 148.230970 271.076159 140.890295 271.622705 140.283031 272.169252 139.920220 272.715798 139.568535 273.262345 139.227777 273.808891 138.897742 274.355438 138.578232 274.901985 138.269043 275.448531 137.969976 275.995078 137.680829 276.541624 137.401400 277.088171 137.131490 277.634717 136.870896 278.181264 136.619417 278.727810 136.376853 279.274357 136.143002 279.820904 135.917663 280.367450 135.700635 280.913997 135.491717 281.460543 135.290707 282.007090 135.097405 282.553636 134.911609 283.100183 134.733119 283.646729 134.561732 284.193276 134.397249 284.739823 134.239467 285.286369 134.088186 285.832916 133.943204 286.379462 133.804321 286.926009 133.671335 287.472555 133.544045 288.019102 133.422250 288.565648 133.305749 289.112195 133.194340 289.658741 133.087823 290.205288 132.985997 290.751835 132.888659 291.298381 132.795610 291.844928 132.706648 292.391474 132.621571 292.938021 132.540179 293.484567 132.462271 294.031114 132.387645 294.577660 132.316100 295.124207 132.247436 295.670754 132.181450 296.217300 132.117943 296.763847 132.056712 297.310393 131.997556 297.856940 131.940275 298.403486 131.884667 298.950033 131.830532 299.496579 131.777667 300.043126 131.725872 300.589673 131.674946 301.136219 131.624687 301.682766 131.574895 302.229312 131.525368 302.775859 131.475906 303.322405 131.426306 303.868952 131.376368 304.415498 131.325891 304.962045 131.274674 305.508591 131.222514 306.055138 131.169213 306.601685 131.114567 307.148231 131.058376 307.694778 131.000440 308.241324 130.940556 308.787871 130.878523 309.334417 130.814142 309.880964 130.747209 310.427510 130.677525 310.974057 130.604887 311.520604 130.529096 312.067150 130.449949 312.613697 130.367246 313.160243 130.280785 313.706790 130.190366 314.253336 130.095787 314.799883 129.996847 315.346429 129.893345 315.892976 129.785079 316.439523 129.671850 316.986069 129.553454 317.532616 129.429693 318.079162 129.300363 318.625709 129.165264 319.172255 129.024196 319.718802 128.876956 320.265348 128.723343 320.811895 128.565094 321.358441 128.413709 321.904988 128.270694 322.451535 128.135537 322.998081 128.007726 323.544628 127.886750 324.091174 127.772095 324.637721 127.663252 325.184267 127.559708 325.730814 127.460950 326.277360 127.366468 326.823907 127.275750 327.370454 127.188283 327.917000 127.103556 328.463547 127.021057 329.010093 126.940274 329.556640 126.860695 330.103186 126.781809 330.649733 126.703104 331.196279 126.624068 331.742826 126.544189 332.289373 126.462956 332.835919 126.379855 333.382466 126.294377 333.929012 126.206009 334.475559 126.114238 335.022105 126.018554 335.568652 125.918444 336.115198 125.813397 336.661745 125.702901 337.208291 125.586444 337.754838 125.463514 338.301385 125.333600 338.847931 125.196189 339.394478 125.050770 339.941024 124.896831 340.487571 124.733860 341.034117 124.561345 341.580664 124.378775 342.127210 124.185638 342.673757 123.981421 343.220304 123.765614 343.766850 123.537704 344.313397 123.297179 344.859943 123.043529 345.406490 122.776240 345.953036 122.494800 346.499583 122.198700 347.046129 121.887425 347.592676 121.560466 348.139223 121.217309 348.685769 120.857443 349.232316 120.480356 349.778862 120.085536 350.325409 119.672472 350.871955 119.240652 351.418502 118.789564 351.965048 118.318695 352.511595 117.827536 353.058141 117.315572 353.604688 116.782293 354.151235 110.579870 354.697781 104.270995 355.244328 102.429393 355.790874 101.057164 356.337421 100.053991 356.883967 99.319562 357.430514 98.753559 357.977060 98.255670 358.523607 97.725578 359.070154 97.062970 359.616700 96.167529 360.163247 94.938941 360.709793 93.276892 361.256340 90.702130 361.802886 85.430210 362.349433 69.281030 362.895979 66.223789 363.442526 64.059577 363.989073 62.481580 364.535619 61.353811 365.082166 60.540282 365.628712 59.905004 366.175259 59.311991 366.721805 58.625253 367.268352 57.708804 367.814898 56.518270 368.361445 55.614125 368.907991 54.968369 369.454538 54.400078 370.001085 53.728329 370.547631 52.772198 371.094178 51.350762 371.640724 49.283097 372.187271 46.388281 372.733817 28.684398 373.280364 22.889168 373.826910 18.287897 374.373457 13.999953 374.920004 10.705263 375.466550 9.308149 376.013097 9.308149 376.559643 9.308149 377.106190 9.308149 377.652736 9.308149 378.199283 9.308149 378.745829 9.308149 379.292376 9.308149 379.838923 9.308149 380.385469 9.308149 380.932016 9.308149 381.478562 9.308149 382.025109 9.308149 382.571655 9.308149 383.118202 9.308149 383.664748 9.308149 384.211295 9.308149 384.757841 9.308149 385.304388 9.308149 385.850935 9.308149 386.397481 9.308149 386.944028 9.308149 387.490574 9.308149 388.037121 9.308149 388.583667 9.308149 389.130214 9.308149 389.676760 9.308149 390.223307 9.308149 390.769854 9.308149 391.316400 9.308149 391.862947 9.308149 392.409493 9.308149 392.956040 9.308149 393.502586 9.308149 394.049133 9.308149 394.595679 9.308149 395.142226 9.308149 395.688773 9.308149 396.235319 9.308149 396.781866 9.308149 397.328412 9.308149 397.874959 9.308149 398.421505 9.308149 398.968052 9.308149 399.514598 9.308149 400.061145 9.308149 400.607691 9.308149 401.154238 9.308149 401.700785 9.308149 402.247331 9.308149 402.793878 9.308149 403.340424 9.308149 403.886971 9.308149 404.433517 9.308149 404.980064 9.308149 405.526610 9.308149 406.073157 9.308149 406.619704 9.308149 407.166250 9.308149 407.712797 9.308149 408.259343 9.308149 408.805890 9.308149 409.352436 9.308149 409.898983 9.308149 410.445529 9.308149 410.992076 9.308149 411.538623 9.308149 412.085169 9.308149 412.631716 9.308149 413.178262 9.308149 413.724809 9.308149 414.271355 9.308149 414.817902 9.308149 415.364448 9.308149 415.910995 9.308149 416.457541 9.308149 417.004088 9.308149 417.550635 9.308149 418.097181 9.308149 418.643728 9.308149 419.190274 9.308149 419.736821 9.308149 420.283367 9.308149 420.829914 9.308149 421.376460 9.308149 421.923007 9.308149 422.469554 9.308149 423.016100 9.308149 423.562647 9.308149 424.109193 9.308149 424.655740 9.308149 425.202286 9.308149 425.748833 9.308149 426.295379 9.308149 426.841926 9.308149 427.388473 9.308149 427.935019 9.308149 428.481566 9.308149 429.028112 9.308149 429.574659 9.308149 430.121205 9.308149 430.667752 9.308149 431.214298 9.308149 431.760845 9.308149 432.307391 9.308149 432.853938 9.308149 433.400485 9.308149 433.947031 9.308149 434.493578 9.308149 435.040124 9.308149 435.586671 9.308149 436.133217 9.308149 436.679764 9.308149 437.226310 9.308149 437.772857 9.308149 438.319404 9.308149 438.865950 9.308149 439.412497 9.308149 439.959043 9.308149 440.505590 9.308149 441.052136 9.308149 441.598683 9.308149 442.145229 9.308149 442.691776 9.308149 443.238323 9.308149 443.784869 9.308149 444.331416 9.308149 444.877962 9.308149 445.424509 9.308149 445.971055 9.308149 446.517602 9.308149 447.064148 9.308149 447.610695 9.308149 448.157241 9.308149 448.703788 9.308149 449.250335 9.308149 449.796881 9.308149 450.343428 9.308149 450.889974 9.308149 451.436521 9.308149 451.983067 9.308149 452.529614 9.308149 453.076160 9.308149 453.622707 9.308149 454.169254 9.308149 454.715800 9.308149 455.262347 9.308149 455.808893 9.308149 456.355440 9.308149 456.901986 9.308149 457.448533 9.308149 457.995079 9.308149 458.541626 9.308149 459.088173 9.308149 459.634719 9.308149 460.181266 9.308149 460.727812 9.308149 461.274359 9.308149 461.820905 9.308149 462.367452 9.308149 462.913998 9.308149 463.460545 9.308149 464.007091 9.308149 464.553638 9.308149 465.100185 9.308149 465.646731 9.308149 466.193278 9.308149 466.739824 9.308149 467.286371 9.308149 467.832917 9.308149 468.379464 9.308149 468.926010 9.308149 469.472557 9.308149 470.019104 9.308149 470.565650 9.308149 471.112197 9.308149 471.658743 9.308149 472.205290 9.308149 472.751836 9.308149 473.298383 9.308149 473.844929 9.308149 474.391476 9.308149 474.938023 9.308149 475.484569 9.308149 476.031116 9.308149 476.577662 9.308149 477.124209 9.308149 477.670755 9.308149 478.217302 9.308149 478.763848 9.308149 479.310395 9.308149 479.856941 9.308149 480.403488 9.308149 480.950035 9.308149 481.496581 9.308149 482.043128 9.308149 482.589674 9.308149 483.136221 9.308149 483.682767 9.308149 484.229314 9.308149 484.775860 9.308149 485.322407 9.308149 485.868954 9.308149 486.415500 9.308149 486.962047 9.308149 487.508593 9.308149 488.055140 9.308149 488.601686 9.308149 489.148233 9.308149 489.694779 9.308149 490.241326 9.308149 490.787873 9.308149 491.334419 9.308149 491.880966 9.308149 492.427512 9.308149 492.974059 9.308149 493.520605 9.308149 494.067152 9.308149 494.613698 9.308149 495.160245 9.308149 495.706791 9.308149 496.253338 9.308149 496.799885 9.308149 497.346431 9.308149 497.892978 9.308149 498.439524 9.308149 498.986071 9.308149 499.532617 9.308149 500.079164 9.308149 500.625710 9.308149 501.172257 9.308149 501.718804 9.308149 502.265350 9.308149 502.811897 9.308149 503.358443 9.308149 503.904990 9.308149 504.451536 9.308149 504.998083 9.308149 505.544629 9.308149 506.091176 9.308149 506.637723 9.308149 507.184269 9.308149 507.730816 9.308149 508.277362 9.308149 508.823909 9.308149 509.370455 9.308149 509.917002 9.308149 510.463548 9.308149 511.010095 9.308149 511.556641 9.308149 512.103188 9.308149 512.649735 9.308149 513.196281 9.308149 513.742828 9.308149 514.289374 9.308149 514.835921 9.308149 515.382467 9.308149 515.929014 9.308149 516.475560 9.308149 517.022107 9.308149 517.568654 9.308149 518.115200 9.308149 518.661747 9.308149 519.208293 9.308149 519.754840 9.308149 520.301386 9.308149 520.847933 9.308149 521.394479 9.308149 521.941026 9.308149 522.487573 9.308149 523.034119 9.308149 523.580666 9.308149 524.127212 9.308149 524.673759 9.308149 525.220305 9.308149 525.766852 9.308149 526.313398 9.308149 526.859945 9.308149 527.406491 9.308149 527.953038 9.308149 528.499585 9.308149 529.046131 9.308149 529.592678 9.308149 530.139224 9.308149 530.685771 9.308149 531.232317 9.308149 531.778864 9.308149 532.325410 9.308149 532.871957 9.308149 533.418504 9.308149 533.965050 9.308149 534.511597 9.308149 535.058143 9.308149 535.604690 9.308149 536.151236 9.308149 536.697783 9.308149 537.244329 9.308149 537.790876 9.308149 538.337423 9.308149 538.883969 9.308149 539.430516 9.308149 539.977062 9.308149 540.523609 9.308149 541.070155 9.308149 541.616702 9.308149 542.163248 9.308149 542.709795 9.308149 543.256341 9.308149 543.802888 9.308149 544.349435 9.308149 544.895981 9.308149 545.442528 9.308149 545.989074 9.308149 546.535621 9.308149 547.082167 9.308149 547.628714 9.308149 548.175260 9.308149 548.721807 9.308149 549.268354 9.308149 549.814900 9.308149 550.361447 9.308149 550.907993 9.308149 551.454540 9.308149 552.001086 9.308149 552.547633 9.308149 553.094179 9.308149 553.640726 9.308149 554.187273 9.308149 554.733819 9.308149 555.280366 9.308149 555.826912 9.308149 556.373459 9.308149 556.920005 9.308149"/></g><g class="series serie-3 color-3"><path class="line reactive nofill" d="M10.920000 474.715622 L11.466547 473.641914 12.013093 472.574909 12.559640 471.514746 13.106186 470.461562 13.652733 469.415497 14.199279 468.376688 14.745826 467.345275 15.292373 466.321395 15.838919 465.305186 16.385466 464.296788 16.932012 463.296339 17.478559 462.296484 18.025105 461.254841 18.571652 460.177708 19.118198 459.080673 19.664745 457.979321 20.211291 456.889236 20.757838 455.826004 21.304385 454.805211 21.850931 453.842441 22.397478 452.953280 22.944024 452.153313 23.490571 451.458126 24.037117 450.883304 24.583664 450.402042 25.130210 449.963461 25.676757 449.564728 26.223304 449.203229 26.769850 448.876347 27.316397 448.581467 27.862943 448.315974 28.409490 448.077253 28.956036 447.862687 29.502583 447.669663 30.049129 447.495563 30.595676 447.337774 31.142223 447.193679 31.688769 447.060663 32.235316 446.936110 32.781862 446.817406 33.328409 446.701934 33.874955 446.587080 34.421502 446.470228 34.968048 446.348763 35.514595 446.220069 36.061141 446.081531 36.607688 445.930533 37.154235 445.764460 37.700781 445.580696 38.247328 445.376627 38.793874 445.149637 39.340421 444.897110 39.886967 444.616431 40.433514 444.304985 40.980060 443.960156 41.526607 443.579328 42.073154 443.159887 42.619700 442.699217 43.166247 442.194703 43.712793 441.643729 44.259340 441.043679 44.805886 440.391939 45.352433 439.685893 45.898979 438.922925 46.445526 433.017729 46.992073 425.993367 47.538619 421.087826 48.085166 417.046604 48.631712 415.081817 49.178259 414.852324 49.724805 414.641951 50.271352 414.436677 50.817898 414.236437 51.364445 414.041165 51.910991 413.850795 52.457538 413.665260 53.004085 413.484496 53.550631 413.308434 54.097178 413.137010 54.643724 412.970157 55.190271 412.807809 55.736817 412.649901 56.283364 412.496365 56.829910 412.347136 57.376457 412.202147 57.923004 412.061334 58.469550 411.924628 59.016097 411.791965 59.562643 411.663279 60.109190 411.538502 60.655736 411.417570 61.202283 411.300415 61.748829 411.186972 62.295376 411.077175 62.841923 410.970958 63.388469 410.868254 63.935016 410.768997 64.481562 410.673122 65.028109 410.580562 65.574655 410.491251 66.121202 410.405123 66.667748 410.322112 67.214295 410.242151 67.760841 410.165176 68.307388 410.091118 68.853935 410.019913 69.400481 409.951495 69.947028 409.885796 70.493574 409.822752 71.040121 409.762296 71.586667 409.704361 72.133214 409.648883 72.679760 409.595794 73.226307 409.545028 73.772854 409.496520 74.319400 409.450203 74.865947 409.406012 75.412493 409.363879 75.959040 409.323740 76.505586 409.285528 77.052133 409.249176 77.598679 409.214619 78.145226 409.181791 78.691773 409.150625 79.238319 409.121055 79.784866 409.093016 80.331412 409.066440 80.877959 409.041263 81.424505 409.017418 81.971052 408.994838 82.517598 408.973459 83.064145 408.953212 83.610691 408.934034 84.157238 408.915857 84.703785 408.898615 85.250331 408.882242 85.796878 408.866672 86.343424 408.851839 86.889971 408.837677 87.436517 408.824120 87.983064 408.811101 88.529610 408.798555 89.076157 408.786415 89.622704 408.774616 90.169250 408.763090 90.715797 408.751773 91.262343 408.740598 91.808890 408.729499 92.355436 408.718409 92.901983 408.707263 93.448529 408.695995 93.995076 408.684538 94.541623 408.672826 95.088169 408.660794 95.634716 408.648374 96.181262 408.635502 96.727809 408.622110 97.274355 408.608134 97.820902 408.593506 98.367448 408.578160 98.913995 408.562031 99.460541 408.545053 100.007088 408.527158 100.553635 408.508282 101.100181 408.488358 101.646728 408.467319 102.193274 408.445101 102.739821 408.421636 103.286367 408.396859 103.832914 408.370703 104.379460 408.343103 104.926007 408.313991 105.472554 408.283303 106.019100 408.250973 106.565647 408.216933 107.112193 408.181117 107.658740 408.143461 108.205286 408.103897 108.751833 408.062360 109.298379 408.018783 109.844926 407.973100 110.391473 407.925246 110.938019 407.875153 111.484566 407.822757 112.031112 407.767990 112.577659 407.710787 113.124205 407.651082 113.670752 407.588808 114.217298 407.523900 114.763845 407.456291 115.310391 407.385915 115.856938 407.312707 116.403485 407.236599 116.950031 407.157526 117.496578 407.075422 118.043124 406.990221 118.589671 406.901856 119.136217 406.810262 119.682764 406.715372 120.229310 406.617120 120.775857 406.515440 121.322404 406.410267 121.868950 406.301533 122.415497 406.189173 122.962043 406.073121 123.508590 405.953310 124.055136 405.829675 124.601683 405.702149 125.148229 405.570666 125.694776 405.435161 126.241323 405.295566 126.787869 405.151817 127.334416 405.003846 127.880962 404.851588 128.427509 404.694977 128.974055 404.533946 129.520602 404.368429 130.067148 404.198361 130.613695 404.023675 131.160241 403.844305 131.706788 403.660185 132.253335 403.471249 132.799881 403.277430 133.346428 403.075907 133.892974 402.743987 134.439521 402.182628 134.986067 401.346186 135.532614 400.189015 136.079160 398.665469 136.625707 396.729902 137.172254 394.336668 137.718800 391.440122 138.265347 379.841351 138.811893 377.938817 139.358440 376.690447 139.904986 375.679264 140.451533 374.875625 140.998079 374.249882 141.544626 373.772391 142.091173 373.413507 142.637719 373.143584 143.184266 372.932976 143.730812 372.752039 144.277359 372.571127 144.823905 372.360595 145.370452 372.090797 145.916998 371.732089 146.463545 371.254824 147.010091 370.629357 147.556638 369.826044 148.103185 368.815238 148.649731 367.567294 149.196278 363.374363 149.742824 356.570536 150.289371 354.310438 150.835917 352.830905 151.382464 351.538427 151.929010 350.413685 152.475557 349.437361 153.022104 348.590136 153.568650 347.852693 154.115197 347.205712 154.661743 346.629875 155.208290 346.105864 155.754836 345.614361 156.301383 345.136046 156.847929 344.651602 157.394476 344.141710 157.941023 343.587052 158.487569 342.994214 159.034116 342.414213 159.580662 341.848814 160.127209 341.297454 160.673755 340.759571 161.220302 340.234604 161.766848 339.721990 162.313395 339.221168 162.859941 338.731574 163.406488 338.252648 163.953035 337.783827 164.499581 337.324549 165.046128 336.874252 165.592674 336.432374 166.139221 335.998352 166.685767 335.571626 167.232314 335.151633 167.778860 334.737810 168.325407 334.329596 168.871954 333.926429 169.418500 333.527746 169.965047 333.132986 170.511593 332.741586 171.058140 332.352985 171.604686 331.966621 172.151233 331.581931 172.697779 331.205866 173.244326 330.851670 173.790873 330.518051 174.337419 330.203353 174.883966 329.905925 175.430512 329.624112 175.977059 329.356261 176.523605 329.100718 177.070152 328.855830 177.616698 328.619942 178.163245 328.391402 178.709791 328.168555 179.256338 327.949749 179.802885 327.733328 180.349431 327.517641 180.895978 327.301032 181.442524 327.081849 181.989071 326.858438 182.535617 326.629146 183.082164 326.392318 183.628710 326.146301 184.175257 325.889441 184.721804 325.620086 185.268350 325.336580 185.814897 325.037271 186.361443 324.720505 186.907990 324.384629 187.454536 324.027988 188.001083 323.648929 188.547629 323.245798 189.094176 322.816943 189.640723 322.360708 190.187269 321.875442 190.733816 321.359489 191.280362 320.811196 191.826909 320.228911 192.373455 319.610978 192.920002 318.676099 193.466548 317.199283 194.013095 315.358695 194.559641 313.333309 195.106188 311.302103 195.652735 309.444052 196.199281 307.938133 196.745828 306.821737 197.292374 305.835269 197.838921 304.948392 198.385467 304.143339 198.932014 303.402339 199.478560 302.707623 200.025107 302.041424 200.571654 301.385971 201.118200 300.723496 201.664747 300.036230 202.211293 299.306403 202.757840 298.516247 203.304386 297.647993 203.850933 296.683872 204.397479 295.606229 204.944026 294.413343 205.490573 293.101405 206.037119 291.656389 206.583666 290.064268 207.130212 288.311018 207.676759 286.382611 208.223305 284.265022 208.769852 282.438924 209.316398 280.894857 209.862945 277.641215 210.409491 260.037115 210.956038 256.004051 211.502585 253.485380 212.049131 251.988210 212.595678 251.109333 213.142224 250.445540 213.688771 249.593621 214.235317 248.150370 214.781864 246.147282 215.328410 244.023879 215.874957 241.763449 216.421504 239.345589 216.968050 236.749894 217.514597 233.784354 218.061143 230.284134 218.607690 226.772893 219.154236 223.801335 219.700783 221.676954 220.247329 220.056638 220.793876 218.489870 221.340423 216.526130 221.886969 213.714903 222.433516 206.850031 222.980062 199.848720 223.526609 198.341012 224.073155 196.972910 224.619702 195.737363 225.166248 194.627324 225.712795 193.635743 226.259341 192.755572 226.805888 191.979760 227.352435 191.301260 227.898981 190.713022 228.445528 190.207997 228.992074 189.779136 229.538621 189.419391 230.085167 189.121711 230.631714 188.879049 231.178260 188.684355 231.724807 188.530579 232.271354 188.410674 232.817900 188.317590 233.364447 188.237424 233.910993 188.158132 234.457540 188.079651 235.004086 188.001974 235.550633 187.925099 236.097179 187.849021 236.643726 187.773736 237.190273 187.699238 237.736819 187.625525 238.283366 187.552591 238.829912 187.480433 239.376459 187.409045 239.923005 187.338425 240.469552 187.268566 241.016098 187.199466 241.562645 187.131120 242.109191 187.063523 242.655738 186.996671 243.202285 186.930560 243.748831 186.865185 244.295378 186.800543 244.841924 186.736628 245.388471 186.673438 245.935017 186.610966 246.481564 186.549209 247.028110 186.488163 247.574657 186.427824 248.121204 186.368186 248.667750 186.309246 249.214297 186.251000 249.760843 186.193442 250.307390 186.136570 250.853936 186.080378 251.400483 186.024862 251.947029 185.970018 252.493576 185.915841 253.040123 185.862328 253.586669 185.809473 254.133216 185.757273 254.679762 185.705724 255.226309 185.654820 255.772855 185.604558 256.319402 185.554934 256.865948 185.505942 257.412495 185.457580 257.959041 185.409841 258.505588 185.362723 259.052135 185.316221 259.598681 185.270330 260.145228 185.225046 260.691774 185.180365 261.238321 185.136283 261.784867 185.092795 262.331414 185.049896 262.877960 185.007584 263.424507 184.965853 263.971054 184.924698 264.517600 184.884117 265.064147 184.844104 265.610693 184.804655 266.157240 184.765765 266.703786 184.727431 267.250333 184.689649 267.796879 184.652413 268.343426 184.615719 268.889973 184.579564 269.436519 184.543943 269.983066 184.508851 270.529612 184.474284 271.076159 184.440239 271.622705 184.406710 272.169252 184.373693 272.715798 184.341185 273.262345 184.309180 273.808891 184.277674 274.355438 184.246664 274.901985 184.216144 275.448531 184.186111 275.995078 184.156560 276.541624 184.127487 277.088171 184.098887 277.634717 184.070757 278.181264 184.043091 278.727810 184.015886 279.274357 183.989138 279.820904 183.962841 280.367450 183.936992 280.913997 183.911586 281.460543 183.886619 282.007090 183.862088 282.553636 183.837986 283.100183 183.814311 283.646729 183.791057 284.193276 183.768221 284.739823 183.745798 285.286369 183.723784 285.832916 183.702174 286.379462 183.680965 286.926009 183.660151 287.472555 183.639730 288.019102 183.619695 288.565648 183.600044 289.112195 183.580771 289.658741 183.561872 290.205288 183.543344 290.751835 183.525181 291.298381 183.507380 291.844928 183.489936 292.391474 183.472844 292.938021 183.456102 293.484567 183.439703 294.031114 183.423644 294.577660 183.407921 295.124207 183.392529 295.670754 183.377464 296.217300 183.362722 296.763847 183.348298 297.310393 183.334188 297.856940 183.320387 298.403486 183.306892 298.950033 183.293698 299.496579 183.280801 300.043126 183.268197 300.589673 183.255880 301.136219 183.243847 301.682766 183.232094 302.229312 183.220616 302.775859 183.209409 303.322405 183.198469 303.868952 183.187790 304.415498 183.177370 304.962045 183.167203 305.508591 183.157286 306.055138 183.147614 306.601685 183.138182 307.148231 183.128987 307.694778 183.120024 308.241324 183.111289 308.787871 183.102777 309.334417 183.094484 309.880964 183.086407 310.427510 183.078539 310.974057 183.070878 311.520604 183.063419 312.067150 183.056158 312.613697 183.049089 313.160243 183.042210 313.706790 183.035515 314.253336 183.029001 314.799883 183.022663 315.346429 183.016496 315.892976 183.010497 316.439523 183.004661 316.986069 182.998984 317.532616 182.993462 318.079162 182.988089 318.625709 182.982863 319.172255 182.977778 319.718802 182.972830 320.265348 182.968015 320.811895 182.963329 321.358441 182.958767 321.904988 182.954325 322.451535 182.949998 322.998081 182.945783 323.544628 182.941676 324.091174 182.937671 324.637721 182.933764 325.184267 182.929951 325.730814 182.926229 326.277360 182.922592 326.823907 182.919036 327.370454 182.915556 327.917000 182.912150 328.463547 182.908812 329.010093 182.905537 329.556640 182.902323 330.103186 182.899163 330.649733 182.896055 331.196279 182.892993 331.742826 182.889974 332.289373 182.886993 332.835919 182.884045 333.382466 182.881127 333.929012 182.878235 334.475559 182.875363 335.022105 182.872507 335.568652 182.869664 336.115198 182.866829 336.661745 182.863997 337.208291 182.861164 337.754838 182.858327 338.301385 182.855480 338.847931 182.852620 339.394478 182.849741 339.941024 182.846840 340.487571 182.843913 341.034117 182.840955 341.580664 182.837962 342.127210 182.834929 342.673757 182.831852 343.220304 182.828727 343.766850 182.825549 344.313397 182.822315 344.859943 182.819020 345.406490 182.815659 345.953036 182.812229 346.499583 182.808725 347.046129 182.805142 347.592676 182.801477 348.139223 182.797725 348.685769 182.793881 349.232316 182.789942 349.778862 182.785903 350.325409 182.781760 350.871955 182.777508 351.418502 182.773144 351.965048 182.768662 352.511595 182.764059 353.058141 182.759330 353.604688 182.754471 354.151235 182.749478 354.697781 182.744346 355.244328 182.739071 355.790874 182.733649 356.337421 182.728075 356.883967 182.722346 357.430514 182.716456 357.977060 182.710401 358.523607 182.704178 359.070154 182.697781 359.616700 182.691207 360.163247 182.684451 360.709793 182.677509 361.256340 182.670377 361.802886 182.663050 362.349433 182.655524 362.895979 182.647794 363.442526 182.639857 363.989073 182.631708 364.535619 182.623342 365.082166 182.614756 365.628712 182.605945 366.175259 182.596905 366.721805 182.587631 367.268352 182.578120 367.814898 182.568366 368.361445 182.558366 368.907991 182.548115 369.454538 182.537609 370.001085 182.526844 370.547631 182.515814 371.094178 182.504517 371.640724 182.492948 372.187271 182.481101 372.733817 182.468974 373.280364 182.456562 373.826910 182.443860 374.373457 182.430864 374.920004 182.417570 375.466550 182.403973 376.013097 182.390070 376.559643 182.375856 377.106190 182.361326 377.652736 182.346476 378.199283 182.331302 378.745829 182.315800 379.292376 182.299965 379.838923 182.283793 380.385469 182.267280 380.932016 182.250421 381.478562 182.233212 382.025109 182.215649 382.571655 182.197727 383.118202 182.179443 383.664748 182.160791 384.211295 182.141768 384.757841 182.122369 385.304388 182.102590 385.850935 182.082427 386.397481 182.061874 386.944028 182.040929 387.490574 182.019586 388.037121 181.997842 388.583667 181.975692 389.130214 181.953131 389.676760 181.930156 390.223307 181.906762 390.769854 181.882944 391.316400 181.858699 391.862947 181.834023 392.409493 181.808910 392.956040 181.783356 393.502586 181.757358 394.049133 181.730911 394.595679 181.704010 395.142226 181.676652 395.688773 181.648831 396.235319 181.620544 396.781866 181.591787 397.328412 181.562554 397.874959 181.532842 398.421505 181.502647 398.968052 181.471964 399.514598 181.440788 400.061145 181.409117 400.607691 181.376944 401.154238 181.344266 401.700785 181.311078 402.247331 181.277377 402.793878 181.243158 403.340424 181.208416 403.886971 181.173148 404.433517 181.137349 404.980064 181.101014 405.526610 181.064139 406.073157 181.026721 406.619704 180.988755 407.166250 180.950236 407.712797 180.911160 408.259343 180.871522 408.805890 180.831320 409.352436 180.790547 409.898983 180.749200 410.445529 180.707275 410.992076 180.664768 411.538623 180.621673 412.085169 180.577986 412.631716 180.533704 413.178262 180.488822 413.724809 180.443336 414.271355 180.397241 414.817902 180.350533 415.364448 180.303208 415.910995 180.255262 416.457541 180.206689 417.004088 180.157487 417.550635 180.107649 418.097181 180.057173 418.643728 180.006054 419.190274 179.954288 419.736821 179.901870 420.283367 179.848795 420.829914 179.795061 421.376460 179.740662 421.923007 179.685593 422.469554 179.629852 423.016100 179.573433 423.562647 179.516332 424.109193 179.458544 424.655740 179.400066 425.202286 179.340894 425.748833 179.281022 426.295379 179.220447 426.841926 179.159164 427.388473 179.097168 427.935019 179.034457 428.481566 178.971025 429.028112 178.906867 429.574659 178.841981 430.121205 178.776360 430.667752 178.710002 431.214298 178.642902 431.760845 178.575054 432.307391 178.506456 432.853938 178.437103 433.400485 178.366991 433.947031 178.296114 434.493578 178.224469 435.040124 178.152052 435.586671 178.078858 436.133217 178.004883 436.679764 177.930123 437.226310 177.854573 437.772857 177.778229 438.319404 177.701086 438.865950 177.623141 439.412497 177.544390 439.959043 177.464826 440.505590 177.384448 441.052136 177.303249 441.598683 177.221226 442.145229 177.138375 442.691776 177.054691 443.238323 176.970169 443.784869 176.884807 444.331416 176.798598 444.877962 176.711540 445.424509 176.623627 445.971055 176.534855 446.517602 176.445221 447.064148 175.939772 447.610695 151.465670 448.157241 147.638707 448.703788 145.411601 449.250335 144.232979 449.796881 143.551469 450.343428 142.815702 450.889974 141.474304 451.436521 139.047362 451.983067 135.772587 452.529614 132.229217 453.076160 128.990699 453.622707 126.239906 454.169254 123.617826 454.715800 121.152847 455.262347 118.879597 455.808893 116.832706 456.355440 114.954881 456.901986 113.150316 457.448533 111.432621 457.995079 109.815825 458.541626 108.313958 459.088173 106.941047 459.634719 105.711122 460.181266 104.638736 460.727812 103.761779 461.274359 103.072868 461.820905 102.538163 462.367452 102.123828 462.913998 101.796022 463.460545 101.520908 464.007091 101.264647 464.553638 100.993401 465.100185 100.673331 465.646731 100.270598 466.193278 99.751365 466.739824 99.081792 467.286371 98.228041 467.832917 97.156274 468.379464 95.832652 468.926010 94.223337 469.472557 82.687533 470.019104 69.407704 470.565650 68.763082 471.112197 68.509220 471.658743 68.263088 472.205290 68.024564 472.751836 67.793527 473.298383 67.569859 473.844929 67.353436 474.391476 67.144140 474.938023 66.941848 475.484569 66.746441 476.031116 66.557798 476.577662 66.375798 477.124209 66.200320 477.670755 66.031244 478.217302 65.868449 478.763848 65.711815 479.310395 65.561219 479.856941 65.416543 480.403488 65.277665 480.950035 65.144465 481.496581 65.016821 482.043128 64.894613 482.589674 64.777721 483.136221 64.666024 483.682767 64.559400 484.229314 64.457730 484.775860 64.360893 485.322407 64.268768 485.868954 64.181233 486.415500 64.098170 486.962047 64.019456 487.508593 63.944972 488.055140 63.874596 488.601686 63.808208 489.148233 63.745687 489.694779 63.686912 490.241326 63.631763 490.787873 63.580120 491.334419 63.531860 491.880966 63.486864 492.427512 63.445011 492.974059 63.406181 493.520605 63.370252 494.067152 63.337104 494.613698 63.306616 495.160245 63.278667 495.706791 63.253138 496.253338 63.229906 496.799885 63.208852 497.346431 63.189854 497.892978 63.172793 498.439524 63.157547 498.986071 63.143995 499.532617 63.132018 500.079164 63.121494 500.625710 63.112302 501.172257 63.104322 501.718804 63.097433 502.265350 63.091515 502.811897 63.086447 503.358443 63.082107 503.904990 63.078376 504.451536 63.075133 504.998083 63.072257 505.544629 63.069627 506.091176 63.067123 506.637723 63.064623 507.184269 63.062008 507.730816 63.059157 508.277362 63.055948 508.823909 63.052261 509.370455 63.047976 509.917002 63.042972 510.463548 63.037128 511.010095 63.030323 511.556641 63.022437 512.103188 63.013348 512.649735 63.002938 513.196281 62.991083 513.742828 62.977665 514.289374 62.962562 514.835921 62.945653 515.382467 62.926818 515.929014 62.905937 516.475560 62.882888 517.022107 62.857550 517.568654 62.829804 518.115200 62.799528 518.661747 62.766601 519.208293 62.730904 519.754840 62.692315 520.301386 62.650714 520.847933 62.605979 521.394479 62.557991 521.941026 62.506628 522.487573 62.451770 523.034119 62.393296 523.580666 62.331086 524.127212 62.265018 524.673759 62.194972 525.220305 62.120828 525.766852 62.042464 526.313398 61.959761 526.859945 61.872596 527.406491 61.780850 527.953038 61.684403 528.499585 61.583132 529.046131 61.476918 529.592678 61.365639 530.139224 61.249176 530.685771 61.127407 531.232317 61.000212 531.778864 60.867470 532.325410 60.729060 532.871957 60.584862 533.418504 60.434755 533.965050 60.278618 534.511597 60.116331 535.058143 59.947772 535.604690 59.772822 536.151236 59.591359 536.697783 59.403263 537.244329 59.208413 537.790876 59.006689 538.337423 58.797969 538.883969 58.582133 539.430516 58.359061 539.977062 58.128631 540.523609 57.890723 541.070155 57.645217 541.616702 57.391991 542.163248 57.130925 542.709795 44.751290 543.256341 42.443178 543.802888 40.691728 544.349435 39.399730 544.895981 38.469976 545.442528 37.805258 545.989074 37.308367 546.535621 36.882093 547.082167 36.429229 547.628714 35.852565 548.175260 35.054893 548.721807 33.939004 549.268354 32.344240 549.814900 29.932264 550.361447 27.057500 550.907993 24.186478 551.454540 21.785726 552.001086 20.032225 552.547633 18.362217 553.094179 16.756647 553.640726 15.239162 554.187273 13.833406 554.733819 12.563024 555.280366 11.451663 555.826912 10.522966 556.373459 9.800580 556.920005 9.308149"/></g></g><g class="titles"><text class="title plot_title" x="400.0" y="26">Cumulative Distribution function</text><text class="title" x="463.92000269019513" y="580.0">Throughput</text><text class="title" x="106.0" y="314.01188578223196" transform="rotate(-90 106.000000 288.011886)">Percentage of data</text></g><g class="plot overlay" transform="translate(180, 46)"><g class="series serie-0 color-0"/><g class="series serie-1 color-1"/><g class="series serie-2 color-2"/><g class="series serie-3 color-3"/></g><g class="plot text-overlay" transform="translate(180, 46)"><g class="series serie-0 color-0"/><g class="series serie-1 color-1"/><g class="series serie-2 color-2"/><g class="series serie-3 color-3"/></g><g class="plot tooltip-overlay" transform="translate(180, 46)"><g class="tooltip" style="opacity: 0" transform="translate(0 0)"><rect class="tooltip-box" height="0" rx="0" ry="0" width="0"/><g class="text"/></g></g><g class="legends" transform="translate(10, 56)"><g class="legend reactive activate-serie" id="activate-serie-0"><rect class="color-0 reactive" height="12" width="12" x="0.0" y="1.0"/><text x="17.0" y="11.2">Old 40</text></g><g class="legend reactive activate-serie" id="activate-serie-1"><rect class="color-1 reactive" height="12" width="12" x="0.0" y="22.0"/><text x="17.0" y="32.2">New 40</text></g><g class="legend reactive activate-serie" id="activate-serie-2"><rect class="color-2 reactive" height="12" width="12" x="0.0" y="43.0"/><text x="17.0" y="53.2">Fit Old 40</text></g><g class="legend reactive activate-serie" id="activate-serie-3"><rect class="color-3 reactive" height="12" width="12" x="0.0" y="64.0"/><text x="17.0" y="74.2">Fit New 40</text></g></g><g class="legends" transform="translate(757, 56)"/></g></svg>