<?xml version='1.0' encoding='utf-8'?>
<svg xmlns:xlink="http://www.w3.org/1999/xlink" xmlns="http://www.w3.org/2000/svg" id="chart-a468f562-5e6d-427e-bdb6-698ef1340525" class="pygal-chart" viewBox="0 0 800 600"><!--Generated with pygal 2.3.1 (lxml) ©Kozea 2012-2016 on 2017-03-14--><!--http://pygal.org--><!--http://github.com/Kozea/pygal--><defs><style type="text/css">#chart-a468f562-5e6d-427e-bdb6-698ef1340525{-webkit-user-select:none;-webkit-font-smoothing:antialiased;font-family:Consolas,"Liberation Mono",Menlo,Courier,monospace}#chart-a468f562-5e6d-427e-bdb6-698ef1340525 .title{font-family:Consolas,"Liberation Mono",Menlo,Courier,monospace;font-size:16px}#chart-a468f562-5e6d-427e-bdb6-698ef1340525 .legends .legend text{font-family:Consolas,"Liberation Mono",Menlo,Courier,monospace;font-size:14px}#chart-a468f562-5e6d-427e-bdb6-698ef1340525 .axis text{font-family:Consolas,"Liberation Mono",Menlo,Courier,monospace;font-size:10px}#chart-a468f562-5e6d-427e-bdb6-698ef1340525 .axis text.major{font-family:Consolas,"Liberation Mono",Menlo,Courier,monospace;font-size:10px}#chart-a468f562-5e6d-427e-bdb6-698ef1340525 .text-overlay text.value{font-family:Consolas,"Liberation Mono",Menlo,Courier,monospace;font-size:16px}#chart-a468f562-5e6d-427e-bdb6-698ef1340525 .text-overlay text.label{font-family:Consolas,"Liberation Mono",Menlo,Courier,monospace;font-size:10px}#chart-a468f562-5e6d-427e-bdb6-698ef1340525 .tooltip{font-family:Consolas,"Liberation Mono",Menlo,Courier,monospace;font-size:14px}#chart-a468f562-5e6d-427e-bdb6-698ef1340525 text.no_data{font-family:Consolas,"Liberation Mono",Menlo,Courier,monospace;font-size:64px}
#chart-a468f562-5e6d-427e-bdb6-698ef1340525{background-color:rgba(249,249,249,1)}#chart-a468f562-5e6d-427e-bdb6-698ef1340525 path,#chart-a468f562-5e6d-427e-bdb6-698ef1340525 line,#chart-a468f562-5e6d-427e-bdb6-698ef1340525 rect,#chart-a468f562-5e6d-427e-bdb6-698ef1340525 circle{-webkit-transition:150ms;-moz-transition:150ms;transition:150ms}#chart-a468f562-5e6d-427e-bdb6-698ef1340525 .graph &gt; .background{fill:rgba(249,249,249,1)}#chart-a468f562-5e6d-427e-bdb6-698ef1340525 .plot &gt; .background{fill:rgba(255,255,255,1)}#chart-a468f562-5e6d-427e-bdb6-698ef1340525 .graph{fill:rgba(0,0,0,.87)}#chart-a468f562-5e6d-427e-bdb6-698ef1340525 text.no_data{fill:rgba(0,0,0,1)}#chart-a468f562-5e6d-427e-bdb6-698ef1340525 .title{fill:rgba(0,0,0,1)}#chart-a468f562-5e6d-427e-bdb6-698ef1340525 .legends .legend text{fill:rgba(0,0,0,.87)}#chart-a468f562-5e6d-427e-bdb6-698ef1340525 .legends .legend:hover text{fill:rgba(0,0,0,1)}#chart-a468f562-5e6d-427e-bdb6-698ef1340525 .axis .line{stroke:rgba(0,0,0,1)}#chart-a468f562-5e6d-427e-bdb6-698ef1340525 .axis .guide.line{stroke:rgba(0,0,0,.54)}#chart-a468f562-5e6d-427e-bdb6-698ef1340525 .axis .major.line{stroke:rgba(0,0,0,.87)}#chart-a468f562-5e6d-427e-bdb6-698ef1340525 .axis text.major{fill:rgba(0,0,0,1)}#chart-a468f562-5e6d-427e-bdb6-698ef1340525 .axis.y .guides:hover .guide.line,#chart-a468f562-5e6d-427e-bdb6-698ef1340525 .line-graph .axis.x .guides:hover .guide.line,#chart-a468f562-5e6d-427e-bdb6-698ef1340525 .stackedline-graph .axis.x .guides:hover .guide.line,#chart-a468f562-5e6d-427e-bdb6-698ef1340525 .xy-graph .axis.x .guides:hover .guide.line{stroke:rgba(0,0,0,1)}#chart-a468f562-5e6d-427e-bdb6-698ef1340525 .axis .guides:hover text{fill:rgba(0,0,0,1)}#chart-a468f562-5e6d-427e-bdb6-698ef1340525 .reactive{fill-opacity:.7;stroke-opacity:.8}#chart-a468f562-5e6d-427e-bdb6-698ef1340525 .ci{stroke:rgba(0,0,0,.87)}#chart-a468f562-5e6d-427e-bdb6-698ef1340525 .reactive.active,#chart-a468f562-5e6d-427e-bdb6-698ef1340525 .active .reactive{fill-opacity:.8;stroke-opacity:.9;stroke-width:4}#chart-a468f562-5e6d-427e-bdb6-698ef1340525 .ci .reactive.active{stroke-width:1.5}#chart-a468f562-5e6d-427e-bdb6-698ef1340525 .series text{fill:rgba(0,0,0,1)}#chart-a468f562-5e6d-427e-bdb6-698ef1340525 .tooltip rect{fill:rgba(255,255,255,1);stroke:rgba(0,0,0,1);-webkit-transition:opacity 150ms;-moz-transition:opacity 150ms;transition:opacity 150ms}#chart-a468f562-5e6d-427e-bdb6-698ef1340525 .tooltip .label{fill:rgba(0,0,0,.87)}#chart-a468f562-5e6d-427e-bdb6-698ef1340525 .tooltip .label{fill:rgba(0,0,0,.87)}#chart-a468f562-5e6d-427e-bdb6-698ef1340525 .tooltip .legend{font-size:.8em;fill:rgba(0,0,0,.54)}#chart-a468f562-5e6d-427e-bdb6-698ef1340525 .tooltip .x_label{font-size:.6em;fill:rgba(0,0,0,1)}#chart-a468f562-5e6d-427e-bdb6-698ef1340525 .tooltip .xlink{font-size:.5em;text-decoration:underline}#chart-a468f562-5e6d-427e-bdb6-698ef1340525 .tooltip .value{font-size:1.5em}#chart-a468f562-5e6d-427e-bdb6-698ef1340525 .bound{font-size:.5em}#chart-a468f562-5e6d-427e-bdb6-698ef1340525 .max-value{font-size:.75em;fill:rgba(0,0,0,.54)}#chart-a468f562-5e6d-427e-bdb6-698ef1340525 .map-element{fill:rgba(255,255,255,1);stroke:rgba(0,0,0,.54) !important}#chart-a468f562-5e6d-427e-bdb6-698ef1340525 .map-element .reactive{fill-opacity:inherit;stroke-opacity:inherit}#chart-a468f562-5e6d-427e-bdb6-698ef1340525 .color-0,#chart-a468f562-5e6d-427e-bdb6-698ef1340525 .color-0 a:visited{stroke:#F44336;fill:#F44336}#chart-a468f562-5e6d-427e-bdb6-698ef1340525 .color-1,#chart-a468f562-5e6d-427e-bdb6-698ef1340525 .color-1 a:visited{stroke:#3F51B5;fill:#3F51B5}#chart-a468f562-5e6d-427e-bdb6-698ef1340525 .color-2,#chart-a468f562-5e6d-427e-bdb6-698ef1340525 .color-2 a:visited{stroke:#009688;fill:#009688}#chart-a468f562-5e6d-427e-bdb6-698ef1340525 .color-3,#chart-a468f562-5e6d-427e-bdb6-698ef1340525 .color-3 a:visited{stroke:#FFC107;fill:#FFC107}#chart-a468f562-5e6d-427e-bdb6-698ef1340525 .text-overlay .color-0 text{fill:black}#chart-a468f562-5e6d-427e-bdb6-698ef1340525 .text-overlay .color-1 text{fill:black}#chart-a468f562-5e6d-427e-bdb6-698ef1340525 .text-overlay .color-2 text{fill:black}#chart-a468f562-5e6d-427e-bdb6-698ef1340525 .text-overlay .color-3 text{fill:black}
#chart-a468f562-5e6d-427e-bdb6-698ef1340525 text.no_data{text-anchor:middle}#chart-a468f562-5e6d-427e-bdb6-698ef1340525 .guide.line{fill:none}#chart-a468f562-5e6d-427e-bdb6-698ef1340525 .centered{text-anchor:middle}#chart-a468f562-5e6d-427e-bdb6-698ef1340525 .title{text-anchor:middle}#chart-a468f562-5e6d-427e-bdb6-698ef1340525 .legends .legend text{fill-opacity:1}#chart-a468f562-5e6d-427e-bdb6-698ef1340525 .axis.x text{text-anchor:middle}#chart-a468f562-5e6d-427e-bdb6-698ef1340525 .axis.x:not(.web) text[transform]{text-anchor:start}#chart-a468f562-5e6d-427e-bdb6-698ef1340525 .axis.x:not(.web) text[transform].backwards{text-anchor:end}#chart-a468f562-5e6d-427e-bdb6-698ef1340525 .axis.y text{text-anchor:end}#chart-a468f562-5e6d-427e-bdb6-698ef1340525 .axis.y text[transform].backwards{text-anchor:start}#chart-a468f562-5e6d-427e-bdb6-698ef1340525 .axis.y2 text{text-anchor:start}#chart-a468f562-5e6d-427e-bdb6-698ef1340525 .axis.y2 text[transform].backwards{text-anchor:end}#chart-a468f562-5e6d-427e-bdb6-698ef1340525 .axis .guide.line{stroke-dasharray:4,4}#chart-a468f562-5e6d-427e-bdb6-698ef1340525 .axis .major.guide.line{stroke-dasharray:6,6}#chart-a468f562-5e6d-427e-bdb6-698ef1340525 .horizontal .axis.y .guide.line,#chart-a468f562-5e6d-427e-bdb6-698ef1340525 .horizontal .axis.y2 .guide.line,#chart-a468f562-5e6d-427e-bdb6-698ef1340525 .vertical .axis.x .guide.line{opacity:0}#chart-a468f562-5e6d-427e-bdb6-698ef1340525 .horizontal .axis.always_show .guide.line,#chart-a468f562-5e6d-427e-bdb6-698ef1340525 .vertical .axis.always_show .guide.line{opacity:1 !important}#chart-a468f562-5e6d-427e-bdb6-698ef1340525 .axis.y .guides:hover .guide.line,#chart-a468f562-5e6d-427e-bdb6-698ef1340525 .axis.y2 .guides:hover .guide.line,#chart-a468f562-5e6d-427e-bdb6-698ef1340525 .axis.x .guides:hover .guide.line{opacity:1}#chart-a468f562-5e6d-427e-bdb6-698ef1340525 .axis .guides:hover text{opacity:1}#chart-a468f562-5e6d-427e-bdb6-698ef1340525 .nofill{fill:none}#chart-a468f562-5e6d-427e-bdb6-698ef1340525 .subtle-fill{fill-opacity:.2}#chart-a468f562-5e6d-427e-bdb6-698ef1340525 .dot{stroke-width:1px;fill-opacity:1}#chart-a468f562-5e6d-427e-bdb6-698ef1340525 .dot.active{stroke-width:5px}#chart-a468f562-5e6d-427e-bdb6-698ef1340525 .dot.negative{fill:transparent}#chart-a468f562-5e6d-427e-bdb6-698ef1340525 text,#chart-a468f562-5e6d-427e-bdb6-698ef1340525 tspan{stroke:none !important}#chart-a468f562-5e6d-427e-bdb6-698ef1340525 .series text.active{opacity:1}#chart-a468f562-5e6d-427e-bdb6-698ef1340525 .tooltip rect{fill-opacity:.95;stroke-width:.5}#chart-a468f562-5e6d-427e-bdb6-698ef1340525 .tooltip text{fill-opacity:1}#chart-a468f562-5e6d-427e-bdb6-698ef1340525 .showable{visibility:hidden}#chart-a468f562-5e6d-427e-bdb6-698ef1340525 .showable.shown{visibility:visible}#chart-a468f562-5e6d-427e-bdb6-698ef1340525 .gauge-background{fill:rgba(229,229,229,1);stroke:none}#chart-a468f562-5e6d-427e-bdb6-698ef1340525 .bg-lines{stroke:rgba(249,249,249,1);stroke-width:2px}</style><script type="text/javascript">window.pygal = window.pygal || {};window.pygal.config = window.pygal.config || {};window.pygal.config['a468f562-5e6d-427e-bdb6-698ef1340525'] = {"margin_top": null, "logarithmic": false, "show_minor_y_labels": true, "y_labels": null, "show_y_guides": true, "interpolate": null, "print_values_position": "center", "y_label_rotation": 0, "no_prefix": false, "x_labels_major_count": null, "title": "Cumulative Distribution function", "spacing": 10, "show_dots": false, "css": ["file://style.css", "file://graph.css"], "secondary_range": null, "print_values": false, "missing_value_fill_truncation": "x", "legend_at_bottom_columns": null, "margin_left": null, "include_x_axis": false, "interpolation_parameters": {}, "show_only_major_dots": false, "print_labels": false, "zero": 0, "stroke_style": null, "inverse_y_axis": false, "strict": false, "dynamic_print_values": false, "pretty_print": false, "x_labels_major_every": null, "x_labels_major": null, "margin": 20, "show_legend": true, "rounded_bars": null, "margin_bottom": null, "force_uri_protocol": "https", "max_scale": 16, "height": 600, "show_x_labels": true, "half_pie": false, "box_mode": "extremes", "legends": ["Old 40", "New 40", "Fit Old 40", "Fit New 40"], "show_x_guides": false, "style": {"label_font_size": 10, "value_label_font_size": 10, "colors": ["#F44336", "#3F51B5", "#009688", "#FFC107", "#FF5722", "#9C27B0", "#03A9F4", "#8BC34A", "#FF9800", "#E91E63", "#2196F3", "#4CAF50", "#FFEB3B", "#673AB7", "#00BCD4", "#CDDC39", "#9E9E9E", "#607D8B"], "opacity_hover": ".8", "stroke_opacity": ".8", "plot_background": "rgba(255, 255, 255, 1)", "foreground_subtle": "rgba(0, 0, 0, .54)", "font_family": "Consolas, \"Liberation Mono\", Menlo, Courier, monospace", "major_guide_stroke_dasharray": "6,6", "value_font_family": "Consolas, \"Liberation Mono\", Menlo, Courier, monospace", "guide_stroke_dasharray": "4,4", "tooltip_font_family": "Consolas, \"Liberation Mono\", Menlo, Courier, monospace", "foreground_strong": "rgba(0, 0, 0, 1)", "background": "rgba(249, 249, 249, 1)", "transition": "150ms", "opacity": ".7", "value_colors": [], "no_data_font_size": 64, "stroke_opacity_hover": ".9", "foreground": "rgba(0, 0, 0, .87)", "legend_font_size": 14, "value_label_font_family": "Consolas, \"Liberation Mono\", Menlo, Courier, monospace", "value_background": "rgba(229, 229, 229, 1)", "major_label_font_size": 10, "legend_font_family": "Consolas, \"Liberation Mono\", Menlo, Courier, monospace", "label_font_family": "Consolas, \"Liberation Mono\", Menlo, Courier, monospace", "title_font_family": "Consolas, \"Liberation Mono\", Menlo, Courier, monospace", "tooltip_font_size": 14, "no_data_font_family": "Consolas, \"Liberation Mono\", Menlo, Courier, monospace", "value_font_size": 16, "title_font_size": 16, "major_label_font_family": "Consolas, \"Liberation Mono\", Menlo, Courier, monospace", "ci_colors": []}, "truncate_label": null, "x_labels": null, "margin_right": null, "show_y_labels": true, "fill": false, "stroke": true, "show_minor_x_labels": true, "y_labels_major_every": null, "y_labels_major": null, "y_labels_major_count": null, "explicit_size": false, "inner_radius": 0, "tooltip_fancy_mode": true, "order_min": null, "no_data_text": "No data", "classes": ["pygal-chart"], "defs": [], "legend_box_size": 12, "print_zeroes": true, "x_label_rotation": 15, "js": ["//kozea.github.io/pygal.js/2.0.x/pygal-tooltips.min.js"], "allow_interruptions": false, "disable_xml_declaration": false, "formatter": null, "range": null, "legend_at_bottom": false, "xrange": null, "y_title": "Percentage of data", "stack_from_top": false, "tooltip_border_radius": 0, "dots_size": 2.5, "interpolation_precision": 250, "x_title": "Throughput", "min_scale": 4, "truncate_legend": null, "width": 800}</script><script type="text/javascript" xlink:href="https://kozea.github.io/pygal.js/2.0.x/pygal-tooltips.min.js"/></defs><title>Cumulative Distribution function</title><g class="graph xy-graph vertical"><rect class="background" height="600" width="800" x="0" y="0"/><g class="plot" transform="translate(180, 46)"><rect class="background" height="484.0237715644639" width="567.8400053803903" x="0" y="0"/><g class="axis y"><g class="guides"><path class="axis major line" d="M0.000000 474.715622 h567.840005"/><text class="major" x="-5" y="478.215622111">0</text><title>0</title></g><g class="guides"><path class="guide line" d="M0.000000 428.174875 h567.840005"/><text class="" x="-5" y="431.674874845">10</text><title>10</title></g><g class="guides"><path class="guide line" d="M0.000000 381.634128 h567.840005"/><text class="" x="-5" y="385.13412758">20</text><title>20</title></g><g class="guides"><path class="guide line" d="M0.000000 335.093380 h567.840005"/><text class="" x="-5" y="338.593380314">30</text><title>30</title></g><g class="guides"><path class="guide line" d="M0.000000 288.552633 h567.840005"/><text class="" x="-5" y="292.052633048">40</text><title>40</title></g><g class="guides"><path class="major guide line" d="M0.000000 242.011886 h567.840005"/><text class="major" x="-5" y="245.511885782">50</text><title>50</title></g><g class="guides"><path class="guide line" d="M0.000000 195.471139 h567.840005"/><text class="" x="-5" y="198.971138516">60</text><title>60</title></g><g class="guides"><path class="guide line" d="M0.000000 148.930391 h567.840005"/><text class="" x="-5" y="152.430391251">70</text><title>70</title></g><g class="guides"><path class="guide line" d="M0.000000 102.389644 h567.840005"/><text class="" x="-5" y="105.889643985">80</text><title>80</title></g><g class="guides"><path class="guide line" d="M0.000000 55.848897 h567.840005"/><text class="" x="-5" y="59.348896719">90</text><title>90</title></g><g class="guides"><path class="major guide line" d="M0.000000 9.308149 h567.840005"/><text class="major" x="-5" y="12.8081494532">100</text><title>100</title></g></g><g class="axis x"><path class="line" d="M0.000000 0.000000 v484.023772"/><g class="guides"><path class="guide line" d="M43.137054 0.000000 v484.023772"/><text class="" x="43.1370544809" y="499.0237715644639" transform="rotate(15 43.137054 499.023772)">40000000</text><title>40000000</title></g><g class="guides"><path class="guide line" d="M90.362942 0.000000 v484.023772"/><text class="" x="90.3629415959" y="499.0237715644639" transform="rotate(15 90.362942 499.023772)">50000000</text><title>50000000</title></g><g class="guides"><path class="guide line" d="M137.588829 0.000000 v484.023772"/><text class="" x="137.588828711" y="499.0237715644639" transform="rotate(15 137.588829 499.023772)">60000000</text><title>60000000</title></g><g class="guides"><path class="guide line" d="M184.814716 0.000000 v484.023772"/><text class="" x="184.814715826" y="499.0237715644639" transform="rotate(15 184.814716 499.023772)">70000000</text><title>70000000</title></g><g class="guides"><path class="guide line" d="M232.040603 0.000000 v484.023772"/><text class="" x="232.040602941" y="499.0237715644639" transform="rotate(15 232.040603 499.023772)">80000000</text><title>80000000</title></g><g class="guides"><path class="guide line" d="M279.266490 0.000000 v484.023772"/><text class="" x="279.266490056" y="499.0237715644639" transform="rotate(15 279.266490 499.023772)">90000000</text><title>90000000</title></g><g class="guides"><path class="guide line" d="M326.492377 0.000000 v484.023772"/><text class="" x="326.492377171" y="499.0237715644639" transform="rotate(15 326.492377 499.023772)">100000000</text><title>100000000</title></g><g class="guides"><path class="guide line" d="M373.718264 0.000000 v484.023772"/><text class="" x="373.718264286" y="499.0237715644639" transform="rotate(15 373.718264 499.023772)">110000000</text><title>110000000</title></g><g class="guides"><path class="guide line" d="M420.944151 0.000000 v484.023772"/><text class="" x="420.944151401" y="499.0237715644639" transform="rotate(15 420.944151 499.023772)">120000000</text><title>120000000</title></g><g class="guides"><path class="guide line" d="M468.170039 0.000000 v484.023772"/><text class="" x="468.170038516" y="499.0237715644639" transform="rotate(15 468.170039 499.023772)">130000000</text><title>130000000</title></g><g class="guides"><path class="guide line" d="M515.395926 0.000000 v484.023772"/><text class="" x="515.395925631" y="499.0237715644639" transform="rotate(15 515.395926 499.023772)">140000000</text><title>140000000</title></g></g><g class="series serie-0 color-0"><path class="line reactive nofill" d="M25.630704 474.715622 L66.582271 462.782097 103.626065 450.848572 106.154984 438.915047 106.849531 426.981522 109.185377 415.047997 121.533534 403.114472 122.567921 391.180948 122.636158 379.247423 123.450825 367.313898 124.483845 355.380373 125.641953 343.446848 127.012500 331.513323 132.289161 319.579798 133.669647 307.646273 136.102220 295.712748 140.970169 283.779223 455.948328 271.845698 489.878829 259.912173 497.241827 247.978648 510.285680 236.045123 511.133345 224.111598 517.740398 212.178073 518.440564 200.244548 518.803824 188.311024 519.771726 176.377499 521.696307 164.443974 522.136713 152.510449 523.221219 140.576924 523.602324 128.643399 529.605770 116.709874 532.896192 104.776349 537.116287 92.842824 537.757274 80.909299 540.991011 68.975774 543.646452 57.042249 544.369402 45.108724 548.021224 33.175199 554.919908 21.241674 556.920005 9.308149"/></g><g class="series serie-1 color-1"><path class="line reactive nofill" d="M10.920000 474.715622 L13.792594 462.782097 15.445124 450.848572 20.016880 438.915047 20.405502 426.981522 23.738771 415.047997 70.996228 403.114472 75.830612 391.180948 76.727637 379.247423 80.133829 367.313898 83.587342 355.380373 84.099213 343.446848 89.921156 331.513323 95.394085 319.579798 96.587826 307.646273 99.080722 295.712748 102.543304 283.779223 106.965151 271.845698 109.818857 259.912173 110.940131 247.978648 112.149943 236.045123 136.486462 224.111598 175.619571 212.178073 195.646183 200.244548 207.279894 188.311024 218.154812 176.377499 220.753955 164.443974 385.480782 152.510449 404.585137 140.576924 405.160163 128.643399 417.815733 116.709874 418.443601 104.776349 421.361711 92.842824 421.440578 80.909299 430.414024 68.975774 432.488767 57.042249 433.421996 45.108724 433.622362 33.175199 437.289188 21.241674 512.181362 9.308149"/></g><g class="series serie-2 color-2"><path class="line reactive nofill" d="M10.920000 474.715622 L11.466547 474.715622 12.013093 474.715622 12.559640 474.715622 13.106186 474.715622 13.652733 474.715622 14.199279 474.715622 14.745826 474.715622 15.292373 474.715622 15.838919 474.715622 16.385466 474.715622 16.932012 474.715622 17.478559 474.715622 18.025105 474.715622 18.571652 474.715622 19.118198 474.715622 19.664745 474.715622 20.211291 474.715622 20.757838 474.715622 21.304385 474.715622 21.850931 474.715622 22.397478 474.715622 22.944024 474.715622 23.490571 474.715622 24.037117 474.715622 24.583664 474.715622 25.130210 474.715622 25.676757 474.702944 26.223304 474.552351 26.769850 474.401504 27.316397 474.250404 27.862943 474.099052 28.409490 473.947449 28.956036 473.795596 29.502583 473.643494 30.049129 473.491142 30.595676 473.338542 31.142223 473.185695 31.688769 473.032601 32.235316 472.879261 32.781862 472.725677 33.328409 472.571847 33.874955 472.417774 34.421502 472.263459 34.968048 472.108901 35.514595 471.954102 36.061141 471.799062 36.607688 471.643782 37.154235 471.488263 37.700781 471.332506 38.247328 471.176511 38.793874 471.020279 39.340421 470.863811 39.886967 470.707108 40.433514 470.550170 40.980060 470.392998 41.526607 470.235593 42.073154 470.077956 42.619700 469.920087 43.166247 469.761987 43.712793 469.603657 44.259340 469.445097 44.805886 469.286309 45.352433 469.127293 45.898979 468.968050 46.445526 468.808581 46.992073 468.648886 47.538619 468.488966 48.085166 468.328822 48.631712 468.168454 49.178259 468.007864 49.724805 467.847052 50.271352 467.686019 50.817898 467.524765 51.364445 467.363292 51.910991 467.201600 52.457538 467.039690 53.004085 466.877562 53.550631 466.715218 54.097178 466.552658 54.643724 466.389883 55.190271 466.226893 55.736817 466.063690 56.283364 465.900274 56.829910 465.736646 57.376457 465.572806 57.923004 465.408756 58.469550 465.244495 59.016097 465.080026 59.562643 464.915348 60.109190 464.750463 60.655736 464.585371 61.202283 464.420072 61.748829 464.254569 62.295376 464.088860 62.841923 463.922948 63.388469 463.756833 63.935016 463.590515 64.481562 463.423995 65.028109 463.257275 65.574655 463.090355 66.121202 462.923235 66.667748 462.756008 67.214295 462.593342 67.760841 462.437612 68.307388 462.288481 68.853935 462.145615 69.400481 462.008678 69.947028 461.877335 70.493574 461.751249 71.040121 461.630086 71.586667 461.513510 72.133214 461.401186 72.679760 461.292777 73.226307 461.187949 73.772854 461.086366 74.319400 460.987693 74.865947 460.891594 75.412493 460.797733 75.959040 460.705776 76.505586 460.615386 77.052133 460.526228 77.598679 460.437967 78.145226 460.350267 78.691773 460.262793 79.238319 460.175209 79.784866 460.087179 80.331412 459.998369 80.877959 459.908443 81.424505 459.817064 81.971052 459.723899 82.517598 459.628611 83.064145 459.530864 83.610691 459.430324 84.157238 459.326655 84.703785 459.219521 85.250331 459.108586 85.796878 458.993516 86.343424 458.873975 86.889971 458.749628 87.436517 458.620138 87.983064 458.485170 88.529610 458.344390 89.076157 458.197460 89.622704 458.044047 90.169250 457.883814 90.715797 457.716426 91.262343 457.541548 91.808890 457.358843 92.355436 457.167977 92.901983 456.968614 93.448529 456.760419 93.995076 456.543055 94.541623 456.316188 95.088169 456.079482 95.634716 455.832602 96.181262 455.575211 96.727809 455.306976 97.274355 455.027559 97.820902 454.736626 98.367448 454.433841 98.913995 454.118869 99.460541 453.791373 100.007088 453.451020 100.553635 453.097472 101.100181 452.730396 101.646728 452.349454 102.193274 451.954312 102.739821 451.544634 103.286367 451.120085 103.832914 450.610151 104.379460 449.310132 104.926007 447.077959 105.472554 443.964102 106.019100 440.019031 106.565647 431.629636 107.112193 424.806962 107.658740 421.012272 108.205286 418.139231 108.751833 416.109705 109.298379 414.834020 109.844926 413.890852 110.391473 413.088729 110.938019 412.412669 111.484566 411.847693 112.031112 411.378820 112.577659 410.991069 113.124205 410.669459 113.670752 410.399010 114.217298 410.164742 114.763845 409.951674 115.310391 409.744825 115.856938 409.529216 116.403485 409.289864 116.950031 409.011791 117.496578 408.680014 118.043124 408.279555 118.589671 407.795431 119.136217 407.212664 119.682764 406.516271 120.229310 405.691273 120.775857 404.722689 121.322404 403.595539 121.868950 401.943339 122.415497 395.060730 122.962043 371.898480 123.508590 366.571227 124.055136 360.089459 124.601683 354.099997 125.148229 348.324829 125.694776 342.941007 126.241323 337.399276 126.787869 332.715885 127.334416 330.308448 127.880962 328.673882 128.427509 327.447955 128.974055 326.504658 129.520602 325.717980 130.067148 324.961910 130.613695 324.110437 131.160241 323.037552 131.706788 321.617242 132.253335 319.723498 132.799881 315.832371 133.346428 310.285479 133.892974 306.243213 134.439521 303.072448 134.986067 300.274214 135.532614 297.847517 136.079160 295.791367 136.625707 293.918259 137.172254 292.045041 137.718800 290.229166 138.265347 288.528468 138.811893 287.000780 139.358440 285.703936 139.904986 284.695767 140.451533 284.034107 140.998079 283.776190 141.544626 283.716995 142.091173 283.658160 142.637719 283.599686 143.184266 283.541569 143.730812 283.483811 144.277359 283.426408 144.823905 283.369361 145.370452 283.312667 145.916998 283.256326 146.463545 283.200337 147.010091 283.144697 147.556638 283.089407 148.103185 283.034465 148.649731 282.979869 149.196278 282.925619 149.742824 282.871714 150.289371 282.818151 150.835917 282.764931 151.382464 282.712051 151.929010 282.659511 152.475557 282.607310 153.022104 282.555445 153.568650 282.503917 154.115197 282.452723 154.661743 282.401863 155.208290 282.351336 155.754836 282.301140 156.301383 282.251274 156.847929 282.201737 157.394476 282.152528 157.941023 282.103645 158.487569 282.055088 159.034116 282.006855 159.580662 281.958945 160.127209 281.911356 160.673755 281.864088 161.220302 281.817140 161.766848 281.770510 162.313395 281.724197 162.859941 281.678200 163.406488 281.632518 163.953035 281.587149 164.499581 281.542092 165.046128 281.497347 165.592674 281.452911 166.139221 281.408784 166.685767 281.364965 167.232314 281.321452 167.778860 281.278244 168.325407 281.235341 168.871954 281.192740 169.418500 281.150441 169.965047 281.108442 170.511593 281.066743 171.058140 281.025341 171.604686 280.984237 172.151233 280.943428 172.697779 280.902914 173.244326 280.862693 173.790873 280.822764 174.337419 280.783126 174.883966 280.743778 175.430512 280.704718 175.977059 280.665946 176.523605 280.627460 177.070152 280.589259 177.616698 280.551342 178.163245 280.513708 178.709791 280.476355 179.256338 280.439282 179.802885 280.402489 180.349431 280.365973 180.895978 280.329734 181.442524 280.293771 181.989071 280.258082 182.535617 280.222666 183.082164 280.187522 183.628710 280.152649 184.175257 280.118045 184.721804 280.083710 185.268350 280.049642 185.814897 280.015840 186.361443 279.982303 186.907990 279.949030 187.454536 279.916019 188.001083 279.883269 188.547629 279.850780 189.094176 279.818549 189.640723 279.786576 190.187269 279.754860 190.733816 279.723399 191.280362 279.692192 191.826909 279.661238 192.373455 279.630536 192.920002 279.600085 193.466548 279.569883 194.013095 279.539929 194.559641 279.510222 195.106188 279.480761 195.652735 279.451545 196.199281 279.422573 196.745828 279.393842 197.292374 279.365353 197.838921 279.337104 198.385467 279.309093 198.932014 279.281320 199.478560 279.253783 200.025107 279.226482 200.571654 279.199415 201.118200 279.172580 201.664747 279.145977 202.211293 279.119604 202.757840 279.093461 203.304386 279.067546 203.850933 279.041857 204.397479 279.016395 204.944026 278.991156 205.490573 278.966142 206.037119 278.941349 206.583666 278.916777 207.130212 278.892425 207.676759 278.868292 208.223305 278.844375 208.769852 278.820676 209.316398 278.797191 209.862945 278.773920 210.409491 278.750861 210.956038 278.728014 211.502585 278.705378 212.049131 278.682950 212.595678 278.660730 213.142224 278.638717 213.688771 278.616910 214.235317 278.595307 214.781864 278.573907 215.328410 278.552709 215.874957 278.531711 216.421504 278.510914 216.968050 278.490314 217.514597 278.469912 218.061143 278.449706 218.607690 278.429695 219.154236 278.409877 219.700783 278.390252 220.247329 278.370818 220.793876 278.351575 221.340423 278.332520 221.886969 278.313653 222.433516 278.294972 222.980062 278.276477 223.526609 278.258166 224.073155 278.240038 224.619702 278.222092 225.166248 278.204326 225.712795 278.186740 226.259341 278.169331 226.805888 278.152100 227.352435 278.135045 227.898981 278.118165 228.445528 278.101458 228.992074 278.084923 229.538621 278.068559 230.085167 278.052366 230.631714 278.036341 231.178260 278.020483 231.724807 278.004792 232.271354 277.989266 232.817900 277.973905 233.364447 277.958706 233.910993 277.943668 234.457540 277.928791 235.004086 277.914073 235.550633 277.899513 236.097179 277.885111 236.643726 277.870863 237.190273 277.856771 237.736819 277.842831 238.283366 277.829044 238.829912 277.815408 239.376459 277.801921 239.923005 277.788583 240.469552 277.775392 241.016098 277.762348 241.562645 277.749448 242.109191 277.736693 242.655738 277.724080 243.202285 277.711608 243.748831 277.699277 244.295378 277.687085 244.841924 277.675030 245.388471 277.663113 245.935017 277.651330 246.481564 277.639683 247.028110 277.628168 247.574657 277.616785 248.121204 277.605533 248.667750 277.594411 249.214297 277.583417 249.760843 277.572550 250.307390 277.561809 250.853936 277.551193 251.400483 277.540701 251.947029 277.530331 252.493576 277.520082 253.040123 277.509954 253.586669 277.499944 254.133216 277.490052 254.679762 277.480277 255.226309 277.470617 255.772855 277.461071 256.319402 277.451638 256.865948 277.442317 257.412495 277.433106 257.959041 277.424005 258.505588 277.415012 259.052135 277.406126 259.598681 277.397346 260.145228 277.388670 260.691774 277.380098 261.238321 277.371629 261.784867 277.363260 262.331414 277.354991 262.877960 277.346821 263.424507 277.338749 263.971054 277.330773 264.517600 277.322892 265.064147 277.315105 265.610693 277.307411 266.157240 277.299809 266.703786 277.292296 267.250333 277.284874 267.796879 277.277539 268.343426 277.270291 268.889973 277.263128 269.436519 277.256051 269.983066 277.249056 270.529612 277.242144 271.076159 277.235312 271.622705 277.228560 272.169252 277.221887 272.715798 277.215291 273.262345 277.208772 273.808891 277.202327 274.355438 277.195956 274.901985 277.189658 275.448531 277.183431 275.995078 277.177275 276.541624 277.171187 277.088171 277.165167 277.634717 277.159215 278.181264 277.153327 278.727810 277.147504 279.274357 277.141744 279.820904 277.136046 280.367450 277.130409 280.913997 277.124831 281.460543 277.119311 282.007090 277.113849 282.553636 277.108443 283.100183 277.103092 283.646729 277.097794 284.193276 277.092549 284.739823 277.087355 285.286369 277.082211 285.832916 277.077116 286.379462 277.072068 286.926009 277.067067 287.472555 277.062112 288.019102 277.057201 288.565648 277.052332 289.112195 277.047505 289.658741 277.042719 290.205288 277.037973 290.751835 277.033264 291.298381 277.028593 291.844928 277.023957 292.391474 277.019356 292.938021 277.014789 293.484567 277.010253 294.031114 277.005749 294.577660 277.001275 295.124207 276.996829 295.670754 276.992411 296.217300 276.988020 296.763847 276.983653 297.310393 276.979311 297.856940 276.974991 298.403486 276.970693 298.950033 276.966415 299.496579 276.962156 300.043126 276.957916 300.589673 276.953692 301.136219 276.949484 301.682766 276.945290 302.229312 276.941110 302.775859 276.936942 303.322405 276.932785 303.868952 276.928637 304.415498 276.924498 304.962045 276.920367 305.508591 276.916241 306.055138 276.912121 306.601685 276.908004 307.148231 276.903890 307.694778 276.899777 308.241324 276.895665 308.787871 276.891552 309.334417 276.887436 309.880964 276.883317 310.427510 276.879194 310.974057 276.875065 311.520604 276.870929 312.067150 276.866785 312.613697 276.862632 313.160243 276.858468 313.706790 276.854293 314.253336 276.850105 314.799883 276.845903 315.346429 276.841685 315.892976 276.837451 316.439523 276.833200 316.986069 276.828930 317.532616 276.824640 318.079162 276.820329 318.625709 276.815996 319.172255 276.811639 319.718802 276.807257 320.265348 276.802850 320.811895 276.798415 321.358441 276.793952 321.904988 276.789460 322.451535 276.784937 322.998081 276.780383 323.544628 276.775795 324.091174 276.771173 324.637721 276.766516 325.184267 276.761823 325.730814 276.757091 326.277360 276.752321 326.823907 276.747510 327.370454 276.742659 327.917000 276.737764 328.463547 276.732827 329.010093 276.727844 329.556640 276.722815 330.103186 276.717739 330.649733 276.712614 331.196279 276.707440 331.742826 276.702216 332.289373 276.696939 332.835919 276.691609 333.382466 276.686224 333.929012 276.680785 334.475559 276.675288 335.022105 276.669733 335.568652 276.664120 336.115198 276.658446 336.661745 276.652711 337.208291 276.646913 337.754838 276.641051 338.301385 276.635124 338.847931 276.629131 339.394478 276.623070 339.941024 276.616941 340.487571 276.610742 341.034117 276.604472 341.580664 276.598131 342.127210 276.591715 342.673757 276.585225 343.220304 276.578660 343.766850 276.572017 344.313397 276.565297 344.859943 276.558497 345.406490 276.551617 345.953036 276.544655 346.499583 276.537610 347.046129 276.530482 347.592676 276.523268 348.139223 276.515967 348.685769 276.508579 349.232316 276.501103 349.778862 276.493536 350.325409 276.485878 350.871955 276.478128 351.418502 276.470285 351.965048 276.462347 352.511595 276.454312 353.058141 276.446181 353.604688 276.437952 354.151235 276.429623 354.697781 276.421193 355.244328 276.412662 355.790874 276.404028 356.337421 276.395289 356.883967 276.386445 357.430514 276.377495 357.977060 276.368437 358.523607 276.359270 359.070154 276.349992 359.616700 276.340604 360.163247 276.331103 360.709793 276.321488 361.256340 276.311758 361.802886 276.301913 362.349433 276.291950 362.895979 276.281868 363.442526 276.271667 363.989073 276.261346 364.535619 276.250902 365.082166 276.240335 365.628712 276.229644 366.175259 276.218827 366.721805 276.207883 367.268352 276.196812 367.814898 276.185611 368.361445 276.174281 368.907991 276.162818 369.454538 276.151223 370.001085 276.139494 370.547631 276.127630 371.094178 276.115630 371.640724 276.103493 372.187271 276.091217 372.733817 276.078801 373.280364 276.066244 373.826910 276.053545 374.373457 276.040702 374.920004 276.027716 375.466550 276.014583 376.013097 276.001303 376.559643 275.987876 377.106190 275.974299 377.652736 275.960571 378.199283 275.946692 378.745829 275.932660 379.292376 275.918475 379.838923 275.904133 380.385469 275.889636 380.932016 275.874981 381.478562 275.860167 382.025109 275.845193 382.571655 275.830058 383.118202 275.814761 383.664748 275.799300 384.211295 275.783674 384.757841 275.767883 385.304388 275.751925 385.850935 275.735798 386.397481 275.719502 386.944028 275.703035 387.490574 275.686396 388.037121 275.669584 388.583667 275.652599 389.130214 275.635437 389.676760 275.618099 390.223307 275.600584 390.769854 275.582889 391.316400 275.565015 391.862947 275.546959 392.409493 275.528720 392.956040 275.510298 393.502586 275.491691 394.049133 275.472898 394.595679 275.453917 395.142226 275.434749 395.688773 275.415390 396.235319 275.395841 396.781866 275.376100 397.328412 275.356165 397.874959 275.336036 398.421505 275.315712 398.968052 275.295191 399.514598 275.274472 400.061145 275.253554 400.607691 275.232435 401.154238 275.211115 401.700785 275.189593 402.247331 275.167866 402.793878 275.145935 403.340424 275.123797 403.886971 275.101452 404.433517 275.078898 404.980064 275.056135 405.526610 275.033160 406.073157 275.009973 406.619704 274.986573 407.166250 274.962959 407.712797 274.939128 408.259343 274.915081 408.805890 274.890816 409.352436 274.866331 409.898983 274.841626 410.445529 274.816699 410.992076 274.791549 411.538623 274.766176 412.085169 274.740577 412.631716 274.714751 413.178262 274.688698 413.724809 274.662417 414.271355 274.635905 414.817902 274.609162 415.364448 274.582187 415.910995 274.554978 416.457541 274.527535 417.004088 274.499856 417.550635 274.471939 418.097181 274.443785 418.643728 274.415390 419.190274 274.386756 419.736821 274.357879 420.283367 274.328759 420.829914 274.299396 421.376460 274.269786 421.923007 274.239931 422.469554 274.209827 423.016100 274.179474 423.562647 274.148872 424.109193 274.118018 424.655740 274.086911 425.202286 274.055551 425.748833 274.023936 426.295379 273.992065 426.841926 273.959936 427.388473 273.927549 427.935019 273.894903 428.481566 273.861995 429.028112 273.828826 429.574659 273.795394 430.121205 273.761697 430.667752 273.727734 431.214298 273.693505 431.760845 273.659008 432.307391 273.624241 432.853938 273.589205 433.400485 273.553897 433.947031 273.518316 434.493578 273.482461 435.040124 273.446331 435.586671 273.409925 436.133217 273.373242 436.679764 273.336280 437.226310 273.299038 437.772857 273.261515 438.319404 273.223710 438.865950 273.185622 439.412497 273.147249 439.959043 273.108590 440.505590 273.069645 441.052136 273.030411 441.598683 272.990888 442.145229 272.951074 442.691776 272.910969 443.238323 272.870571 443.784869 272.829879 444.331416 272.788892 444.877962 272.747608 445.424509 272.706027 445.971055 272.664146 446.517602 272.621966 447.064148 272.579485 447.610695 272.536701 448.157241 272.493614 448.703788 272.450222 449.250335 272.406525 449.796881 272.362520 450.343428 272.318206 450.889974 272.273584 451.436521 272.228651 451.983067 272.183405 452.529614 272.137847 453.076160 272.091975 453.622707 272.045787 454.169254 271.999283 454.715800 271.952460 455.262347 271.905319 455.808893 271.857858 456.355440 271.809135 456.901986 271.756790 457.448533 271.700665 457.995079 271.640715 458.541626 271.576893 459.088173 271.509153 459.634719 271.437449 460.181266 271.361735 460.727812 271.281964 461.274359 271.198090 461.820905 271.110067 462.367452 271.017848 462.913998 270.921387 463.460545 270.820639 464.007091 270.715556 464.553638 270.606092 465.100185 270.492202 465.646731 270.373839 466.193278 270.250956 466.739824 270.123508 467.286371 269.991447 467.832917 269.854729 468.379464 269.713306 468.926010 269.567133 469.472557 269.416163 470.019104 269.260349 470.565650 269.099646 471.112197 268.934007 471.658743 268.763386 472.205290 268.587737 472.751836 268.407014 473.298383 268.221170 473.844929 268.030158 474.391476 267.833934 474.938023 267.632449 475.484569 267.425659 476.031116 267.213517 476.577662 266.995977 477.124209 266.772991 477.670755 266.544515 478.217302 266.310502 478.763848 266.070905 479.310395 265.825679 479.856941 265.574777 480.403488 265.318152 480.950035 265.055759 481.496581 264.787552 482.043128 264.513483 482.589674 264.233507 483.136221 263.947577 483.682767 263.655648 484.229314 263.357672 484.775860 263.053605 485.322407 262.743398 485.868954 262.427007 486.415500 262.104385 486.962047 261.775485 487.508593 261.440262 488.055140 261.098669 488.601686 260.750659 489.148233 260.396187 489.694779 260.035207 490.241326 259.628907 490.787873 259.061197 491.334419 258.346376 491.880966 257.509205 492.427512 256.574445 492.974059 255.566859 493.520605 254.511206 494.067152 253.432250 494.613698 252.354750 495.160245 251.303469 495.706791 250.303167 496.253338 249.378606 496.799885 248.554548 497.346431 247.854703 497.892978 247.258156 498.439524 246.740235 498.986071 246.291249 499.532617 245.901510 500.079164 245.561326 500.625710 245.261010 501.172257 244.990870 501.718804 244.741218 502.265350 244.502364 502.811897 244.264618 503.358443 244.018290 503.904990 243.753691 504.451536 243.461132 504.998083 243.130922 505.544629 242.753372 506.091176 242.318793 506.637723 241.817494 507.184269 241.239786 507.730816 240.575980 508.277362 239.816385 508.823909 238.951312 509.370455 237.971072 509.917002 236.865975 510.463548 234.550422 511.010095 225.119453 511.556641 222.594916 512.103188 221.101088 512.649735 220.036106 513.196281 219.297640 513.742828 218.783360 514.289374 218.390935 514.835921 218.018035 515.382467 217.562328 515.929014 216.921485 516.475560 215.993175 517.022107 214.675068 517.568654 212.864833 518.115200 207.407346 518.661747 192.588060 519.208293 182.004677 519.754840 176.522300 520.301386 173.008014 520.847933 170.647052 521.394479 167.383395 521.941026 157.929067 522.487573 148.254068 523.034119 143.335195 523.580666 128.831294 524.127212 126.292674 524.673759 124.408399 525.220305 122.999483 525.766852 121.965122 526.313398 121.204507 526.859945 120.616834 527.406491 120.101295 527.953038 119.557084 528.499585 118.883394 529.046131 117.979420 529.592678 116.744354 530.139224 115.112195 530.685771 113.169369 531.232317 111.044011 531.778864 108.864255 532.325410 106.758235 532.871957 104.854088 533.418504 103.331727 533.965050 102.175305 534.511597 101.190807 535.058143 100.184001 535.604690 98.960656 536.151236 97.326540 536.697783 95.087422 537.244329 91.261314 537.790876 80.668608 538.337423 77.413603 538.883969 75.149343 539.430516 73.508114 539.977062 72.122203 540.523609 70.623894 541.070155 68.659863 541.616702 66.707618 542.163248 64.857350 542.709795 62.691296 543.256341 59.791696 543.802888 55.016213 544.349435 45.252373 544.895981 42.114070 545.442528 39.710974 545.989074 37.865457 546.535621 36.414883 547.082167 35.196614 547.628714 34.048014 548.175260 32.823721 548.721807 31.700691 549.268354 30.742131 549.814900 29.909764 550.361447 29.165314 550.907993 28.470503 551.454540 27.787055 552.001086 27.076692 552.547633 26.301139 553.094179 25.422118 553.640726 24.401352 554.187273 23.200564 554.733819 21.781478 555.280366 19.864347 555.826912 16.852245 556.373459 13.167751 556.920005 9.308149"/></g><g class="series serie-3 color-3"><path class="line reactive nofill" d="M10.920000 474.715622 L11.466547 473.248194 12.013093 471.313708 12.559640 468.994782 13.106186 466.374035 13.652733 463.534084 14.199279 460.032388 14.745826 455.490989 15.292373 451.586963 15.838919 449.432835 16.385466 448.055552 16.932012 447.139314 17.478559 446.439291 18.025105 445.710655 18.571652 444.708577 19.118198 443.188227 19.664745 440.904778 20.211291 433.031297 20.757838 424.347262 21.304385 421.072486 21.850931 418.662274 22.397478 416.977923 22.944024 415.880731 23.490571 415.231996 24.037117 414.862058 24.583664 414.531922 25.130210 414.215093 25.676757 413.911257 26.223304 413.620103 26.769850 413.341316 27.316397 413.074585 27.862943 412.819596 28.409490 412.576037 28.956036 412.343594 29.502583 412.121955 30.049129 411.910807 30.595676 411.709837 31.142223 411.518732 31.688769 411.337179 32.235316 411.164866 32.781862 411.001480 33.328409 410.846708 33.874955 410.700236 34.421502 410.561753 34.968048 410.430945 35.514595 410.307499 36.061141 410.191103 36.607688 410.081443 37.154235 409.978207 37.700781 409.881082 38.247328 409.789756 38.793874 409.703915 39.340421 409.623246 39.886967 409.547436 40.433514 409.476174 40.980060 409.409145 41.526607 409.346037 42.073154 409.286537 42.619700 409.230333 43.166247 409.177111 43.712793 409.126559 44.259340 409.078363 44.805886 409.032211 45.352433 408.987791 45.898979 408.944788 46.445526 408.902891 46.992073 408.861786 47.538619 408.821161 48.085166 408.780703 48.631712 408.740099 49.178259 408.699035 49.724805 408.657200 50.271352 408.614280 50.817898 408.569963 51.364445 408.523936 51.910991 408.475885 52.457538 408.425498 53.004085 408.372462 53.550631 408.316464 54.097178 408.257192 54.643724 408.194332 55.190271 408.127572 55.736817 408.056599 56.283364 407.981100 56.829910 407.900762 57.376457 407.815272 57.923004 407.724317 58.469550 407.627585 59.016097 407.524763 59.562643 407.415538 60.109190 407.299596 60.655736 407.176626 61.202283 407.046314 61.748829 406.908347 62.295376 406.762413 62.841923 406.608199 63.388469 406.445392 63.935016 406.273678 64.481562 406.092746 65.028109 405.902282 65.574655 405.701974 66.121202 405.491508 66.667748 405.270572 67.214295 405.038853 67.760841 404.796037 68.307388 404.541813 68.853935 404.275868 69.400481 403.997888 69.947028 403.707560 70.493574 403.404572 71.040121 403.088139 71.586667 402.669114 72.133214 402.064154 72.679760 401.248409 73.226307 400.197028 73.772854 398.885160 74.319400 397.287953 74.865947 395.380556 75.412493 393.138119 75.959040 390.149778 76.505586 381.661182 77.052133 377.378977 77.598679 374.863985 78.145226 372.943026 78.691773 371.385806 79.238319 369.962030 79.784866 368.441404 80.331412 366.668686 80.877959 365.224162 81.424505 364.024733 81.971052 362.746852 82.517598 361.066972 83.064145 358.661545 83.610691 355.156386 84.157238 343.164638 84.703785 340.817074 85.250331 338.971545 85.796878 337.543219 86.343424 336.447263 86.889971 335.598841 87.436517 334.913122 87.983064 334.305271 88.529610 333.690454 89.076157 332.983839 89.622704 332.100592 90.169250 331.008592 90.715797 330.013615 91.262343 329.128594 91.808890 328.291299 92.355436 327.439501 92.901983 326.510971 93.448529 325.443480 93.995076 324.174799 94.541623 322.642699 95.088169 320.784951 95.634716 317.945543 96.181262 311.671072 96.727809 306.725429 97.274355 303.549116 97.820902 300.895009 98.367448 298.570366 98.913995 296.382449 99.460541 294.209034 100.007088 292.150055 100.553635 290.200620 101.100181 288.344996 101.646728 286.567446 102.193274 284.852237 102.739821 283.192545 103.286367 281.663064 103.832914 280.245405 104.379460 278.890638 104.926007 277.549836 105.472554 276.174071 106.019100 274.714415 106.565647 273.121939 107.112193 271.359216 107.658740 269.567316 108.205286 267.675703 108.751833 265.518539 109.298379 262.929985 109.844926 259.739756 110.391473 254.341093 110.938019 248.000307 111.484566 241.389924 112.031112 236.384296 112.577659 235.506386 113.124205 234.849549 113.670752 234.227083 114.217298 233.637852 114.763845 233.080718 115.310391 232.554543 115.856938 232.058191 116.403485 231.590523 116.950031 231.150403 117.496578 230.736693 118.043124 230.348256 118.589671 229.983954 119.136217 229.642650 119.682764 229.323207 120.229310 229.024487 120.775857 228.745353 121.322404 228.484667 121.868950 228.241293 122.415497 228.014092 122.962043 227.801928 123.508590 227.603662 124.055136 227.418158 124.601683 227.244279 125.148229 227.080886 125.694776 226.926843 126.241323 226.781011 126.787869 226.642255 127.334416 226.509436 127.880962 226.381416 128.427509 226.257060 128.974055 226.135228 129.520602 226.014785 130.067148 225.894592 130.613695 225.773512 131.160241 225.650407 131.706788 225.524141 132.253335 225.393576 132.799881 225.257575 133.346428 225.115000 133.892974 224.964713 134.439521 224.805578 134.986067 224.636457 135.532614 224.456213 136.079160 224.263708 136.625707 224.058404 137.172254 223.852150 137.718800 223.649850 138.265347 223.451383 138.811893 223.256626 139.358440 223.065456 139.904986 222.877753 140.451533 222.693393 140.998079 222.512255 141.544626 222.334215 142.091173 222.159153 142.637719 221.986945 143.184266 221.817470 143.730812 221.650605 144.277359 221.486228 144.823905 221.324217 145.370452 221.164450 145.916998 221.006804 146.463545 220.851158 147.010091 220.697388 147.556638 220.545374 148.103185 220.394992 148.649731 220.246121 149.196278 220.098638 149.742824 219.952420 150.289371 219.807347 150.835917 219.663296 151.382464 219.520144 151.929010 219.377769 152.475557 219.236049 153.022104 219.094862 153.568650 218.954085 154.115197 218.813597 154.661743 218.673275 155.208290 218.532997 155.754836 218.392641 156.301383 218.252085 156.847929 218.111206 157.394476 217.969882 157.941023 217.827991 158.487569 217.685411 159.034116 217.542019 159.580662 217.397694 160.127209 217.252313 160.673755 217.105754 161.220302 216.957895 161.766848 216.808613 162.313395 216.657786 162.859941 216.505293 163.406488 216.351010 163.953035 216.194817 164.499581 216.036589 165.046128 215.876206 165.592674 215.713546 166.139221 215.548485 166.685767 215.380901 167.232314 215.210674 167.778860 215.037679 168.325407 214.861796 168.871954 214.682901 169.418500 214.500874 169.965047 214.315590 170.511593 214.126929 171.058140 213.934768 171.604686 213.738985 172.151233 213.539457 172.697779 213.336063 173.244326 213.128680 173.790873 212.917186 174.337419 212.701459 174.883966 212.481377 175.430512 212.256817 175.977059 212.027508 176.523605 211.792884 177.070152 211.552903 177.616698 211.307572 178.163245 211.056894 178.709791 210.800873 179.256338 210.539515 179.802885 210.272824 180.349431 210.000805 180.895978 209.723462 181.442524 209.440800 181.989071 209.152822 182.535617 208.859535 183.082164 208.560943 183.628710 208.257049 184.175257 207.947859 184.721804 207.633377 185.268350 207.313608 185.814897 206.988556 186.361443 206.658226 186.907990 206.322622 187.454536 205.981750 188.001083 205.635613 188.547629 205.284216 189.094176 204.927564 189.640723 204.565661 190.187269 204.198512 190.733816 203.826122 191.280362 203.448494 191.826909 203.065634 192.373455 202.677546 192.920002 202.284235 193.466548 201.885705 194.013095 201.481962 194.559641 201.073008 195.106188 200.658849 195.652735 200.239489 196.199281 199.805439 196.745828 199.348717 197.292374 198.870908 197.838921 198.373595 198.385467 197.858363 198.932014 197.326794 199.478560 196.780475 200.025107 196.220988 200.571654 195.649917 201.118200 195.068848 201.664747 194.479362 202.211293 193.883046 202.757840 193.281481 203.304386 192.676254 203.850933 192.068947 204.397479 191.461146 204.944026 190.854432 205.490573 190.250392 206.037119 189.650608 206.583666 189.056665 207.130212 188.470148 207.676759 187.901968 208.223305 187.373986 208.769852 186.880250 209.316398 186.413372 209.862945 185.965961 210.409491 185.530627 210.956038 185.099981 211.502585 184.666634 212.049131 184.223194 212.595678 183.762273 213.142224 183.276480 213.688771 182.758426 214.235317 182.200721 214.781864 181.595976 215.328410 180.936800 215.874957 180.215804 216.421504 179.425597 216.968050 178.558791 217.514597 177.607995 218.061143 176.565820 218.607690 174.804701 219.154236 171.723123 219.700783 168.297192 220.247329 165.534515 220.793876 164.435689 221.340423 164.322973 221.886969 164.211561 222.433516 164.101445 222.980062 163.992617 223.526609 163.885068 224.073155 163.778791 224.619702 163.673778 225.166248 163.570019 225.712795 163.467508 226.259341 163.366235 226.805888 163.266193 227.352435 163.167374 227.898981 163.069768 228.445528 162.973369 228.992074 162.878167 229.538621 162.784155 230.085167 162.691324 230.631714 162.599667 231.178260 162.509175 231.724807 162.419839 232.271354 162.331652 232.817900 162.244606 233.364447 162.158692 233.910993 162.073902 234.457540 161.990228 235.004086 161.907662 235.550633 161.826195 236.097179 161.745820 236.643726 161.666527 237.190273 161.588310 237.736819 161.511160 238.283366 161.435068 238.829912 161.360026 239.376459 161.286027 239.923005 161.213061 240.469552 161.141122 241.016098 161.070200 241.562645 161.000287 242.109191 160.931376 242.655738 160.863457 243.202285 160.796524 243.748831 160.730567 244.295378 160.665579 244.841924 160.601551 245.388471 160.538475 245.935017 160.476343 246.481564 160.415147 247.028110 160.354878 247.574657 160.295529 248.121204 160.237091 248.667750 160.179555 249.214297 160.122915 249.760843 160.067161 250.307390 160.012285 250.853936 159.958280 251.400483 159.905136 251.947029 159.852847 252.493576 159.801403 253.040123 159.750796 253.586669 159.701019 254.133216 159.652063 254.679762 159.603919 255.226309 159.556580 255.772855 159.510038 256.319402 159.464284 256.865948 159.419310 257.412495 159.375108 257.959041 159.331670 258.505588 159.288987 259.052135 159.247052 259.598681 159.205855 260.145228 159.165390 260.691774 159.125647 261.238321 159.086619 261.784867 159.048298 262.331414 159.010674 262.877960 158.973741 263.424507 158.937489 263.971054 158.901911 264.517600 158.866998 265.064147 158.832743 265.610693 158.799136 266.157240 158.766171 266.703786 158.733838 267.250333 158.702130 267.796879 158.671037 268.343426 158.640553 268.889973 158.610669 269.436519 158.581377 269.983066 158.552668 270.529612 158.524534 271.076159 158.496968 271.622705 158.469960 272.169252 158.443504 272.715798 158.417589 273.262345 158.392210 273.808891 158.367356 274.355438 158.343020 274.901985 158.319194 275.448531 158.295870 275.995078 158.273039 276.541624 158.250694 277.088171 158.228825 277.634717 158.207425 278.181264 158.186486 278.727810 158.166000 279.274357 158.145957 279.820904 158.126351 280.367450 158.107173 280.913997 158.088414 281.460543 158.070067 282.007090 158.052123 282.553636 158.034575 283.100183 158.017413 283.646729 158.000630 284.193276 157.984217 284.739823 157.968167 285.286369 157.952471 285.832916 157.937122 286.379462 157.922109 286.926009 157.907427 287.472555 157.893066 288.019102 157.879018 288.565648 157.865275 289.112195 157.851829 289.658741 157.838672 290.205288 157.825795 290.751835 157.813190 291.298381 157.800850 291.844928 157.788765 292.391474 157.776928 292.938021 157.765331 293.484567 157.753965 294.031114 157.742822 294.577660 157.731894 295.124207 157.721172 295.670754 157.710650 296.217300 157.700317 296.763847 157.690167 297.310393 157.680191 297.856940 157.670380 298.403486 157.660728 298.950033 157.651224 299.496579 157.641862 300.043126 157.632633 300.589673 157.623528 301.136219 157.614541 301.682766 157.605662 302.229312 157.596883 302.775859 157.588196 303.322405 157.579593 303.868952 157.571065 304.415498 157.562606 304.962045 157.554205 305.508591 157.545856 306.055138 157.537549 306.601685 157.529278 307.148231 157.521033 307.694778 157.512806 308.241324 157.504589 308.787871 157.496375 309.334417 157.488154 309.880964 157.479918 310.427510 157.471661 310.974057 157.463372 311.520604 157.455044 312.067150 157.446670 312.613697 157.438239 313.160243 157.429746 313.706790 157.421180 314.253336 157.412535 314.799883 157.403802 315.346429 157.394972 315.892976 157.386038 316.439523 157.376991 316.986069 157.367823 317.532616 157.358526 318.079162 157.349092 318.625709 157.339512 319.172255 157.329779 319.718802 157.319884 320.265348 157.309819 320.811895 157.299575 321.358441 157.289146 321.904988 157.278521 322.451535 157.267694 322.998081 157.256656 323.544628 157.245399 324.091174 157.233914 324.637721 157.222194 325.184267 157.210230 325.730814 157.198014 326.277360 157.185538 326.823907 157.172794 327.370454 157.159773 327.917000 157.146468 328.463547 157.132869 329.010093 157.118970 329.556640 157.104761 330.103186 157.090235 330.649733 157.075383 331.196279 157.060198 331.742826 157.044670 332.289373 157.028792 332.835919 157.012556 333.382466 156.995953 333.929012 156.978975 334.475559 156.961615 335.022105 156.943863 335.568652 156.925711 336.115198 156.907153 336.661745 156.888178 337.208291 156.868780 337.754838 156.848949 338.301385 156.828678 338.847931 156.807959 339.394478 156.786783 339.941024 156.765142 340.487571 156.743028 341.034117 156.720432 341.580664 156.697348 342.127210 156.673765 342.673757 156.649677 343.220304 156.625075 343.766850 156.599950 344.313397 156.574295 344.859943 156.548101 345.406490 156.521361 345.953036 156.494066 346.499583 156.466207 347.046129 156.437777 347.592676 156.408768 348.139223 156.379171 348.685769 156.348978 349.232316 156.318180 349.778862 156.286771 350.325409 156.254741 350.871955 156.222082 351.418502 156.188786 351.965048 156.154845 352.511595 156.120251 353.058141 156.084996 353.604688 156.049071 354.151235 156.012468 354.697781 155.975179 355.244328 155.937195 355.790874 155.898510 356.337421 155.859113 356.883967 155.818998 357.430514 155.778156 357.977060 155.736579 358.523607 155.694258 359.070154 155.651186 359.616700 155.607354 360.163247 155.562754 360.709793 155.517378 361.256340 155.471218 361.802886 155.424265 362.349433 155.376511 362.895979 155.327949 363.442526 155.278569 363.989073 155.228365 364.535619 155.177326 365.082166 155.125446 365.628712 155.072717 366.175259 155.019129 366.721805 154.964675 367.268352 154.909346 367.814898 154.853135 368.361445 154.796033 368.907991 154.738032 369.454538 154.679124 370.001085 154.619301 370.547631 154.558554 371.094178 154.496875 371.640724 154.434256 372.187271 154.370689 372.733817 154.306166 373.280364 154.240678 373.826910 154.174218 374.373457 154.106777 374.920004 154.038346 375.466550 153.968918 376.013097 153.898485 376.559643 153.827038 377.106190 153.754570 377.652736 153.681071 378.199283 153.606534 378.745829 153.530951 379.292376 153.454313 379.838923 153.376612 380.385469 153.297840 380.932016 153.217989 381.478562 153.137051 382.025109 153.055017 382.571655 152.971879 383.118202 152.887629 383.664748 152.802260 384.211295 152.715761 384.757841 152.628127 385.304388 152.539347 385.850935 152.450854 386.397481 152.366349 386.944028 152.284480 387.490574 152.203539 388.037121 152.121820 388.583667 152.037612 389.130214 151.949209 389.676760 151.854902 390.223307 151.752984 390.769854 151.641745 391.316400 151.519479 391.862947 151.384477 392.409493 151.235032 392.956040 151.069434 393.502586 150.885976 394.049133 150.682951 394.595679 150.458649 395.142226 150.211364 395.688773 149.939386 396.235319 149.641008 396.781866 149.314522 397.328412 148.958220 397.874959 148.570393 398.421505 148.149335 398.968052 147.693336 399.514598 147.200689 400.061145 146.669685 400.607691 146.098617 401.154238 145.485776 401.700785 144.829455 402.247331 144.127946 402.793878 143.379540 403.340424 142.582529 403.886971 141.735206 404.433517 140.835862 404.980064 131.567520 405.526610 127.776233 406.073157 126.653530 406.619704 125.718348 407.166250 124.951820 407.712797 124.335082 408.259343 123.849266 408.805890 123.475505 409.352436 123.194935 409.898983 122.988688 410.445529 122.837897 410.992076 122.723698 411.538623 122.627223 412.085169 122.529607 412.631716 122.411982 413.178262 122.255482 413.724809 122.041242 414.271355 121.750395 414.817902 121.364075 415.364448 120.863414 415.910995 120.229548 416.457541 119.443610 417.004088 118.486732 417.550635 117.340050 418.097181 111.998319 418.643728 103.403618 419.190274 101.215485 419.736821 100.314066 420.283367 99.433738 420.829914 97.308874 421.376460 91.644687 421.923007 79.191172 422.469554 77.598400 423.016100 76.337993 423.562647 75.364808 424.109193 74.633699 424.655740 74.099524 425.202286 73.717140 425.748833 73.441401 426.295379 73.227165 426.841926 73.029288 427.388473 72.802626 427.935019 72.502035 428.481566 72.082373 429.028112 71.498494 429.574659 70.705256 430.121205 69.657514 430.667752 68.225663 431.214298 65.849612 431.760845 62.563335 432.307391 58.522929 432.853938 53.990597 433.400485 45.625662 433.947031 30.648512 434.493578 27.271741 435.040124 24.847542 435.586671 23.205519 436.133217 22.175279 436.679764 21.586426 437.226310 21.268566 437.772857 21.040391 438.319404 20.815623 438.865950 20.593686 439.412497 20.374562 439.959043 20.158233 440.505590 19.944682 441.052136 19.733892 441.598683 19.525845 442.145229 19.320523 442.691776 19.117910 443.238323 18.917988 443.784869 18.720739 444.331416 18.526147 444.877962 18.334193 445.424509 18.144860 445.971055 17.958131 446.517602 17.773988 447.064148 17.592414 447.610695 17.413391 448.157241 17.236903 448.703788 17.062931 449.250335 16.891458 449.796881 16.722467 450.343428 16.555941 450.889974 16.391861 451.436521 16.230211 451.983067 16.070973 452.529614 15.914129 453.076160 15.759663 453.622707 15.607556 454.169254 15.457792 454.715800 15.310352 455.262347 15.165220 455.808893 15.022378 456.355440 14.881809 456.901986 14.743495 457.448533 14.607418 457.995079 14.473562 458.541626 14.341909 459.088173 14.212442 459.634719 14.085142 460.181266 13.959993 460.727812 13.836977 461.274359 13.716078 461.820905 13.597276 462.367452 13.480555 462.913998 13.365898 463.460545 13.253287 464.007091 13.142704 464.553638 13.034133 465.100185 12.927555 465.646731 12.822954 466.193278 12.720312 466.739824 12.619611 467.286371 12.520834 467.832917 12.423964 468.379464 12.328983 468.926010 12.235874 469.472557 12.144619 470.019104 12.055201 470.565650 11.967603 471.112197 11.881807 471.658743 11.797795 472.205290 11.715551 472.751836 11.635056 473.298383 11.556294 473.844929 11.479247 474.391476 11.403897 474.938023 11.330227 475.484569 11.258220 476.031116 11.187858 476.577662 11.119124 477.124209 11.052000 477.670755 10.986469 478.217302 10.922514 478.763848 10.860117 479.310395 10.799260 479.856941 10.739927 480.403488 10.682100 480.950035 10.625761 481.496581 10.570892 482.043128 10.517478 482.589674 10.465499 483.136221 10.414939 483.682767 10.365780 484.229314 10.318006 484.775860 10.271597 485.322407 10.226538 485.868954 10.182810 486.415500 10.140396 486.962047 10.099278 487.508593 10.059440 488.055140 10.020864 488.601686 9.983532 489.148233 9.947428 489.694779 9.912532 490.241326 9.878829 490.787873 9.846300 491.334419 9.814929 491.880966 9.784698 492.427512 9.755589 492.974059 9.727584 493.520605 9.700668 494.067152 9.674821 494.613698 9.650028 495.160245 9.626269 495.706791 9.603528 496.253338 9.581788 496.799885 9.561031 497.346431 9.541239 497.892978 9.522395 498.439524 9.504482 498.986071 9.487482 499.532617 9.471378 500.079164 9.456153 500.625710 9.441788 501.172257 9.428267 501.718804 9.415573 502.265350 9.403686 502.811897 9.392591 503.358443 9.382270 503.904990 9.372706 504.451536 9.363880 504.998083 9.355776 505.544629 9.348376 506.091176 9.341663 506.637723 9.335619 507.184269 9.330226 507.730816 9.325469 508.277362 9.321328 508.823909 9.317787 509.370455 9.314828 509.917002 9.312433 510.463548 9.310586 511.010095 9.309269 511.556641 9.308464 512.103188 9.308154 512.649735 9.308149 513.196281 9.308149 513.742828 9.308149 514.289374 9.308149 514.835921 9.308149 515.382467 9.308149 515.929014 9.308149 516.475560 9.308149 517.022107 9.308149 517.568654 9.308149 518.115200 9.308149 518.661747 9.308149 519.208293 9.308149 519.754840 9.308149 520.301386 9.308149 520.847933 9.308149 521.394479 9.308149 521.941026 9.308149 522.487573 9.308149 523.034119 9.308149 523.580666 9.308149 524.127212 9.308149 524.673759 9.308149 525.220305 9.308149 525.766852 9.308149 526.313398 9.308149 526.859945 9.308149 527.406491 9.308149 527.953038 9.308149 528.499585 9.308149 529.046131 9.308149 529.592678 9.308149 530.139224 9.308149 530.685771 9.308149 531.232317 9.308149 531.778864 9.308149 532.325410 9.308149 532.871957 9.308149 533.418504 9.308149 533.965050 9.308149 534.511597 9.308149 535.058143 9.308149 535.604690 9.308149 536.151236 9.308149 536.697783 9.308149 537.244329 9.308149 537.790876 9.308149 538.337423 9.308149 538.883969 9.308149 539.430516 9.308149 539.977062 9.308149 540.523609 9.308149 541.070155 9.308149 541.616702 9.308149 542.163248 9.308149 542.709795 9.308149 543.256341 9.308149 543.802888 9.308149 544.349435 9.308149 544.895981 9.308149 545.442528 9.308149 545.989074 9.308149 546.535621 9.308149 547.082167 9.308149 547.628714 9.308149 548.175260 9.308149 548.721807 9.308149 549.268354 9.308149 549.814900 9.308149 550.361447 9.308149 550.907993 9.308149 551.454540 9.308149 552.001086 9.308149 552.547633 9.308149 553.094179 9.308149 553.640726 9.308149 554.187273 9.308149 554.733819 9.308149 555.280366 9.308149 555.826912 9.308149 556.373459 9.308149 556.920005 9.308149"/></g></g><g class="titles"><text class="title plot_title" x="400.0" y="26">Cumulative Distribution function</text><text class="title" x="463.92000269019513" y="580.0">Throughput</text><text class="title" x="106.0" y="314.01188578223196" transform="rotate(-90 106.000000 288.011886)">Percentage of data</text></g><g class="plot overlay" transform="translate(180, 46)"><g class="series serie-0 color-0"/><g class="series serie-1 color-1"/><g class="series serie-2 color-2"/><g class="series serie-3 color-3"/></g><g class="plot text-overlay" transform="translate(180, 46)"><g class="series serie-0 color-0"/><g class="series serie-1 color-1"/><g class="series serie-2 color-2"/><g class="series serie-3 color-3"/></g><g class="plot tooltip-overlay" transform="translate(180, 46)"><g class="tooltip" style="opacity: 0" transform="translate(0 0)"><rect class="tooltip-box" height="0" rx="0" ry="0" width="0"/><g class="text"/></g></g><g class="legends" transform="translate(10, 56)"><g class="legend reactive activate-serie" id="activate-serie-0"><rect class="color-0 reactive" height="12" width="12" x="0.0" y="1.0"/><text x="17.0" y="11.2">Old 40</text></g><g class="legend reactive activate-serie" id="activate-serie-1"><rect class="color-1 reactive" height="12" width="12" x="0.0" y="22.0"/><text x="17.0" y="32.2">New 40</text></g><g class="legend reactive activate-serie" id="activate-serie-2"><rect class="color-2 reactive" height="12" width="12" x="0.0" y="43.0"/><text x="17.0" y="53.2">Fit Old 40</text></g><g class="legend reactive activate-serie" id="activate-serie-3"><rect class="color-3 reactive" height="12" width="12" x="0.0" y="64.0"/><text x="17.0" y="74.2">Fit New 40</text></g></g><g class="legends" transform="translate(757, 56)"/></g></svg>