<?xml version='1.0' encoding='utf-8'?>
<svg xmlns:xlink="http://www.w3.org/1999/xlink" xmlns="http://www.w3.org/2000/svg" id="chart-ed4e47f3-ba7a-4b72-ac51-bb493c819b22" class="pygal-chart" viewBox="0 0 800 600"><!--Generated with pygal 2.3.1 (lxml) ©Kozea 2012-2016 on 2017-03-14--><!--http://pygal.org--><!--http://github.com/Kozea/pygal--><defs><style type="text/css">#chart-ed4e47f3-ba7a-4b72-ac51-bb493c819b22{-webkit-user-select:none;-webkit-font-smoothing:antialiased;font-family:Consolas,"Liberation Mono",Menlo,Courier,monospace}#chart-ed4e47f3-ba7a-4b72-ac51-bb493c819b22 .title{font-family:Consolas,"Liberation Mono",Menlo,Courier,monospace;font-size:16px}#chart-ed4e47f3-ba7a-4b72-ac51-bb493c819b22 .legends .legend text{font-family:Consolas,"Liberation Mono",Menlo,Courier,monospace;font-size:14px}#chart-ed4e47f3-ba7a-4b72-ac51-bb493c819b22 .axis text{font-family:Consolas,"Liberation Mono",Menlo,Courier,monospace;font-size:10px}#chart-ed4e47f3-ba7a-4b72-ac51-bb493c819b22 .axis text.major{font-family:Consolas,"Liberation Mono",Menlo,Courier,monospace;font-size:10px}#chart-ed4e47f3-ba7a-4b72-ac51-bb493c819b22 .text-overlay text.value{font-family:Consolas,"Liberation Mono",Menlo,Courier,monospace;font-size:16px}#chart-ed4e47f3-ba7a-4b72-ac51-bb493c819b22 .text-overlay text.label{font-family:Consolas,"Liberation Mono",Menlo,Courier,monospace;font-size:10px}#chart-ed4e47f3-ba7a-4b72-ac51-bb493c819b22 .tooltip{font-family:Consolas,"Liberation Mono",Menlo,Courier,monospace;font-size:14px}#chart-ed4e47f3-ba7a-4b72-ac51-bb493c819b22 text.no_data{font-family:Consolas,"Liberation Mono",Menlo,Courier,monospace;font-size:64px}
#chart-ed4e47f3-ba7a-4b72-ac51-bb493c819b22{background-color:rgba(249,249,249,1)}#chart-ed4e47f3-ba7a-4b72-ac51-bb493c819b22 path,#chart-ed4e47f3-ba7a-4b72-ac51-bb493c819b22 line,#chart-ed4e47f3-ba7a-4b72-ac51-bb493c819b22 rect,#chart-ed4e47f3-ba7a-4b72-ac51-bb493c819b22 circle{-webkit-transition:150ms;-moz-transition:150ms;transition:150ms}#chart-ed4e47f3-ba7a-4b72-ac51-bb493c819b22 .graph &gt; .background{fill:rgba(249,249,249,1)}#chart-ed4e47f3-ba7a-4b72-ac51-bb493c819b22 .plot &gt; .background{fill:rgba(255,255,255,1)}#chart-ed4e47f3-ba7a-4b72-ac51-bb493c819b22 .graph{fill:rgba(0,0,0,.87)}#chart-ed4e47f3-ba7a-4b72-ac51-bb493c819b22 text.no_data{fill:rgba(0,0,0,1)}#chart-ed4e47f3-ba7a-4b72-ac51-bb493c819b22 .title{fill:rgba(0,0,0,1)}#chart-ed4e47f3-ba7a-4b72-ac51-bb493c819b22 .legends .legend text{fill:rgba(0,0,0,.87)}#chart-ed4e47f3-ba7a-4b72-ac51-bb493c819b22 .legends .legend:hover text{fill:rgba(0,0,0,1)}#chart-ed4e47f3-ba7a-4b72-ac51-bb493c819b22 .axis .line{stroke:rgba(0,0,0,1)}#chart-ed4e47f3-ba7a-4b72-ac51-bb493c819b22 .axis .guide.line{stroke:rgba(0,0,0,.54)}#chart-ed4e47f3-ba7a-4b72-ac51-bb493c819b22 .axis .major.line{stroke:rgba(0,0,0,.87)}#chart-ed4e47f3-ba7a-4b72-ac51-bb493c819b22 .axis text.major{fill:rgba(0,0,0,1)}#chart-ed4e47f3-ba7a-4b72-ac51-bb493c819b22 .axis.y .guides:hover .guide.line,#chart-ed4e47f3-ba7a-4b72-ac51-bb493c819b22 .line-graph .axis.x .guides:hover .guide.line,#chart-ed4e47f3-ba7a-4b72-ac51-bb493c819b22 .stackedline-graph .axis.x .guides:hover .guide.line,#chart-ed4e47f3-ba7a-4b72-ac51-bb493c819b22 .xy-graph .axis.x .guides:hover .guide.line{stroke:rgba(0,0,0,1)}#chart-ed4e47f3-ba7a-4b72-ac51-bb493c819b22 .axis .guides:hover text{fill:rgba(0,0,0,1)}#chart-ed4e47f3-ba7a-4b72-ac51-bb493c819b22 .reactive{fill-opacity:.7;stroke-opacity:.8}#chart-ed4e47f3-ba7a-4b72-ac51-bb493c819b22 .ci{stroke:rgba(0,0,0,.87)}#chart-ed4e47f3-ba7a-4b72-ac51-bb493c819b22 .reactive.active,#chart-ed4e47f3-ba7a-4b72-ac51-bb493c819b22 .active .reactive{fill-opacity:.8;stroke-opacity:.9;stroke-width:4}#chart-ed4e47f3-ba7a-4b72-ac51-bb493c819b22 .ci .reactive.active{stroke-width:1.5}#chart-ed4e47f3-ba7a-4b72-ac51-bb493c819b22 .series text{fill:rgba(0,0,0,1)}#chart-ed4e47f3-ba7a-4b72-ac51-bb493c819b22 .tooltip rect{fill:rgba(255,255,255,1);stroke:rgba(0,0,0,1);-webkit-transition:opacity 150ms;-moz-transition:opacity 150ms;transition:opacity 150ms}#chart-ed4e47f3-ba7a-4b72-ac51-bb493c819b22 .tooltip .label{fill:rgba(0,0,0,.87)}#chart-ed4e47f3-ba7a-4b72-ac51-bb493c819b22 .tooltip .label{fill:rgba(0,0,0,.87)}#chart-ed4e47f3-ba7a-4b72-ac51-bb493c819b22 .tooltip .legend{font-size:.8em;fill:rgba(0,0,0,.54)}#chart-ed4e47f3-ba7a-4b72-ac51-bb493c819b22 .tooltip .x_label{font-size:.6em;fill:rgba(0,0,0,1)}#chart-ed4e47f3-ba7a-4b72-ac51-bb493c819b22 .tooltip .xlink{font-size:.5em;text-decoration:underline}#chart-ed4e47f3-ba7a-4b72-ac51-bb493c819b22 .tooltip .value{font-size:1.5em}#chart-ed4e47f3-ba7a-4b72-ac51-bb493c819b22 .bound{font-size:.5em}#chart-ed4e47f3-ba7a-4b72-ac51-bb493c819b22 .max-value{font-size:.75em;fill:rgba(0,0,0,.54)}#chart-ed4e47f3-ba7a-4b72-ac51-bb493c819b22 .map-element{fill:rgba(255,255,255,1);stroke:rgba(0,0,0,.54) !important}#chart-ed4e47f3-ba7a-4b72-ac51-bb493c819b22 .map-element .reactive{fill-opacity:inherit;stroke-opacity:inherit}#chart-ed4e47f3-ba7a-4b72-ac51-bb493c819b22 .color-0,#chart-ed4e47f3-ba7a-4b72-ac51-bb493c819b22 .color-0 a:visited{stroke:#F44336;fill:#F44336}#chart-ed4e47f3-ba7a-4b72-ac51-bb493c819b22 .color-1,#chart-ed4e47f3-ba7a-4b72-ac51-bb493c819b22 .color-1 a:visited{stroke:#3F51B5;fill:#3F51B5}#chart-ed4e47f3-ba7a-4b72-ac51-bb493c819b22 .color-2,#chart-ed4e47f3-ba7a-4b72-ac51-bb493c819b22 .color-2 a:visited{stroke:#009688;fill:#009688}#chart-ed4e47f3-ba7a-4b72-ac51-bb493c819b22 .color-3,#chart-ed4e47f3-ba7a-4b72-ac51-bb493c819b22 .color-3 a:visited{stroke:#FFC107;fill:#FFC107}#chart-ed4e47f3-ba7a-4b72-ac51-bb493c819b22 .text-overlay .color-0 text{fill:black}#chart-ed4e47f3-ba7a-4b72-ac51-bb493c819b22 .text-overlay .color-1 text{fill:black}#chart-ed4e47f3-ba7a-4b72-ac51-bb493c819b22 .text-overlay .color-2 text{fill:black}#chart-ed4e47f3-ba7a-4b72-ac51-bb493c819b22 .text-overlay .color-3 text{fill:black}
#chart-ed4e47f3-ba7a-4b72-ac51-bb493c819b22 text.no_data{text-anchor:middle}#chart-ed4e47f3-ba7a-4b72-ac51-bb493c819b22 .guide.line{fill:none}#chart-ed4e47f3-ba7a-4b72-ac51-bb493c819b22 .centered{text-anchor:middle}#chart-ed4e47f3-ba7a-4b72-ac51-bb493c819b22 .title{text-anchor:middle}#chart-ed4e47f3-ba7a-4b72-ac51-bb493c819b22 .legends .legend text{fill-opacity:1}#chart-ed4e47f3-ba7a-4b72-ac51-bb493c819b22 .axis.x text{text-anchor:middle}#chart-ed4e47f3-ba7a-4b72-ac51-bb493c819b22 .axis.x:not(.web) text[transform]{text-anchor:start}#chart-ed4e47f3-ba7a-4b72-ac51-bb493c819b22 .axis.x:not(.web) text[transform].backwards{text-anchor:end}#chart-ed4e47f3-ba7a-4b72-ac51-bb493c819b22 .axis.y text{text-anchor:end}#chart-ed4e47f3-ba7a-4b72-ac51-bb493c819b22 .axis.y text[transform].backwards{text-anchor:start}#chart-ed4e47f3-ba7a-4b72-ac51-bb493c819b22 .axis.y2 text{text-anchor:start}#chart-ed4e47f3-ba7a-4b72-ac51-bb493c819b22 .axis.y2 text[transform].backwards{text-anchor:end}#chart-ed4e47f3-ba7a-4b72-ac51-bb493c819b22 .axis .guide.line{stroke-dasharray:4,4}#chart-ed4e47f3-ba7a-4b72-ac51-bb493c819b22 .axis .major.guide.line{stroke-dasharray:6,6}#chart-ed4e47f3-ba7a-4b72-ac51-bb493c819b22 .horizontal .axis.y .guide.line,#chart-ed4e47f3-ba7a-4b72-ac51-bb493c819b22 .horizontal .axis.y2 .guide.line,#chart-ed4e47f3-ba7a-4b72-ac51-bb493c819b22 .vertical .axis.x .guide.line{opacity:0}#chart-ed4e47f3-ba7a-4b72-ac51-bb493c819b22 .horizontal .axis.always_show .guide.line,#chart-ed4e47f3-ba7a-4b72-ac51-bb493c819b22 .vertical .axis.always_show .guide.line{opacity:1 !important}#chart-ed4e47f3-ba7a-4b72-ac51-bb493c819b22 .axis.y .guides:hover .guide.line,#chart-ed4e47f3-ba7a-4b72-ac51-bb493c819b22 .axis.y2 .guides:hover .guide.line,#chart-ed4e47f3-ba7a-4b72-ac51-bb493c819b22 .axis.x .guides:hover .guide.line{opacity:1}#chart-ed4e47f3-ba7a-4b72-ac51-bb493c819b22 .axis .guides:hover text{opacity:1}#chart-ed4e47f3-ba7a-4b72-ac51-bb493c819b22 .nofill{fill:none}#chart-ed4e47f3-ba7a-4b72-ac51-bb493c819b22 .subtle-fill{fill-opacity:.2}#chart-ed4e47f3-ba7a-4b72-ac51-bb493c819b22 .dot{stroke-width:1px;fill-opacity:1}#chart-ed4e47f3-ba7a-4b72-ac51-bb493c819b22 .dot.active{stroke-width:5px}#chart-ed4e47f3-ba7a-4b72-ac51-bb493c819b22 .dot.negative{fill:transparent}#chart-ed4e47f3-ba7a-4b72-ac51-bb493c819b22 text,#chart-ed4e47f3-ba7a-4b72-ac51-bb493c819b22 tspan{stroke:none !important}#chart-ed4e47f3-ba7a-4b72-ac51-bb493c819b22 .series text.active{opacity:1}#chart-ed4e47f3-ba7a-4b72-ac51-bb493c819b22 .tooltip rect{fill-opacity:.95;stroke-width:.5}#chart-ed4e47f3-ba7a-4b72-ac51-bb493c819b22 .tooltip text{fill-opacity:1}#chart-ed4e47f3-ba7a-4b72-ac51-bb493c819b22 .showable{visibility:hidden}#chart-ed4e47f3-ba7a-4b72-ac51-bb493c819b22 .showable.shown{visibility:visible}#chart-ed4e47f3-ba7a-4b72-ac51-bb493c819b22 .gauge-background{fill:rgba(229,229,229,1);stroke:none}#chart-ed4e47f3-ba7a-4b72-ac51-bb493c819b22 .bg-lines{stroke:rgba(249,249,249,1);stroke-width:2px}</style><script type="text/javascript">window.pygal = window.pygal || {};window.pygal.config = window.pygal.config || {};window.pygal.config['ed4e47f3-ba7a-4b72-ac51-bb493c819b22'] = {"margin_top": null, "logarithmic": false, "show_minor_y_labels": true, "y_labels": null, "show_y_guides": true, "interpolate": null, "print_values_position": "center", "y_label_rotation": 0, "no_prefix": false, "x_labels_major_count": null, "title": "Cumulative Distribution function", "spacing": 10, "show_dots": false, "css": ["file://style.css", "file://graph.css"], "secondary_range": null, "print_values": false, "missing_value_fill_truncation": "x", "legend_at_bottom_columns": null, "margin_left": null, "include_x_axis": false, "interpolation_parameters": {}, "show_only_major_dots": false, "print_labels": false, "zero": 0, "stroke_style": null, "inverse_y_axis": false, "strict": false, "dynamic_print_values": false, "pretty_print": false, "x_labels_major_every": null, "x_labels_major": null, "margin": 20, "show_legend": true, "rounded_bars": null, "margin_bottom": null, "force_uri_protocol": "https", "max_scale": 16, "height": 600, "show_x_labels": true, "half_pie": false, "box_mode": "extremes", "legends": ["Old 40", "New 40", "Fit Old 40", "Fit New 40"], "show_x_guides": false, "style": {"label_font_size": 10, "value_label_font_size": 10, "colors": ["#F44336", "#3F51B5", "#009688", "#FFC107", "#FF5722", "#9C27B0", "#03A9F4", "#8BC34A", "#FF9800", "#E91E63", "#2196F3", "#4CAF50", "#FFEB3B", "#673AB7", "#00BCD4", "#CDDC39", "#9E9E9E", "#607D8B"], "opacity_hover": ".8", "stroke_opacity": ".8", "plot_background": "rgba(255, 255, 255, 1)", "foreground_subtle": "rgba(0, 0, 0, .54)", "font_family": "Consolas, \"Liberation Mono\", Menlo, Courier, monospace", "major_guide_stroke_dasharray": "6,6", "value_font_family": "Consolas, \"Liberation Mono\", Menlo, Courier, monospace", "guide_stroke_dasharray": "4,4", "tooltip_font_family": "Consolas, \"Liberation Mono\", Menlo, Courier, monospace", "foreground_strong": "rgba(0, 0, 0, 1)", "background": "rgba(249, 249, 249, 1)", "transition": "150ms", "opacity": ".7", "value_colors": [], "no_data_font_size": 64, "stroke_opacity_hover": ".9", "foreground": "rgba(0, 0, 0, .87)", "legend_font_size": 14, "value_label_font_family": "Consolas, \"Liberation Mono\", Menlo, Courier, monospace", "value_background": "rgba(229, 229, 229, 1)", "major_label_font_size": 10, "legend_font_family": "Consolas, \"Liberation Mono\", Menlo, Courier, monospace", "label_font_family": "Consolas, \"Liberation Mono\", Menlo, Courier, monospace", "title_font_family": "Consolas, \"Liberation Mono\", Menlo, Courier, monospace", "tooltip_font_size": 14, "no_data_font_family": "Consolas, \"Liberation Mono\", Menlo, Courier, monospace", "value_font_size": 16, "title_font_size": 16, "major_label_font_family": "Consolas, \"Liberation Mono\", Menlo, Courier, monospace", "ci_colors": []}, "truncate_label": null, "x_labels": null, "margin_right": null, "show_y_labels": true, "fill": false, "stroke": true, "show_minor_x_labels": true, "y_labels_major_every": null, "y_labels_major": null, "y_labels_major_count": null, "explicit_size": false, "inner_radius": 0, "tooltip_fancy_mode": true, "order_min": null, "no_data_text": "No data", "classes": ["pygal-chart"], "defs": [], "legend_box_size": 12, "print_zeroes": true, "x_label_rotation": 15, "js": ["//kozea.github.io/pygal.js/2.0.x/pygal-tooltips.min.js"], "allow_interruptions": false, "disable_xml_declaration": false, "formatter": null, "range": null, "legend_at_bottom": false, "xrange": null, "y_title": "Percentage of data", "stack_from_top": false, "tooltip_border_radius": 0, "dots_size": 2.5, "interpolation_precision": 250, "x_title": "Throughput", "min_scale": 4, "truncate_legend": null, "width": 800}</script><script type="text/javascript" xlink:href="https://kozea.github.io/pygal.js/2.0.x/pygal-tooltips.min.js"/></defs><title>Cumulative Distribution function</title><g class="graph xy-graph vertical"><rect class="background" height="600" width="800" x="0" y="0"/><g class="plot" transform="translate(180, 46)"><rect class="background" height="484.0237715644639" width="567.8400053803903" x="0" y="0"/><g class="axis y"><g class="guides"><path class="axis major line" d="M0.000000 474.715622 h567.840005"/><text class="major" x="-5" y="478.215622111">0</text><title>0</title></g><g class="guides"><path class="guide line" d="M0.000000 428.174875 h567.840005"/><text class="" x="-5" y="431.674874845">10</text><title>10</title></g><g class="guides"><path class="guide line" d="M0.000000 381.634128 h567.840005"/><text class="" x="-5" y="385.13412758">20</text><title>20</title></g><g class="guides"><path class="guide line" d="M0.000000 335.093380 h567.840005"/><text class="" x="-5" y="338.593380314">30</text><title>30</title></g><g class="guides"><path class="guide line" d="M0.000000 288.552633 h567.840005"/><text class="" x="-5" y="292.052633048">40</text><title>40</title></g><g class="guides"><path class="major guide line" d="M0.000000 242.011886 h567.840005"/><text class="major" x="-5" y="245.511885782">50</text><title>50</title></g><g class="guides"><path class="guide line" d="M0.000000 195.471139 h567.840005"/><text class="" x="-5" y="198.971138516">60</text><title>60</title></g><g class="guides"><path class="guide line" d="M0.000000 148.930391 h567.840005"/><text class="" x="-5" y="152.430391251">70</text><title>70</title></g><g class="guides"><path class="guide line" d="M0.000000 102.389644 h567.840005"/><text class="" x="-5" y="105.889643985">80</text><title>80</title></g><g class="guides"><path class="guide line" d="M0.000000 55.848897 h567.840005"/><text class="" x="-5" y="59.348896719">90</text><title>90</title></g><g class="guides"><path class="major guide line" d="M0.000000 9.308149 h567.840005"/><text class="major" x="-5" y="12.8081494532">100</text><title>100</title></g></g><g class="axis x"><path class="line" d="M0.000000 0.000000 v484.023772"/><g class="guides"><path class="guide line" d="M43.075693 0.000000 v484.023772"/><text class="" x="43.0756926251" y="499.0237715644639" transform="rotate(15 43.075693 499.023772)">50000000</text><title>50000000</title></g><g class="guides"><path class="guide line" d="M83.774172 0.000000 v484.023772"/><text class="" x="83.7741717279" y="499.0237715644639" transform="rotate(15 83.774172 499.023772)">60000000</text><title>60000000</title></g><g class="guides"><path class="guide line" d="M124.472651 0.000000 v484.023772"/><text class="" x="124.472650831" y="499.0237715644639" transform="rotate(15 124.472651 499.023772)">70000000</text><title>70000000</title></g><g class="guides"><path class="guide line" d="M165.171130 0.000000 v484.023772"/><text class="" x="165.171129933" y="499.0237715644639" transform="rotate(15 165.171130 499.023772)">80000000</text><title>80000000</title></g><g class="guides"><path class="guide line" d="M205.869609 0.000000 v484.023772"/><text class="" x="205.869609036" y="499.0237715644639" transform="rotate(15 205.869609 499.023772)">90000000</text><title>90000000</title></g><g class="guides"><path class="guide line" d="M246.568088 0.000000 v484.023772"/><text class="" x="246.568088139" y="499.0237715644639" transform="rotate(15 246.568088 499.023772)">100000000</text><title>100000000</title></g><g class="guides"><path class="guide line" d="M287.266567 0.000000 v484.023772"/><text class="" x="287.266567242" y="499.0237715644639" transform="rotate(15 287.266567 499.023772)">110000000</text><title>110000000</title></g><g class="guides"><path class="guide line" d="M327.965046 0.000000 v484.023772"/><text class="" x="327.965046344" y="499.0237715644639" transform="rotate(15 327.965046 499.023772)">120000000</text><title>120000000</title></g><g class="guides"><path class="guide line" d="M368.663525 0.000000 v484.023772"/><text class="" x="368.663525447" y="499.0237715644639" transform="rotate(15 368.663525 499.023772)">130000000</text><title>130000000</title></g><g class="guides"><path class="guide line" d="M409.362005 0.000000 v484.023772"/><text class="" x="409.36200455" y="499.0237715644639" transform="rotate(15 409.362005 499.023772)">140000000</text><title>140000000</title></g><g class="guides"><path class="guide line" d="M450.060484 0.000000 v484.023772"/><text class="" x="450.060483653" y="499.0237715644639" transform="rotate(15 450.060484 499.023772)">150000000</text><title>150000000</title></g><g class="guides"><path class="guide line" d="M490.758963 0.000000 v484.023772"/><text class="" x="490.758962755" y="499.0237715644639" transform="rotate(15 490.758963 499.023772)">160000000</text><title>160000000</title></g><g class="guides"><path class="guide line" d="M531.457442 0.000000 v484.023772"/><text class="" x="531.457441858" y="499.0237715644639" transform="rotate(15 531.457442 499.023772)">170000000</text><title>170000000</title></g></g><g class="series serie-0 color-0"><path class="line reactive nofill" d="M140.408390 474.715622 L183.535187 462.782097 183.695732 450.848572 190.234483 438.915047 191.695712 426.981522 193.311189 415.047997 196.962529 403.114472 201.272639 391.180948 212.663786 379.247423 222.799745 367.313898 249.735303 355.380373 272.257310 343.446848 280.857077 331.513323 286.044067 319.579798 288.344807 307.646273 288.364940 295.712748 301.537109 283.779223 303.845567 271.845698 303.863161 259.912173 304.770220 247.978648 322.691278 236.045123 325.186784 224.111598 325.884010 212.178073 326.434946 200.244548 326.743810 188.311024 330.502415 176.377499 330.578738 164.443974 336.739119 152.510449 337.007767 140.576924 339.764987 128.643399 347.948183 116.709874 350.468445 104.776349 352.250357 92.842824 359.488954 80.909299 359.496580 68.975774 367.244524 57.042249 369.830323 45.108724 371.758710 33.175199 374.382176 21.241674 379.318124 9.308149"/></g><g class="series serie-1 color-1"><path class="line reactive nofill" d="M10.920000 474.715622 L41.524554 462.782097 45.860328 450.848572 50.735097 438.915047 53.251815 426.981522 98.482430 415.047997 138.345468 403.114472 150.038586 391.180948 160.701665 379.247423 165.841061 367.313898 170.960397 355.380373 291.547841 343.446848 313.948393 331.513323 318.597955 319.579798 320.337525 307.646273 336.843166 295.712748 344.532965 283.779223 346.971089 271.845698 350.086968 259.912173 354.641771 247.978648 356.926698 236.045123 357.796365 224.111598 359.918296 212.178073 363.788217 200.244548 367.961658 188.311024 370.493498 176.377499 378.551661 164.443974 386.855808 152.510449 404.013306 140.576924 407.303017 128.643399 409.097579 116.709874 410.888369 104.776349 413.111855 92.842824 413.893495 80.909299 414.526633 68.975774 426.536462 57.042249 427.850526 45.108724 429.727977 33.175199 430.233473 21.241674 556.920005 9.308149"/></g><g class="series serie-2 color-2"><path class="line reactive nofill" d="M10.920000 474.715622 L11.466547 474.715622 12.013093 474.715622 12.559640 474.715622 13.106186 474.715622 13.652733 474.715622 14.199279 474.715622 14.745826 474.715622 15.292373 474.715622 15.838919 474.715622 16.385466 474.715622 16.932012 474.715622 17.478559 474.715622 18.025105 474.715622 18.571652 474.715622 19.118198 474.715622 19.664745 474.715622 20.211291 474.715622 20.757838 474.715622 21.304385 474.715622 21.850931 474.715622 22.397478 474.715622 22.944024 474.715622 23.490571 474.715622 24.037117 474.715622 24.583664 474.715622 25.130210 474.715622 25.676757 474.715622 26.223304 474.715622 26.769850 474.715622 27.316397 474.715622 27.862943 474.715622 28.409490 474.715622 28.956036 474.715622 29.502583 474.715622 30.049129 474.715622 30.595676 474.715622 31.142223 474.715622 31.688769 474.715622 32.235316 474.715622 32.781862 474.715622 33.328409 474.715622 33.874955 474.715622 34.421502 474.715622 34.968048 474.715622 35.514595 474.715622 36.061141 474.715622 36.607688 474.715622 37.154235 474.715622 37.700781 474.715622 38.247328 474.715622 38.793874 474.715622 39.340421 474.715622 39.886967 474.715622 40.433514 474.715622 40.980060 474.715622 41.526607 474.715622 42.073154 474.715622 42.619700 474.715622 43.166247 474.715622 43.712793 474.715622 44.259340 474.715622 44.805886 474.715622 45.352433 474.715622 45.898979 474.715622 46.445526 474.715622 46.992073 474.715622 47.538619 474.715622 48.085166 474.715622 48.631712 474.715622 49.178259 474.715622 49.724805 474.715622 50.271352 474.715622 50.817898 474.715622 51.364445 474.715622 51.910991 474.715622 52.457538 474.715622 53.004085 474.715622 53.550631 474.715622 54.097178 474.715622 54.643724 474.715622 55.190271 474.715622 55.736817 474.715622 56.283364 474.715622 56.829910 474.715622 57.376457 474.715622 57.923004 474.715622 58.469550 474.715622 59.016097 474.715622 59.562643 474.715622 60.109190 474.715622 60.655736 474.715622 61.202283 474.715622 61.748829 474.715622 62.295376 474.715622 62.841923 474.715622 63.388469 474.715622 63.935016 474.715622 64.481562 474.715622 65.028109 474.715622 65.574655 474.715622 66.121202 474.715622 66.667748 474.715622 67.214295 474.715622 67.760841 474.715622 68.307388 474.715622 68.853935 474.715622 69.400481 474.715622 69.947028 474.715622 70.493574 474.715622 71.040121 474.715622 71.586667 474.715622 72.133214 474.715622 72.679760 474.715622 73.226307 474.715622 73.772854 474.715622 74.319400 474.715622 74.865947 474.715622 75.412493 474.715622 75.959040 474.715622 76.505586 474.715622 77.052133 474.715622 77.598679 474.715622 78.145226 474.715622 78.691773 474.715622 79.238319 474.715622 79.784866 474.715622 80.331412 474.715622 80.877959 474.715622 81.424505 474.715622 81.971052 474.715622 82.517598 474.715622 83.064145 474.715622 83.610691 474.715622 84.157238 474.715622 84.703785 474.715622 85.250331 474.715622 85.796878 474.715622 86.343424 474.715622 86.889971 474.715622 87.436517 474.715622 87.983064 474.715622 88.529610 474.715622 89.076157 474.715622 89.622704 474.715622 90.169250 474.715622 90.715797 474.715622 91.262343 474.715622 91.808890 474.715622 92.355436 474.715622 92.901983 474.715622 93.448529 474.715622 93.995076 474.715622 94.541623 474.715622 95.088169 474.715622 95.634716 474.715622 96.181262 474.715622 96.727809 474.715622 97.274355 474.715622 97.820902 474.715622 98.367448 474.715622 98.913995 474.715622 99.460541 474.715622 100.007088 474.715622 100.553635 474.715622 101.100181 474.715622 101.646728 474.715622 102.193274 474.715622 102.739821 474.715622 103.286367 474.715622 103.832914 474.715622 104.379460 474.715622 104.926007 474.715622 105.472554 474.715622 106.019100 474.715622 106.565647 474.715622 107.112193 474.715622 107.658740 474.715622 108.205286 474.715622 108.751833 474.715622 109.298379 474.715622 109.844926 474.715622 110.391473 474.715622 110.938019 474.715622 111.484566 474.715622 112.031112 474.715622 112.577659 474.715622 113.124205 474.715622 113.670752 474.715622 114.217298 474.715622 114.763845 474.715622 115.310391 474.715622 115.856938 474.715622 116.403485 474.715622 116.950031 474.715622 117.496578 474.715622 118.043124 474.715622 118.589671 474.715622 119.136217 474.715622 119.682764 474.715622 120.229310 474.715622 120.775857 474.715622 121.322404 474.715622 121.868950 474.715622 122.415497 474.715622 122.962043 474.715622 123.508590 474.715622 124.055136 474.715622 124.601683 474.715622 125.148229 474.715622 125.694776 474.715622 126.241323 474.715622 126.787869 474.715622 127.334416 474.715622 127.880962 474.715622 128.427509 474.715622 128.974055 474.715622 129.520602 474.715622 130.067148 474.715622 130.613695 474.715622 131.160241 474.715622 131.706788 474.715622 132.253335 474.715622 132.799881 474.715622 133.346428 474.715622 133.892974 474.715622 134.439521 474.715622 134.986067 474.715622 135.532614 474.715622 136.079160 474.715622 136.625707 474.715622 137.172254 474.715622 137.718800 474.715622 138.265347 474.715622 138.811893 474.715622 139.358440 474.715622 139.904986 474.715622 140.451533 474.715622 140.998079 474.715519 141.544626 474.715137 142.091173 474.714336 142.637719 474.712974 143.184266 474.710911 143.730812 474.708005 144.277359 474.704116 144.823905 474.699103 145.370452 474.692825 145.916998 474.685140 146.463545 474.675909 147.010091 474.664989 147.556638 474.652241 148.103185 474.637523 148.649731 474.620695 149.196278 474.601614 149.742824 474.580142 150.289371 474.556136 150.835917 474.529455 151.382464 474.499960 151.929010 474.467508 152.475557 474.431959 153.022104 474.393172 153.568650 474.351007 154.115197 474.305321 154.661743 474.255975 155.208290 474.202827 155.754836 474.145736 156.301383 474.084562 156.847929 474.019164 157.394476 473.949400 157.941023 473.875130 158.487569 473.796213 159.034116 473.712508 159.580662 473.623874 160.127209 473.530169 160.673755 473.431254 161.220302 473.326988 161.766848 473.217228 162.313395 473.101836 162.859941 472.980668 163.406488 472.853585 163.953035 472.720446 164.499581 472.581110 165.046128 472.435435 165.592674 472.283282 166.139221 472.124508 166.685767 471.958974 167.232314 471.786537 167.778860 471.607058 168.325407 471.420395 168.871954 471.226408 169.418500 471.024955 169.965047 470.815896 170.511593 470.599090 171.058140 470.374395 171.604686 470.141671 172.151233 469.900777 172.697779 469.651572 173.244326 469.393915 173.790873 469.127665 174.337419 468.852682 174.883966 468.568824 175.430512 468.275950 175.977059 467.973920 176.523605 467.662592 177.070152 467.341826 177.616698 467.011481 178.163245 466.671416 178.709791 466.321489 179.256338 465.961561 179.802885 465.591489 180.349431 465.211134 180.895978 464.820354 181.442524 464.419009 181.989071 464.006957 182.535617 463.584057 183.082164 463.150169 183.628710 455.454049 184.175257 448.675609 184.721804 446.803809 185.268350 445.468693 185.814897 444.557969 186.361443 443.959349 186.907990 443.560542 187.454536 443.249258 188.001083 442.913207 188.547629 442.440100 189.094176 441.717646 189.640723 440.633556 190.187269 439.075540 190.733816 435.813289 191.280362 430.686765 191.826909 425.945012 192.373455 421.456906 192.920002 417.322476 193.466548 414.324822 194.013095 412.037888 194.559641 410.082216 195.106188 408.366900 195.652735 406.801032 196.199281 405.293706 196.745828 403.754014 197.292374 402.108319 197.838921 400.395165 198.385467 398.665949 198.932014 396.968240 199.478560 395.349610 200.025107 393.857628 200.571654 392.539865 201.118200 391.443890 201.664747 390.557847 202.211293 389.741254 202.757840 388.980716 203.304386 388.271363 203.850933 387.608322 204.397479 386.986721 204.944026 386.401689 205.490573 385.848355 206.037119 385.321845 206.583666 384.817288 207.130212 384.329813 207.676759 383.854548 208.223305 383.386620 208.769852 382.921158 209.316398 382.453290 209.862945 381.978144 210.409491 381.490848 210.956038 380.986531 211.502585 380.460321 212.049131 379.907346 212.595678 379.322733 213.142224 378.702943 213.688771 378.051171 214.235317 377.372694 214.781864 376.672793 215.328410 375.956745 215.874957 375.229829 216.421504 374.497324 216.968050 373.764507 217.514597 373.036658 218.061143 372.319054 218.607690 371.616975 219.154236 370.935699 219.700783 370.280505 220.247329 369.656670 220.793876 369.069474 221.340423 368.524195 221.886969 368.026111 222.433516 367.580501 222.980062 367.189922 223.526609 366.821927 224.073155 366.465323 224.619702 366.119720 225.166248 365.784728 225.712795 365.459958 226.259341 365.145019 226.805888 364.839521 227.352435 364.543074 227.898981 364.255288 228.445528 363.975773 228.992074 363.704139 229.538621 363.439996 230.085167 363.182954 230.631714 362.932622 231.178260 362.688611 231.724807 362.450531 232.271354 362.217991 232.817900 361.990602 233.364447 361.767973 233.910993 361.549714 234.457540 361.335436 235.004086 361.124748 235.550633 360.917260 236.097179 360.712582 236.643726 360.510325 237.190273 360.310097 237.736819 360.111509 238.283366 359.914172 238.829912 359.717694 239.376459 359.521685 239.923005 359.325757 240.469552 359.129518 241.016098 358.932579 241.562645 358.734549 242.109191 358.535039 242.655738 358.333658 243.202285 358.130017 243.748831 357.923724 244.295378 357.714391 244.841924 357.501628 245.388471 357.285043 245.935017 357.064247 246.481564 356.838851 247.028110 356.608463 247.574657 356.372694 248.121204 356.131154 248.667750 355.883453 249.214297 355.629201 249.760843 355.368020 250.307390 355.106376 250.853936 354.849535 251.400483 354.597024 251.947029 354.348367 252.493576 354.103090 253.040123 353.860719 253.586669 353.620778 254.133216 353.382792 254.679762 353.146288 255.226309 352.910789 255.772855 352.675822 256.319402 352.440911 256.865948 352.205582 257.412495 351.969360 257.959041 351.731770 258.505588 351.492338 259.052135 351.250588 259.598681 351.006047 260.145228 350.758238 260.691774 350.506688 261.238321 350.250922 261.784867 349.990465 262.331414 349.724841 262.877960 349.453577 263.424507 349.176198 263.971054 348.892228 264.517600 348.601194 265.064147 348.302619 265.610693 347.996030 266.157240 347.680952 266.703786 347.356910 267.250333 347.023430 267.796879 346.680035 268.343426 346.326253 268.889973 345.961607 269.436519 345.585623 269.983066 345.197827 270.529612 344.797743 271.076159 344.384898 271.622705 343.958815 272.169252 343.519021 272.715798 343.051959 273.262345 342.535200 273.808891 341.970718 274.355438 341.360980 274.901985 340.708455 275.448531 340.015611 275.995078 339.284917 276.541624 338.518840 277.088171 337.719849 277.634717 336.890413 278.181264 336.032999 278.727810 335.150076 279.274357 334.244113 279.820904 333.317576 280.367450 332.372936 280.913997 331.412720 281.460543 330.441626 282.007090 329.448046 282.553636 328.413066 283.100183 327.317772 283.646729 326.143249 284.193276 324.870583 284.739823 323.480858 285.286369 321.955162 285.832916 320.274578 286.379462 318.705553 286.926009 317.700352 287.472555 315.901911 288.019102 311.803041 288.565648 295.183481 289.112195 293.876822 289.658741 292.754832 290.205288 291.802055 290.751835 291.003030 291.298381 290.342300 291.844928 289.804406 292.391474 289.373889 292.938021 289.035292 293.484567 288.773155 294.031114 288.572020 294.577660 288.416429 295.124207 288.290922 295.670754 288.180043 296.217300 288.068331 296.763847 287.940329 297.310393 287.780578 297.856940 287.573619 298.403486 287.303994 298.950033 286.956245 299.496579 286.514913 300.043126 285.964540 300.589673 285.289666 301.136219 284.474834 301.682766 283.537423 302.229312 282.781470 302.775859 281.338367 303.322405 277.982221 303.868952 259.697388 304.415498 249.102589 304.962045 247.650519 305.508591 246.779416 306.055138 245.998332 306.601685 245.301614 307.148231 244.683609 307.694778 244.138663 308.241324 243.661122 308.787871 243.245332 309.334417 242.885641 309.880964 242.576394 310.427510 242.311937 310.974057 242.086617 311.520604 241.894781 312.067150 241.730774 312.613697 241.588943 313.160243 241.463634 313.706790 241.349194 314.253336 241.239969 314.799883 241.130305 315.346429 241.014549 315.892976 240.887046 316.439523 240.742144 316.986069 240.574188 317.532616 240.377525 318.079162 240.146501 318.625709 239.875463 319.172255 239.558757 319.718802 239.190729 320.265348 238.765726 320.811895 238.278093 321.358441 237.722178 321.904988 237.092326 322.451535 236.382884 322.998081 235.484180 323.544628 233.884909 324.091174 231.484969 324.637721 228.246746 325.184267 224.132628 325.730814 215.225421 326.277360 204.287191 326.823907 187.717848 327.370454 184.850304 327.917000 183.527501 328.463547 183.031540 329.010093 182.644525 329.556640 181.648559 330.103186 179.325746 330.649733 164.054631 331.196279 161.593380 331.742826 159.954798 332.289373 158.961139 332.835919 158.434658 333.382466 158.197608 333.929012 158.072245 334.475559 157.880823 335.022105 157.445597 335.568652 156.588819 336.115198 155.132746 336.661745 152.899631 337.208291 138.673021 337.754838 134.730356 338.301385 132.214783 338.847931 130.623272 339.394478 129.452796 339.941024 128.235654 340.487571 127.096473 341.034117 126.127311 341.580664 125.300096 342.127210 124.586756 342.673757 123.959216 343.220304 123.389404 343.766850 122.849247 344.313397 122.310672 344.859943 121.745607 345.406490 121.125978 345.953036 120.423712 346.499583 119.610737 347.046129 118.658979 347.592676 117.540366 348.139223 116.188248 348.685769 114.189677 349.232316 111.610922 349.778862 108.669137 350.325409 105.581475 350.871955 102.077897 351.418502 97.769313 351.965048 94.054173 352.511595 92.110694 353.058141 90.903761 353.604688 90.064575 354.151235 89.506272 354.697781 89.141986 355.244328 88.884852 355.790874 88.648004 356.337421 88.344579 356.883967 87.887709 357.430514 87.190531 357.977060 86.166179 358.523607 84.727788 359.070154 82.788492 359.616700 68.435502 360.163247 66.292432 360.709793 64.617274 361.256340 63.344009 361.802886 62.406619 362.349433 61.739086 362.895979 61.275392 363.442526 60.949519 363.989073 60.695447 364.535619 60.447161 365.082166 60.138640 365.628712 59.703867 366.175259 59.076823 366.721805 58.191491 367.268352 56.981460 367.814898 55.205769 368.361445 52.837521 368.907991 50.079785 369.454538 47.135629 370.001085 44.162043 370.547631 40.762633 371.094178 37.159155 371.640724 33.817195 372.187271 30.929541 372.733817 28.162741 373.280364 25.577994 373.826910 23.254171 374.373457 21.270143 374.920004 19.509505 375.466550 17.805906 376.013097 16.181421 376.559643 14.658173 377.106190 13.258287 377.652736 12.003886 378.199283 10.917094 378.745829 10.020035 379.292376 9.334832 379.838923 9.308149 380.385469 9.308149 380.932016 9.308149 381.478562 9.308149 382.025109 9.308149 382.571655 9.308149 383.118202 9.308149 383.664748 9.308149 384.211295 9.308149 384.757841 9.308149 385.304388 9.308149 385.850935 9.308149 386.397481 9.308149 386.944028 9.308149 387.490574 9.308149 388.037121 9.308149 388.583667 9.308149 389.130214 9.308149 389.676760 9.308149 390.223307 9.308149 390.769854 9.308149 391.316400 9.308149 391.862947 9.308149 392.409493 9.308149 392.956040 9.308149 393.502586 9.308149 394.049133 9.308149 394.595679 9.308149 395.142226 9.308149 395.688773 9.308149 396.235319 9.308149 396.781866 9.308149 397.328412 9.308149 397.874959 9.308149 398.421505 9.308149 398.968052 9.308149 399.514598 9.308149 400.061145 9.308149 400.607691 9.308149 401.154238 9.308149 401.700785 9.308149 402.247331 9.308149 402.793878 9.308149 403.340424 9.308149 403.886971 9.308149 404.433517 9.308149 404.980064 9.308149 405.526610 9.308149 406.073157 9.308149 406.619704 9.308149 407.166250 9.308149 407.712797 9.308149 408.259343 9.308149 408.805890 9.308149 409.352436 9.308149 409.898983 9.308149 410.445529 9.308149 410.992076 9.308149 411.538623 9.308149 412.085169 9.308149 412.631716 9.308149 413.178262 9.308149 413.724809 9.308149 414.271355 9.308149 414.817902 9.308149 415.364448 9.308149 415.910995 9.308149 416.457541 9.308149 417.004088 9.308149 417.550635 9.308149 418.097181 9.308149 418.643728 9.308149 419.190274 9.308149 419.736821 9.308149 420.283367 9.308149 420.829914 9.308149 421.376460 9.308149 421.923007 9.308149 422.469554 9.308149 423.016100 9.308149 423.562647 9.308149 424.109193 9.308149 424.655740 9.308149 425.202286 9.308149 425.748833 9.308149 426.295379 9.308149 426.841926 9.308149 427.388473 9.308149 427.935019 9.308149 428.481566 9.308149 429.028112 9.308149 429.574659 9.308149 430.121205 9.308149 430.667752 9.308149 431.214298 9.308149 431.760845 9.308149 432.307391 9.308149 432.853938 9.308149 433.400485 9.308149 433.947031 9.308149 434.493578 9.308149 435.040124 9.308149 435.586671 9.308149 436.133217 9.308149 436.679764 9.308149 437.226310 9.308149 437.772857 9.308149 438.319404 9.308149 438.865950 9.308149 439.412497 9.308149 439.959043 9.308149 440.505590 9.308149 441.052136 9.308149 441.598683 9.308149 442.145229 9.308149 442.691776 9.308149 443.238323 9.308149 443.784869 9.308149 444.331416 9.308149 444.877962 9.308149 445.424509 9.308149 445.971055 9.308149 446.517602 9.308149 447.064148 9.308149 447.610695 9.308149 448.157241 9.308149 448.703788 9.308149 449.250335 9.308149 449.796881 9.308149 450.343428 9.308149 450.889974 9.308149 451.436521 9.308149 451.983067 9.308149 452.529614 9.308149 453.076160 9.308149 453.622707 9.308149 454.169254 9.308149 454.715800 9.308149 455.262347 9.308149 455.808893 9.308149 456.355440 9.308149 456.901986 9.308149 457.448533 9.308149 457.995079 9.308149 458.541626 9.308149 459.088173 9.308149 459.634719 9.308149 460.181266 9.308149 460.727812 9.308149 461.274359 9.308149 461.820905 9.308149 462.367452 9.308149 462.913998 9.308149 463.460545 9.308149 464.007091 9.308149 464.553638 9.308149 465.100185 9.308149 465.646731 9.308149 466.193278 9.308149 466.739824 9.308149 467.286371 9.308149 467.832917 9.308149 468.379464 9.308149 468.926010 9.308149 469.472557 9.308149 470.019104 9.308149 470.565650 9.308149 471.112197 9.308149 471.658743 9.308149 472.205290 9.308149 472.751836 9.308149 473.298383 9.308149 473.844929 9.308149 474.391476 9.308149 474.938023 9.308149 475.484569 9.308149 476.031116 9.308149 476.577662 9.308149 477.124209 9.308149 477.670755 9.308149 478.217302 9.308149 478.763848 9.308149 479.310395 9.308149 479.856941 9.308149 480.403488 9.308149 480.950035 9.308149 481.496581 9.308149 482.043128 9.308149 482.589674 9.308149 483.136221 9.308149 483.682767 9.308149 484.229314 9.308149 484.775860 9.308149 485.322407 9.308149 485.868954 9.308149 486.415500 9.308149 486.962047 9.308149 487.508593 9.308149 488.055140 9.308149 488.601686 9.308149 489.148233 9.308149 489.694779 9.308149 490.241326 9.308149 490.787873 9.308149 491.334419 9.308149 491.880966 9.308149 492.427512 9.308149 492.974059 9.308149 493.520605 9.308149 494.067152 9.308149 494.613698 9.308149 495.160245 9.308149 495.706791 9.308149 496.253338 9.308149 496.799885 9.308149 497.346431 9.308149 497.892978 9.308149 498.439524 9.308149 498.986071 9.308149 499.532617 9.308149 500.079164 9.308149 500.625710 9.308149 501.172257 9.308149 501.718804 9.308149 502.265350 9.308149 502.811897 9.308149 503.358443 9.308149 503.904990 9.308149 504.451536 9.308149 504.998083 9.308149 505.544629 9.308149 506.091176 9.308149 506.637723 9.308149 507.184269 9.308149 507.730816 9.308149 508.277362 9.308149 508.823909 9.308149 509.370455 9.308149 509.917002 9.308149 510.463548 9.308149 511.010095 9.308149 511.556641 9.308149 512.103188 9.308149 512.649735 9.308149 513.196281 9.308149 513.742828 9.308149 514.289374 9.308149 514.835921 9.308149 515.382467 9.308149 515.929014 9.308149 516.475560 9.308149 517.022107 9.308149 517.568654 9.308149 518.115200 9.308149 518.661747 9.308149 519.208293 9.308149 519.754840 9.308149 520.301386 9.308149 520.847933 9.308149 521.394479 9.308149 521.941026 9.308149 522.487573 9.308149 523.034119 9.308149 523.580666 9.308149 524.127212 9.308149 524.673759 9.308149 525.220305 9.308149 525.766852 9.308149 526.313398 9.308149 526.859945 9.308149 527.406491 9.308149 527.953038 9.308149 528.499585 9.308149 529.046131 9.308149 529.592678 9.308149 530.139224 9.308149 530.685771 9.308149 531.232317 9.308149 531.778864 9.308149 532.325410 9.308149 532.871957 9.308149 533.418504 9.308149 533.965050 9.308149 534.511597 9.308149 535.058143 9.308149 535.604690 9.308149 536.151236 9.308149 536.697783 9.308149 537.244329 9.308149 537.790876 9.308149 538.337423 9.308149 538.883969 9.308149 539.430516 9.308149 539.977062 9.308149 540.523609 9.308149 541.070155 9.308149 541.616702 9.308149 542.163248 9.308149 542.709795 9.308149 543.256341 9.308149 543.802888 9.308149 544.349435 9.308149 544.895981 9.308149 545.442528 9.308149 545.989074 9.308149 546.535621 9.308149 547.082167 9.308149 547.628714 9.308149 548.175260 9.308149 548.721807 9.308149 549.268354 9.308149 549.814900 9.308149 550.361447 9.308149 550.907993 9.308149 551.454540 9.308149 552.001086 9.308149 552.547633 9.308149 553.094179 9.308149 553.640726 9.308149 554.187273 9.308149 554.733819 9.308149 555.280366 9.308149 555.826912 9.308149 556.373459 9.308149 556.920005 9.308149"/></g><g class="series serie-3 color-3"><path class="line reactive nofill" d="M10.920000 474.715622 L11.466547 474.712409 12.013093 474.702725 12.559640 474.686508 13.106186 474.663691 13.652733 474.634210 14.199279 474.598001 14.745826 474.554999 15.292373 474.505140 15.838919 474.448357 16.385466 474.384588 16.932012 474.313768 17.478559 474.235831 18.025105 474.150713 18.571652 474.058350 19.118198 473.958677 19.664745 473.851629 20.211291 473.737142 20.757838 473.615150 21.304385 473.485590 21.850931 473.348396 22.397478 473.203505 22.944024 473.050851 23.490571 472.890370 24.037117 472.721997 24.583664 472.545667 25.130210 472.361316 25.676757 472.168880 26.223304 471.968293 26.769850 471.759491 27.316397 471.542409 27.862943 471.316983 28.409490 471.083149 28.956036 470.840840 29.502583 470.589993 30.049129 470.330544 30.595676 470.062427 31.142223 469.785577 31.688769 469.499931 32.235316 469.205424 32.781862 468.901990 33.328409 468.589566 33.874955 468.268087 34.421502 467.937487 34.968048 467.597703 35.514595 467.248670 36.061141 466.890323 36.607688 466.522597 37.154235 466.145429 37.700781 465.758752 38.247328 465.362503 38.793874 464.956617 39.340421 464.541029 39.886967 464.115675 40.433514 463.680490 40.980060 463.235410 41.526607 462.780365 42.073154 462.062304 42.619700 460.904117 43.166247 459.413601 43.712793 457.698557 44.259340 455.866783 44.805886 454.026078 45.352433 452.284242 45.898979 450.748661 46.445526 449.405027 46.992073 448.160914 47.538619 446.973425 48.085166 445.799668 48.631712 444.596748 49.178259 443.321770 49.724805 441.931840 50.271352 440.384064 50.817898 438.620098 51.364445 435.946974 51.910991 432.617949 52.457538 429.477332 53.004085 427.369429 53.550631 426.779493 54.097178 426.418571 54.643724 426.068592 55.190271 425.729345 55.736817 425.400624 56.283364 425.082220 56.829910 424.773924 57.376457 424.475530 57.923004 424.186827 58.469550 423.907608 59.016097 423.637666 59.562643 423.376791 60.109190 423.124775 60.655736 422.881410 61.202283 422.646489 61.748829 422.419801 62.295376 422.201141 62.841923 421.990298 63.388469 421.787066 63.935016 421.591235 64.481562 421.402598 65.028109 421.220946 65.574655 421.046071 66.121202 420.877765 66.667748 420.715819 67.214295 420.560026 67.760841 420.410176 68.307388 420.266063 68.853935 420.127477 69.400481 419.994211 69.947028 419.866056 70.493574 419.742804 71.040121 419.624246 71.586667 419.510175 72.133214 419.400382 72.679760 419.294660 73.226307 419.192798 73.772854 419.094591 74.319400 418.999829 74.865947 418.908304 75.412493 418.819807 75.959040 418.734131 76.505586 418.651068 77.052133 418.570409 77.598679 418.491946 78.145226 418.415470 78.691773 418.340774 79.238319 418.267649 79.784866 418.195887 80.331412 418.125279 80.877959 418.055618 81.424505 417.986696 81.971052 417.918303 82.517598 417.850233 83.064145 417.782275 83.610691 417.714224 84.157238 417.645869 84.703785 417.577003 85.250331 417.507418 85.796878 417.436905 86.343424 417.365257 86.889971 417.292264 87.436517 417.217719 87.983064 417.141413 88.529610 417.063139 89.076157 416.982688 89.622704 416.899851 90.169250 416.814421 90.715797 416.726190 91.262343 416.634948 91.808890 416.540488 92.355436 416.442602 92.901983 416.341082 93.448529 416.235718 93.995076 416.126303 94.541623 416.012629 95.088169 415.894488 95.634716 415.771670 96.181262 415.643969 96.727809 415.511175 97.274355 415.373081 97.820902 415.229478 98.367448 415.080158 98.913995 414.927612 99.460541 414.777442 100.007088 414.629719 100.553635 414.484322 101.100181 414.341130 101.646728 414.200022 102.193274 414.060876 102.739821 413.923573 103.286367 413.787991 103.832914 413.654009 104.379460 413.521507 104.926007 413.390362 105.472554 413.260455 106.019100 413.131664 106.565647 413.003868 107.112193 412.876947 107.658740 412.750779 108.205286 412.625244 108.751833 412.500220 109.298379 412.375587 109.844926 412.251223 110.391473 412.127008 110.938019 412.002821 111.484566 411.878541 112.031112 411.754046 112.577659 411.629216 113.124205 411.503930 113.670752 411.378067 114.217298 411.251505 114.763845 411.124125 115.310391 410.995805 115.856938 410.866424 116.403485 410.735861 116.950031 410.603995 117.496578 410.470705 118.043124 410.335870 118.589671 410.199370 119.136217 410.061083 119.682764 409.920889 120.229310 409.778666 120.775857 409.634293 121.322404 409.487650 121.868950 409.338615 122.415497 409.187068 122.962043 409.032888 123.508590 408.875953 124.055136 408.716143 124.601683 408.553337 125.148229 408.387413 125.694776 408.218252 126.241323 408.045731 126.787869 407.869730 127.334416 407.690128 127.880962 407.506804 128.427509 407.319637 128.974055 407.128506 129.520602 406.933291 130.067148 406.733869 130.613695 406.530121 131.160241 406.321925 131.706788 406.109160 132.253335 405.891706 132.799881 405.669441 133.346428 405.442244 133.892974 405.209995 134.439521 404.972573 134.986067 404.729856 135.532614 404.481723 136.079160 404.228054 136.625707 403.968728 137.172254 403.703624 137.718800 403.432620 138.265347 403.155596 138.811893 402.857070 139.358440 402.512502 139.904986 402.124713 140.451533 401.696988 140.998079 401.232615 141.544626 400.734879 142.091173 400.207066 142.637719 399.652463 143.184266 399.074356 143.730812 398.476031 144.277359 397.860774 144.823905 397.231871 145.370452 396.592608 145.916998 395.946273 146.463545 395.296150 147.010091 394.645526 147.556638 393.997687 148.103185 393.355920 148.649731 392.723510 149.196278 392.103744 149.742824 391.499908 150.289371 390.915055 150.835917 390.348414 151.382464 389.796505 151.929010 389.255845 152.475557 388.722947 153.022104 388.194328 153.568650 387.666502 154.115197 387.135984 154.661743 386.599290 155.208290 386.052934 155.754836 385.493431 156.301383 384.917297 156.847929 384.321047 157.394476 383.701195 157.941023 383.054257 158.487569 382.376748 159.034116 381.665183 159.580662 380.916077 160.127209 380.125945 160.673755 379.291302 161.220302 378.356765 161.766848 377.275279 162.313395 376.074233 162.859941 374.781180 163.406488 373.423676 163.953035 372.029273 164.499581 370.625524 165.046128 369.239984 165.592674 367.900206 166.139221 366.586268 166.685767 365.106961 167.232314 363.505046 167.778860 361.857949 168.325407 360.243094 168.871954 358.737907 169.418500 357.419813 169.965047 356.366239 170.511593 355.654610 171.058140 355.354587 171.604686 355.211654 172.151233 355.070827 172.697779 354.932089 173.244326 354.795422 173.790873 354.660809 174.337419 354.528231 174.883966 354.397670 175.430512 354.269110 175.977059 354.142532 176.523605 354.017918 177.070152 353.895250 177.616698 353.774512 178.163245 353.655684 178.709791 353.538749 179.256338 353.423690 179.802885 353.310488 180.349431 353.199126 180.895978 353.089585 181.442524 352.981849 181.989071 352.875899 182.535617 352.771718 183.082164 352.669287 183.628710 352.568589 184.175257 352.469606 184.721804 352.372321 185.268350 352.276715 185.814897 352.182770 186.361443 352.090470 186.907990 351.999795 187.454536 351.910729 188.001083 351.823254 188.547629 351.737350 189.094176 351.653002 189.640723 351.570191 190.187269 351.488899 190.733816 351.409109 191.280362 351.330802 191.826909 351.253961 192.373455 351.178568 192.920002 351.104605 193.466548 351.032055 194.013095 350.960899 194.559641 350.891120 195.106188 350.822700 195.652735 350.755622 196.199281 350.689867 196.745828 350.625417 197.292374 350.562255 197.838921 350.500364 198.385467 350.439724 198.932014 350.380319 199.478560 350.322130 200.025107 350.265140 200.571654 350.209332 201.118200 350.154686 201.664747 350.101186 202.211293 350.048813 202.757840 349.997551 203.304386 349.947380 203.850933 349.898283 204.397479 349.850243 204.944026 349.803241 205.490573 349.757260 206.037119 349.712282 206.583666 349.668289 207.130212 349.625264 207.676759 349.583188 208.223305 349.542044 208.769852 349.501814 209.316398 349.462480 209.862945 349.424024 210.409491 349.386429 210.956038 349.349677 211.502585 349.313749 212.049131 349.278629 212.595678 349.244298 213.142224 349.210738 213.688771 349.177933 214.235317 349.145863 214.781864 349.114511 215.328410 349.083860 215.874957 349.053891 216.421504 349.024587 216.968050 348.995930 217.514597 348.967902 218.061143 348.940485 218.607690 348.913661 219.154236 348.887414 219.700783 348.861724 220.247329 348.836575 220.793876 348.811947 221.340423 348.787825 221.886969 348.764188 222.433516 348.741021 222.980062 348.718305 223.526609 348.696022 224.073155 348.674155 224.619702 348.652685 225.166248 348.631595 225.712795 348.610867 226.259341 348.590484 226.805888 348.570427 227.352435 348.550678 227.898981 348.531221 228.445528 348.512036 228.992074 348.493107 229.538621 348.474415 230.085167 348.455943 230.631714 348.437673 231.178260 348.419587 231.724807 348.401667 232.271354 348.383895 232.817900 348.366254 233.364447 348.348726 233.910993 348.331293 234.457540 348.313937 235.004086 348.296641 235.550633 348.279386 236.097179 348.262155 236.643726 348.244930 237.190273 348.227693 237.736819 348.210427 238.283366 348.193113 238.829912 348.175734 239.376459 348.158272 239.923005 348.140709 240.469552 348.123028 241.016098 348.105210 241.562645 348.087238 242.109191 348.069094 242.655738 348.050760 243.202285 348.032219 243.748831 348.013452 244.295378 347.994442 244.841924 347.975170 245.388471 347.955621 245.935017 347.935774 246.481564 347.915613 247.028110 347.895120 247.574657 347.874276 248.121204 347.853065 248.667750 347.831468 249.214297 347.809468 249.760843 347.787047 250.307390 347.764186 250.853936 347.740869 251.400483 347.717077 251.947029 347.692792 252.493576 347.667997 253.040123 347.642674 253.586669 347.616806 254.133216 347.590373 254.679762 347.563359 255.226309 347.535746 255.772855 347.507516 256.319402 347.478651 256.865948 347.449133 257.412495 347.418944 257.959041 347.388068 258.505588 347.356485 259.052135 347.324178 259.598681 347.291130 260.145228 347.257322 260.691774 347.222737 261.238321 347.187357 261.784867 347.151164 262.331414 347.114140 262.877960 347.076267 263.424507 347.037529 263.971054 346.997906 264.517600 346.957381 265.064147 346.915937 265.610693 346.873555 266.157240 346.830217 266.703786 346.785907 267.250333 346.740605 267.796879 346.694295 268.343426 346.646958 268.889973 346.598577 269.436519 346.549134 269.983066 346.498611 270.529612 346.446990 271.076159 346.394253 271.622705 346.340383 272.169252 346.285362 272.715798 346.229172 273.262345 346.171796 273.808891 346.113214 274.355438 346.053411 274.901985 345.992367 275.448531 345.930065 275.995078 345.866487 276.541624 345.801616 277.088171 345.735433 277.634717 345.667921 278.181264 345.599063 278.727810 345.528839 279.274357 345.457233 279.820904 345.384226 280.367450 345.309801 280.913997 345.233940 281.460543 345.156626 282.007090 345.077839 282.553636 344.997564 283.100183 344.915781 283.646729 344.832473 284.193276 344.747622 284.739823 344.661211 285.286369 344.573221 285.832916 344.483635 286.379462 344.392435 286.926009 344.299603 287.472555 344.205121 288.019102 344.108972 288.565648 344.011138 289.112195 343.911600 289.658741 343.810342 290.205288 343.707345 290.751835 343.602592 291.298381 343.496065 291.844928 343.387326 292.391474 343.274114 292.938021 343.155828 293.484567 343.032148 294.031114 342.902758 294.577660 342.767339 295.124207 342.625574 295.670754 342.477145 296.217300 342.321734 296.763847 342.159023 297.310393 341.988694 297.856940 341.810430 298.403486 341.623914 298.950033 341.428826 299.496579 341.224850 300.043126 341.011667 300.589673 340.788960 301.136219 340.556411 301.682766 340.313703 302.229312 340.060517 302.775859 339.796535 303.322405 339.521441 303.868952 339.234916 304.415498 338.936642 304.962045 338.626301 305.508591 338.303576 306.055138 337.968150 306.601685 337.619703 307.148231 337.257919 307.694778 336.882480 308.241324 336.493067 308.787871 336.089364 309.334417 335.671052 309.880964 335.237813 310.427510 334.789331 310.974057 334.325286 311.520604 333.845361 312.067150 333.349239 312.613697 332.836601 313.160243 332.307130 313.706790 331.760509 314.253336 331.166761 314.799883 330.385081 315.346429 329.400785 315.892976 328.217946 316.439523 326.840638 316.986069 325.272934 317.532616 323.518910 318.079162 321.582639 318.625709 319.463658 319.172255 315.715010 319.718802 310.962179 320.265348 307.805652 320.811895 306.882053 321.358441 306.072410 321.904988 305.334303 322.451535 304.663203 322.998081 304.054580 323.544628 303.503906 324.091174 303.006651 324.637721 302.558288 325.184267 302.154285 325.730814 301.790116 326.277360 301.461249 326.823907 301.163158 327.370454 300.891312 327.917000 300.641182 328.463547 300.408241 329.010093 300.187957 329.556640 299.975803 330.103186 299.767250 330.649733 299.557768 331.196279 299.342829 331.742826 299.117903 332.289373 298.878462 332.835919 298.619976 333.382466 298.337917 333.929012 298.027755 334.475559 297.684962 335.022105 297.305008 335.568652 296.883364 336.115198 296.415502 336.661745 295.896893 337.208291 295.335428 337.754838 294.764881 338.301385 294.179831 338.847931 293.571713 339.394478 292.931966 339.941024 292.252025 340.487571 291.523327 341.034117 290.737309 341.580664 289.885408 342.127210 288.959060 342.673757 287.949703 343.220304 286.848773 343.766850 285.647707 344.313397 284.337942 344.859943 282.722276 345.406490 280.217582 345.953036 277.200683 346.499583 274.146464 347.046129 271.522166 347.592676 269.202730 348.139223 266.962178 348.685769 264.819954 349.232316 262.795502 349.778862 260.908266 350.325409 259.186172 350.871955 257.683625 351.418502 256.347365 351.965048 255.105109 352.511595 253.884575 353.058141 252.613479 353.604688 251.219539 354.151235 249.630473 354.697781 247.775282 355.244328 245.692199 355.790874 243.260989 356.337421 240.240192 356.883967 236.388349 357.430514 228.987665 357.977060 222.643071 358.523607 218.876857 359.070154 215.902266 359.616700 213.431112 360.163247 211.202722 360.709793 209.213761 361.256340 207.435375 361.802886 205.808635 362.349433 204.274614 362.895979 202.774384 363.442526 201.249017 363.989073 199.657437 364.535619 198.137264 365.082166 196.691158 365.628712 195.269520 366.175259 193.822752 366.721805 192.301255 367.268352 190.655428 367.814898 188.835675 368.361445 186.614450 368.907991 183.756921 369.454538 180.739154 370.001085 178.067878 370.547631 176.244032 371.094178 174.973680 371.640724 173.833464 372.187271 172.808665 372.733817 171.884565 373.280364 171.046446 373.826910 170.279589 374.373457 169.569276 374.920004 168.900789 375.466550 168.259409 376.013097 167.630418 376.559643 166.999098 377.106190 166.350730 377.652736 165.670595 378.199283 164.943977 378.745829 164.158880 379.292376 163.338481 379.838923 162.496534 380.385469 161.639268 380.932016 160.772914 381.478562 159.903703 382.025109 159.037866 382.571655 158.181631 383.118202 157.341231 383.664748 156.522894 384.211295 155.732853 384.757841 154.977336 385.304388 154.262575 385.850935 153.594800 386.397481 152.980241 386.944028 152.424844 387.490574 151.918862 388.037121 151.452522 388.583667 151.022616 389.130214 150.625934 389.676760 150.259269 390.223307 149.919412 390.769854 149.603153 391.316400 149.307283 391.862947 149.028595 392.409493 148.763878 392.956040 148.509925 393.502586 148.263526 394.049133 148.021473 394.595679 147.780557 395.142226 147.537569 395.688773 147.289300 396.235319 147.032541 396.781866 146.764084 397.328412 146.480719 397.874959 146.179238 398.421505 145.856433 398.968052 145.509094 399.514598 145.134012 400.061145 144.727979 400.607691 144.287785 401.154238 143.810223 401.700785 143.292083 402.247331 142.730156 402.793878 142.121234 403.340424 141.462107 403.886971 140.749568 404.433517 139.828070 404.980064 138.395996 405.526610 136.533094 406.073157 134.333753 406.619704 131.892361 407.166250 129.303305 407.712797 126.362102 408.259343 122.664615 408.805890 118.723099 409.352436 114.991234 409.898983 111.233422 410.445529 107.553515 410.992076 104.177962 411.538623 101.525863 412.085169 99.161862 412.631716 96.325750 413.178262 92.208155 413.724809 83.847637 414.271355 72.426356 414.817902 68.253748 415.364448 67.059087 415.910995 66.056889 416.457541 65.227599 417.004088 64.551660 417.550635 64.009513 418.097181 63.581602 418.643728 63.248369 419.190274 62.990258 419.736821 62.787711 420.283367 62.621172 420.829914 62.471082 421.376460 62.317885 421.923007 62.142024 422.469554 61.923941 423.016100 61.644079 423.562647 61.282881 424.109193 60.820790 424.655740 60.238249 425.202286 59.515700 425.748833 58.633587 426.295379 57.572352 426.841926 55.408827 427.388473 49.724984 427.935019 44.496958 428.481566 41.454272 429.028112 38.777401 429.574659 34.769962 430.121205 22.546680 430.667752 21.120809 431.214298 20.969861 431.760845 20.820205 432.307391 20.671834 432.853938 20.524743 433.400485 20.378927 433.947031 20.234380 434.493578 20.091097 435.040124 19.949071 435.586671 19.808298 436.133217 19.668772 436.679764 19.530487 437.226310 19.393438 437.772857 19.257619 438.319404 19.123025 438.865950 18.989650 439.412497 18.857489 439.959043 18.726535 440.505590 18.596784 441.052136 18.468230 441.598683 18.340868 442.145229 18.214691 442.691776 18.089695 443.238323 17.965874 443.784869 17.843222 444.331416 17.721733 444.877962 17.601403 445.424509 17.482225 445.971055 17.364194 446.517602 17.247305 447.064148 17.131552 447.610695 17.016929 448.157241 16.903431 448.703788 16.791052 449.250335 16.679788 449.796881 16.569631 450.343428 16.460577 450.889974 16.352620 451.436521 16.245755 451.983067 16.139976 452.529614 16.035277 453.076160 15.931654 453.622707 15.829099 454.169254 15.727609 454.715800 15.627177 455.262347 15.527798 455.808893 15.429466 456.355440 15.332175 456.901986 15.235921 457.448533 15.140697 457.995079 15.046499 458.541626 14.953320 459.088173 14.861155 459.634719 14.769998 460.181266 14.679844 460.727812 14.590688 461.274359 14.502523 461.820905 14.415344 462.367452 14.329147 462.913998 14.243924 463.460545 14.159671 464.007091 14.076382 464.553638 13.994051 465.100185 13.912674 465.646731 13.832243 466.193278 13.752755 466.739824 13.674203 467.286371 13.596582 467.832917 13.519886 468.379464 13.444109 468.926010 13.369247 469.472557 13.295294 470.019104 13.222243 470.565650 13.150090 471.112197 13.078829 471.658743 13.008454 472.205290 12.938960 472.751836 12.870342 473.298383 12.802593 473.844929 12.735708 474.391476 12.669683 474.938023 12.604510 475.484569 12.540185 476.031116 12.476701 476.577662 12.414055 477.124209 12.352239 477.670755 12.291249 478.217302 12.231078 478.763848 12.171722 479.310395 12.113175 479.856941 12.055431 480.403488 11.998484 480.950035 11.942330 481.496581 11.886962 482.043128 11.832376 482.589674 11.778564 483.136221 11.725523 483.682767 11.673246 484.229314 11.621728 484.775860 11.570963 485.322407 11.520946 485.868954 11.471672 486.415500 11.423134 486.962047 11.375327 487.508593 11.328245 488.055140 11.281884 488.601686 11.236237 489.148233 11.191299 489.694779 11.147065 490.241326 11.103528 490.787873 11.060684 491.334419 11.018526 491.880966 10.977050 492.427512 10.936249 492.974059 10.896118 493.520605 10.856652 494.067152 10.817845 494.613698 10.779692 495.160245 10.742186 495.706791 10.705323 496.253338 10.669097 496.799885 10.633502 497.346431 10.598532 497.892978 10.564183 498.439524 10.530449 498.986071 10.497324 499.532617 10.464802 500.079164 10.432878 500.625710 10.401547 501.172257 10.370803 501.718804 10.340640 502.265350 10.311053 502.811897 10.282036 503.358443 10.253584 503.904990 10.225691 504.451536 10.198352 504.998083 10.171561 505.544629 10.145312 506.091176 10.119601 506.637723 10.094421 507.184269 10.069767 507.730816 10.045633 508.277362 10.022015 508.823909 9.998905 509.370455 9.976299 509.917002 9.954192 510.463548 9.932577 511.010095 9.911449 511.556641 9.890803 512.103188 9.870633 512.649735 9.850933 513.196281 9.831698 513.742828 9.812923 514.289374 9.794601 514.835921 9.776728 515.382467 9.759297 515.929014 9.742304 516.475560 9.725742 517.022107 9.709607 517.568654 9.693892 518.115200 9.678592 518.661747 9.663701 519.208293 9.649215 519.754840 9.635126 520.301386 9.621431 520.847933 9.608123 521.394479 9.595196 521.941026 9.582646 522.487573 9.570467 523.034119 9.558652 523.580666 9.547197 524.127212 9.536097 524.673759 9.525344 525.220305 9.514935 525.766852 9.504863 526.313398 9.495122 526.859945 9.485708 527.406491 9.476615 527.953038 9.467837 528.499585 9.459369 529.046131 9.451205 529.592678 9.443339 530.139224 9.435766 530.685771 9.428481 531.232317 9.421477 531.778864 9.414751 532.325410 9.408294 532.871957 9.402104 533.418504 9.396172 533.965050 9.390495 534.511597 9.385067 535.058143 9.379882 535.604690 9.374934 536.151236 9.370219 536.697783 9.365730 537.244329 9.361461 537.790876 9.357408 538.337423 9.353565 538.883969 9.349927 539.430516 9.346486 539.977062 9.343240 540.523609 9.340180 541.070155 9.337303 541.616702 9.334603 542.163248 9.332073 542.709795 9.329709 543.256341 9.327505 543.802888 9.325455 544.349435 9.323554 544.895981 9.321796 545.442528 9.320176 545.989074 9.318688 546.535621 9.317327 547.082167 9.316087 547.628714 9.314962 548.175260 9.313948 548.721807 9.313038 549.268354 9.312226 549.814900 9.311509 550.361447 9.310879 550.907993 9.310331 551.454540 9.309860 552.001086 9.309460 552.547633 9.309126 553.094179 9.308852 553.640726 9.308632 554.187273 9.308462 554.733819 9.308334 555.280366 9.308245 555.826912 9.308188 556.373459 9.308158 556.920005 9.308149"/></g></g><g class="titles"><text class="title plot_title" x="400.0" y="26">Cumulative Distribution function</text><text class="title" x="463.92000269019513" y="580.0">Throughput</text><text class="title" x="106.0" y="314.01188578223196" transform="rotate(-90 106.000000 288.011886)">Percentage of data</text></g><g class="plot overlay" transform="translate(180, 46)"><g class="series serie-0 color-0"/><g class="series serie-1 color-1"/><g class="series serie-2 color-2"/><g class="series serie-3 color-3"/></g><g class="plot text-overlay" transform="translate(180, 46)"><g class="series serie-0 color-0"/><g class="series serie-1 color-1"/><g class="series serie-2 color-2"/><g class="series serie-3 color-3"/></g><g class="plot tooltip-overlay" transform="translate(180, 46)"><g class="tooltip" style="opacity: 0" transform="translate(0 0)"><rect class="tooltip-box" height="0" rx="0" ry="0" width="0"/><g class="text"/></g></g><g class="legends" transform="translate(10, 56)"><g class="legend reactive activate-serie" id="activate-serie-0"><rect class="color-0 reactive" height="12" width="12" x="0.0" y="1.0"/><text x="17.0" y="11.2">Old 40</text></g><g class="legend reactive activate-serie" id="activate-serie-1"><rect class="color-1 reactive" height="12" width="12" x="0.0" y="22.0"/><text x="17.0" y="32.2">New 40</text></g><g class="legend reactive activate-serie" id="activate-serie-2"><rect class="color-2 reactive" height="12" width="12" x="0.0" y="43.0"/><text x="17.0" y="53.2">Fit Old 40</text></g><g class="legend reactive activate-serie" id="activate-serie-3"><rect class="color-3 reactive" height="12" width="12" x="0.0" y="64.0"/><text x="17.0" y="74.2">Fit New 40</text></g></g><g class="legends" transform="translate(757, 56)"/></g></svg>