<?xml version='1.0' encoding='utf-8'?>
<svg xmlns:xlink="http://www.w3.org/1999/xlink" xmlns="http://www.w3.org/2000/svg" id="chart-700168c8-ec2b-4564-9fcb-b434a6621387" class="pygal-chart" viewBox="0 0 800 600"><!--Generated with pygal 2.3.1 (lxml) ©Kozea 2012-2016 on 2017-03-14--><!--http://pygal.org--><!--http://github.com/Kozea/pygal--><defs><style type="text/css">#chart-700168c8-ec2b-4564-9fcb-b434a6621387{-webkit-user-select:none;-webkit-font-smoothing:antialiased;font-family:Consolas,"Liberation Mono",Menlo,Courier,monospace}#chart-700168c8-ec2b-4564-9fcb-b434a6621387 .title{font-family:Consolas,"Liberation Mono",Menlo,Courier,monospace;font-size:16px}#chart-700168c8-ec2b-4564-9fcb-b434a6621387 .legends .legend text{font-family:Consolas,"Liberation Mono",Menlo,Courier,monospace;font-size:14px}#chart-700168c8-ec2b-4564-9fcb-b434a6621387 .axis text{font-family:Consolas,"Liberation Mono",Menlo,Courier,monospace;font-size:10px}#chart-700168c8-ec2b-4564-9fcb-b434a6621387 .axis text.major{font-family:Consolas,"Liberation Mono",Menlo,Courier,monospace;font-size:10px}#chart-700168c8-ec2b-4564-9fcb-b434a6621387 .text-overlay text.value{font-family:Consolas,"Liberation Mono",Menlo,Courier,monospace;font-size:16px}#chart-700168c8-ec2b-4564-9fcb-b434a6621387 .text-overlay text.label{font-family:Consolas,"Liberation Mono",Menlo,Courier,monospace;font-size:10px}#chart-700168c8-ec2b-4564-9fcb-b434a6621387 .tooltip{font-family:Consolas,"Liberation Mono",Menlo,Courier,monospace;font-size:14px}#chart-700168c8-ec2b-4564-9fcb-b434a6621387 text.no_data{font-family:Consolas,"Liberation Mono",Menlo,Courier,monospace;font-size:64px}
#chart-700168c8-ec2b-4564-9fcb-b434a6621387{background-color:rgba(249,249,249,1)}#chart-700168c8-ec2b-4564-9fcb-b434a6621387 path,#chart-700168c8-ec2b-4564-9fcb-b434a6621387 line,#chart-700168c8-ec2b-4564-9fcb-b434a6621387 rect,#chart-700168c8-ec2b-4564-9fcb-b434a6621387 circle{-webkit-transition:150ms;-moz-transition:150ms;transition:150ms}#chart-700168c8-ec2b-4564-9fcb-b434a6621387 .graph &gt; .background{fill:rgba(249,249,249,1)}#chart-700168c8-ec2b-4564-9fcb-b434a6621387 .plot &gt; .background{fill:rgba(255,255,255,1)}#chart-700168c8-ec2b-4564-9fcb-b434a6621387 .graph{fill:rgba(0,0,0,.87)}#chart-700168c8-ec2b-4564-9fcb-b434a6621387 text.no_data{fill:rgba(0,0,0,1)}#chart-700168c8-ec2b-4564-9fcb-b434a6621387 .title{fill:rgba(0,0,0,1)}#chart-700168c8-ec2b-4564-9fcb-b434a6621387 .legends .legend text{fill:rgba(0,0,0,.87)}#chart-700168c8-ec2b-4564-9fcb-b434a6621387 .legends .legend:hover text{fill:rgba(0,0,0,1)}#chart-700168c8-ec2b-4564-9fcb-b434a6621387 .axis .line{stroke:rgba(0,0,0,1)}#chart-700168c8-ec2b-4564-9fcb-b434a6621387 .axis .guide.line{stroke:rgba(0,0,0,.54)}#chart-700168c8-ec2b-4564-9fcb-b434a6621387 .axis .major.line{stroke:rgba(0,0,0,.87)}#chart-700168c8-ec2b-4564-9fcb-b434a6621387 .axis text.major{fill:rgba(0,0,0,1)}#chart-700168c8-ec2b-4564-9fcb-b434a6621387 .axis.y .guides:hover .guide.line,#chart-700168c8-ec2b-4564-9fcb-b434a6621387 .line-graph .axis.x .guides:hover .guide.line,#chart-700168c8-ec2b-4564-9fcb-b434a6621387 .stackedline-graph .axis.x .guides:hover .guide.line,#chart-700168c8-ec2b-4564-9fcb-b434a6621387 .xy-graph .axis.x .guides:hover .guide.line{stroke:rgba(0,0,0,1)}#chart-700168c8-ec2b-4564-9fcb-b434a6621387 .axis .guides:hover text{fill:rgba(0,0,0,1)}#chart-700168c8-ec2b-4564-9fcb-b434a6621387 .reactive{fill-opacity:.7;stroke-opacity:.8}#chart-700168c8-ec2b-4564-9fcb-b434a6621387 .ci{stroke:rgba(0,0,0,.87)}#chart-700168c8-ec2b-4564-9fcb-b434a6621387 .reactive.active,#chart-700168c8-ec2b-4564-9fcb-b434a6621387 .active .reactive{fill-opacity:.8;stroke-opacity:.9;stroke-width:4}#chart-700168c8-ec2b-4564-9fcb-b434a6621387 .ci .reactive.active{stroke-width:1.5}#chart-700168c8-ec2b-4564-9fcb-b434a6621387 .series text{fill:rgba(0,0,0,1)}#chart-700168c8-ec2b-4564-9fcb-b434a6621387 .tooltip rect{fill:rgba(255,255,255,1);stroke:rgba(0,0,0,1);-webkit-transition:opacity 150ms;-moz-transition:opacity 150ms;transition:opacity 150ms}#chart-700168c8-ec2b-4564-9fcb-b434a6621387 .tooltip .label{fill:rgba(0,0,0,.87)}#chart-700168c8-ec2b-4564-9fcb-b434a6621387 .tooltip .label{fill:rgba(0,0,0,.87)}#chart-700168c8-ec2b-4564-9fcb-b434a6621387 .tooltip .legend{font-size:.8em;fill:rgba(0,0,0,.54)}#chart-700168c8-ec2b-4564-9fcb-b434a6621387 .tooltip .x_label{font-size:.6em;fill:rgba(0,0,0,1)}#chart-700168c8-ec2b-4564-9fcb-b434a6621387 .tooltip .xlink{font-size:.5em;text-decoration:underline}#chart-700168c8-ec2b-4564-9fcb-b434a6621387 .tooltip .value{font-size:1.5em}#chart-700168c8-ec2b-4564-9fcb-b434a6621387 .bound{font-size:.5em}#chart-700168c8-ec2b-4564-9fcb-b434a6621387 .max-value{font-size:.75em;fill:rgba(0,0,0,.54)}#chart-700168c8-ec2b-4564-9fcb-b434a6621387 .map-element{fill:rgba(255,255,255,1);stroke:rgba(0,0,0,.54) !important}#chart-700168c8-ec2b-4564-9fcb-b434a6621387 .map-element .reactive{fill-opacity:inherit;stroke-opacity:inherit}#chart-700168c8-ec2b-4564-9fcb-b434a6621387 .color-0,#chart-700168c8-ec2b-4564-9fcb-b434a6621387 .color-0 a:visited{stroke:#F44336;fill:#F44336}#chart-700168c8-ec2b-4564-9fcb-b434a6621387 .color-1,#chart-700168c8-ec2b-4564-9fcb-b434a6621387 .color-1 a:visited{stroke:#3F51B5;fill:#3F51B5}#chart-700168c8-ec2b-4564-9fcb-b434a6621387 .color-2,#chart-700168c8-ec2b-4564-9fcb-b434a6621387 .color-2 a:visited{stroke:#009688;fill:#009688}#chart-700168c8-ec2b-4564-9fcb-b434a6621387 .color-3,#chart-700168c8-ec2b-4564-9fcb-b434a6621387 .color-3 a:visited{stroke:#FFC107;fill:#FFC107}#chart-700168c8-ec2b-4564-9fcb-b434a6621387 .text-overlay .color-0 text{fill:black}#chart-700168c8-ec2b-4564-9fcb-b434a6621387 .text-overlay .color-1 text{fill:black}#chart-700168c8-ec2b-4564-9fcb-b434a6621387 .text-overlay .color-2 text{fill:black}#chart-700168c8-ec2b-4564-9fcb-b434a6621387 .text-overlay .color-3 text{fill:black}
#chart-700168c8-ec2b-4564-9fcb-b434a6621387 text.no_data{text-anchor:middle}#chart-700168c8-ec2b-4564-9fcb-b434a6621387 .guide.line{fill:none}#chart-700168c8-ec2b-4564-9fcb-b434a6621387 .centered{text-anchor:middle}#chart-700168c8-ec2b-4564-9fcb-b434a6621387 .title{text-anchor:middle}#chart-700168c8-ec2b-4564-9fcb-b434a6621387 .legends .legend text{fill-opacity:1}#chart-700168c8-ec2b-4564-9fcb-b434a6621387 .axis.x text{text-anchor:middle}#chart-700168c8-ec2b-4564-9fcb-b434a6621387 .axis.x:not(.web) text[transform]{text-anchor:start}#chart-700168c8-ec2b-4564-9fcb-b434a6621387 .axis.x:not(.web) text[transform].backwards{text-anchor:end}#chart-700168c8-ec2b-4564-9fcb-b434a6621387 .axis.y text{text-anchor:end}#chart-700168c8-ec2b-4564-9fcb-b434a6621387 .axis.y text[transform].backwards{text-anchor:start}#chart-700168c8-ec2b-4564-9fcb-b434a6621387 .axis.y2 text{text-anchor:start}#chart-700168c8-ec2b-4564-9fcb-b434a6621387 .axis.y2 text[transform].backwards{text-anchor:end}#chart-700168c8-ec2b-4564-9fcb-b434a6621387 .axis .guide.line{stroke-dasharray:4,4}#chart-700168c8-ec2b-4564-9fcb-b434a6621387 .axis .major.guide.line{stroke-dasharray:6,6}#chart-700168c8-ec2b-4564-9fcb-b434a6621387 .horizontal .axis.y .guide.line,#chart-700168c8-ec2b-4564-9fcb-b434a6621387 .horizontal .axis.y2 .guide.line,#chart-700168c8-ec2b-4564-9fcb-b434a6621387 .vertical .axis.x .guide.line{opacity:0}#chart-700168c8-ec2b-4564-9fcb-b434a6621387 .horizontal .axis.always_show .guide.line,#chart-700168c8-ec2b-4564-9fcb-b434a6621387 .vertical .axis.always_show .guide.line{opacity:1 !important}#chart-700168c8-ec2b-4564-9fcb-b434a6621387 .axis.y .guides:hover .guide.line,#chart-700168c8-ec2b-4564-9fcb-b434a6621387 .axis.y2 .guides:hover .guide.line,#chart-700168c8-ec2b-4564-9fcb-b434a6621387 .axis.x .guides:hover .guide.line{opacity:1}#chart-700168c8-ec2b-4564-9fcb-b434a6621387 .axis .guides:hover text{opacity:1}#chart-700168c8-ec2b-4564-9fcb-b434a6621387 .nofill{fill:none}#chart-700168c8-ec2b-4564-9fcb-b434a6621387 .subtle-fill{fill-opacity:.2}#chart-700168c8-ec2b-4564-9fcb-b434a6621387 .dot{stroke-width:1px;fill-opacity:1}#chart-700168c8-ec2b-4564-9fcb-b434a6621387 .dot.active{stroke-width:5px}#chart-700168c8-ec2b-4564-9fcb-b434a6621387 .dot.negative{fill:transparent}#chart-700168c8-ec2b-4564-9fcb-b434a6621387 text,#chart-700168c8-ec2b-4564-9fcb-b434a6621387 tspan{stroke:none !important}#chart-700168c8-ec2b-4564-9fcb-b434a6621387 .series text.active{opacity:1}#chart-700168c8-ec2b-4564-9fcb-b434a6621387 .tooltip rect{fill-opacity:.95;stroke-width:.5}#chart-700168c8-ec2b-4564-9fcb-b434a6621387 .tooltip text{fill-opacity:1}#chart-700168c8-ec2b-4564-9fcb-b434a6621387 .showable{visibility:hidden}#chart-700168c8-ec2b-4564-9fcb-b434a6621387 .showable.shown{visibility:visible}#chart-700168c8-ec2b-4564-9fcb-b434a6621387 .gauge-background{fill:rgba(229,229,229,1);stroke:none}#chart-700168c8-ec2b-4564-9fcb-b434a6621387 .bg-lines{stroke:rgba(249,249,249,1);stroke-width:2px}</style><script type="text/javascript">window.pygal = window.pygal || {};window.pygal.config = window.pygal.config || {};window.pygal.config['700168c8-ec2b-4564-9fcb-b434a6621387'] = {"margin_top": null, "logarithmic": false, "show_minor_y_labels": true, "y_labels": null, "show_y_guides": true, "interpolate": null, "print_values_position": "center", "y_label_rotation": 0, "no_prefix": false, "x_labels_major_count": null, "title": "Cumulative Distribution function", "spacing": 10, "show_dots": false, "css": ["file://style.css", "file://graph.css"], "secondary_range": null, "print_values": false, "missing_value_fill_truncation": "x", "legend_at_bottom_columns": null, "margin_left": null, "include_x_axis": false, "interpolation_parameters": {}, "show_only_major_dots": false, "print_labels": false, "zero": 0, "stroke_style": null, "inverse_y_axis": false, "strict": false, "dynamic_print_values": false, "pretty_print": false, "x_labels_major_every": null, "x_labels_major": null, "margin": 20, "show_legend": true, "rounded_bars": null, "margin_bottom": null, "force_uri_protocol": "https", "max_scale": 16, "height": 600, "show_x_labels": true, "half_pie": false, "box_mode": "extremes", "legends": ["Old 40", "New 40", "Fit Old 40", "Fit New 40"], "show_x_guides": false, "style": {"label_font_size": 10, "value_label_font_size": 10, "colors": ["#F44336", "#3F51B5", "#009688", "#FFC107", "#FF5722", "#9C27B0", "#03A9F4", "#8BC34A", "#FF9800", "#E91E63", "#2196F3", "#4CAF50", "#FFEB3B", "#673AB7", "#00BCD4", "#CDDC39", "#9E9E9E", "#607D8B"], "opacity_hover": ".8", "stroke_opacity": ".8", "plot_background": "rgba(255, 255, 255, 1)", "foreground_subtle": "rgba(0, 0, 0, .54)", "font_family": "Consolas, \"Liberation Mono\", Menlo, Courier, monospace", "major_guide_stroke_dasharray": "6,6", "value_font_family": "Consolas, \"Liberation Mono\", Menlo, Courier, monospace", "guide_stroke_dasharray": "4,4", "tooltip_font_family": "Consolas, \"Liberation Mono\", Menlo, Courier, monospace", "foreground_strong": "rgba(0, 0, 0, 1)", "background": "rgba(249, 249, 249, 1)", "transition": "150ms", "opacity": ".7", "value_colors": [], "no_data_font_size": 64, "stroke_opacity_hover": ".9", "foreground": "rgba(0, 0, 0, .87)", "legend_font_size": 14, "value_label_font_family": "Consolas, \"Liberation Mono\", Menlo, Courier, monospace", "value_background": "rgba(229, 229, 229, 1)", "major_label_font_size": 10, "legend_font_family": "Consolas, \"Liberation Mono\", Menlo, Courier, monospace", "label_font_family": "Consolas, \"Liberation Mono\", Menlo, Courier, monospace", "title_font_family": "Consolas, \"Liberation Mono\", Menlo, Courier, monospace", "tooltip_font_size": 14, "no_data_font_family": "Consolas, \"Liberation Mono\", Menlo, Courier, monospace", "value_font_size": 16, "title_font_size": 16, "major_label_font_family": "Consolas, \"Liberation Mono\", Menlo, Courier, monospace", "ci_colors": []}, "truncate_label": null, "x_labels": null, "margin_right": null, "show_y_labels": true, "fill": false, "stroke": true, "show_minor_x_labels": true, "y_labels_major_every": null, "y_labels_major": null, "y_labels_major_count": null, "explicit_size": false, "inner_radius": 0, "tooltip_fancy_mode": true, "order_min": null, "no_data_text": "No data", "classes": ["pygal-chart"], "defs": [], "legend_box_size": 12, "print_zeroes": true, "x_label_rotation": 15, "js": ["//kozea.github.io/pygal.js/2.0.x/pygal-tooltips.min.js"], "allow_interruptions": false, "disable_xml_declaration": false, "formatter": null, "range": null, "legend_at_bottom": false, "xrange": null, "y_title": "Percentage of data", "stack_from_top": false, "tooltip_border_radius": 0, "dots_size": 2.5, "interpolation_precision": 250, "x_title": "Throughput", "min_scale": 4, "truncate_legend": null, "width": 800}</script><script type="text/javascript" xlink:href="https://kozea.github.io/pygal.js/2.0.x/pygal-tooltips.min.js"/></defs><title>Cumulative Distribution function</title><g class="graph xy-graph vertical"><rect class="background" height="600" width="800" x="0" y="0"/><g class="plot" transform="translate(180, 46)"><rect class="background" height="484.0237715644639" width="567.8400053803903" x="0" y="0"/><g class="axis y"><g class="guides"><path class="axis major line" d="M0.000000 474.715622 h567.840005"/><text class="major" x="-5" y="478.215622111">0</text><title>0</title></g><g class="guides"><path class="guide line" d="M0.000000 428.174875 h567.840005"/><text class="" x="-5" y="431.674874845">10</text><title>10</title></g><g class="guides"><path class="guide line" d="M0.000000 381.634128 h567.840005"/><text class="" x="-5" y="385.13412758">20</text><title>20</title></g><g class="guides"><path class="guide line" d="M0.000000 335.093380 h567.840005"/><text class="" x="-5" y="338.593380314">30</text><title>30</title></g><g class="guides"><path class="guide line" d="M0.000000 288.552633 h567.840005"/><text class="" x="-5" y="292.052633048">40</text><title>40</title></g><g class="guides"><path class="major guide line" d="M0.000000 242.011886 h567.840005"/><text class="major" x="-5" y="245.511885782">50</text><title>50</title></g><g class="guides"><path class="guide line" d="M0.000000 195.471139 h567.840005"/><text class="" x="-5" y="198.971138516">60</text><title>60</title></g><g class="guides"><path class="guide line" d="M0.000000 148.930391 h567.840005"/><text class="" x="-5" y="152.430391251">70</text><title>70</title></g><g class="guides"><path class="guide line" d="M0.000000 102.389644 h567.840005"/><text class="" x="-5" y="105.889643985">80</text><title>80</title></g><g class="guides"><path class="guide line" d="M0.000000 55.848897 h567.840005"/><text class="" x="-5" y="59.348896719">90</text><title>90</title></g><g class="guides"><path class="major guide line" d="M0.000000 9.308149 h567.840005"/><text class="major" x="-5" y="12.8081494532">100</text><title>100</title></g></g><g class="axis x"><path class="line" d="M0.000000 0.000000 v484.023772"/><g class="guides"><path class="guide line" d="M17.501900 0.000000 v484.023772"/><text class="" x="17.5019000658" y="499.0237715644639" transform="rotate(15 17.501900 499.023772)">40000000</text><title>40000000</title></g><g class="guides"><path class="guide line" d="M68.093135 0.000000 v484.023772"/><text class="" x="68.0931346317" y="499.0237715644639" transform="rotate(15 68.093135 499.023772)">60000000</text><title>60000000</title></g><g class="guides"><path class="guide line" d="M118.684369 0.000000 v484.023772"/><text class="" x="118.684369198" y="499.0237715644639" transform="rotate(15 118.684369 499.023772)">80000000</text><title>80000000</title></g><g class="guides"><path class="guide line" d="M169.275604 0.000000 v484.023772"/><text class="" x="169.275603763" y="499.0237715644639" transform="rotate(15 169.275604 499.023772)">100000000</text><title>100000000</title></g><g class="guides"><path class="guide line" d="M219.866838 0.000000 v484.023772"/><text class="" x="219.866838329" y="499.0237715644639" transform="rotate(15 219.866838 499.023772)">120000000</text><title>120000000</title></g><g class="guides"><path class="guide line" d="M270.458073 0.000000 v484.023772"/><text class="" x="270.458072895" y="499.0237715644639" transform="rotate(15 270.458073 499.023772)">140000000</text><title>140000000</title></g><g class="guides"><path class="guide line" d="M321.049307 0.000000 v484.023772"/><text class="" x="321.049307461" y="499.0237715644639" transform="rotate(15 321.049307 499.023772)">160000000</text><title>160000000</title></g><g class="guides"><path class="guide line" d="M371.640542 0.000000 v484.023772"/><text class="" x="371.640542027" y="499.0237715644639" transform="rotate(15 371.640542 499.023772)">180000000</text><title>180000000</title></g><g class="guides"><path class="guide line" d="M422.231777 0.000000 v484.023772"/><text class="" x="422.231776593" y="499.0237715644639" transform="rotate(15 422.231777 499.023772)">200000000</text><title>200000000</title></g><g class="guides"><path class="guide line" d="M472.823011 0.000000 v484.023772"/><text class="" x="472.823011159" y="499.0237715644639" transform="rotate(15 472.823011 499.023772)">220000000</text><title>220000000</title></g><g class="guides"><path class="guide line" d="M523.414246 0.000000 v484.023772"/><text class="" x="523.414245725" y="499.0237715644639" transform="rotate(15 523.414246 499.023772)">240000000</text><title>240000000</title></g></g><g class="series serie-0 color-0"><path class="line reactive nofill" d="M101.868606 474.715622 L127.859997 462.782097 130.356716 450.848572 130.781504 438.915047 141.164577 426.981522 142.208726 415.047997 144.085949 403.114472 150.115662 391.180948 150.425878 379.247423 158.350874 367.313898 165.818611 355.380373 189.281797 343.446848 191.762518 331.513323 194.168817 319.579798 194.871778 307.646273 199.278988 295.712748 205.661299 283.779223 211.014606 271.845698 219.587815 259.912173 221.642434 247.978648 262.497180 236.045123 269.404054 224.111598 278.459088 212.178073 283.053153 200.244548 287.822738 188.311024 288.433975 176.377499 296.811245 164.443974 299.151620 152.510449 302.713167 140.576924 307.050093 128.643399 328.279193 116.709874 357.255241 104.776349 362.559630 92.842824 364.634490 80.909299 365.905243 68.975774 375.075734 57.042249 378.555364 45.108724 380.422409 33.175199 384.398944 21.241674 385.967761 9.308149"/></g><g class="series serie-1 color-1"><path class="line reactive nofill" d="M10.920000 474.715622 L14.277997 462.782097 27.295960 450.848572 32.054061 438.915047 49.950381 426.981522 51.780227 415.047997 54.138990 403.114472 135.612602 391.180948 146.239855 379.247423 149.200292 367.313898 156.821564 355.380373 200.145993 343.446848 213.459657 331.513323 214.889757 319.579798 215.320945 307.646273 218.768334 295.712748 228.041837 283.779223 230.739824 271.845698 231.949569 259.912173 236.112708 247.978648 236.407981 236.045123 237.335937 224.111598 238.654680 212.178073 248.092934 200.244548 251.043988 188.311024 252.448298 176.377499 276.953623 164.443974 428.832942 152.510449 434.249974 140.576924 438.521623 128.643399 440.736989 116.709874 441.760536 104.776349 448.554316 92.842824 449.705880 80.909299 453.077458 68.975774 460.146697 57.042249 467.568113 45.108724 521.773314 33.175199 548.690323 21.241674 556.920005 9.308149"/></g><g class="series serie-2 color-2"><path class="line reactive nofill" d="M10.920000 474.715622 L11.466547 474.715622 12.013093 474.715622 12.559640 474.715622 13.106186 474.715622 13.652733 474.715622 14.199279 474.715622 14.745826 474.715622 15.292373 474.715622 15.838919 474.715622 16.385466 474.715622 16.932012 474.715622 17.478559 474.715622 18.025105 474.715622 18.571652 474.715622 19.118198 474.715622 19.664745 474.715622 20.211291 474.715622 20.757838 474.715622 21.304385 474.715622 21.850931 474.715622 22.397478 474.715622 22.944024 474.715622 23.490571 474.715622 24.037117 474.715622 24.583664 474.715622 25.130210 474.715622 25.676757 474.715622 26.223304 474.715622 26.769850 474.715622 27.316397 474.715622 27.862943 474.715622 28.409490 474.715622 28.956036 474.715622 29.502583 474.715622 30.049129 474.715622 30.595676 474.715622 31.142223 474.715622 31.688769 474.715622 32.235316 474.715622 32.781862 474.715622 33.328409 474.715622 33.874955 474.715622 34.421502 474.715622 34.968048 474.715622 35.514595 474.715622 36.061141 474.715622 36.607688 474.715622 37.154235 474.715622 37.700781 474.715622 38.247328 474.715622 38.793874 474.715622 39.340421 474.715622 39.886967 474.715622 40.433514 474.715622 40.980060 474.715622 41.526607 474.715622 42.073154 474.715622 42.619700 474.715622 43.166247 474.715622 43.712793 474.715622 44.259340 474.715622 44.805886 474.715622 45.352433 474.715622 45.898979 474.715622 46.445526 474.715622 46.992073 474.715622 47.538619 474.715622 48.085166 474.715622 48.631712 474.715622 49.178259 474.715622 49.724805 474.715622 50.271352 474.715622 50.817898 474.715622 51.364445 474.715622 51.910991 474.715622 52.457538 474.715622 53.004085 474.715622 53.550631 474.715622 54.097178 474.715622 54.643724 474.715622 55.190271 474.715622 55.736817 474.715622 56.283364 474.715622 56.829910 474.715622 57.376457 474.715622 57.923004 474.715622 58.469550 474.715622 59.016097 474.715622 59.562643 474.715622 60.109190 474.715622 60.655736 474.715622 61.202283 474.715622 61.748829 474.715622 62.295376 474.715622 62.841923 474.715622 63.388469 474.715622 63.935016 474.715622 64.481562 474.715622 65.028109 474.715622 65.574655 474.715622 66.121202 474.715622 66.667748 474.715622 67.214295 474.715622 67.760841 474.715622 68.307388 474.715622 68.853935 474.715622 69.400481 474.715622 69.947028 474.715622 70.493574 474.715622 71.040121 474.715622 71.586667 474.715622 72.133214 474.715622 72.679760 474.715622 73.226307 474.715622 73.772854 474.715622 74.319400 474.715622 74.865947 474.715622 75.412493 474.715622 75.959040 474.715622 76.505586 474.715622 77.052133 474.715622 77.598679 474.715622 78.145226 474.715622 78.691773 474.715622 79.238319 474.715622 79.784866 474.715622 80.331412 474.715622 80.877959 474.715622 81.424505 474.715622 81.971052 474.715622 82.517598 474.715622 83.064145 474.715622 83.610691 474.715622 84.157238 474.715622 84.703785 474.715622 85.250331 474.715622 85.796878 474.715622 86.343424 474.715622 86.889971 474.715622 87.436517 474.715622 87.983064 474.715622 88.529610 474.715622 89.076157 474.715622 89.622704 474.715622 90.169250 474.715622 90.715797 474.715622 91.262343 474.715622 91.808890 474.715622 92.355436 474.715622 92.901983 474.715622 93.448529 474.715622 93.995076 474.715622 94.541623 474.715622 95.088169 474.715622 95.634716 474.715622 96.181262 474.715622 96.727809 474.715622 97.274355 474.715622 97.820902 474.715622 98.367448 474.715622 98.913995 474.715622 99.460541 474.715622 100.007088 474.715622 100.553635 474.715622 101.100181 474.715622 101.646728 474.715622 102.193274 474.714422 102.739821 474.706876 103.286367 474.692191 103.832914 474.670127 104.379460 474.640446 104.926007 474.602907 105.472554 474.557272 106.019100 474.503300 106.565647 474.440752 107.112193 474.369389 107.658740 474.288971 108.205286 474.199259 108.751833 474.100013 109.298379 473.990993 109.844926 473.871961 110.391473 473.742677 110.938019 473.602901 111.484566 473.452394 112.031112 473.290917 112.577659 473.118229 113.124205 472.934091 113.670752 472.738265 114.217298 472.530510 114.763845 472.310587 115.310391 472.078256 115.856938 471.833278 116.403485 471.575414 116.950031 471.304424 117.496578 471.020069 118.043124 470.722108 118.589671 470.410303 119.136217 470.084414 119.682764 469.744202 120.229310 469.389427 120.775857 469.019850 121.322404 468.635231 121.868950 468.235330 122.415497 467.819909 122.962043 467.388728 123.508590 466.941547 124.055136 466.478126 124.601683 465.998227 125.148229 465.501610 125.694776 464.988035 126.241323 464.457263 126.787869 463.909054 127.334416 463.343170 127.880962 462.758966 128.427509 461.823901 128.974055 460.106297 129.520602 457.395738 130.067148 453.481808 130.613695 442.826156 131.160241 437.821417 131.706788 436.484952 132.253335 435.405765 132.799881 434.552344 133.346428 433.893180 133.892974 433.396760 134.439521 433.031574 134.986067 432.766112 135.532614 432.568862 136.079160 432.408314 136.625707 432.252956 137.172254 432.071278 137.718800 431.831769 138.265347 431.502918 138.811893 431.053213 139.358440 430.451146 139.904986 429.665203 140.451533 428.663875 140.998079 427.415651 141.544626 423.715256 142.091173 416.213545 142.637719 411.570528 143.184266 407.648704 143.730812 404.552815 144.277359 402.513043 144.823905 401.142117 145.370452 400.188609 145.916998 399.530420 146.463545 399.045448 147.010091 398.611594 147.556638 398.106755 148.103185 397.408833 148.649731 396.395725 149.196278 394.945331 149.742824 392.935551 150.289371 384.145742 150.835917 377.691584 151.382464 375.927404 151.929010 374.479952 152.475557 373.308789 153.022104 372.373475 153.568650 371.633572 154.115197 371.048642 154.661743 370.578245 155.208290 370.181943 155.754836 369.819298 156.301383 369.449870 156.847929 369.033221 157.394476 368.528912 157.941023 367.896504 158.487569 367.099807 159.034116 366.205940 159.580662 365.262001 160.127209 364.282004 160.673755 363.279965 161.220302 362.269899 161.766848 361.265821 162.313395 360.281745 162.859941 359.331688 163.406488 358.429663 163.953035 357.589686 164.499581 356.825772 165.046128 356.151937 165.592674 355.582195 166.139221 355.114603 166.685767 354.687680 167.232314 354.292160 167.778860 353.926253 168.325407 353.588169 168.871954 353.276115 169.418500 352.988303 169.965047 352.722940 170.511593 352.478237 171.058140 352.252403 171.604686 352.043646 172.151233 351.850177 172.697779 351.670204 173.244326 351.501937 173.790873 351.343585 174.337419 351.193358 174.883966 351.049464 175.430512 350.910114 175.977059 350.773515 176.523605 350.637879 177.070152 350.501414 177.616698 350.362329 178.163245 350.218833 178.709791 350.069136 179.256338 349.911448 179.802885 349.743977 180.349431 349.564933 180.895978 349.372526 181.442524 349.164963 181.989071 348.940456 182.535617 348.697212 183.082164 348.433442 183.628710 348.147355 184.175257 347.837159 184.721804 347.501065 185.268350 347.137281 185.814897 346.744018 186.361443 346.319483 186.907990 345.861887 187.454536 345.369439 188.001083 344.840348 188.547629 344.272824 189.094176 343.665075 189.640723 342.677721 190.187269 340.433331 190.733816 337.395228 191.280362 334.130143 191.826909 331.204559 192.373455 328.922234 192.920002 326.828051 193.466548 324.330757 194.013095 320.839096 194.559641 312.504423 195.106188 306.385144 195.652735 303.915990 196.199281 302.005048 196.745828 300.527056 197.292374 299.356748 197.838921 298.368861 198.385467 297.438131 198.932014 296.439294 199.478560 295.271830 200.025107 294.117000 200.571654 293.029152 201.118200 291.995385 201.664747 291.002800 202.211293 290.038496 202.757840 289.089574 203.304386 288.143132 203.850933 287.186271 204.397479 286.206090 204.944026 285.189690 205.490573 284.124170 206.037119 282.991378 206.583666 281.779599 207.130212 280.510223 207.676759 279.206306 208.223305 277.890906 208.769852 276.587077 209.316398 275.317879 209.862945 274.106367 210.409491 272.975599 210.956038 271.948630 211.502585 271.044081 212.049131 270.252442 212.595678 269.553358 213.142224 268.926457 213.688771 268.351366 214.235317 267.807710 214.781864 267.275118 215.328410 266.733216 215.874957 266.161630 216.421504 265.539988 216.968050 264.847916 217.514597 264.065041 218.061143 263.170990 218.607690 262.145390 219.154236 260.967867 219.700783 259.553352 220.247329 256.341959 220.793876 252.099148 221.340423 248.747164 221.886969 247.793502 222.433516 247.392752 222.980062 247.009673 223.526609 246.643807 224.073155 246.294696 224.619702 245.961880 225.166248 245.644901 225.712795 245.343302 226.259341 245.056622 226.805888 244.784404 227.352435 244.526189 227.898981 244.281519 228.445528 244.049935 228.992074 243.830978 229.538621 243.624190 230.085167 243.429113 230.631714 243.245287 231.178260 243.072255 231.724807 242.909558 232.271354 242.756736 232.817900 242.613333 233.364447 242.478888 233.910993 242.352944 234.457540 242.235043 235.004086 242.124724 235.550633 242.021531 236.097179 241.925004 236.643726 241.834685 237.190273 241.750115 237.736819 241.670837 238.283366 241.596390 238.829912 241.526317 239.376459 241.460159 239.923005 241.397458 240.469552 241.337755 241.016098 241.280592 241.562645 241.225509 242.109191 241.172049 242.655738 241.119753 243.202285 241.068163 243.748831 241.016819 244.295378 240.965263 244.841924 240.913037 245.388471 240.859683 245.935017 240.804741 246.481564 240.747753 247.028110 240.688261 247.574657 240.625806 248.121204 240.559929 248.667750 240.490172 249.214297 240.416077 249.760843 240.337184 250.307390 240.253036 250.853936 240.163174 251.400483 240.067139 251.947029 239.964472 252.493576 239.854716 253.040123 239.737411 253.586669 239.612100 254.133216 239.478323 254.679762 239.335622 255.226309 239.183538 255.772855 239.021613 256.319402 238.849389 256.865948 238.666407 257.412495 238.472207 257.959041 238.266333 258.505588 238.048324 259.052135 237.817724 259.598681 237.574072 260.145228 237.316911 260.691774 237.045782 261.238321 236.760227 261.784867 236.459786 262.331414 236.144002 262.877960 235.765870 263.424507 235.202040 263.971054 234.470984 264.517600 233.600430 265.064147 232.618106 265.610693 231.551737 266.157240 230.429052 266.703786 229.277776 267.250333 228.125638 267.796879 227.000365 268.343426 225.929683 268.889973 224.941319 269.436519 224.062861 269.983066 223.271102 270.529612 222.527994 271.076159 221.825394 271.622705 221.155157 272.169252 220.509137 272.715798 219.879191 273.262345 219.257173 273.808891 218.634940 274.355438 218.004347 274.901985 217.357248 275.448531 216.685501 275.995078 215.980960 276.541624 215.235480 277.088171 214.440917 277.634717 213.589126 278.181264 212.671964 278.727810 211.666178 279.274357 210.487250 279.820904 209.155670 280.367450 207.710092 280.913997 206.189169 281.460543 204.631554 282.007090 203.075900 282.553636 201.560860 283.100183 200.126097 283.646729 198.934307 284.193276 197.990443 284.739823 197.161740 285.286369 196.315433 285.832916 195.318756 286.379462 194.038944 286.926009 192.343231 287.472555 190.098853 288.019102 185.057872 288.565648 175.922887 289.112195 174.256233 289.658741 172.911570 290.205288 171.844565 290.751835 171.010886 291.298381 170.366201 291.844928 169.866177 292.391474 169.466481 292.938021 169.122782 293.484567 168.790748 294.031114 168.426045 294.577660 167.984341 295.124207 167.421305 295.670754 166.692603 296.217300 165.753904 296.763847 164.560874 297.310393 162.621306 297.856940 159.689249 298.403486 156.404553 298.950033 153.411969 299.496579 151.133432 300.043126 149.093211 300.589673 147.197180 301.136219 145.411929 301.682766 143.704046 302.229312 142.040121 302.775859 140.385898 303.322405 138.652533 303.868952 136.847795 304.415498 135.043514 304.962045 133.311520 305.508591 131.723642 306.055138 130.351709 306.601685 129.267551 307.148231 128.536623 307.694778 127.957939 308.241324 127.405628 308.787871 126.878715 309.334417 126.376229 309.880964 125.897197 310.427510 125.440646 310.974057 125.005604 311.520604 124.591098 312.067150 124.196156 312.613697 123.819805 313.160243 123.461072 313.706790 123.118985 314.253336 122.792572 314.799883 122.480859 315.346429 122.182874 315.892976 121.897644 316.439523 121.624198 316.986069 121.361562 317.532616 121.108763 318.079162 120.864830 318.625709 120.628789 319.172255 120.399669 319.718802 120.176495 320.265348 119.958297 320.811895 119.744101 321.358441 119.532934 321.904988 119.323825 322.451535 119.115800 322.998081 118.907887 323.544628 118.699113 324.091174 118.488506 324.637721 118.275093 325.184267 118.057902 325.730814 117.835960 326.277360 117.608294 326.823907 117.373932 327.370454 117.131901 327.917000 116.881229 328.463547 116.622175 329.010093 116.369559 329.556640 116.127542 330.103186 115.895561 330.649733 115.673051 331.196279 115.459450 331.742826 115.254193 332.289373 115.056715 332.835919 114.866455 333.382466 114.682846 333.929012 114.505326 334.475559 114.333331 335.022105 114.166296 335.568652 114.003659 336.115198 113.844854 336.661745 113.689319 337.208291 113.536489 337.754838 113.385800 338.301385 113.236689 338.847931 113.088591 339.394478 112.940944 339.941024 112.793182 340.487571 112.644742 341.034117 112.495060 341.580664 112.343572 342.127210 112.189715 342.673757 112.032925 343.220304 111.872636 343.766850 111.708287 344.313397 111.539313 344.859943 111.365149 345.406490 111.185233 345.953036 110.999000 346.499583 110.805886 347.046129 110.605328 347.592676 110.396761 348.139223 110.179622 348.685769 109.953347 349.232316 109.717371 349.778862 109.471132 350.325409 109.214065 350.871955 108.945607 351.418502 108.665192 351.965048 108.372259 352.511595 108.066242 353.058141 107.746578 353.604688 107.412703 354.151235 107.064052 354.697781 106.700064 355.244328 106.320172 355.790874 105.923814 356.337421 105.510425 356.883967 105.079442 357.430514 104.621808 357.977060 104.020760 358.523607 103.245114 359.070154 102.302416 359.616700 101.200212 360.163247 99.946050 360.709793 98.547474 361.256340 97.012032 361.802886 95.347270 362.349433 93.560735 362.895979 91.520173 363.442526 88.762605 363.989073 85.405424 364.535619 81.624776 365.082166 76.432085 365.628712 70.560866 366.175259 68.242460 366.721805 66.928609 367.268352 65.821220 367.814898 64.894138 368.361445 64.121208 368.907991 63.476275 369.454538 62.933185 370.001085 62.465783 370.547631 62.047913 371.094178 61.653422 371.640724 61.256154 372.187271 60.829955 372.733817 60.348670 373.280364 59.786144 373.826910 59.116223 374.373457 58.312751 374.920004 57.349574 375.466550 56.180767 376.013097 54.747792 376.559643 53.065702 377.106190 51.153301 377.652736 49.029388 378.199283 46.712766 378.745829 44.128953 379.292376 40.507145 379.838923 36.543666 380.385469 33.337279 380.932016 31.245015 381.478562 29.610821 382.025109 28.254578 382.571655 26.999092 383.118202 25.667170 383.664748 24.081617 384.211295 22.065239 384.757841 19.237586 385.304388 15.130126 385.850935 10.351477 386.397481 9.308149 386.944028 9.308149 387.490574 9.308149 388.037121 9.308149 388.583667 9.308149 389.130214 9.308149 389.676760 9.308149 390.223307 9.308149 390.769854 9.308149 391.316400 9.308149 391.862947 9.308149 392.409493 9.308149 392.956040 9.308149 393.502586 9.308149 394.049133 9.308149 394.595679 9.308149 395.142226 9.308149 395.688773 9.308149 396.235319 9.308149 396.781866 9.308149 397.328412 9.308149 397.874959 9.308149 398.421505 9.308149 398.968052 9.308149 399.514598 9.308149 400.061145 9.308149 400.607691 9.308149 401.154238 9.308149 401.700785 9.308149 402.247331 9.308149 402.793878 9.308149 403.340424 9.308149 403.886971 9.308149 404.433517 9.308149 404.980064 9.308149 405.526610 9.308149 406.073157 9.308149 406.619704 9.308149 407.166250 9.308149 407.712797 9.308149 408.259343 9.308149 408.805890 9.308149 409.352436 9.308149 409.898983 9.308149 410.445529 9.308149 410.992076 9.308149 411.538623 9.308149 412.085169 9.308149 412.631716 9.308149 413.178262 9.308149 413.724809 9.308149 414.271355 9.308149 414.817902 9.308149 415.364448 9.308149 415.910995 9.308149 416.457541 9.308149 417.004088 9.308149 417.550635 9.308149 418.097181 9.308149 418.643728 9.308149 419.190274 9.308149 419.736821 9.308149 420.283367 9.308149 420.829914 9.308149 421.376460 9.308149 421.923007 9.308149 422.469554 9.308149 423.016100 9.308149 423.562647 9.308149 424.109193 9.308149 424.655740 9.308149 425.202286 9.308149 425.748833 9.308149 426.295379 9.308149 426.841926 9.308149 427.388473 9.308149 427.935019 9.308149 428.481566 9.308149 429.028112 9.308149 429.574659 9.308149 430.121205 9.308149 430.667752 9.308149 431.214298 9.308149 431.760845 9.308149 432.307391 9.308149 432.853938 9.308149 433.400485 9.308149 433.947031 9.308149 434.493578 9.308149 435.040124 9.308149 435.586671 9.308149 436.133217 9.308149 436.679764 9.308149 437.226310 9.308149 437.772857 9.308149 438.319404 9.308149 438.865950 9.308149 439.412497 9.308149 439.959043 9.308149 440.505590 9.308149 441.052136 9.308149 441.598683 9.308149 442.145229 9.308149 442.691776 9.308149 443.238323 9.308149 443.784869 9.308149 444.331416 9.308149 444.877962 9.308149 445.424509 9.308149 445.971055 9.308149 446.517602 9.308149 447.064148 9.308149 447.610695 9.308149 448.157241 9.308149 448.703788 9.308149 449.250335 9.308149 449.796881 9.308149 450.343428 9.308149 450.889974 9.308149 451.436521 9.308149 451.983067 9.308149 452.529614 9.308149 453.076160 9.308149 453.622707 9.308149 454.169254 9.308149 454.715800 9.308149 455.262347 9.308149 455.808893 9.308149 456.355440 9.308149 456.901986 9.308149 457.448533 9.308149 457.995079 9.308149 458.541626 9.308149 459.088173 9.308149 459.634719 9.308149 460.181266 9.308149 460.727812 9.308149 461.274359 9.308149 461.820905 9.308149 462.367452 9.308149 462.913998 9.308149 463.460545 9.308149 464.007091 9.308149 464.553638 9.308149 465.100185 9.308149 465.646731 9.308149 466.193278 9.308149 466.739824 9.308149 467.286371 9.308149 467.832917 9.308149 468.379464 9.308149 468.926010 9.308149 469.472557 9.308149 470.019104 9.308149 470.565650 9.308149 471.112197 9.308149 471.658743 9.308149 472.205290 9.308149 472.751836 9.308149 473.298383 9.308149 473.844929 9.308149 474.391476 9.308149 474.938023 9.308149 475.484569 9.308149 476.031116 9.308149 476.577662 9.308149 477.124209 9.308149 477.670755 9.308149 478.217302 9.308149 478.763848 9.308149 479.310395 9.308149 479.856941 9.308149 480.403488 9.308149 480.950035 9.308149 481.496581 9.308149 482.043128 9.308149 482.589674 9.308149 483.136221 9.308149 483.682767 9.308149 484.229314 9.308149 484.775860 9.308149 485.322407 9.308149 485.868954 9.308149 486.415500 9.308149 486.962047 9.308149 487.508593 9.308149 488.055140 9.308149 488.601686 9.308149 489.148233 9.308149 489.694779 9.308149 490.241326 9.308149 490.787873 9.308149 491.334419 9.308149 491.880966 9.308149 492.427512 9.308149 492.974059 9.308149 493.520605 9.308149 494.067152 9.308149 494.613698 9.308149 495.160245 9.308149 495.706791 9.308149 496.253338 9.308149 496.799885 9.308149 497.346431 9.308149 497.892978 9.308149 498.439524 9.308149 498.986071 9.308149 499.532617 9.308149 500.079164 9.308149 500.625710 9.308149 501.172257 9.308149 501.718804 9.308149 502.265350 9.308149 502.811897 9.308149 503.358443 9.308149 503.904990 9.308149 504.451536 9.308149 504.998083 9.308149 505.544629 9.308149 506.091176 9.308149 506.637723 9.308149 507.184269 9.308149 507.730816 9.308149 508.277362 9.308149 508.823909 9.308149 509.370455 9.308149 509.917002 9.308149 510.463548 9.308149 511.010095 9.308149 511.556641 9.308149 512.103188 9.308149 512.649735 9.308149 513.196281 9.308149 513.742828 9.308149 514.289374 9.308149 514.835921 9.308149 515.382467 9.308149 515.929014 9.308149 516.475560 9.308149 517.022107 9.308149 517.568654 9.308149 518.115200 9.308149 518.661747 9.308149 519.208293 9.308149 519.754840 9.308149 520.301386 9.308149 520.847933 9.308149 521.394479 9.308149 521.941026 9.308149 522.487573 9.308149 523.034119 9.308149 523.580666 9.308149 524.127212 9.308149 524.673759 9.308149 525.220305 9.308149 525.766852 9.308149 526.313398 9.308149 526.859945 9.308149 527.406491 9.308149 527.953038 9.308149 528.499585 9.308149 529.046131 9.308149 529.592678 9.308149 530.139224 9.308149 530.685771 9.308149 531.232317 9.308149 531.778864 9.308149 532.325410 9.308149 532.871957 9.308149 533.418504 9.308149 533.965050 9.308149 534.511597 9.308149 535.058143 9.308149 535.604690 9.308149 536.151236 9.308149 536.697783 9.308149 537.244329 9.308149 537.790876 9.308149 538.337423 9.308149 538.883969 9.308149 539.430516 9.308149 539.977062 9.308149 540.523609 9.308149 541.070155 9.308149 541.616702 9.308149 542.163248 9.308149 542.709795 9.308149 543.256341 9.308149 543.802888 9.308149 544.349435 9.308149 544.895981 9.308149 545.442528 9.308149 545.989074 9.308149 546.535621 9.308149 547.082167 9.308149 547.628714 9.308149 548.175260 9.308149 548.721807 9.308149 549.268354 9.308149 549.814900 9.308149 550.361447 9.308149 550.907993 9.308149 551.454540 9.308149 552.001086 9.308149 552.547633 9.308149 553.094179 9.308149 553.640726 9.308149 554.187273 9.308149 554.733819 9.308149 555.280366 9.308149 555.826912 9.308149 556.373459 9.308149 556.920005 9.308149"/></g><g class="series serie-3 color-3"><path class="line reactive nofill" d="M10.920000 474.715622 L11.466547 472.424271 12.013093 470.104915 12.559640 467.876073 13.106186 465.856268 13.652733 464.164020 14.199279 462.917850 14.745826 462.043562 15.292373 461.259562 15.838919 460.553534 16.385466 459.918182 16.932012 459.346211 17.478559 458.830328 18.025105 458.363236 18.571652 457.937640 19.118198 457.546247 19.664745 457.181759 20.211291 456.836884 20.757838 456.504325 21.304385 456.176788 21.850931 455.846978 22.397478 455.507600 22.944024 455.151358 23.490571 454.770958 24.037117 454.359104 24.583664 453.908503 25.130210 453.411858 25.676757 452.861875 26.223304 452.251259 26.769850 451.572714 27.316397 450.818703 27.862943 449.814769 28.409490 448.485356 28.956036 446.933561 29.502583 445.262480 30.049129 443.575210 30.595676 441.974849 31.142223 440.564492 31.688769 439.447238 32.235316 438.703488 32.781862 438.106788 33.328409 437.568657 33.874955 437.084795 34.421502 436.650900 34.968048 436.262671 35.514595 435.915807 36.061141 435.606006 36.607688 435.328968 37.154235 435.080391 37.700781 434.855973 38.247328 434.651414 38.793874 434.462412 39.340421 434.284666 39.886967 434.113874 40.433514 433.945737 40.980060 433.775951 41.526607 433.600217 42.073154 433.414232 42.619700 433.213695 43.166247 432.994306 43.712793 432.751763 44.259340 432.481765 44.805886 432.180010 45.352433 431.842197 45.898979 431.464025 46.445526 431.041193 46.992073 430.569400 47.538619 430.044343 48.085166 429.461723 48.631712 428.817237 49.178259 428.106585 49.724805 427.325465 50.271352 425.935738 50.817898 422.344430 51.364445 417.925364 51.910991 414.276475 52.457538 410.745683 53.004085 407.244559 53.550631 404.474712 54.097178 403.137753 54.643724 402.912262 55.190271 402.698130 55.736817 402.488959 56.283364 402.284683 56.829910 402.085238 57.376457 401.890560 57.923004 401.700586 58.469550 401.515250 59.016097 401.334489 59.562643 401.158239 60.109190 400.986435 60.655736 400.819014 61.202283 400.655911 61.748829 400.497061 62.295376 400.342401 62.841923 400.191868 63.388469 400.045395 63.935016 399.902920 64.481562 399.764378 65.028109 399.629705 65.574655 399.498837 66.121202 399.371709 66.667748 399.248258 67.214295 399.128419 67.760841 399.012129 68.307388 398.899323 68.853935 398.789936 69.400481 398.683905 69.947028 398.581166 70.493574 398.481654 71.040121 398.385306 71.586667 398.292056 72.133214 398.201842 72.679760 398.114598 73.226307 398.030261 73.772854 397.948766 74.319400 397.870049 74.865947 397.794047 75.412493 397.720695 75.959040 397.649928 76.505586 397.581683 77.052133 397.515896 77.598679 397.452502 78.145226 397.391437 78.691773 397.332637 79.238319 397.276038 79.784866 397.221575 80.331412 397.169185 80.877959 397.118804 81.424505 397.070367 81.971052 397.023809 82.517598 396.979068 83.064145 396.936078 83.610691 396.894776 84.157238 396.855098 84.703785 396.816978 85.250331 396.780354 85.796878 396.745161 86.343424 396.711334 86.889971 396.678810 87.436517 396.647525 87.983064 396.617413 88.529610 396.588412 89.076157 396.560457 89.622704 396.533484 90.169250 396.507428 90.715797 396.482226 91.262343 396.457814 91.808890 396.434126 92.355436 396.411099 92.901983 396.388670 93.448529 396.366773 93.995076 396.345344 94.541623 396.324320 95.088169 396.303636 95.634716 396.283228 96.181262 396.263032 96.727809 396.242984 97.274355 396.223020 97.820902 396.203074 98.367448 396.183085 98.913995 396.162986 99.460541 396.142714 100.007088 396.122205 100.553635 396.101394 101.100181 396.080218 101.646728 396.058613 102.193274 396.036513 102.739821 396.013856 103.286367 395.990576 103.832914 395.966610 104.379460 395.941893 104.926007 395.916362 105.472554 395.889952 106.019100 395.862599 106.565647 395.834239 107.112193 395.804807 107.658740 395.774241 108.205286 395.742474 108.751833 395.709444 109.298379 395.675086 109.844926 395.639335 110.391473 395.602129 110.938019 395.563402 111.484566 395.523091 112.031112 395.481130 112.577659 395.437457 113.124205 395.392007 113.670752 395.344716 114.217298 395.295519 114.763845 395.244353 115.310391 395.191153 115.856938 395.135855 116.403485 395.078395 116.950031 395.018709 117.496578 394.956733 118.043124 394.892402 118.589671 394.825653 119.136217 394.756421 119.682764 394.684642 120.229310 394.610251 120.775857 394.533186 121.322404 394.453381 121.868950 394.370772 122.415497 394.285296 122.962043 394.196888 123.508590 394.105483 124.055136 394.011019 124.601683 393.913430 125.148229 393.812652 125.694776 393.708622 126.241323 393.601275 126.787869 393.490547 127.334416 393.376373 127.880962 393.258691 128.427509 393.137434 128.974055 393.012540 129.520602 392.883945 130.067148 392.751583 130.613695 392.615391 131.160241 392.475305 131.706788 392.331260 132.253335 392.183193 132.799881 392.031039 133.346428 391.874734 133.892974 391.714213 134.439521 391.549414 134.986067 391.380271 135.532614 391.206721 136.079160 391.014773 136.625707 390.780306 137.172254 390.502547 137.718800 390.181132 138.265347 389.815695 138.811893 389.405873 139.358440 388.951301 139.904986 388.451614 140.451533 387.906448 140.998079 387.315437 141.544626 386.678218 142.091173 385.994425 142.637719 385.263694 143.184266 384.485661 143.730812 383.659961 144.277359 382.786229 144.823905 381.864100 145.370452 380.893210 145.916998 379.873195 146.463545 378.715353 147.010091 376.773442 147.556638 374.251389 148.103185 371.561115 148.649731 369.114547 149.196278 367.323606 149.742824 366.032529 150.289371 364.797904 150.835917 363.622402 151.382464 362.508721 151.929010 361.459559 152.475557 360.477616 153.022104 359.565588 153.568650 358.726175 154.115197 357.962074 154.661743 357.275985 155.208290 356.670606 155.754836 356.148635 156.301383 355.712770 156.847929 355.365615 157.394476 355.065136 157.941023 354.774863 158.487569 354.494548 159.034116 354.223945 159.580662 353.962806 160.127209 353.710882 160.673755 353.467928 161.220302 353.233695 161.766848 353.007935 162.313395 352.790402 162.859941 352.580848 163.406488 352.379025 163.953035 352.184686 164.499581 351.997584 165.046128 351.817470 165.592674 351.644098 166.139221 351.477220 166.685767 351.316589 167.232314 351.161957 167.778860 351.013076 168.325407 350.869699 168.871954 350.731579 169.418500 350.598469 169.965047 350.470120 170.511593 350.346285 171.058140 350.226717 171.604686 350.111168 172.151233 349.999391 172.697779 349.891138 173.244326 349.786162 173.790873 349.684216 174.337419 349.585051 174.883966 349.488421 175.430512 349.394078 175.977059 349.301774 176.523605 349.211262 177.070152 349.122295 177.616698 349.034625 178.163245 348.948004 178.709791 348.862186 179.256338 348.776922 179.802885 348.691966 180.349431 348.607069 180.895978 348.521984 181.442524 348.436464 181.989071 348.350261 182.535617 348.263128 183.082164 348.174817 183.628710 348.085081 184.175257 347.993673 184.721804 347.900344 185.268350 347.804848 185.814897 347.706936 186.361443 347.606362 186.907990 347.502879 187.454536 347.396237 188.001083 347.286191 188.547629 347.172492 189.094176 347.054893 189.640723 346.933147 190.187269 346.807006 190.733816 346.676223 191.280362 346.540550 191.826909 346.399739 192.373455 346.253544 192.920002 346.101717 193.466548 345.944009 194.013095 345.780175 194.559641 345.609966 195.106188 345.433135 195.652735 345.249434 196.199281 345.058616 196.745828 344.860434 197.292374 344.654639 197.838921 344.440985 198.385467 344.219225 198.932014 343.989109 199.478560 343.750392 200.025107 343.502825 200.571654 343.252813 201.118200 343.012833 201.664747 342.779371 202.211293 342.548345 202.757840 342.315676 203.304386 342.077282 203.850933 341.829081 204.397479 341.566994 204.944026 341.286939 205.490573 340.984836 206.037119 340.656602 206.583666 340.298157 207.130212 339.905421 207.676759 339.474312 208.223305 339.000749 208.769852 338.480652 209.316398 337.909938 209.862945 337.284528 210.409491 336.600341 210.956038 335.853294 211.502585 335.039308 212.049131 334.154302 212.595678 333.194193 213.142224 332.154902 213.688771 330.795966 214.235317 327.184967 214.781864 321.065983 215.328410 307.588847 215.874957 303.963705 216.421504 301.325722 216.968050 299.444011 217.514597 298.087684 218.061143 297.025852 218.607690 296.027627 219.154236 294.971563 219.700783 294.040241 220.247329 293.230664 220.793876 292.523921 221.340423 291.901103 221.886969 291.343300 222.433516 290.831603 222.980062 290.347100 223.526609 289.870883 224.073155 289.384041 224.619702 288.867664 225.166248 288.302844 225.712795 287.670669 226.259341 286.952229 226.805888 286.128616 227.352435 285.180919 227.898981 284.090229 228.445528 282.740258 228.992074 280.888575 229.538621 278.550938 230.085167 275.755843 230.631714 272.531783 231.178260 267.636081 231.724807 261.512712 232.271354 258.520030 232.817900 256.908992 233.364447 255.936663 233.910993 255.243996 234.457540 254.471944 235.004086 253.261458 235.550633 251.253493 236.097179 248.088999 236.643726 231.795217 237.190273 225.599449 237.736819 219.622039 238.283366 214.202426 238.829912 211.710367 239.376459 210.401373 239.923005 209.299378 240.469552 208.378758 241.016098 207.613888 241.562645 206.979143 242.109191 206.448897 242.655738 205.997525 243.202285 205.599402 243.748831 205.228903 244.295378 204.860403 244.841924 204.468276 245.388471 204.026896 245.935017 203.510640 246.481564 202.893882 247.028110 202.150996 247.574657 201.256358 248.121204 200.184025 248.667750 198.788180 249.214297 196.982119 249.760843 194.793628 250.307390 192.250494 250.853936 189.380504 251.400483 185.343645 251.947029 179.455078 252.493576 176.320854 253.040123 175.652923 253.586669 175.013692 254.133216 174.402439 254.679762 173.818442 255.226309 173.260978 255.772855 172.729324 256.319402 172.222756 256.865948 171.740554 257.412495 171.281993 257.959041 170.846350 258.505588 170.432904 259.052135 170.040931 259.598681 169.669709 260.145228 169.318515 260.691774 168.986625 261.238321 168.673318 261.784867 168.377871 262.331414 168.099560 262.877960 167.837663 263.424507 167.591457 263.971054 167.360220 264.517600 167.143228 265.064147 166.939759 265.610693 166.749090 266.157240 166.570499 266.703786 166.403262 267.250333 166.246657 267.796879 166.099961 268.343426 165.962451 268.889973 165.833405 269.436519 165.712099 269.983066 165.597812 270.529612 165.489819 271.076159 165.387399 271.622705 165.289829 272.169252 165.196386 272.715798 165.106346 273.262345 165.018988 273.808891 164.933589 274.355438 164.849425 274.901985 164.765774 275.448531 164.681914 275.995078 164.597121 276.541624 164.510673 277.088171 164.421973 277.634717 164.333352 278.181264 164.245919 278.727810 164.159666 279.274357 164.074584 279.820904 163.990662 280.367450 163.907893 280.913997 163.826265 281.460543 163.745771 282.007090 163.666400 282.553636 163.588144 283.100183 163.510993 283.646729 163.434937 284.193276 163.359968 284.739823 163.286075 285.286369 163.213250 285.832916 163.141484 286.379462 163.070766 286.926009 163.001088 287.472555 162.932440 288.019102 162.864814 288.565648 162.798198 289.112195 162.732585 289.658741 162.667965 290.205288 162.604328 290.751835 162.541666 291.298381 162.479968 291.844928 162.419226 292.391474 162.359430 292.938021 162.300570 293.484567 162.242638 294.031114 162.185625 294.577660 162.129520 295.124207 162.074314 295.670754 162.019999 296.217300 161.966564 296.763847 161.914001 297.310393 161.862299 297.856940 161.811451 298.403486 161.761445 298.950033 161.712274 299.496579 161.663927 300.043126 161.616396 300.589673 161.569671 301.136219 161.523742 301.682766 161.478601 302.229312 161.434237 302.775859 161.390643 303.322405 161.347807 303.868952 161.305721 304.415498 161.264376 304.962045 161.223762 305.508591 161.183870 306.055138 161.144691 306.601685 161.106215 307.148231 161.068432 307.694778 161.031334 308.241324 160.994911 308.787871 160.959154 309.334417 160.924054 309.880964 160.889600 310.427510 160.855785 310.974057 160.822598 311.520604 160.790030 312.067150 160.758071 312.613697 160.726713 313.160243 160.695947 313.706790 160.665761 314.253336 160.636149 314.799883 160.607099 315.346429 160.578603 315.892976 160.550651 316.439523 160.523234 316.986069 160.496343 317.532616 160.469968 318.079162 160.444101 318.625709 160.418730 319.172255 160.393848 319.718802 160.369445 320.265348 160.345512 320.811895 160.322039 321.358441 160.299016 321.904988 160.276436 322.451535 160.254287 322.998081 160.232561 323.544628 160.211249 324.091174 160.190341 324.637721 160.169828 325.184267 160.149700 325.730814 160.129949 326.277360 160.110564 326.823907 160.091537 327.370454 160.072857 327.917000 160.054517 328.463547 160.036506 329.010093 160.018815 329.556640 160.001435 330.103186 159.984356 330.649733 159.967569 331.196279 159.951065 331.742826 159.934834 332.289373 159.918868 332.835919 159.903156 333.382466 159.887689 333.929012 159.872458 334.475559 159.857454 335.022105 159.842667 335.568652 159.828088 336.115198 159.813708 336.661745 159.799517 337.208291 159.785505 337.754838 159.771665 338.301385 159.757986 338.847931 159.744458 339.394478 159.731073 339.941024 159.717821 340.487571 159.704693 341.034117 159.691680 341.580664 159.678772 342.127210 159.665959 342.673757 159.653233 343.220304 159.640584 343.766850 159.628003 344.313397 159.615481 344.859943 159.603007 345.406490 159.590573 345.953036 159.578170 346.499583 159.565787 347.046129 159.553417 347.592676 159.541048 348.139223 159.528673 348.685769 159.516281 349.232316 159.503864 349.778862 159.491412 350.325409 159.478915 350.871955 159.466365 351.418502 159.453752 351.965048 159.441066 352.511595 159.428298 353.058141 159.415440 353.604688 159.402481 354.151235 159.389412 354.697781 159.376224 355.244328 159.362908 355.790874 159.349454 356.337421 159.335853 356.883967 159.322095 357.430514 159.308171 357.977060 159.294073 358.523607 159.279790 359.070154 159.265312 359.616700 159.250632 360.163247 159.235739 360.709793 159.220625 361.256340 159.205279 361.802886 159.189692 362.349433 159.173855 362.895979 159.157760 363.442526 159.141395 363.989073 159.124753 364.535619 159.107823 365.082166 159.090597 365.628712 159.073065 366.175259 159.055217 366.721805 159.037045 367.268352 159.018538 367.814898 158.999689 368.361445 158.980486 368.907991 158.960922 369.454538 158.940986 370.001085 158.920669 370.547631 158.899963 371.094178 158.878856 371.640724 158.857342 372.187271 158.835408 372.733817 158.813048 373.280364 158.790251 373.826910 158.767007 374.373457 158.743308 374.920004 158.719144 375.466550 158.694506 376.013097 158.669385 376.559643 158.643770 377.106190 158.617653 377.652736 158.591025 378.199283 158.563876 378.745829 158.536197 379.292376 158.507978 379.838923 158.479210 380.385469 158.449883 380.932016 158.419989 381.478562 158.389519 382.025109 158.358461 382.571655 158.326809 383.118202 158.294551 383.664748 158.261678 384.211295 158.228183 384.757841 158.194054 385.304388 158.159282 385.850935 158.123859 386.397481 158.087775 386.944028 158.051020 387.490574 158.013586 388.037121 157.975463 388.583667 157.936641 389.130214 157.897111 389.676760 157.856864 390.223307 157.815891 390.769854 157.774182 391.316400 157.731727 391.862947 157.688519 392.409493 157.644546 392.956040 157.599800 393.502586 157.554271 394.049133 157.507951 394.595679 157.460829 395.142226 157.412897 395.688773 157.364145 396.235319 157.314564 396.781866 157.264144 397.328412 157.212876 397.874959 157.160750 398.421505 157.107759 398.968052 157.053891 399.514598 156.999137 400.061145 156.943489 400.607691 156.886937 401.154238 156.829472 401.700785 156.771084 402.247331 156.711764 402.793878 156.651502 403.340424 156.590290 403.886971 156.528118 404.433517 156.464976 404.980064 156.400855 405.526610 156.335747 406.073157 156.269640 406.619704 156.202527 407.166250 156.134398 407.712797 156.065244 408.259343 155.995054 408.805890 155.923820 409.352436 155.851533 409.898983 155.778183 410.445529 155.703761 410.992076 155.628257 411.538623 155.551662 412.085169 155.473967 412.631716 155.395162 413.178262 155.315238 413.724809 155.234187 414.271355 155.151997 414.817902 155.068660 415.364448 154.984168 415.910995 154.898509 416.457541 154.811676 417.004088 154.723658 417.550635 154.634446 418.097181 154.544031 418.643728 154.452404 419.190274 154.359556 419.736821 154.265476 420.283367 154.170155 420.829914 154.073585 421.376460 153.975756 421.923007 153.876659 422.469554 153.776283 423.016100 153.674621 423.562647 153.571662 424.109193 153.467397 424.655740 153.361817 425.202286 153.254912 425.748833 153.146674 426.295379 153.037092 426.841926 152.926158 427.388473 152.813862 427.935019 152.700195 428.481566 152.585147 429.028112 152.443165 429.574659 151.999554 430.121205 151.224904 430.667752 150.176553 431.214298 148.911836 431.760845 147.488090 432.307391 145.962652 432.853938 144.392858 433.400485 142.836044 433.947031 141.349548 434.493578 139.978690 435.040124 138.657483 435.586671 137.334918 436.133217 135.973722 436.679764 134.536621 437.226310 132.986342 437.772857 131.285611 438.319404 129.397157 438.865950 127.282009 439.412497 124.846804 439.959043 121.943744 440.505590 118.423046 441.052136 113.098184 441.598683 105.838845 442.145229 103.462875 442.691776 101.975928 443.238323 100.860798 443.784869 100.036233 444.331416 99.420982 444.877962 98.933794 445.424509 98.493418 445.971055 98.018602 446.517602 97.428095 447.064148 96.640646 447.610695 95.575004 448.157241 94.149917 448.703788 91.980012 449.250335 85.595729 449.796881 80.395089 450.343428 77.618511 450.889974 75.311451 451.436521 73.383932 451.983067 71.745979 452.529614 70.307617 453.076160 68.978870 453.622707 67.729817 454.169254 66.582386 454.715800 65.523701 455.262347 64.540886 455.808893 63.621065 456.355440 62.751363 456.901986 61.918904 457.448533 61.110811 457.995079 60.314210 458.541626 59.516223 459.088173 58.703976 459.634719 57.864592 460.181266 56.985133 460.727812 56.041038 461.274359 55.033031 461.820905 53.980483 462.367452 52.902766 462.913998 51.819252 463.460545 50.749314 464.007091 49.712321 464.553638 48.727647 465.100185 47.814663 465.646731 46.992741 466.193278 46.281252 466.739824 45.699569 467.286371 45.267063 467.832917 44.982563 468.379464 44.727057 468.926010 44.478037 469.472557 44.235389 470.019104 43.998998 470.565650 43.768749 471.112197 43.544526 471.658743 43.326216 472.205290 43.113702 472.751836 42.906870 473.298383 42.705605 473.844929 42.509793 474.391476 42.319317 474.938023 42.134064 475.484569 41.953918 476.031116 41.778764 476.577662 41.608487 477.124209 41.442973 477.670755 41.282106 478.217302 41.125772 478.763848 40.973855 479.310395 40.826241 479.856941 40.682814 480.403488 40.543459 480.950035 40.408063 481.496581 40.276509 482.043128 40.148683 482.589674 40.024470 483.136221 39.903754 483.682767 39.786421 484.229314 39.672357 484.775860 39.561445 485.322407 39.453571 485.868954 39.348621 486.415500 39.246478 486.962047 39.147029 487.508593 39.050158 488.055140 38.955750 488.601686 38.863690 489.148233 38.773864 489.694779 38.686156 490.241326 38.600452 490.787873 38.516636 491.334419 38.434593 491.880966 38.354209 492.427512 38.275369 492.974059 38.197957 493.520605 38.121859 494.067152 38.046960 494.613698 37.973145 495.160245 37.900298 495.706791 37.828305 496.253338 37.757052 496.799885 37.686422 497.346431 37.616301 497.892978 37.546574 498.439524 37.477126 498.986071 37.407843 499.532617 37.338609 500.079164 37.269309 500.625710 37.199828 501.172257 37.130051 501.718804 37.059864 502.265350 36.989152 502.811897 36.917798 503.358443 36.845690 503.904990 36.772710 504.451536 36.698746 504.998083 36.623681 505.544629 36.547401 506.091176 36.469790 506.637723 36.390735 507.184269 36.310119 507.730816 36.227828 508.277362 36.143747 508.823909 36.057761 509.370455 35.969754 509.917002 35.879613 510.463548 35.787222 511.010095 35.692467 511.556641 35.595231 512.103188 35.495400 512.649735 35.392860 513.196281 35.287495 513.742828 35.179191 514.289374 35.067832 514.835921 34.953303 515.382467 34.835490 515.929014 34.714278 516.475560 34.589551 517.022107 34.461194 517.568654 34.329094 518.115200 34.193134 518.661747 34.053200 519.208293 33.909176 519.754840 33.760949 520.301386 33.608403 520.847933 33.451422 521.394479 33.289892 521.941026 33.123954 522.487573 32.957326 523.034119 32.791091 523.580666 32.625021 524.127212 32.458889 524.673759 32.292466 525.220305 32.125524 525.766852 31.957834 526.313398 31.789169 526.859945 31.619301 527.406491 31.448000 527.953038 31.275040 528.499585 31.100191 529.046131 30.923226 529.592678 30.743916 530.139224 30.562034 530.685771 30.377350 531.232317 30.189638 531.778864 29.998668 532.325410 29.804213 532.871957 29.606044 533.418504 29.403934 533.965050 29.197653 534.511597 28.986974 535.058143 28.771669 535.604690 28.551510 536.151236 28.326267 536.697783 28.095714 537.244329 27.859622 537.790876 27.617762 538.337423 27.369907 538.883969 27.115829 539.430516 26.855298 539.977062 26.588088 540.523609 26.313970 541.070155 26.032715 541.616702 25.744095 542.163248 25.447883 542.709795 25.143851 543.256341 24.831769 543.802888 24.511410 544.349435 24.182545 544.895981 23.844947 545.442528 23.498387 545.989074 23.142637 546.535621 22.777469 547.082167 22.402655 547.628714 22.017967 548.175260 21.623175 548.721807 21.217930 549.268354 20.762343 549.814900 20.229294 550.361447 19.625503 550.907993 18.957689 551.454540 18.232573 552.001086 17.456874 552.547633 16.637312 553.094179 15.780608 553.640726 14.893481 554.187273 13.982651 554.733819 13.054837 555.280366 12.116761 555.826912 11.175140 556.373459 10.236697 556.920005 9.308149"/></g></g><g class="titles"><text class="title plot_title" x="400.0" y="26">Cumulative Distribution function</text><text class="title" x="463.92000269019513" y="580.0">Throughput</text><text class="title" x="106.0" y="314.01188578223196" transform="rotate(-90 106.000000 288.011886)">Percentage of data</text></g><g class="plot overlay" transform="translate(180, 46)"><g class="series serie-0 color-0"/><g class="series serie-1 color-1"/><g class="series serie-2 color-2"/><g class="series serie-3 color-3"/></g><g class="plot text-overlay" transform="translate(180, 46)"><g class="series serie-0 color-0"/><g class="series serie-1 color-1"/><g class="series serie-2 color-2"/><g class="series serie-3 color-3"/></g><g class="plot tooltip-overlay" transform="translate(180, 46)"><g class="tooltip" style="opacity: 0" transform="translate(0 0)"><rect class="tooltip-box" height="0" rx="0" ry="0" width="0"/><g class="text"/></g></g><g class="legends" transform="translate(10, 56)"><g class="legend reactive activate-serie" id="activate-serie-0"><rect class="color-0 reactive" height="12" width="12" x="0.0" y="1.0"/><text x="17.0" y="11.2">Old 40</text></g><g class="legend reactive activate-serie" id="activate-serie-1"><rect class="color-1 reactive" height="12" width="12" x="0.0" y="22.0"/><text x="17.0" y="32.2">New 40</text></g><g class="legend reactive activate-serie" id="activate-serie-2"><rect class="color-2 reactive" height="12" width="12" x="0.0" y="43.0"/><text x="17.0" y="53.2">Fit Old 40</text></g><g class="legend reactive activate-serie" id="activate-serie-3"><rect class="color-3 reactive" height="12" width="12" x="0.0" y="64.0"/><text x="17.0" y="74.2">Fit New 40</text></g></g><g class="legends" transform="translate(757, 56)"/></g></svg>