<?xml version='1.0' encoding='utf-8'?>
<svg xmlns:xlink="http://www.w3.org/1999/xlink" xmlns="http://www.w3.org/2000/svg" id="chart-0755f2f0-39e3-4d3d-9eb5-d114e9e6f4fe" class="pygal-chart" viewBox="0 0 800 600"><!--Generated with pygal 2.3.1 (lxml) ©Kozea 2012-2016 on 2017-03-14--><!--http://pygal.org--><!--http://github.com/Kozea/pygal--><defs><style type="text/css">#chart-0755f2f0-39e3-4d3d-9eb5-d114e9e6f4fe{-webkit-user-select:none;-webkit-font-smoothing:antialiased;font-family:Consolas,"Liberation Mono",Menlo,Courier,monospace}#chart-0755f2f0-39e3-4d3d-9eb5-d114e9e6f4fe .title{font-family:Consolas,"Liberation Mono",Menlo,Courier,monospace;font-size:16px}#chart-0755f2f0-39e3-4d3d-9eb5-d114e9e6f4fe .legends .legend text{font-family:Consolas,"Liberation Mono",Menlo,Courier,monospace;font-size:14px}#chart-0755f2f0-39e3-4d3d-9eb5-d114e9e6f4fe .axis text{font-family:Consolas,"Liberation Mono",Menlo,Courier,monospace;font-size:10px}#chart-0755f2f0-39e3-4d3d-9eb5-d114e9e6f4fe .axis text.major{font-family:Consolas,"Liberation Mono",Menlo,Courier,monospace;font-size:10px}#chart-0755f2f0-39e3-4d3d-9eb5-d114e9e6f4fe .text-overlay text.value{font-family:Consolas,"Liberation Mono",Menlo,Courier,monospace;font-size:16px}#chart-0755f2f0-39e3-4d3d-9eb5-d114e9e6f4fe .text-overlay text.label{font-family:Consolas,"Liberation Mono",Menlo,Courier,monospace;font-size:10px}#chart-0755f2f0-39e3-4d3d-9eb5-d114e9e6f4fe .tooltip{font-family:Consolas,"Liberation Mono",Menlo,Courier,monospace;font-size:14px}#chart-0755f2f0-39e3-4d3d-9eb5-d114e9e6f4fe text.no_data{font-family:Consolas,"Liberation Mono",Menlo,Courier,monospace;font-size:64px}
#chart-0755f2f0-39e3-4d3d-9eb5-d114e9e6f4fe{background-color:rgba(249,249,249,1)}#chart-0755f2f0-39e3-4d3d-9eb5-d114e9e6f4fe path,#chart-0755f2f0-39e3-4d3d-9eb5-d114e9e6f4fe line,#chart-0755f2f0-39e3-4d3d-9eb5-d114e9e6f4fe rect,#chart-0755f2f0-39e3-4d3d-9eb5-d114e9e6f4fe circle{-webkit-transition:150ms;-moz-transition:150ms;transition:150ms}#chart-0755f2f0-39e3-4d3d-9eb5-d114e9e6f4fe .graph &gt; .background{fill:rgba(249,249,249,1)}#chart-0755f2f0-39e3-4d3d-9eb5-d114e9e6f4fe .plot &gt; .background{fill:rgba(255,255,255,1)}#chart-0755f2f0-39e3-4d3d-9eb5-d114e9e6f4fe .graph{fill:rgba(0,0,0,.87)}#chart-0755f2f0-39e3-4d3d-9eb5-d114e9e6f4fe text.no_data{fill:rgba(0,0,0,1)}#chart-0755f2f0-39e3-4d3d-9eb5-d114e9e6f4fe .title{fill:rgba(0,0,0,1)}#chart-0755f2f0-39e3-4d3d-9eb5-d114e9e6f4fe .legends .legend text{fill:rgba(0,0,0,.87)}#chart-0755f2f0-39e3-4d3d-9eb5-d114e9e6f4fe .legends .legend:hover text{fill:rgba(0,0,0,1)}#chart-0755f2f0-39e3-4d3d-9eb5-d114e9e6f4fe .axis .line{stroke:rgba(0,0,0,1)}#chart-0755f2f0-39e3-4d3d-9eb5-d114e9e6f4fe .axis .guide.line{stroke:rgba(0,0,0,.54)}#chart-0755f2f0-39e3-4d3d-9eb5-d114e9e6f4fe .axis .major.line{stroke:rgba(0,0,0,.87)}#chart-0755f2f0-39e3-4d3d-9eb5-d114e9e6f4fe .axis text.major{fill:rgba(0,0,0,1)}#chart-0755f2f0-39e3-4d3d-9eb5-d114e9e6f4fe .axis.y .guides:hover .guide.line,#chart-0755f2f0-39e3-4d3d-9eb5-d114e9e6f4fe .line-graph .axis.x .guides:hover .guide.line,#chart-0755f2f0-39e3-4d3d-9eb5-d114e9e6f4fe .stackedline-graph .axis.x .guides:hover .guide.line,#chart-0755f2f0-39e3-4d3d-9eb5-d114e9e6f4fe .xy-graph .axis.x .guides:hover .guide.line{stroke:rgba(0,0,0,1)}#chart-0755f2f0-39e3-4d3d-9eb5-d114e9e6f4fe .axis .guides:hover text{fill:rgba(0,0,0,1)}#chart-0755f2f0-39e3-4d3d-9eb5-d114e9e6f4fe .reactive{fill-opacity:.7;stroke-opacity:.8}#chart-0755f2f0-39e3-4d3d-9eb5-d114e9e6f4fe .ci{stroke:rgba(0,0,0,.87)}#chart-0755f2f0-39e3-4d3d-9eb5-d114e9e6f4fe .reactive.active,#chart-0755f2f0-39e3-4d3d-9eb5-d114e9e6f4fe .active .reactive{fill-opacity:.8;stroke-opacity:.9;stroke-width:4}#chart-0755f2f0-39e3-4d3d-9eb5-d114e9e6f4fe .ci .reactive.active{stroke-width:1.5}#chart-0755f2f0-39e3-4d3d-9eb5-d114e9e6f4fe .series text{fill:rgba(0,0,0,1)}#chart-0755f2f0-39e3-4d3d-9eb5-d114e9e6f4fe .tooltip rect{fill:rgba(255,255,255,1);stroke:rgba(0,0,0,1);-webkit-transition:opacity 150ms;-moz-transition:opacity 150ms;transition:opacity 150ms}#chart-0755f2f0-39e3-4d3d-9eb5-d114e9e6f4fe .tooltip .label{fill:rgba(0,0,0,.87)}#chart-0755f2f0-39e3-4d3d-9eb5-d114e9e6f4fe .tooltip .label{fill:rgba(0,0,0,.87)}#chart-0755f2f0-39e3-4d3d-9eb5-d114e9e6f4fe .tooltip .legend{font-size:.8em;fill:rgba(0,0,0,.54)}#chart-0755f2f0-39e3-4d3d-9eb5-d114e9e6f4fe .tooltip .x_label{font-size:.6em;fill:rgba(0,0,0,1)}#chart-0755f2f0-39e3-4d3d-9eb5-d114e9e6f4fe .tooltip .xlink{font-size:.5em;text-decoration:underline}#chart-0755f2f0-39e3-4d3d-9eb5-d114e9e6f4fe .tooltip .value{font-size:1.5em}#chart-0755f2f0-39e3-4d3d-9eb5-d114e9e6f4fe .bound{font-size:.5em}#chart-0755f2f0-39e3-4d3d-9eb5-d114e9e6f4fe .max-value{font-size:.75em;fill:rgba(0,0,0,.54)}#chart-0755f2f0-39e3-4d3d-9eb5-d114e9e6f4fe .map-element{fill:rgba(255,255,255,1);stroke:rgba(0,0,0,.54) !important}#chart-0755f2f0-39e3-4d3d-9eb5-d114e9e6f4fe .map-element .reactive{fill-opacity:inherit;stroke-opacity:inherit}#chart-0755f2f0-39e3-4d3d-9eb5-d114e9e6f4fe .color-0,#chart-0755f2f0-39e3-4d3d-9eb5-d114e9e6f4fe .color-0 a:visited{stroke:#F44336;fill:#F44336}#chart-0755f2f0-39e3-4d3d-9eb5-d114e9e6f4fe .color-1,#chart-0755f2f0-39e3-4d3d-9eb5-d114e9e6f4fe .color-1 a:visited{stroke:#3F51B5;fill:#3F51B5}#chart-0755f2f0-39e3-4d3d-9eb5-d114e9e6f4fe .color-2,#chart-0755f2f0-39e3-4d3d-9eb5-d114e9e6f4fe .color-2 a:visited{stroke:#009688;fill:#009688}#chart-0755f2f0-39e3-4d3d-9eb5-d114e9e6f4fe .color-3,#chart-0755f2f0-39e3-4d3d-9eb5-d114e9e6f4fe .color-3 a:visited{stroke:#FFC107;fill:#FFC107}#chart-0755f2f0-39e3-4d3d-9eb5-d114e9e6f4fe .text-overlay .color-0 text{fill:black}#chart-0755f2f0-39e3-4d3d-9eb5-d114e9e6f4fe .text-overlay .color-1 text{fill:black}#chart-0755f2f0-39e3-4d3d-9eb5-d114e9e6f4fe .text-overlay .color-2 text{fill:black}#chart-0755f2f0-39e3-4d3d-9eb5-d114e9e6f4fe .text-overlay .color-3 text{fill:black}
#chart-0755f2f0-39e3-4d3d-9eb5-d114e9e6f4fe text.no_data{text-anchor:middle}#chart-0755f2f0-39e3-4d3d-9eb5-d114e9e6f4fe .guide.line{fill:none}#chart-0755f2f0-39e3-4d3d-9eb5-d114e9e6f4fe .centered{text-anchor:middle}#chart-0755f2f0-39e3-4d3d-9eb5-d114e9e6f4fe .title{text-anchor:middle}#chart-0755f2f0-39e3-4d3d-9eb5-d114e9e6f4fe .legends .legend text{fill-opacity:1}#chart-0755f2f0-39e3-4d3d-9eb5-d114e9e6f4fe .axis.x text{text-anchor:middle}#chart-0755f2f0-39e3-4d3d-9eb5-d114e9e6f4fe .axis.x:not(.web) text[transform]{text-anchor:start}#chart-0755f2f0-39e3-4d3d-9eb5-d114e9e6f4fe .axis.x:not(.web) text[transform].backwards{text-anchor:end}#chart-0755f2f0-39e3-4d3d-9eb5-d114e9e6f4fe .axis.y text{text-anchor:end}#chart-0755f2f0-39e3-4d3d-9eb5-d114e9e6f4fe .axis.y text[transform].backwards{text-anchor:start}#chart-0755f2f0-39e3-4d3d-9eb5-d114e9e6f4fe .axis.y2 text{text-anchor:start}#chart-0755f2f0-39e3-4d3d-9eb5-d114e9e6f4fe .axis.y2 text[transform].backwards{text-anchor:end}#chart-0755f2f0-39e3-4d3d-9eb5-d114e9e6f4fe .axis .guide.line{stroke-dasharray:4,4}#chart-0755f2f0-39e3-4d3d-9eb5-d114e9e6f4fe .axis .major.guide.line{stroke-dasharray:6,6}#chart-0755f2f0-39e3-4d3d-9eb5-d114e9e6f4fe .horizontal .axis.y .guide.line,#chart-0755f2f0-39e3-4d3d-9eb5-d114e9e6f4fe .horizontal .axis.y2 .guide.line,#chart-0755f2f0-39e3-4d3d-9eb5-d114e9e6f4fe .vertical .axis.x .guide.line{opacity:0}#chart-0755f2f0-39e3-4d3d-9eb5-d114e9e6f4fe .horizontal .axis.always_show .guide.line,#chart-0755f2f0-39e3-4d3d-9eb5-d114e9e6f4fe .vertical .axis.always_show .guide.line{opacity:1 !important}#chart-0755f2f0-39e3-4d3d-9eb5-d114e9e6f4fe .axis.y .guides:hover .guide.line,#chart-0755f2f0-39e3-4d3d-9eb5-d114e9e6f4fe .axis.y2 .guides:hover .guide.line,#chart-0755f2f0-39e3-4d3d-9eb5-d114e9e6f4fe .axis.x .guides:hover .guide.line{opacity:1}#chart-0755f2f0-39e3-4d3d-9eb5-d114e9e6f4fe .axis .guides:hover text{opacity:1}#chart-0755f2f0-39e3-4d3d-9eb5-d114e9e6f4fe .nofill{fill:none}#chart-0755f2f0-39e3-4d3d-9eb5-d114e9e6f4fe .subtle-fill{fill-opacity:.2}#chart-0755f2f0-39e3-4d3d-9eb5-d114e9e6f4fe .dot{stroke-width:1px;fill-opacity:1}#chart-0755f2f0-39e3-4d3d-9eb5-d114e9e6f4fe .dot.active{stroke-width:5px}#chart-0755f2f0-39e3-4d3d-9eb5-d114e9e6f4fe .dot.negative{fill:transparent}#chart-0755f2f0-39e3-4d3d-9eb5-d114e9e6f4fe text,#chart-0755f2f0-39e3-4d3d-9eb5-d114e9e6f4fe tspan{stroke:none !important}#chart-0755f2f0-39e3-4d3d-9eb5-d114e9e6f4fe .series text.active{opacity:1}#chart-0755f2f0-39e3-4d3d-9eb5-d114e9e6f4fe .tooltip rect{fill-opacity:.95;stroke-width:.5}#chart-0755f2f0-39e3-4d3d-9eb5-d114e9e6f4fe .tooltip text{fill-opacity:1}#chart-0755f2f0-39e3-4d3d-9eb5-d114e9e6f4fe .showable{visibility:hidden}#chart-0755f2f0-39e3-4d3d-9eb5-d114e9e6f4fe .showable.shown{visibility:visible}#chart-0755f2f0-39e3-4d3d-9eb5-d114e9e6f4fe .gauge-background{fill:rgba(229,229,229,1);stroke:none}#chart-0755f2f0-39e3-4d3d-9eb5-d114e9e6f4fe .bg-lines{stroke:rgba(249,249,249,1);stroke-width:2px}</style><script type="text/javascript">window.pygal = window.pygal || {};window.pygal.config = window.pygal.config || {};window.pygal.config['0755f2f0-39e3-4d3d-9eb5-d114e9e6f4fe'] = {"margin_top": null, "logarithmic": false, "show_minor_y_labels": true, "y_labels": null, "show_y_guides": true, "interpolate": null, "print_values_position": "center", "y_label_rotation": 0, "no_prefix": false, "x_labels_major_count": null, "title": "Cumulative Distribution function", "spacing": 10, "show_dots": false, "css": ["file://style.css", "file://graph.css"], "secondary_range": null, "print_values": false, "missing_value_fill_truncation": "x", "legend_at_bottom_columns": null, "margin_left": null, "include_x_axis": false, "interpolation_parameters": {}, "show_only_major_dots": false, "print_labels": false, "zero": 0, "stroke_style": null, "inverse_y_axis": false, "strict": false, "dynamic_print_values": false, "pretty_print": false, "x_labels_major_every": null, "x_labels_major": null, "margin": 20, "show_legend": true, "rounded_bars": null, "margin_bottom": null, "force_uri_protocol": "https", "max_scale": 16, "height": 600, "show_x_labels": true, "half_pie": false, "box_mode": "extremes", "legends": ["Old 40", "New 40", "Fit Old 40", "Fit New 40"], "show_x_guides": false, "style": {"label_font_size": 10, "value_label_font_size": 10, "colors": ["#F44336", "#3F51B5", "#009688", "#FFC107", "#FF5722", "#9C27B0", "#03A9F4", "#8BC34A", "#FF9800", "#E91E63", "#2196F3", "#4CAF50", "#FFEB3B", "#673AB7", "#00BCD4", "#CDDC39", "#9E9E9E", "#607D8B"], "opacity_hover": ".8", "stroke_opacity": ".8", "plot_background": "rgba(255, 255, 255, 1)", "foreground_subtle": "rgba(0, 0, 0, .54)", "font_family": "Consolas, \"Liberation Mono\", Menlo, Courier, monospace", "major_guide_stroke_dasharray": "6,6", "value_font_family": "Consolas, \"Liberation Mono\", Menlo, Courier, monospace", "guide_stroke_dasharray": "4,4", "tooltip_font_family": "Consolas, \"Liberation Mono\", Menlo, Courier, monospace", "foreground_strong": "rgba(0, 0, 0, 1)", "background": "rgba(249, 249, 249, 1)", "transition": "150ms", "opacity": ".7", "value_colors": [], "no_data_font_size": 64, "stroke_opacity_hover": ".9", "foreground": "rgba(0, 0, 0, .87)", "legend_font_size": 14, "value_label_font_family": "Consolas, \"Liberation Mono\", Menlo, Courier, monospace", "value_background": "rgba(229, 229, 229, 1)", "major_label_font_size": 10, "legend_font_family": "Consolas, \"Liberation Mono\", Menlo, Courier, monospace", "label_font_family": "Consolas, \"Liberation Mono\", Menlo, Courier, monospace", "title_font_family": "Consolas, \"Liberation Mono\", Menlo, Courier, monospace", "tooltip_font_size": 14, "no_data_font_family": "Consolas, \"Liberation Mono\", Menlo, Courier, monospace", "value_font_size": 16, "title_font_size": 16, "major_label_font_family": "Consolas, \"Liberation Mono\", Menlo, Courier, monospace", "ci_colors": []}, "truncate_label": null, "x_labels": null, "margin_right": null, "show_y_labels": true, "fill": false, "stroke": true, "show_minor_x_labels": true, "y_labels_major_every": null, "y_labels_major": null, "y_labels_major_count": null, "explicit_size": false, "inner_radius": 0, "tooltip_fancy_mode": true, "order_min": null, "no_data_text": "No data", "classes": ["pygal-chart"], "defs": [], "legend_box_size": 12, "print_zeroes": true, "x_label_rotation": 15, "js": ["//kozea.github.io/pygal.js/2.0.x/pygal-tooltips.min.js"], "allow_interruptions": false, "disable_xml_declaration": false, "formatter": null, "range": null, "legend_at_bottom": false, "xrange": null, "y_title": "Percentage of data", "stack_from_top": false, "tooltip_border_radius": 0, "dots_size": 2.5, "interpolation_precision": 250, "x_title": "Throughput", "min_scale": 4, "truncate_legend": null, "width": 800}</script><script type="text/javascript" xlink:href="https://kozea.github.io/pygal.js/2.0.x/pygal-tooltips.min.js"/></defs><title>Cumulative Distribution function</title><g class="graph xy-graph vertical"><rect class="background" height="600" width="800" x="0" y="0"/><g class="plot" transform="translate(180, 46)"><rect class="background" height="484.0237715644639" width="567.8400053803903" x="0" y="0"/><g class="axis y"><g class="guides"><path class="axis major line" d="M0.000000 474.715622 h567.840005"/><text class="major" x="-5" y="478.215622111">0</text><title>0</title></g><g class="guides"><path class="guide line" d="M0.000000 428.174875 h567.840005"/><text class="" x="-5" y="431.674874845">10</text><title>10</title></g><g class="guides"><path class="guide line" d="M0.000000 381.634128 h567.840005"/><text class="" x="-5" y="385.13412758">20</text><title>20</title></g><g class="guides"><path class="guide line" d="M0.000000 335.093380 h567.840005"/><text class="" x="-5" y="338.593380314">30</text><title>30</title></g><g class="guides"><path class="guide line" d="M0.000000 288.552633 h567.840005"/><text class="" x="-5" y="292.052633048">40</text><title>40</title></g><g class="guides"><path class="major guide line" d="M0.000000 242.011886 h567.840005"/><text class="major" x="-5" y="245.511885782">50</text><title>50</title></g><g class="guides"><path class="guide line" d="M0.000000 195.471139 h567.840005"/><text class="" x="-5" y="198.971138516">60</text><title>60</title></g><g class="guides"><path class="guide line" d="M0.000000 148.930391 h567.840005"/><text class="" x="-5" y="152.430391251">70</text><title>70</title></g><g class="guides"><path class="guide line" d="M0.000000 102.389644 h567.840005"/><text class="" x="-5" y="105.889643985">80</text><title>80</title></g><g class="guides"><path class="guide line" d="M0.000000 55.848897 h567.840005"/><text class="" x="-5" y="59.348896719">90</text><title>90</title></g><g class="guides"><path class="major guide line" d="M0.000000 9.308149 h567.840005"/><text class="major" x="-5" y="12.8081494532">100</text><title>100</title></g></g><g class="axis x"><path class="line" d="M0.000000 0.000000 v484.023772"/><g class="guides"><path class="guide line" d="M47.977057 0.000000 v484.023772"/><text class="" x="47.9770572871" y="499.0237715644639" transform="rotate(15 47.977057 499.023772)">40000000</text><title>40000000</title></g><g class="guides"><path class="guide line" d="M107.451799 0.000000 v484.023772"/><text class="" x="107.451799241" y="499.0237715644639" transform="rotate(15 107.451799 499.023772)">60000000</text><title>60000000</title></g><g class="guides"><path class="guide line" d="M166.926541 0.000000 v484.023772"/><text class="" x="166.926541195" y="499.0237715644639" transform="rotate(15 166.926541 499.023772)">80000000</text><title>80000000</title></g><g class="guides"><path class="guide line" d="M226.401283 0.000000 v484.023772"/><text class="" x="226.401283149" y="499.0237715644639" transform="rotate(15 226.401283 499.023772)">100000000</text><title>100000000</title></g><g class="guides"><path class="guide line" d="M285.876025 0.000000 v484.023772"/><text class="" x="285.876025103" y="499.0237715644639" transform="rotate(15 285.876025 499.023772)">120000000</text><title>120000000</title></g><g class="guides"><path class="guide line" d="M345.350767 0.000000 v484.023772"/><text class="" x="345.350767056" y="499.0237715644639" transform="rotate(15 345.350767 499.023772)">140000000</text><title>140000000</title></g><g class="guides"><path class="guide line" d="M404.825509 0.000000 v484.023772"/><text class="" x="404.82550901" y="499.0237715644639" transform="rotate(15 404.825509 499.023772)">160000000</text><title>160000000</title></g><g class="guides"><path class="guide line" d="M464.300251 0.000000 v484.023772"/><text class="" x="464.300250964" y="499.0237715644639" transform="rotate(15 464.300251 499.023772)">180000000</text><title>180000000</title></g><g class="guides"><path class="guide line" d="M523.774993 0.000000 v484.023772"/><text class="" x="523.774992918" y="499.0237715644639" transform="rotate(15 523.774993 499.023772)">200000000</text><title>200000000</title></g></g><g class="series serie-0 color-0"><path class="line reactive nofill" d="M54.274875 474.715622 L55.056602 462.782097 57.599261 450.848572 59.901047 438.915047 60.820571 426.981522 68.083316 415.047997 68.406981 403.114472 69.532161 391.180948 72.717439 379.247423 72.799677 367.313898 72.856992 355.380373 75.324276 343.446848 76.050505 331.513323 78.755615 319.579798 81.880906 307.646273 82.466316 295.712748 83.502645 283.779223 83.713709 271.845698 85.271270 259.912173 89.182832 247.978648 89.401253 236.045123 97.657214 224.111598 310.479132 212.178073 319.628663 200.244548 320.077818 188.311024 328.950970 176.377499 338.482454 164.443974 341.465963 152.510449 356.539142 140.576924 362.834440 128.643399 364.634108 116.709874 378.809809 104.776349 381.773176 92.842824 389.000564 80.909299 394.260674 68.975774 394.642224 57.042249 395.850295 45.108724 397.817733 33.175199 400.500501 21.241674 417.342105 9.308149"/></g><g class="series serie-1 color-1"><path class="line reactive nofill" d="M10.920000 474.715622 L14.972165 462.782097 25.339247 450.848572 35.966677 438.915047 69.000718 426.981522 72.112362 415.047997 72.613479 403.114472 73.982513 391.180948 74.875582 379.247423 81.377154 367.313898 81.547175 355.380373 90.929532 343.446848 92.773281 331.513323 101.355345 319.579798 103.516877 307.646273 111.185514 295.712748 163.633345 283.779223 179.671472 271.845698 195.331146 259.912173 203.453768 247.978648 205.541345 236.045123 217.975260 224.111598 363.354349 212.178073 384.626191 200.244548 406.358187 188.311024 407.125656 176.377499 415.205462 164.443974 415.503463 152.510449 416.747441 140.576924 416.829885 128.643399 419.041504 116.709874 426.753081 104.776349 433.996271 92.842824 440.805311 80.909299 442.598034 68.975774 473.469305 57.042249 486.952597 45.108724 516.991461 33.175199 519.939327 21.241674 556.920005 9.308149"/></g><g class="series serie-2 color-2"><path class="line reactive nofill" d="M10.920000 474.715622 L11.466547 474.715622 12.013093 474.715622 12.559640 474.715622 13.106186 474.715622 13.652733 474.715622 14.199279 474.715622 14.745826 474.715622 15.292373 474.715622 15.838919 474.715622 16.385466 474.715622 16.932012 474.715622 17.478559 474.715622 18.025105 474.715622 18.571652 474.715622 19.118198 474.715622 19.664745 474.715622 20.211291 474.715622 20.757838 474.715622 21.304385 474.715622 21.850931 474.715622 22.397478 474.715622 22.944024 474.715622 23.490571 474.715622 24.037117 474.715622 24.583664 474.715622 25.130210 474.715622 25.676757 474.715622 26.223304 474.715622 26.769850 474.715622 27.316397 474.715622 27.862943 474.715622 28.409490 474.715622 28.956036 474.715622 29.502583 474.715622 30.049129 474.715622 30.595676 474.715622 31.142223 474.715622 31.688769 474.715622 32.235316 474.715622 32.781862 474.715622 33.328409 474.715622 33.874955 474.715622 34.421502 474.715622 34.968048 474.715622 35.514595 474.715622 36.061141 474.715622 36.607688 474.715622 37.154235 474.715622 37.700781 474.715622 38.247328 474.715622 38.793874 474.715622 39.340421 474.715622 39.886967 474.715622 40.433514 474.715622 40.980060 474.715622 41.526607 474.715622 42.073154 474.715622 42.619700 474.715622 43.166247 474.715622 43.712793 474.715622 44.259340 474.715622 44.805886 474.715622 45.352433 474.715622 45.898979 474.715622 46.445526 474.715622 46.992073 474.715622 47.538619 474.715622 48.085166 474.715622 48.631712 474.715622 49.178259 474.715622 49.724805 474.715622 50.271352 474.715622 50.817898 474.715622 51.364445 474.715622 51.910991 474.715622 52.457538 474.715622 53.004085 474.715622 53.550631 474.715622 54.097178 474.715622 54.643724 468.153926 55.190271 461.769157 55.736817 458.443635 56.283364 456.036995 56.829910 454.024351 57.376457 451.880819 57.923004 449.336806 58.469550 446.976382 59.016097 444.464531 59.562643 441.347283 60.109190 436.507091 60.655736 428.208057 61.202283 425.719172 61.748829 424.322207 62.295376 423.329733 62.841923 422.654019 63.388469 422.207335 63.935016 421.901950 64.481562 421.650134 65.028109 421.364156 65.574655 420.956285 66.121202 420.338792 66.667748 419.423945 67.214295 418.124014 67.760841 416.351269 68.307388 406.591851 68.853935 396.623805 69.400481 391.998697 69.947028 389.236280 70.493574 387.883001 71.040121 387.109691 71.586667 386.052795 72.133214 383.848755 72.679760 379.634013 73.226307 351.422470 73.772854 348.524556 74.319400 347.407682 74.865947 346.108654 75.412493 342.470204 75.959040 332.496631 76.505586 328.411886 77.052133 325.667052 77.598679 323.599746 78.145226 321.794914 78.691773 319.837499 79.238319 317.879033 79.784866 316.383811 80.331412 314.951932 80.877959 313.173594 81.424505 310.638993 81.971052 306.570113 82.517598 294.982093 83.064145 290.032924 83.610691 277.474158 84.157238 266.118847 84.703785 262.378418 85.250331 260.008731 85.796878 257.973532 86.343424 256.767083 86.889971 255.979543 87.436517 255.199334 87.983064 254.014880 88.529610 252.014601 89.076157 248.786919 89.622704 235.177049 90.169250 233.223043 90.715797 231.522443 91.262343 230.056815 91.808890 228.807723 92.355436 227.756734 92.901983 226.885412 93.448529 226.175323 93.995076 225.608032 94.541623 225.165104 95.088169 224.828105 95.634716 224.578600 96.181262 224.398154 96.727809 224.268333 97.274355 224.170701 97.820902 224.086905 98.367448 224.004970 98.913995 223.923826 99.460541 223.843468 100.007088 223.763892 100.553635 223.685094 101.100181 223.607070 101.646728 223.529816 102.193274 223.453327 102.739821 223.377601 103.286367 223.302632 103.832914 223.228416 104.379460 223.154950 104.926007 223.082230 105.472554 223.010251 106.019100 222.939009 106.565647 222.868500 107.112193 222.798721 107.658740 222.729667 108.205286 222.661333 108.751833 222.593717 109.298379 222.526813 109.844926 222.460618 110.391473 222.395128 110.938019 222.330339 111.484566 222.266246 112.031112 222.202845 112.577659 222.140133 113.124205 222.078105 113.670752 222.016757 114.217298 221.956086 114.763845 221.896087 115.310391 221.836755 115.856938 221.778088 116.403485 221.720081 116.950031 221.662729 117.496578 221.606029 118.043124 221.549977 118.589671 221.494568 119.136217 221.439799 119.682764 221.385665 120.229310 221.332163 120.775857 221.279287 121.322404 221.227035 121.868950 221.175403 122.415497 221.124385 122.962043 221.073978 123.508590 221.024178 124.055136 220.974981 124.601683 220.926383 125.148229 220.878379 125.694776 220.830966 126.241323 220.784139 126.787869 220.737895 127.334416 220.692230 127.880962 220.647138 128.427509 220.602617 128.974055 220.558662 129.520602 220.515269 130.067148 220.472434 130.613695 220.430153 131.160241 220.388422 131.706788 220.347237 132.253335 220.306593 132.799881 220.266487 133.346428 220.226915 133.892974 220.187872 134.439521 220.149355 134.986067 220.111358 135.532614 220.073879 136.079160 220.036914 136.625707 220.000457 137.172254 219.964506 137.718800 219.929055 138.265347 219.894101 138.811893 219.859640 139.358440 219.825668 139.904986 219.792181 140.451533 219.759174 140.998079 219.726644 141.544626 219.694586 142.091173 219.662996 142.637719 219.631871 143.184266 219.601206 143.730812 219.570997 144.277359 219.541240 144.823905 219.511931 145.370452 219.483066 145.916998 219.454641 146.463545 219.426652 147.010091 219.399094 147.556638 219.371964 148.103185 219.345258 148.649731 219.318971 149.196278 219.293099 149.742824 219.267639 150.289371 219.242586 150.835917 219.217936 151.382464 219.193686 151.929010 219.169830 152.475557 219.146365 153.022104 219.123287 153.568650 219.100592 154.115197 219.078276 154.661743 219.056334 155.208290 219.034763 155.754836 219.013559 156.301383 218.992717 156.847929 218.972233 157.394476 218.952103 157.941023 218.932324 158.487569 218.912891 159.034116 218.893800 159.580662 218.875047 160.127209 218.856628 160.673755 218.838538 161.220302 218.820775 161.766848 218.803333 162.313395 218.786208 162.859941 218.769397 163.406488 218.752896 163.953035 218.736700 164.499581 218.720806 165.046128 218.705208 165.592674 218.689904 166.139221 218.674889 166.685767 218.660159 167.232314 218.645710 167.778860 218.631537 168.325407 218.617638 168.871954 218.604007 169.418500 218.590641 169.965047 218.577535 170.511593 218.564686 171.058140 218.552089 171.604686 218.539741 172.151233 218.527637 172.697779 218.515773 173.244326 218.504145 173.790873 218.492750 174.337419 218.481582 174.883966 218.470638 175.430512 218.459914 175.977059 218.449406 176.523605 218.439109 177.070152 218.429020 177.616698 218.419135 178.163245 218.409449 178.709791 218.399958 179.256338 218.390659 179.802885 218.381546 180.349431 218.372617 180.895978 218.363867 181.442524 218.355293 181.989071 218.346889 182.535617 218.338651 183.082164 218.330577 183.628710 218.322661 184.175257 218.314900 184.721804 218.307290 185.268350 218.299826 185.814897 218.292504 186.361443 218.285321 186.907990 218.278272 187.454536 218.271353 188.001083 218.264561 188.547629 218.257890 189.094176 218.251337 189.640723 218.244898 190.187269 218.238569 190.733816 218.232346 191.280362 218.226225 191.826909 218.220201 192.373455 218.214270 192.920002 218.208429 193.466548 218.202673 194.013095 218.196999 194.559641 218.191401 195.106188 218.185877 195.652735 218.180422 196.199281 218.175032 196.745828 218.169703 197.292374 218.164431 197.838921 218.159211 198.385467 218.154041 198.932014 218.148914 199.478560 218.143829 200.025107 218.138779 200.571654 218.133763 201.118200 218.128774 201.664747 218.123810 202.211293 218.118866 202.757840 218.113938 203.304386 218.109022 203.850933 218.104114 204.397479 218.099210 204.944026 218.094305 205.490573 218.089397 206.037119 218.084480 206.583666 218.079550 207.130212 218.074604 207.676759 218.069638 208.223305 218.064647 208.769852 218.059627 209.316398 218.054574 209.862945 218.049485 210.409491 218.044354 210.956038 218.039179 211.502585 218.033954 212.049131 218.028676 212.595678 218.023341 213.142224 218.017945 213.688771 218.012483 214.235317 218.006952 214.781864 218.001347 215.328410 217.995665 215.874957 217.989901 216.421504 217.984051 216.968050 217.978111 217.514597 217.972078 218.061143 217.965946 218.607690 217.959712 219.154236 217.953373 219.700783 217.946922 220.247329 217.940358 220.793876 217.933675 221.340423 217.926870 221.886969 217.919939 222.433516 217.912877 222.980062 217.905680 223.526609 217.898344 224.073155 217.890866 224.619702 217.883240 225.166248 217.875464 225.712795 217.867533 226.259341 217.859442 226.805888 217.851189 227.352435 217.842768 227.898981 217.834175 228.445528 217.825408 228.992074 217.816461 229.538621 217.807330 230.085167 217.798012 230.631714 217.788502 231.178260 217.778796 231.724807 217.768890 232.271354 217.758781 232.817900 217.748463 233.364447 217.737934 233.910993 217.727188 234.457540 217.716222 235.004086 217.705031 235.550633 217.693613 236.097179 217.681961 236.643726 217.670074 237.190273 217.657945 237.736819 217.645572 238.283366 217.632951 238.829912 217.620076 239.376459 217.606945 239.923005 217.593552 240.469552 217.579895 241.016098 217.565968 241.562645 217.551768 242.109191 217.537291 242.655738 217.522533 243.202285 217.507489 243.748831 217.492156 244.295378 217.476529 244.841924 217.460604 245.388471 217.444378 245.935017 217.427846 246.481564 217.411004 247.028110 217.393848 247.574657 217.376374 248.121204 217.358578 248.667750 217.340456 249.214297 217.322004 249.760843 217.303217 250.307390 217.284092 250.853936 217.264624 251.400483 217.244810 251.947029 217.224645 252.493576 217.204126 253.040123 217.183248 253.586669 217.162007 254.133216 217.140399 254.679762 217.118420 255.226309 217.096066 255.772855 217.073333 256.319402 217.050216 256.865948 217.026713 257.412495 217.002818 257.959041 216.978528 258.505588 216.953838 259.052135 216.928744 259.598681 216.903243 260.145228 216.877330 260.691774 216.851001 261.238321 216.824253 261.784867 216.797080 262.331414 216.769480 262.877960 216.741447 263.424507 216.712978 263.971054 216.684069 264.517600 216.654716 265.064147 216.624914 265.610693 216.594660 266.157240 216.563949 266.703786 216.532777 267.250333 216.501141 267.796879 216.469036 268.343426 216.436458 268.889973 216.403403 269.436519 216.369868 269.983066 216.335847 270.529612 216.301337 271.076159 216.266334 271.622705 216.230833 272.169252 216.194831 272.715798 216.158324 273.262345 216.121307 273.808891 216.083777 274.355438 216.045729 274.901985 216.007159 275.448531 215.968063 275.995078 215.928438 276.541624 215.888278 277.088171 215.847581 277.634717 215.806341 278.181264 215.764555 278.727810 215.722219 279.274357 215.679329 279.820904 215.635880 280.367450 215.591868 280.913997 215.547290 281.460543 215.502142 282.007090 215.456418 282.553636 215.410116 283.100183 215.363231 283.646729 215.315759 284.193276 215.267697 284.739823 215.219039 285.286369 215.169781 285.832916 215.119921 286.379462 215.069453 286.926009 215.018374 287.472555 214.966680 288.019102 214.914366 288.565648 214.861428 289.112195 214.807863 289.658741 214.753665 290.205288 214.698832 290.751835 214.643360 291.298381 214.587243 291.844928 214.530478 292.391474 214.473061 292.938021 214.414988 293.484567 214.356254 294.031114 214.296856 294.577660 214.236790 295.124207 214.176051 295.670754 214.114636 296.217300 214.052540 296.763847 213.989759 297.310393 213.926289 297.856940 213.862127 298.403486 213.797268 298.950033 213.731707 299.496579 213.665442 300.043126 213.598467 300.589673 213.530779 301.136219 213.462374 301.682766 213.393247 302.229312 213.323395 302.775859 213.252813 303.322405 213.181498 303.868952 213.109445 304.415498 213.036650 304.962045 212.963110 305.508591 212.888819 306.055138 212.813775 306.601685 212.737972 307.148231 212.661407 307.694778 212.584076 308.241324 212.505975 308.787871 212.427100 309.334417 212.347445 309.880964 212.267009 310.427510 212.185786 310.974057 212.097622 311.520604 211.986900 312.067150 211.842275 312.613697 211.652454 313.160243 211.406142 313.706790 211.092045 314.253336 210.698870 314.799883 210.215322 315.346429 209.630108 315.892976 208.931934 316.439523 208.109506 316.986069 207.151530 317.532616 206.046712 318.079162 204.783758 318.625709 203.351374 319.172255 201.738267 319.718802 198.849264 320.265348 187.668210 320.811895 185.979120 321.358441 184.543899 321.904988 183.336105 322.451535 182.329298 322.998081 181.497037 323.544628 180.812879 324.091174 180.250385 324.637721 179.783112 325.184267 179.384620 325.730814 179.028467 326.277360 178.688212 326.823907 178.337415 327.370454 177.949633 327.917000 177.498426 328.463547 176.957352 329.010093 176.301136 329.556640 175.625623 330.103186 174.998198 330.649733 174.409244 331.196279 173.849145 331.742826 173.308284 332.289373 172.777045 332.835919 172.245810 333.382466 171.704963 333.929012 171.144887 334.475559 170.555966 335.022105 169.928582 335.568652 169.253120 336.115198 168.519962 336.661745 167.719491 337.208291 166.842092 337.754838 165.878147 338.301385 164.818039 338.847931 163.421093 339.394478 161.158497 339.941024 158.442995 340.487571 155.752971 341.034117 153.566810 341.580664 152.333869 342.127210 151.536996 342.673757 150.810058 343.220304 150.148080 343.766850 149.546085 344.313397 148.999099 344.859943 148.502145 345.406490 148.050248 345.953036 147.638432 346.499583 147.261721 347.046129 146.915139 347.592676 146.593710 348.139223 146.292460 348.685769 146.006412 349.232316 145.730590 349.778862 145.460018 350.325409 145.189721 350.871955 144.914724 351.418502 144.630049 351.965048 144.330723 352.511595 144.011768 353.058141 143.668209 353.604688 143.295070 354.151235 142.887376 354.697781 142.440150 355.244328 141.948418 355.790874 141.407202 356.337421 140.811529 356.883967 140.167486 357.430514 139.505615 357.977060 138.813201 358.523607 138.073473 359.070154 137.269661 359.616700 136.384994 360.163247 135.402702 360.709793 134.306016 361.256340 133.078165 361.802886 131.702378 362.349433 130.161886 362.895979 128.417650 363.442526 124.854835 363.989073 120.218464 364.535619 116.960797 365.082166 115.912404 365.628712 115.041259 366.175259 114.273510 366.721805 113.600343 367.268352 113.012943 367.814898 112.502497 368.361445 112.060189 368.907991 111.677206 369.454538 111.344732 370.001085 111.053954 370.547631 110.796057 371.094178 110.562227 371.640724 110.343648 372.187271 110.131508 372.733817 109.916991 373.280364 109.691283 373.826910 109.445569 374.373457 109.171036 374.920004 108.858868 375.466550 108.500252 376.013097 108.086373 376.559643 107.608416 377.106190 107.057567 377.652736 106.425011 378.199283 105.701935 378.745829 104.879524 379.292376 103.544348 379.838923 101.326371 380.385469 98.657242 380.932016 95.976749 381.478562 93.724681 382.025109 92.232990 382.571655 91.017880 383.118202 89.933336 383.664748 88.958502 384.211295 88.072524 384.757841 87.254547 385.304388 86.483716 385.850935 85.739176 386.397481 85.000071 386.944028 84.245547 387.490574 83.454749 388.037121 82.606822 388.583667 81.680911 389.130214 80.667772 389.676760 79.805583 390.223307 79.115677 390.769854 78.490961 391.316400 77.824345 391.862947 77.008733 392.409493 75.937035 392.956040 74.502157 393.502586 72.597006 394.049133 70.114489 394.595679 58.095686 395.142226 50.696714 395.688773 46.311725 396.235319 42.321635 396.781866 38.838774 397.328412 35.750781 397.874959 32.877361 398.421505 29.914271 398.968052 26.950546 399.514598 24.291178 400.061145 22.241157 400.607691 21.083361 401.154238 20.293885 401.700785 19.533895 402.247331 18.803166 402.793878 18.101473 403.340424 17.428592 403.886971 16.784298 404.433517 16.168365 404.980064 15.580569 405.526610 15.020685 406.073157 14.488487 406.619704 13.983753 407.166250 13.506255 407.712797 13.055770 408.259343 12.632073 408.805890 12.234938 409.352436 11.864141 409.898983 11.519457 410.445529 11.200661 410.992076 10.907528 411.538623 10.639834 412.085169 10.397353 412.631716 10.179860 413.178262 9.987131 413.724809 9.818941 414.271355 9.675065 414.817902 9.555278 415.364448 9.459356 415.910995 9.387072 416.457541 9.338203 417.004088 9.312524 417.550635 9.308149 418.097181 9.308149 418.643728 9.308149 419.190274 9.308149 419.736821 9.308149 420.283367 9.308149 420.829914 9.308149 421.376460 9.308149 421.923007 9.308149 422.469554 9.308149 423.016100 9.308149 423.562647 9.308149 424.109193 9.308149 424.655740 9.308149 425.202286 9.308149 425.748833 9.308149 426.295379 9.308149 426.841926 9.308149 427.388473 9.308149 427.935019 9.308149 428.481566 9.308149 429.028112 9.308149 429.574659 9.308149 430.121205 9.308149 430.667752 9.308149 431.214298 9.308149 431.760845 9.308149 432.307391 9.308149 432.853938 9.308149 433.400485 9.308149 433.947031 9.308149 434.493578 9.308149 435.040124 9.308149 435.586671 9.308149 436.133217 9.308149 436.679764 9.308149 437.226310 9.308149 437.772857 9.308149 438.319404 9.308149 438.865950 9.308149 439.412497 9.308149 439.959043 9.308149 440.505590 9.308149 441.052136 9.308149 441.598683 9.308149 442.145229 9.308149 442.691776 9.308149 443.238323 9.308149 443.784869 9.308149 444.331416 9.308149 444.877962 9.308149 445.424509 9.308149 445.971055 9.308149 446.517602 9.308149 447.064148 9.308149 447.610695 9.308149 448.157241 9.308149 448.703788 9.308149 449.250335 9.308149 449.796881 9.308149 450.343428 9.308149 450.889974 9.308149 451.436521 9.308149 451.983067 9.308149 452.529614 9.308149 453.076160 9.308149 453.622707 9.308149 454.169254 9.308149 454.715800 9.308149 455.262347 9.308149 455.808893 9.308149 456.355440 9.308149 456.901986 9.308149 457.448533 9.308149 457.995079 9.308149 458.541626 9.308149 459.088173 9.308149 459.634719 9.308149 460.181266 9.308149 460.727812 9.308149 461.274359 9.308149 461.820905 9.308149 462.367452 9.308149 462.913998 9.308149 463.460545 9.308149 464.007091 9.308149 464.553638 9.308149 465.100185 9.308149 465.646731 9.308149 466.193278 9.308149 466.739824 9.308149 467.286371 9.308149 467.832917 9.308149 468.379464 9.308149 468.926010 9.308149 469.472557 9.308149 470.019104 9.308149 470.565650 9.308149 471.112197 9.308149 471.658743 9.308149 472.205290 9.308149 472.751836 9.308149 473.298383 9.308149 473.844929 9.308149 474.391476 9.308149 474.938023 9.308149 475.484569 9.308149 476.031116 9.308149 476.577662 9.308149 477.124209 9.308149 477.670755 9.308149 478.217302 9.308149 478.763848 9.308149 479.310395 9.308149 479.856941 9.308149 480.403488 9.308149 480.950035 9.308149 481.496581 9.308149 482.043128 9.308149 482.589674 9.308149 483.136221 9.308149 483.682767 9.308149 484.229314 9.308149 484.775860 9.308149 485.322407 9.308149 485.868954 9.308149 486.415500 9.308149 486.962047 9.308149 487.508593 9.308149 488.055140 9.308149 488.601686 9.308149 489.148233 9.308149 489.694779 9.308149 490.241326 9.308149 490.787873 9.308149 491.334419 9.308149 491.880966 9.308149 492.427512 9.308149 492.974059 9.308149 493.520605 9.308149 494.067152 9.308149 494.613698 9.308149 495.160245 9.308149 495.706791 9.308149 496.253338 9.308149 496.799885 9.308149 497.346431 9.308149 497.892978 9.308149 498.439524 9.308149 498.986071 9.308149 499.532617 9.308149 500.079164 9.308149 500.625710 9.308149 501.172257 9.308149 501.718804 9.308149 502.265350 9.308149 502.811897 9.308149 503.358443 9.308149 503.904990 9.308149 504.451536 9.308149 504.998083 9.308149 505.544629 9.308149 506.091176 9.308149 506.637723 9.308149 507.184269 9.308149 507.730816 9.308149 508.277362 9.308149 508.823909 9.308149 509.370455 9.308149 509.917002 9.308149 510.463548 9.308149 511.010095 9.308149 511.556641 9.308149 512.103188 9.308149 512.649735 9.308149 513.196281 9.308149 513.742828 9.308149 514.289374 9.308149 514.835921 9.308149 515.382467 9.308149 515.929014 9.308149 516.475560 9.308149 517.022107 9.308149 517.568654 9.308149 518.115200 9.308149 518.661747 9.308149 519.208293 9.308149 519.754840 9.308149 520.301386 9.308149 520.847933 9.308149 521.394479 9.308149 521.941026 9.308149 522.487573 9.308149 523.034119 9.308149 523.580666 9.308149 524.127212 9.308149 524.673759 9.308149 525.220305 9.308149 525.766852 9.308149 526.313398 9.308149 526.859945 9.308149 527.406491 9.308149 527.953038 9.308149 528.499585 9.308149 529.046131 9.308149 529.592678 9.308149 530.139224 9.308149 530.685771 9.308149 531.232317 9.308149 531.778864 9.308149 532.325410 9.308149 532.871957 9.308149 533.418504 9.308149 533.965050 9.308149 534.511597 9.308149 535.058143 9.308149 535.604690 9.308149 536.151236 9.308149 536.697783 9.308149 537.244329 9.308149 537.790876 9.308149 538.337423 9.308149 538.883969 9.308149 539.430516 9.308149 539.977062 9.308149 540.523609 9.308149 541.070155 9.308149 541.616702 9.308149 542.163248 9.308149 542.709795 9.308149 543.256341 9.308149 543.802888 9.308149 544.349435 9.308149 544.895981 9.308149 545.442528 9.308149 545.989074 9.308149 546.535621 9.308149 547.082167 9.308149 547.628714 9.308149 548.175260 9.308149 548.721807 9.308149 549.268354 9.308149 549.814900 9.308149 550.361447 9.308149 550.907993 9.308149 551.454540 9.308149 552.001086 9.308149 552.547633 9.308149 553.094179 9.308149 553.640726 9.308149 554.187273 9.308149 554.733819 9.308149 555.280366 9.308149 555.826912 9.308149 556.373459 9.308149 556.920005 9.308149"/></g><g class="series serie-3 color-3"><path class="line reactive nofill" d="M10.920000 474.715622 L11.466547 472.824798 12.013093 470.949262 12.559640 469.129138 13.106186 467.404549 13.652733 465.815619 14.199279 464.402472 14.745826 463.205231 15.292373 462.227766 15.838919 461.334204 16.385466 460.502240 16.932012 459.726379 17.478559 459.001124 18.025105 458.320981 18.571652 457.680453 19.118198 457.074046 19.664745 456.496264 20.211291 455.941611 20.757838 455.404591 21.304385 454.879710 21.850931 454.361472 22.397478 453.844381 22.944024 453.322942 23.490571 452.791659 24.037117 452.245036 24.583664 451.677579 25.130210 451.083792 25.676757 450.459724 26.223304 449.810169 26.769850 449.139899 27.316397 448.453335 27.862943 447.754897 28.409490 447.049004 28.956036 446.340079 29.502583 445.632540 30.049129 444.930809 30.595676 444.239306 31.142223 443.562451 31.688769 442.904666 32.235316 442.270369 32.781862 441.663982 33.328409 441.089926 33.874955 440.552620 34.421502 440.056485 34.968048 439.605942 35.514595 439.205410 36.061141 438.858702 36.607688 438.542820 37.154235 438.243719 37.700781 437.960742 38.247328 437.693231 38.793874 437.440528 39.340421 437.201976 39.886967 436.976917 40.433514 436.764694 40.980060 436.564649 41.526607 436.376124 42.073154 436.198463 42.619700 436.031006 43.166247 435.873098 43.712793 435.724080 44.259340 435.583295 44.805886 435.450084 45.352433 435.323792 45.898979 435.203759 46.445526 435.089329 46.992073 434.979843 47.538619 434.874645 48.085166 434.773077 48.631712 434.674481 49.178259 434.578199 49.724805 434.483574 50.271352 434.389949 50.817898 434.296666 51.364445 434.203067 51.910991 434.108495 52.457538 434.012292 53.004085 433.913800 53.550631 433.812363 54.097178 433.707322 54.643724 433.598020 55.190271 433.483800 55.736817 433.364003 56.283364 433.237972 56.829910 433.105050 57.376457 432.964579 57.923004 432.815902 58.469550 432.658361 59.016097 432.491298 59.562643 432.314056 60.109190 432.125977 60.655736 431.926403 61.202283 431.714678 61.748829 431.490144 62.295376 431.252142 62.841923 431.000016 63.388469 430.733107 63.935016 430.450759 64.481562 430.152314 65.028109 429.837114 65.574655 429.504501 66.121202 429.153818 66.667748 428.784408 67.214295 428.395613 67.760841 427.986774 68.307388 427.557236 68.853935 427.106340 69.400481 426.539386 69.947028 425.551358 70.493574 424.011231 71.040121 421.799226 71.586667 418.795563 72.133214 414.845967 72.679760 402.240752 73.226307 397.133504 73.772854 393.171190 74.319400 386.284545 74.865947 379.288110 75.412493 377.420094 75.959040 376.128126 76.505586 375.284165 77.052133 374.762271 77.598679 374.436504 78.145226 374.180927 78.691773 373.869598 79.238319 373.376579 79.784866 372.575930 80.331412 371.341712 80.877959 369.547986 81.424505 364.961099 81.971052 353.955868 82.517598 352.424194 83.064145 351.199317 83.610691 350.241404 84.157238 349.510623 84.703785 348.967141 85.250331 348.571127 85.796878 348.282748 86.343424 348.062173 86.889971 347.869569 87.436517 347.665103 87.983064 347.408944 88.529610 347.061260 89.076157 346.582217 89.622704 345.931985 90.169250 345.070731 90.715797 343.958623 91.262343 341.992421 91.808890 337.874025 92.355436 333.555659 92.901983 331.178049 93.448529 329.902385 93.995076 328.842710 94.541623 327.967100 95.088169 327.243633 95.634716 326.640386 96.181262 326.125435 96.727809 325.666859 97.274355 325.232735 97.820902 324.791140 98.367448 324.310150 98.913995 323.757844 99.460541 323.102299 100.007088 322.311592 100.553635 321.353800 101.100181 320.197000 101.646728 318.529814 102.193274 315.337245 102.739821 311.577364 103.286367 308.467940 103.832914 306.805429 104.379460 305.426826 104.926007 304.142701 105.472554 302.951615 106.019100 301.852128 106.565647 300.842801 107.112193 299.922194 107.658740 299.088867 108.205286 298.341381 108.751833 297.678296 109.298379 297.098172 109.844926 296.599571 110.391473 296.181051 110.938019 295.841174 111.484566 295.568229 112.031112 295.309986 112.577659 295.059217 113.124205 294.815775 113.670752 294.579510 114.217298 294.350275 114.763845 294.127920 115.310391 293.912299 115.856938 293.703261 116.403485 293.500659 116.950031 293.304344 117.496578 293.114168 118.043124 292.929982 118.589671 292.751638 119.136217 292.578988 119.682764 292.411883 120.229310 292.250175 120.775857 292.093716 121.322404 291.942356 121.868950 291.795947 122.415497 291.654342 122.962043 291.517391 123.508590 291.384947 124.055136 291.256860 124.601683 291.132983 125.148229 291.013167 125.694776 290.897263 126.241323 290.785124 126.787869 290.676600 127.334416 290.571543 127.880962 290.469806 128.427509 290.371239 128.974055 290.275694 129.520602 290.183022 130.067148 290.093076 130.613695 290.005707 131.160241 289.920766 131.706788 289.838105 132.253335 289.757575 132.799881 289.679029 133.346428 289.602317 133.892974 289.527292 134.439521 289.453805 134.986067 289.381707 135.532614 289.310850 136.079160 289.241086 136.625707 289.172266 137.172254 289.104241 137.718800 289.036865 138.265347 288.969987 138.811893 288.903459 139.358440 288.837134 139.904986 288.770862 140.451533 288.704496 140.998079 288.637887 141.544626 288.570886 142.091173 288.503345 142.637719 288.435116 143.184266 288.366050 143.730812 288.295998 144.277359 288.224813 144.823905 288.152346 145.370452 288.078449 145.916998 288.002973 146.463545 287.925769 147.010091 287.846690 147.556638 287.765586 148.103185 287.682310 148.649731 287.596713 149.196278 287.508646 149.742824 287.417962 150.289371 287.324512 150.835917 287.228146 151.382464 287.128718 151.929010 287.026078 152.475557 286.920079 153.022104 286.810571 153.568650 286.697406 154.115197 286.580436 154.661743 286.459513 155.208290 286.334487 155.754836 286.205212 156.301383 286.071537 156.847929 285.933315 157.394476 285.790398 157.941023 285.642636 158.487569 285.489882 159.034116 285.331987 159.580662 285.168802 160.127209 285.000180 160.673755 284.825972 161.220302 284.646029 161.766848 284.460203 162.313395 284.268346 162.859941 284.070309 163.406488 283.865943 163.953035 283.651746 164.499581 283.413624 165.046128 283.151178 165.592674 282.865744 166.139221 282.558656 166.685767 282.231248 167.232314 281.884855 167.778860 281.520811 168.325407 281.140451 168.871954 280.745109 169.418500 280.336119 169.965047 279.914817 170.511593 279.482536 171.058140 279.040610 171.604686 278.590375 172.151233 278.133165 172.697779 277.670314 173.244326 277.203157 173.790873 276.733028 174.337419 276.261262 174.883966 275.789192 175.430512 275.318154 175.977059 274.849482 176.523605 274.384510 177.070152 273.924573 177.616698 273.471006 178.163245 273.025141 178.709791 272.588316 179.256338 272.161862 179.802885 271.747027 180.349431 271.342438 180.895978 270.946372 181.442524 270.557764 181.989071 270.175545 182.535617 269.798648 183.082164 269.426006 183.628710 269.056552 184.175257 268.689218 184.721804 268.322937 185.268350 267.956641 185.814897 267.589264 186.361443 267.219736 186.907990 266.846992 187.454536 266.469964 188.001083 266.087585 188.547629 265.698787 189.094176 265.302502 189.640723 264.897664 190.187269 264.483204 190.733816 264.058057 191.280362 263.621153 191.826909 263.171427 192.373455 262.707810 192.920002 262.229235 193.466548 261.734635 194.013095 261.222942 194.559641 260.693089 195.106188 260.144009 195.652735 259.581892 196.199281 259.032582 196.745828 258.488842 197.292374 257.939601 197.838921 257.373789 198.385467 256.780334 198.932014 256.148166 199.478560 255.466213 200.025107 254.723405 200.571654 253.908671 201.118200 253.010939 201.664747 252.019140 202.211293 250.922201 202.757840 249.709052 203.304386 248.368622 203.850933 246.279240 204.397479 242.580214 204.944026 238.696440 205.490573 236.158387 206.037119 235.089333 206.583666 234.092642 207.130212 233.154130 207.676759 232.272171 208.223305 231.445136 208.769852 230.671397 209.316398 229.949327 209.862945 229.277298 210.409491 228.653682 210.956038 228.076851 211.502585 227.545178 212.049131 227.057035 212.595678 226.610794 213.142224 226.204827 213.688771 225.837506 214.235317 225.507205 214.781864 225.212294 215.328410 224.951146 215.874957 224.722134 216.421504 224.523629 216.968050 224.354005 217.514597 224.211632 218.061143 224.094601 218.607690 223.987209 219.154236 223.881143 219.700783 223.776394 220.247329 223.672953 220.793876 223.570809 221.340423 223.469954 221.886969 223.370377 222.433516 223.272068 222.980062 223.175019 223.526609 223.079219 224.073155 222.984658 224.619702 222.891327 225.166248 222.799216 225.712795 222.708315 226.259341 222.618615 226.805888 222.530106 227.352435 222.442779 227.898981 222.356622 228.445528 222.271628 228.992074 222.187785 229.538621 222.105085 230.085167 222.023518 230.631714 221.943073 231.178260 221.863742 231.724807 221.785514 232.271354 221.708379 232.817900 221.632329 233.364447 221.557353 233.910993 221.483442 234.457540 221.410586 235.004086 221.338775 235.550633 221.267999 236.097179 221.198249 236.643726 221.129516 237.190273 221.061788 237.736819 220.995057 238.283366 220.929313 238.829912 220.864546 239.376459 220.800747 239.923005 220.737905 240.469552 220.676012 241.016098 220.615056 241.562645 220.555030 242.109191 220.495922 242.655738 220.437723 243.202285 220.380424 243.748831 220.324014 244.295378 220.268485 244.841924 220.213826 245.388471 220.160027 245.935017 220.107080 246.481564 220.054973 247.028110 220.003698 247.574657 219.953245 248.121204 219.903603 248.667750 219.854764 249.214297 219.806718 249.760843 219.759454 250.307390 219.712964 250.853936 219.667237 251.400483 219.622264 251.947029 219.578034 252.493576 219.534539 253.040123 219.491769 253.586669 219.449713 254.133216 219.408363 254.679762 219.367708 255.226309 219.327739 255.772855 219.288445 256.319402 219.249818 256.865948 219.211848 257.412495 219.174524 257.959041 219.137838 258.505588 219.101779 259.052135 219.066337 259.598681 219.031504 260.145228 218.997269 260.691774 218.963622 261.238321 218.930554 261.784867 218.898056 262.331414 218.866117 262.877960 218.834727 263.424507 218.803878 263.971054 218.773558 264.517600 218.743760 265.064147 218.714472 265.610693 218.685685 266.157240 218.657390 266.703786 218.629576 267.250333 218.602234 267.796879 218.575355 268.343426 218.548928 268.889973 218.522944 269.436519 218.497393 269.983066 218.472265 270.529612 218.447551 271.076159 218.423241 271.622705 218.399325 272.169252 218.375794 272.715798 218.352638 273.262345 218.329846 273.808891 218.307410 274.355438 218.285320 274.901985 218.263566 275.448531 218.242138 275.995078 218.221026 276.541624 218.200221 277.088171 218.179714 277.634717 218.159493 278.181264 218.139551 278.727810 218.119876 279.274357 218.100460 279.820904 218.081292 280.367450 218.062362 280.913997 218.043662 281.460543 218.025182 282.007090 218.006910 282.553636 217.988839 283.100183 217.970958 283.646729 217.953258 284.193276 217.935728 284.739823 217.918360 285.286369 217.901142 285.832916 217.884067 286.379462 217.867123 286.926009 217.850302 287.472555 217.833593 288.019102 217.816986 288.565648 217.800473 289.112195 217.784044 289.658741 217.767687 290.205288 217.751395 290.751835 217.735157 291.298381 217.718963 291.844928 217.702805 292.391474 217.686671 292.938021 217.670552 293.484567 217.654440 294.031114 217.638323 294.577660 217.622192 295.124207 217.606038 295.670754 217.589850 296.217300 217.573620 296.763847 217.557337 297.310393 217.540991 297.856940 217.524574 298.403486 217.508074 298.950033 217.491483 299.496579 217.474791 300.043126 217.457988 300.589673 217.441064 301.136219 217.424010 301.682766 217.406816 302.229312 217.389471 302.775859 217.371968 303.322405 217.354295 303.868952 217.336443 304.415498 217.318402 304.962045 217.300163 305.508591 217.281716 306.055138 217.263051 306.601685 217.244158 307.148231 217.225028 307.694778 217.205651 308.241324 217.186018 308.787871 217.166118 309.334417 217.145942 309.880964 217.125480 310.427510 217.104722 310.974057 217.083660 311.520604 217.062282 312.067150 217.040579 312.613697 217.018543 313.160243 216.996162 313.706790 216.973427 314.253336 216.950328 314.799883 216.926856 315.346429 216.903002 315.892976 216.878754 316.439523 216.854104 316.986069 216.829042 317.532616 216.803558 318.079162 216.777643 318.625709 216.751286 319.172255 216.724478 319.718802 216.697210 320.265348 216.669471 320.811895 216.641252 321.358441 216.612543 321.904988 216.583334 322.451535 216.553616 322.998081 216.523379 323.544628 216.492614 324.091174 216.461310 324.637721 216.429457 325.184267 216.397047 325.730814 216.364069 326.277360 216.330514 326.823907 216.296372 327.370454 216.261633 327.917000 216.226288 328.463547 216.190327 329.010093 216.153739 329.556640 216.116516 330.103186 216.078648 330.649733 216.040125 331.196279 216.000937 331.742826 215.961074 332.289373 215.920528 332.835919 215.879287 333.382466 215.837343 333.929012 215.794685 334.475559 215.751304 335.022105 215.707191 335.568652 215.662335 336.115198 215.616727 336.661745 215.570357 337.208291 215.523216 337.754838 215.475293 338.301385 215.426579 338.847931 215.377064 339.394478 215.326739 339.941024 215.275593 340.487571 215.223618 341.034117 215.170803 341.580664 215.117139 342.127210 215.062615 342.673757 215.007223 343.220304 214.950952 343.766850 214.893794 344.313397 214.835737 344.859943 214.776772 345.406490 214.716890 345.953036 214.656082 346.499583 214.594336 347.046129 214.531644 347.592676 214.467995 348.139223 214.403381 348.685769 214.337791 349.232316 214.271216 349.778862 214.203645 350.325409 214.135070 350.871955 214.065480 351.418502 213.994866 351.965048 213.923218 352.511595 213.850527 353.058141 213.776782 353.604688 213.701974 354.151235 213.626093 354.697781 213.549130 355.244328 213.471074 355.790874 213.391916 356.337421 213.311647 356.883967 213.230257 357.430514 213.147735 357.977060 213.064072 358.523607 212.979259 359.070154 212.893286 359.616700 212.806143 360.163247 212.717820 360.709793 212.628307 361.256340 212.537596 361.802886 212.445676 362.349433 212.352537 362.895979 212.258170 363.442526 212.162298 363.989073 212.052068 364.535619 211.921011 365.082166 211.769974 365.628712 211.599804 366.175259 211.411348 366.721805 211.205454 367.268352 210.982968 367.814898 210.744737 368.361445 210.491608 368.907991 210.224429 369.454538 209.944046 370.001085 209.651307 370.547631 209.347058 371.094178 209.032148 371.640724 208.707422 372.187271 208.373728 372.733817 208.031912 373.280364 207.682823 373.826910 207.327307 374.373457 206.966211 374.920004 206.600382 375.466550 206.230667 376.013097 205.857914 376.559643 205.482969 377.106190 205.106680 377.652736 204.729893 378.199283 204.353455 378.745829 203.978214 379.292376 203.605017 379.838923 203.234711 380.385469 202.868143 380.932016 202.506159 381.478562 202.149608 382.025109 201.799335 382.571655 201.456189 383.118202 201.121015 383.664748 200.794662 384.211295 200.477977 384.757841 200.172237 385.304388 199.887731 385.850935 199.627048 386.397481 199.388218 386.944028 199.169271 387.490574 198.968239 388.037121 198.783151 388.583667 198.612038 389.130214 198.452931 389.676760 198.303860 390.223307 198.162855 390.769854 198.027947 391.316400 197.897166 391.862947 197.768543 392.409493 197.640108 392.956040 197.509892 393.502586 197.375925 394.049133 197.236238 394.595679 197.088860 395.142226 196.931824 395.688773 196.763158 396.235319 196.580893 396.781866 196.383060 397.328412 196.167690 397.874959 195.932812 398.421505 195.676458 398.968052 195.396657 399.514598 195.091440 400.061145 194.758838 400.607691 194.396881 401.154238 194.003599 401.700785 193.577024 402.247331 193.115185 402.793878 192.616112 403.340424 192.077837 403.886971 191.498390 404.433517 190.875801 404.980064 190.208100 405.526610 189.493319 406.073157 188.729487 406.619704 185.133995 407.166250 176.237032 407.712797 174.592151 408.259343 173.358738 408.805890 172.468700 409.352436 171.853945 409.898983 171.446381 410.445529 171.177913 410.992076 170.980452 411.538623 170.785902 412.085169 170.526173 412.631716 170.133171 413.178262 169.538805 413.724809 168.674981 414.271355 167.473606 414.817902 165.866590 415.364448 158.440226 415.910995 148.416315 416.457541 145.424089 417.004088 126.309162 417.550635 121.311495 418.097181 118.837749 418.643728 117.589715 419.190274 116.317809 419.736821 114.985074 420.283367 113.806791 420.829914 112.763506 421.376460 111.835765 421.923007 111.004112 422.469554 110.249094 423.016100 109.551256 423.562647 108.891143 424.109193 108.249300 424.655740 107.606274 425.202286 106.942609 425.748833 106.238851 426.295379 105.475546 426.841926 104.634456 427.388473 103.759137 427.935019 102.879626 428.481566 101.995918 429.028112 101.108005 429.574659 100.215881 430.121205 99.319538 430.667752 98.418971 431.214298 97.514172 431.760845 96.605134 432.307391 95.691852 432.853938 94.774317 433.400485 93.852523 433.947031 92.926464 434.493578 92.040507 435.040124 91.240035 435.586671 90.497563 436.133217 89.785136 436.679764 89.074794 437.226310 88.338581 437.772857 87.548540 438.319404 86.676714 438.865950 85.695144 439.412497 84.575874 439.959043 83.290946 440.505590 81.812404 441.052136 79.747678 441.598683 75.389187 442.145229 70.858807 442.691776 68.883083 443.238323 68.358251 443.784869 67.859438 444.331416 67.385836 444.877962 66.936635 445.424509 66.511027 445.971055 66.108202 446.517602 65.727352 447.064148 65.367668 447.610695 65.028340 448.157241 64.708561 448.703788 64.407520 449.250335 64.124409 449.796881 63.858419 450.343428 63.608741 450.889974 63.374566 451.436521 63.155086 451.983067 62.949490 452.529614 62.756971 453.076160 62.576719 453.622707 62.407925 454.169254 62.249781 454.715800 62.101477 455.262347 61.962204 455.808893 61.831154 456.355440 61.707518 456.901986 61.590486 457.448533 61.479250 457.995079 61.373000 458.541626 61.270929 459.088173 61.172226 459.634719 61.076083 460.181266 60.981690 460.727812 60.888240 461.274359 60.794923 461.820905 60.700930 462.367452 60.605452 462.913998 60.507680 463.460545 60.406805 464.007091 60.302019 464.553638 60.192511 465.100185 60.077475 465.646731 59.956099 466.193278 59.827576 466.739824 59.691097 467.286371 59.545852 467.832917 59.391032 468.379464 59.225829 468.926010 59.049434 469.472557 58.861038 470.019104 58.659831 470.565650 58.445006 471.112197 58.215752 471.658743 57.971261 472.205290 57.710724 472.751836 57.433332 473.298383 57.138276 473.844929 56.819511 474.391476 56.462360 474.938023 56.069050 475.484569 55.642957 476.031116 55.187458 476.577662 54.705931 477.124209 54.201753 477.670755 53.678302 478.217302 53.138953 478.763848 52.587086 479.310395 52.026076 479.856941 51.459301 480.403488 50.890139 480.950035 50.321967 481.496581 49.758162 482.043128 49.202101 482.589674 48.657161 483.136221 48.126720 483.682767 47.614155 484.229314 47.122843 484.775860 46.656162 485.322407 46.217488 485.868954 45.810199 486.415500 45.437673 486.962047 45.103282 487.508593 44.797434 488.055140 44.508575 488.601686 44.235929 489.148233 43.978720 489.694779 43.736172 490.241326 43.507509 490.787873 43.291953 491.334419 43.088730 491.880966 42.897062 492.427512 42.716174 492.974059 42.545289 493.520605 42.383632 494.067152 42.230425 494.613698 42.084893 495.160245 41.946259 495.706791 41.813748 496.253338 41.686582 496.799885 41.563987 497.346431 41.445184 497.892978 41.329400 498.439524 41.215856 498.986071 41.103777 499.532617 40.992386 500.079164 40.880908 500.625710 40.768567 501.172257 40.654585 501.718804 40.538187 502.265350 40.418596 502.811897 40.295037 503.358443 40.166732 503.904990 40.032907 504.451536 39.892784 504.998083 39.745588 505.544629 39.590541 506.091176 39.426869 506.637723 39.253794 507.184269 39.070541 507.730816 38.876333 508.277362 38.670394 508.823909 38.451948 509.370455 38.220218 509.917002 37.974429 510.463548 37.713803 511.010095 37.437566 511.556641 37.144940 512.103188 36.835150 512.649735 36.507419 513.196281 36.160971 513.742828 35.795030 514.289374 35.408819 514.835921 35.001563 515.382467 34.572485 515.929014 34.120808 516.475560 33.645757 517.022107 33.143593 517.568654 31.705108 518.115200 29.102355 518.661747 26.053866 519.208293 23.278174 519.754840 21.493811 520.301386 20.958255 520.847933 20.538537 521.394479 20.128494 521.941026 19.728022 522.487573 19.337020 523.034119 18.955383 523.580666 18.583010 524.127212 18.219799 524.673759 17.865645 525.220305 17.520447 525.766852 17.184102 526.313398 16.856508 526.859945 16.537561 527.406491 16.227158 527.953038 15.925198 528.499585 15.631577 529.046131 15.346194 529.592678 15.068944 530.139224 14.799726 530.685771 14.538436 531.232317 14.284973 531.778864 14.039233 532.325410 13.801113 532.871957 13.570512 533.418504 13.347326 533.965050 13.131453 534.511597 12.922790 535.058143 12.721233 535.604690 12.526682 536.151236 12.339032 536.697783 12.158182 537.244329 11.984028 537.790876 11.816468 538.337423 11.655400 538.883969 11.500719 539.430516 11.352325 539.977062 11.210114 540.523609 11.073983 541.070155 10.943830 541.616702 10.819552 542.163248 10.701046 542.709795 10.588210 543.256341 10.480941 543.802888 10.379137 544.349435 10.282694 544.895981 10.191510 545.442528 10.105482 545.989074 10.024508 546.535621 9.948485 547.082167 9.877310 547.628714 9.810881 548.175260 9.749094 548.721807 9.691848 549.268354 9.639039 549.814900 9.590565 550.361447 9.546323 550.907993 9.506211 551.454540 9.470125 552.001086 9.437963 552.547633 9.409623 553.094179 9.385002 553.640726 9.363996 554.187273 9.346504 554.733819 9.332423 555.280366 9.321649 555.826912 9.314081 556.373459 9.309615 556.920005 9.308149"/></g></g><g class="titles"><text class="title plot_title" x="400.0" y="26">Cumulative Distribution function</text><text class="title" x="463.92000269019513" y="580.0">Throughput</text><text class="title" x="106.0" y="314.01188578223196" transform="rotate(-90 106.000000 288.011886)">Percentage of data</text></g><g class="plot overlay" transform="translate(180, 46)"><g class="series serie-0 color-0"/><g class="series serie-1 color-1"/><g class="series serie-2 color-2"/><g class="series serie-3 color-3"/></g><g class="plot text-overlay" transform="translate(180, 46)"><g class="series serie-0 color-0"/><g class="series serie-1 color-1"/><g class="series serie-2 color-2"/><g class="series serie-3 color-3"/></g><g class="plot tooltip-overlay" transform="translate(180, 46)"><g class="tooltip" style="opacity: 0" transform="translate(0 0)"><rect class="tooltip-box" height="0" rx="0" ry="0" width="0"/><g class="text"/></g></g><g class="legends" transform="translate(10, 56)"><g class="legend reactive activate-serie" id="activate-serie-0"><rect class="color-0 reactive" height="12" width="12" x="0.0" y="1.0"/><text x="17.0" y="11.2">Old 40</text></g><g class="legend reactive activate-serie" id="activate-serie-1"><rect class="color-1 reactive" height="12" width="12" x="0.0" y="22.0"/><text x="17.0" y="32.2">New 40</text></g><g class="legend reactive activate-serie" id="activate-serie-2"><rect class="color-2 reactive" height="12" width="12" x="0.0" y="43.0"/><text x="17.0" y="53.2">Fit Old 40</text></g><g class="legend reactive activate-serie" id="activate-serie-3"><rect class="color-3 reactive" height="12" width="12" x="0.0" y="64.0"/><text x="17.0" y="74.2">Fit New 40</text></g></g><g class="legends" transform="translate(757, 56)"/></g></svg>